<?xml version="1.0" encoding="utf-8" standalone="no"?>
<!DOCTYPE svg PUBLIC "-//W3C//DTD SVG 1.1//EN"
  "http://www.w3.org/Graphics/SVG/1.1/DTD/svg11.dtd">
<svg xmlns:xlink="http://www.w3.org/1999/xlink" width="421.348281pt" height="236.238437pt" viewBox="0 0 421.348281 236.238437" xmlns="http://www.w3.org/2000/svg" version="1.1">
 <metadata>
  <rdf:RDF xmlns:dc="http://purl.org/dc/elements/1.1/" xmlns:cc="http://creativecommons.org/ns#" xmlns:rdf="http://www.w3.org/1999/02/22-rdf-syntax-ns#">
   <cc:Work>
    <dc:type rdf:resource="http://purl.org/dc/dcmitype/StillImage"/>
    <dc:date>2026-06-04T15:42:27.923991</dc:date>
    <dc:format>image/svg+xml</dc:format>
    <dc:creator>
     <cc:Agent>
      <dc:title>Matplotlib v3.10.3, https://matplotlib.org/</dc:title>
     </cc:Agent>
    </dc:creator>
   </cc:Work>
  </rdf:RDF>
 </metadata>
 <defs>
  <style type="text/css">*{stroke-linejoin: round; stroke-linecap: butt}</style>
 </defs>
 <g id="figure_1">
  <g id="patch_1">
   <path d="M 0 236.238437 
L 421.348281 236.238437 
L 421.348281 0 
L 0 0 
z
" style="fill: #ffffff"/>
  </g>
  <g id="axes_1">
   <g id="patch_2">
    <path d="M 48.748281 198.36 
L 417.028281 198.36 
L 417.028281 4.32 
L 48.748281 4.32 
z
" style="fill: #ffffff"/>
   </g>
   <g id="line2d_1">
    <path d="M 48.748281 123.247742 
L 417.028281 123.247742 
" clip-path="url(#pbe5fb2ba0b)" style="fill: none; stroke: #c9ccd3; stroke-linecap: round"/>
   </g>
   <g id="matplotlib.axis_1">
    <g id="xtick_1">
     <g id="line2d_2">
      <defs>
       <path id="m2f4251778a" d="M 0 0 
L 0 4 
" style="stroke: #6b7280"/>
      </defs>
      <g>
       <use xlink:href="#m2f4251778a" x="56.706312" y="198.36" style="fill: #6b7280; stroke: #6b7280"/>
      </g>
     </g>
     <g id="text_1">
      <!-- 0 -->
      <g style="fill: #303030" transform="translate(53.741469 214.003437) scale(0.11 -0.11)">
       <defs>
        <path id="SegoeUI-30" d="M 3188 2259 
Q 3188 1697 3086 1262 
Q 2984 828 2792 529 
Q 2600 231 2320 76 
Q 2041 -78 1684 -78 
Q 1347 -78 1083 70 
Q 819 219 637 503 
Q 456 788 362 1202 
Q 269 1616 269 2150 
Q 269 2738 367 3188 
Q 466 3638 656 3942 
Q 847 4247 1130 4401 
Q 1413 4556 1778 4556 
Q 3188 4556 3188 2259 
z
M 2663 2209 
Q 2663 4122 1753 4122 
Q 794 4122 794 2175 
Q 794 359 1734 359 
Q 2663 359 2663 2209 
z
" transform="scale(0.015625)"/>
       </defs>
       <use xlink:href="#SegoeUI-30"/>
      </g>
     </g>
    </g>
    <g id="xtick_2">
     <g id="line2d_3">
      <g>
       <use xlink:href="#m2f4251778a" x="145.128881" y="198.36" style="fill: #6b7280; stroke: #6b7280"/>
      </g>
     </g>
     <g id="text_2">
      <!-- 2 -->
      <g style="fill: #303030" transform="translate(142.164038 214.003437) scale(0.11 -0.11)">
       <defs>
        <path id="SegoeUI-32" d="M 2413 3306 
Q 2413 3513 2348 3666 
Q 2284 3819 2173 3920 
Q 2063 4022 1913 4072 
Q 1763 4122 1588 4122 
Q 1438 4122 1294 4081 
Q 1150 4041 1014 3969 
Q 878 3897 751 3797 
Q 625 3697 516 3575 
L 516 4125 
Q 731 4334 998 4445 
Q 1266 4556 1650 4556 
Q 1925 4556 2159 4476 
Q 2394 4397 2566 4244 
Q 2738 4091 2836 3866 
Q 2934 3641 2934 3350 
Q 2934 3084 2873 2868 
Q 2813 2653 2689 2462 
Q 2566 2272 2378 2097 
Q 2191 1922 1938 1741 
Q 1622 1516 1417 1356 
Q 1213 1197 1092 1058 
Q 972 919 923 780 
Q 875 641 875 459 
L 3106 459 
L 3106 0 
L 341 0 
L 341 222 
Q 341 509 403 728 
Q 466 947 609 1144 
Q 753 1341 986 1537 
Q 1219 1734 1556 1981 
Q 1800 2156 1964 2315 
Q 2128 2475 2228 2634 
Q 2328 2794 2370 2958 
Q 2413 3122 2413 3306 
z
" transform="scale(0.015625)"/>
       </defs>
       <use xlink:href="#SegoeUI-32"/>
      </g>
     </g>
    </g>
    <g id="xtick_3">
     <g id="line2d_4">
      <g>
       <use xlink:href="#m2f4251778a" x="233.551451" y="198.36" style="fill: #6b7280; stroke: #6b7280"/>
      </g>
     </g>
     <g id="text_3">
      <!-- 4 -->
      <g style="fill: #303030" transform="translate(230.586607 214.003437) scale(0.11 -0.11)">
       <defs>
        <path id="SegoeUI-34" d="M 2656 4481 
L 2656 1522 
L 3231 1522 
L 3231 1053 
L 2656 1053 
L 2656 0 
L 2150 0 
L 2150 1053 
L 44 1053 
L 44 1497 
Q 338 1828 638 2204 
Q 938 2581 1211 2968 
Q 1484 3356 1717 3742 
Q 1950 4128 2109 4481 
L 2656 4481 
z
M 622 1522 
L 2150 1522 
L 2150 3716 
Q 1916 3306 1706 2984 
Q 1497 2663 1308 2400 
Q 1119 2138 947 1925 
Q 775 1713 622 1522 
z
" transform="scale(0.015625)"/>
       </defs>
       <use xlink:href="#SegoeUI-34"/>
      </g>
     </g>
    </g>
    <g id="xtick_4">
     <g id="line2d_5">
      <g>
       <use xlink:href="#m2f4251778a" x="321.97402" y="198.36" style="fill: #6b7280; stroke: #6b7280"/>
      </g>
     </g>
     <g id="text_4">
      <!-- 6 -->
      <g style="fill: #303030" transform="translate(319.009176 214.003437) scale(0.11 -0.11)">
       <defs>
        <path id="SegoeUI-36" d="M 3194 1422 
Q 3194 1094 3087 819 
Q 2981 544 2793 344 
Q 2606 144 2347 33 
Q 2088 -78 1784 -78 
Q 1447 -78 1180 62 
Q 913 203 727 467 
Q 541 731 444 1112 
Q 347 1494 347 1972 
Q 347 2556 476 3032 
Q 606 3509 845 3848 
Q 1084 4188 1421 4372 
Q 1759 4556 2175 4556 
Q 2638 4556 2919 4428 
L 2919 3944 
Q 2572 4122 2188 4122 
Q 1888 4122 1647 3987 
Q 1406 3853 1234 3608 
Q 1063 3363 970 3016 
Q 878 2669 878 2244 
L 891 2244 
Q 1200 2803 1913 2803 
Q 2206 2803 2442 2703 
Q 2678 2603 2845 2420 
Q 3013 2238 3103 1984 
Q 3194 1731 3194 1422 
z
M 2669 1356 
Q 2669 1591 2609 1778 
Q 2550 1966 2439 2097 
Q 2328 2228 2165 2298 
Q 2003 2369 1797 2369 
Q 1606 2369 1443 2297 
Q 1281 2225 1162 2101 
Q 1044 1978 976 1814 
Q 909 1650 909 1466 
Q 909 1234 975 1032 
Q 1041 831 1159 681 
Q 1278 531 1442 445 
Q 1606 359 1806 359 
Q 2000 359 2159 432 
Q 2319 506 2431 637 
Q 2544 769 2606 951 
Q 2669 1134 2669 1356 
z
" transform="scale(0.015625)"/>
       </defs>
       <use xlink:href="#SegoeUI-36"/>
      </g>
     </g>
    </g>
    <g id="xtick_5">
     <g id="line2d_6">
      <g>
       <use xlink:href="#m2f4251778a" x="410.396589" y="198.36" style="fill: #6b7280; stroke: #6b7280"/>
      </g>
     </g>
     <g id="text_5">
      <!-- 8 -->
      <g style="fill: #303030" transform="translate(407.431745 214.003437) scale(0.11 -0.11)">
       <defs>
        <path id="SegoeUI-38" d="M 281 1250 
Q 281 1428 337 1608 
Q 394 1788 498 1944 
Q 603 2100 758 2228 
Q 913 2356 1109 2431 
Q 819 2594 647 2848 
Q 475 3103 475 3413 
Q 475 3659 570 3868 
Q 666 4078 834 4231 
Q 1003 4384 1234 4470 
Q 1466 4556 1734 4556 
Q 2006 4556 2237 4468 
Q 2469 4381 2637 4228 
Q 2806 4075 2900 3865 
Q 2994 3656 2994 3413 
Q 2994 3103 2822 2848 
Q 2650 2594 2366 2431 
Q 2559 2356 2712 2228 
Q 2866 2100 2970 1944 
Q 3075 1788 3131 1608 
Q 3188 1428 3188 1250 
Q 3188 956 3081 712 
Q 2975 469 2783 295 
Q 2591 122 2323 25 
Q 2056 -72 1734 -72 
Q 1416 -72 1150 25 
Q 884 122 690 295 
Q 497 469 389 712 
Q 281 956 281 1250 
z
M 838 1294 
Q 838 1084 902 915 
Q 966 747 1083 628 
Q 1200 509 1367 445 
Q 1534 381 1738 381 
Q 1934 381 2100 447 
Q 2266 513 2386 631 
Q 2506 750 2573 919 
Q 2641 1088 2641 1294 
Q 2641 1481 2577 1645 
Q 2513 1809 2394 1934 
Q 2275 2059 2109 2131 
Q 1944 2203 1738 2203 
Q 1544 2203 1380 2136 
Q 1216 2069 1095 1948 
Q 975 1828 906 1661 
Q 838 1494 838 1294 
z
M 997 3372 
Q 997 3213 1055 3077 
Q 1113 2941 1214 2839 
Q 1316 2738 1450 2680 
Q 1584 2622 1738 2622 
Q 1891 2622 2027 2681 
Q 2163 2741 2263 2842 
Q 2363 2944 2422 3080 
Q 2481 3216 2481 3372 
Q 2481 3534 2423 3671 
Q 2366 3809 2266 3909 
Q 2166 4009 2030 4067 
Q 1894 4125 1738 4125 
Q 1572 4125 1436 4065 
Q 1300 4006 1201 3904 
Q 1103 3803 1050 3665 
Q 997 3528 997 3372 
z
" transform="scale(0.015625)"/>
       </defs>
       <use xlink:href="#SegoeUI-38"/>
      </g>
     </g>
    </g>
    <g id="text_6">
     <!-- lag $\tau$ -->
     <g style="fill: #303030" transform="translate(220.123281 229.158437) scale(0.115 -0.115)">
      <defs>
       <path id="SegoeUI-6c" d="M 1031 0 
L 519 0 
L 519 4738 
L 1031 4738 
L 1031 0 
z
" transform="scale(0.015625)"/>
       <path id="SegoeUI-61" d="M 2809 0 
L 2297 0 
L 2297 500 
L 2284 500 
Q 1950 -75 1300 -75 
Q 822 -75 551 178 
Q 281 431 281 850 
Q 281 1747 1338 1894 
L 2297 2028 
Q 2297 2844 1638 2844 
Q 1059 2844 594 2450 
L 594 2975 
Q 1066 3275 1681 3275 
Q 2809 3275 2809 2081 
L 2809 0 
z
M 2297 1619 
L 1525 1513 
Q 1169 1463 987 1336 
Q 806 1209 806 888 
Q 806 653 973 504 
Q 1141 356 1419 356 
Q 1800 356 2048 623 
Q 2297 891 2297 1300 
L 2297 1619 
z
" transform="scale(0.015625)"/>
       <path id="SegoeUI-67" d="M 3250 256 
Q 3250 -1506 1563 -1506 
Q 969 -1506 525 -1281 
L 525 -769 
Q 1066 -1069 1556 -1069 
Q 2738 -1069 2738 188 
L 2738 538 
L 2725 538 
Q 2359 -75 1625 -75 
Q 1028 -75 664 351 
Q 300 778 300 1497 
Q 300 2313 692 2794 
Q 1084 3275 1766 3275 
Q 2413 3275 2725 2756 
L 2738 2756 
L 2738 3200 
L 3250 3200 
L 3250 256 
z
M 2738 1447 
L 2738 1919 
Q 2738 2300 2480 2572 
Q 2222 2844 1838 2844 
Q 1363 2844 1094 2498 
Q 825 2153 825 1531 
Q 825 997 1083 676 
Q 1341 356 1766 356 
Q 2197 356 2467 662 
Q 2738 969 2738 1447 
z
" transform="scale(0.015625)"/>
       <path id="SegoeUI-20" transform="scale(0.015625)"/>
       <path id="DejaVuSans-Oblique-3c4" d="M 2103 638 
Q 2188 488 2525 488 
L 2800 488 
L 2706 0 
L 2363 0 
Q 1800 0 1600 300 
Q 1403 606 1534 1269 
L 1856 2925 
L 541 2925 
L 653 3500 
L 3881 3500 
L 3769 2925 
L 2444 2925 
L 2113 1234 
Q 2025 781 2103 638 
z
" transform="scale(0.015625)"/>
      </defs>
      <use xlink:href="#SegoeUI-6c" transform="translate(0 0.96875)"/>
      <use xlink:href="#SegoeUI-61" transform="translate(24.21875 0.96875)"/>
      <use xlink:href="#SegoeUI-67" transform="translate(75.097656 0.96875)"/>
      <use xlink:href="#SegoeUI-20" transform="translate(133.984375 0.96875)"/>
      <use xlink:href="#DejaVuSans-Oblique-3c4" transform="translate(161.376953 0.96875)"/>
     </g>
    </g>
   </g>
   <g id="matplotlib.axis_2">
    <g id="ytick_1">
     <g id="line2d_7">
      <defs>
       <path id="m03a6d16ff6" d="M 0 0 
L -4 0 
" style="stroke: #6b7280"/>
      </defs>
      <g>
       <use xlink:href="#m03a6d16ff6" x="48.748281" y="175.409032" style="fill: #6b7280; stroke: #6b7280"/>
      </g>
     </g>
     <g id="text_7">
      <!-- −0.5 -->
      <g style="fill: #303030" transform="translate(19.478594 179.480751) scale(0.11 -0.11)">
       <defs>
        <path id="SegoeUI-2212" d="M 3663 1656 
L 725 1656 
L 725 2075 
L 3663 2075 
L 3663 1656 
z
" transform="scale(0.015625)"/>
        <path id="SegoeUI-2e" d="M 697 -69 
Q 553 -69 451 34 
Q 350 138 350 281 
Q 350 425 451 529 
Q 553 634 697 634 
Q 844 634 947 529 
Q 1050 425 1050 281 
Q 1050 138 947 34 
Q 844 -69 697 -69 
z
" transform="scale(0.015625)"/>
        <path id="SegoeUI-35" d="M 3028 1369 
Q 3028 1041 2915 775 
Q 2803 509 2595 318 
Q 2388 128 2094 25 
Q 1800 -78 1441 -78 
Q 816 -78 513 109 
L 513 653 
Q 969 359 1447 359 
Q 1691 359 1886 431 
Q 2081 503 2218 631 
Q 2356 759 2429 940 
Q 2503 1122 2503 1338 
Q 2503 1775 2209 2023 
Q 1916 2272 1356 2272 
Q 1266 2272 1166 2269 
Q 1066 2266 966 2261 
Q 866 2256 770 2250 
Q 675 2244 597 2234 
L 750 4481 
L 2822 4481 
L 2822 4019 
L 1194 4019 
L 1103 2703 
Q 1203 2709 1315 2714 
Q 1428 2719 1516 2719 
Q 1872 2719 2153 2625 
Q 2434 2531 2629 2357 
Q 2825 2184 2926 1932 
Q 3028 1681 3028 1369 
z
" transform="scale(0.015625)"/>
       </defs>
       <use xlink:href="#SegoeUI-2212"/>
       <use xlink:href="#SegoeUI-30" transform="translate(68.408203 0)"/>
       <use xlink:href="#SegoeUI-2e" transform="translate(122.314453 0)"/>
       <use xlink:href="#SegoeUI-35" transform="translate(143.994141 0)"/>
      </g>
     </g>
    </g>
    <g id="ytick_2">
     <g id="line2d_8">
      <g>
       <use xlink:href="#m03a6d16ff6" x="48.748281" y="123.247742" style="fill: #6b7280; stroke: #6b7280"/>
      </g>
     </g>
     <g id="text_8">
      <!-- 0.0 -->
      <g style="fill: #303030" transform="translate(27.003281 127.319461) scale(0.11 -0.11)">
       <use xlink:href="#SegoeUI-30"/>
       <use xlink:href="#SegoeUI-2e" transform="translate(53.90625 0)"/>
       <use xlink:href="#SegoeUI-30" transform="translate(75.585938 0)"/>
      </g>
     </g>
    </g>
    <g id="ytick_3">
     <g id="line2d_9">
      <g>
       <use xlink:href="#m03a6d16ff6" x="48.748281" y="71.086452" style="fill: #6b7280; stroke: #6b7280"/>
      </g>
     </g>
     <g id="text_9">
      <!-- 0.5 -->
      <g style="fill: #303030" transform="translate(27.003281 75.15817) scale(0.11 -0.11)">
       <use xlink:href="#SegoeUI-30"/>
       <use xlink:href="#SegoeUI-2e" transform="translate(53.90625 0)"/>
       <use xlink:href="#SegoeUI-35" transform="translate(75.585938 0)"/>
      </g>
     </g>
    </g>
    <g id="ytick_4">
     <g id="line2d_10">
      <g>
       <use xlink:href="#m03a6d16ff6" x="48.748281" y="18.925161" style="fill: #6b7280; stroke: #6b7280"/>
      </g>
     </g>
     <g id="text_10">
      <!-- 1.0 -->
      <g style="fill: #303030" transform="translate(27.003281 22.99688) scale(0.11 -0.11)">
       <defs>
        <path id="SegoeUI-31" d="M 2263 0 
L 1750 0 
L 1750 3872 
Q 1691 3813 1577 3736 
Q 1463 3659 1320 3584 
Q 1178 3509 1020 3443 
Q 863 3378 713 3341 
L 713 3859 
Q 881 3906 1070 3986 
Q 1259 4066 1442 4164 
Q 1625 4263 1787 4370 
Q 1950 4478 2069 4581 
L 2263 4581 
L 2263 0 
z
" transform="scale(0.015625)"/>
       </defs>
       <use xlink:href="#SegoeUI-31"/>
       <use xlink:href="#SegoeUI-2e" transform="translate(53.90625 0)"/>
       <use xlink:href="#SegoeUI-30" transform="translate(75.585938 0)"/>
      </g>
     </g>
    </g>
    <g id="text_11">
     <!-- $h(\tau)$ -->
     <g style="fill: #303030" transform="translate(12.833594 112.955) rotate(-90) scale(0.115 -0.115)">
      <defs>
       <path id="DejaVuSans-Oblique-68" d="M 3566 2113 
L 3156 0 
L 2578 0 
L 2988 2091 
Q 3016 2238 3031 2350 
Q 3047 2463 3047 2528 
Q 3047 2791 2881 2937 
Q 2716 3084 2419 3084 
Q 1956 3084 1617 2771 
Q 1278 2459 1178 1941 
L 800 0 
L 225 0 
L 1172 4863 
L 1747 4863 
L 1375 2950 
Q 1594 3244 1934 3414 
Q 2275 3584 2650 3584 
Q 3113 3584 3367 3334 
Q 3622 3084 3622 2631 
Q 3622 2519 3608 2391 
Q 3594 2263 3566 2113 
z
" transform="scale(0.015625)"/>
       <path id="DejaVuSans-28" d="M 1984 4856 
Q 1566 4138 1362 3434 
Q 1159 2731 1159 2009 
Q 1159 1288 1364 580 
Q 1569 -128 1984 -844 
L 1484 -844 
Q 1016 -109 783 600 
Q 550 1309 550 2009 
Q 550 2706 781 3412 
Q 1013 4119 1484 4856 
L 1984 4856 
z
" transform="scale(0.015625)"/>
       <path id="DejaVuSans-29" d="M 513 4856 
L 1013 4856 
Q 1481 4119 1714 3412 
Q 1947 2706 1947 2009 
Q 1947 1309 1714 600 
Q 1481 -109 1013 -844 
L 513 -844 
Q 928 -128 1133 580 
Q 1338 1288 1338 2009 
Q 1338 2731 1133 3434 
Q 928 4138 513 4856 
z
" transform="scale(0.015625)"/>
      </defs>
      <use xlink:href="#DejaVuSans-Oblique-68" transform="translate(0 0.015625)"/>
      <use xlink:href="#DejaVuSans-28" transform="translate(63.378906 0.015625)"/>
      <use xlink:href="#DejaVuSans-Oblique-3c4" transform="translate(102.392578 0.015625)"/>
      <use xlink:href="#DejaVuSans-29" transform="translate(162.597656 0.015625)"/>
     </g>
    </g>
   </g>
   <g id="line2d_11">
    <path d="M 56.706312 18.925161 
L 64.231637 24.118546 
L 71.756963 29.053394 
L 79.724954 34.011024 
L 87.692945 38.707724 
L 96.103602 43.397439 
L 104.51426 47.827 
L 112.924917 52.010839 
L 121.778241 56.164391 
L 130.631564 60.075765 
L 139.927554 63.937503 
L 149.223544 67.563171 
L 158.9622 71.124002 
L 169.143522 74.603466 
L 179.324844 77.850662 
L 189.948832 81.008163 
L 201.015486 84.063926 
L 212.524807 87.007644 
L 224.476794 89.83074 
L 236.871447 92.526336 
L 249.708766 95.089199 
L 262.988751 97.51567 
L 277.154069 99.873889 
L 291.762053 102.079668 
L 307.255369 104.19211 
L 323.634018 106.196488 
L 340.897999 108.08142 
L 359.047312 109.838779 
L 378.524624 111.498859 
L 399.329934 113.045763 
L 410.396589 113.783811 
L 410.396589 113.783811 
" clip-path="url(#pbe5fb2ba0b)" style="fill: none; stroke-dasharray: 4.8,3.6; stroke-dashoffset: 0; stroke: #c9ccd3; stroke-width: 1.2"/>
   </g>
   <g id="line2d_12">
    <path d="M 56.706312 227.570323 
L 64.231637 222.376938 
L 71.756963 217.44209 
L 79.724954 212.48446 
L 87.692945 207.78776 
L 96.103602 203.098045 
L 104.51426 198.668484 
L 112.924917 194.484645 
L 121.778241 190.331093 
L 130.631564 186.419719 
L 139.927554 182.557981 
L 149.223544 178.932313 
L 158.9622 175.371482 
L 169.143522 171.892018 
L 179.324844 168.644822 
L 189.948832 165.487321 
L 201.015486 162.431558 
L 212.524807 159.48784 
L 224.476794 156.664744 
L 236.871447 153.969148 
L 249.708766 151.406285 
L 262.988751 148.979814 
L 277.154069 146.621595 
L 291.762053 144.415816 
L 307.255369 142.303374 
L 323.634018 140.298996 
L 340.897999 138.414064 
L 359.047312 136.656705 
L 378.524624 134.996625 
L 399.329934 133.449721 
L 410.396589 132.711673 
L 410.396589 132.711673 
" clip-path="url(#pbe5fb2ba0b)" style="fill: none; stroke-dasharray: 4.8,3.6; stroke-dashoffset: 0; stroke: #c9ccd3; stroke-width: 1.2"/>
   </g>
   <g id="patch_3">
    <path d="M 48.748281 198.36 
L 48.748281 4.32 
" style="fill: none; stroke: #c9ccd3; stroke-linejoin: miter; stroke-linecap: square"/>
   </g>
   <g id="patch_4">
    <path d="M 48.748281 198.36 
L 417.028281 198.36 
" style="fill: none; stroke: #c9ccd3; stroke-linejoin: miter; stroke-linecap: square"/>
   </g>
   <g id="text_12">
    <!-- $e^{-\tau}$ -->
    <g style="fill: #4a5c79" transform="translate(123.023239 76.557258) scale(0.125 -0.125)">
     <defs>
      <path id="DejaVuSans-Oblique-65" d="M 3078 2063 
Q 3088 2113 3092 2166 
Q 3097 2219 3097 2272 
Q 3097 2653 2873 2875 
Q 2650 3097 2266 3097 
Q 1838 3097 1509 2826 
Q 1181 2556 1013 2059 
L 3078 2063 
z
M 3578 1613 
L 903 1613 
Q 884 1494 878 1425 
Q 872 1356 872 1306 
Q 872 872 1139 634 
Q 1406 397 1894 397 
Q 2269 397 2603 481 
Q 2938 566 3225 728 
L 3116 159 
Q 2806 34 2476 -28 
Q 2147 -91 1806 -91 
Q 1078 -91 686 257 
Q 294 606 294 1247 
Q 294 1794 489 2264 
Q 684 2734 1063 3103 
Q 1306 3334 1642 3459 
Q 1978 3584 2356 3584 
Q 2950 3584 3301 3228 
Q 3653 2872 3653 2272 
Q 3653 2128 3634 1964 
Q 3616 1800 3578 1613 
z
" transform="scale(0.015625)"/>
      <path id="DejaVuSans-2212" d="M 678 2272 
L 4684 2272 
L 4684 1741 
L 678 1741 
L 678 2272 
z
" transform="scale(0.015625)"/>
     </defs>
     <use xlink:href="#DejaVuSans-Oblique-65" transform="translate(0 0.4375)"/>
     <use xlink:href="#DejaVuSans-2212" transform="translate(66.173333 38.71875) scale(0.7)"/>
     <use xlink:href="#DejaVuSans-Oblique-3c4" transform="translate(124.825677 38.71875) scale(0.7)"/>
    </g>
   </g>
   <g id="text_13">
    <!-- $e^{-0.3\tau}\cos 2\tau$ -->
    <g style="fill: #cf6a37" transform="translate(191.55073 47.346935) scale(0.125 -0.125)">
     <defs>
      <path id="DejaVuSans-30" d="M 2034 4250 
Q 1547 4250 1301 3770 
Q 1056 3291 1056 2328 
Q 1056 1369 1301 889 
Q 1547 409 2034 409 
Q 2525 409 2770 889 
Q 3016 1369 3016 2328 
Q 3016 3291 2770 3770 
Q 2525 4250 2034 4250 
z
M 2034 4750 
Q 2819 4750 3233 4129 
Q 3647 3509 3647 2328 
Q 3647 1150 3233 529 
Q 2819 -91 2034 -91 
Q 1250 -91 836 529 
Q 422 1150 422 2328 
Q 422 3509 836 4129 
Q 1250 4750 2034 4750 
z
" transform="scale(0.015625)"/>
      <path id="DejaVuSans-2e" d="M 684 794 
L 1344 794 
L 1344 0 
L 684 0 
L 684 794 
z
" transform="scale(0.015625)"/>
      <path id="DejaVuSans-33" d="M 2597 2516 
Q 3050 2419 3304 2112 
Q 3559 1806 3559 1356 
Q 3559 666 3084 287 
Q 2609 -91 1734 -91 
Q 1441 -91 1130 -33 
Q 819 25 488 141 
L 488 750 
Q 750 597 1062 519 
Q 1375 441 1716 441 
Q 2309 441 2620 675 
Q 2931 909 2931 1356 
Q 2931 1769 2642 2001 
Q 2353 2234 1838 2234 
L 1294 2234 
L 1294 2753 
L 1863 2753 
Q 2328 2753 2575 2939 
Q 2822 3125 2822 3475 
Q 2822 3834 2567 4026 
Q 2313 4219 1838 4219 
Q 1578 4219 1281 4162 
Q 984 4106 628 3988 
L 628 4550 
Q 988 4650 1302 4700 
Q 1616 4750 1894 4750 
Q 2613 4750 3031 4423 
Q 3450 4097 3450 3541 
Q 3450 3153 3228 2886 
Q 3006 2619 2597 2516 
z
" transform="scale(0.015625)"/>
      <path id="DejaVuSans-63" d="M 3122 3366 
L 3122 2828 
Q 2878 2963 2633 3030 
Q 2388 3097 2138 3097 
Q 1578 3097 1268 2742 
Q 959 2388 959 1747 
Q 959 1106 1268 751 
Q 1578 397 2138 397 
Q 2388 397 2633 464 
Q 2878 531 3122 666 
L 3122 134 
Q 2881 22 2623 -34 
Q 2366 -91 2075 -91 
Q 1284 -91 818 406 
Q 353 903 353 1747 
Q 353 2603 823 3093 
Q 1294 3584 2113 3584 
Q 2378 3584 2631 3529 
Q 2884 3475 3122 3366 
z
" transform="scale(0.015625)"/>
      <path id="DejaVuSans-6f" d="M 1959 3097 
Q 1497 3097 1228 2736 
Q 959 2375 959 1747 
Q 959 1119 1226 758 
Q 1494 397 1959 397 
Q 2419 397 2687 759 
Q 2956 1122 2956 1747 
Q 2956 2369 2687 2733 
Q 2419 3097 1959 3097 
z
M 1959 3584 
Q 2709 3584 3137 3096 
Q 3566 2609 3566 1747 
Q 3566 888 3137 398 
Q 2709 -91 1959 -91 
Q 1206 -91 779 398 
Q 353 888 353 1747 
Q 353 2609 779 3096 
Q 1206 3584 1959 3584 
z
" transform="scale(0.015625)"/>
      <path id="DejaVuSans-73" d="M 2834 3397 
L 2834 2853 
Q 2591 2978 2328 3040 
Q 2066 3103 1784 3103 
Q 1356 3103 1142 2972 
Q 928 2841 928 2578 
Q 928 2378 1081 2264 
Q 1234 2150 1697 2047 
L 1894 2003 
Q 2506 1872 2764 1633 
Q 3022 1394 3022 966 
Q 3022 478 2636 193 
Q 2250 -91 1575 -91 
Q 1294 -91 989 -36 
Q 684 19 347 128 
L 347 722 
Q 666 556 975 473 
Q 1284 391 1588 391 
Q 1994 391 2212 530 
Q 2431 669 2431 922 
Q 2431 1156 2273 1281 
Q 2116 1406 1581 1522 
L 1381 1569 
Q 847 1681 609 1914 
Q 372 2147 372 2553 
Q 372 3047 722 3315 
Q 1072 3584 1716 3584 
Q 2034 3584 2315 3537 
Q 2597 3491 2834 3397 
z
" transform="scale(0.015625)"/>
      <path id="DejaVuSans-32" d="M 1228 531 
L 3431 531 
L 3431 0 
L 469 0 
L 469 531 
Q 828 903 1448 1529 
Q 2069 2156 2228 2338 
Q 2531 2678 2651 2914 
Q 2772 3150 2772 3378 
Q 2772 3750 2511 3984 
Q 2250 4219 1831 4219 
Q 1534 4219 1204 4116 
Q 875 4013 500 3803 
L 500 4441 
Q 881 4594 1212 4672 
Q 1544 4750 1819 4750 
Q 2544 4750 2975 4387 
Q 3406 4025 3406 3419 
Q 3406 3131 3298 2873 
Q 3191 2616 2906 2266 
Q 2828 2175 2409 1742 
Q 1991 1309 1228 531 
z
" transform="scale(0.015625)"/>
     </defs>
     <use xlink:href="#DejaVuSans-Oblique-65" transform="translate(0 0.765625)"/>
     <use xlink:href="#DejaVuSans-2212" transform="translate(66.173333 39.046875) scale(0.7)"/>
     <use xlink:href="#DejaVuSans-30" transform="translate(124.825677 39.046875) scale(0.7)"/>
     <use xlink:href="#DejaVuSans-2e" transform="translate(169.36181 39.046875) scale(0.7)"/>
     <use xlink:href="#DejaVuSans-33" transform="translate(191.612786 39.046875) scale(0.7)"/>
     <use xlink:href="#DejaVuSans-Oblique-3c4" transform="translate(236.148919 39.046875) scale(0.7)"/>
     <use xlink:href="#DejaVuSans-63" transform="translate(281.026849 0.765625)"/>
     <use xlink:href="#DejaVuSans-6f" transform="translate(336.007318 0.765625)"/>
     <use xlink:href="#DejaVuSans-73" transform="translate(397.188958 0.765625)"/>
     <use xlink:href="#DejaVuSans-32" transform="translate(465.524244 0.765625)"/>
     <use xlink:href="#DejaVuSans-Oblique-3c4" transform="translate(529.147291 0.765625)"/>
    </g>
   </g>
   <g id="text_14">
    <!-- $\pm e^{-0.3\tau}$ -->
    <g style="fill: #6b7280" transform="translate(302.078942 94.230484) scale(0.105 -0.105)">
     <defs>
      <path id="DejaVuSans-b1" d="M 2944 4013 
L 2944 2803 
L 4684 2803 
L 4684 2272 
L 2944 2272 
L 2944 1063 
L 2419 1063 
L 2419 2272 
L 678 2272 
L 678 2803 
L 2419 2803 
L 2419 4013 
L 2944 4013 
z
M 678 531 
L 4684 531 
L 4684 0 
L 678 0 
L 678 531 
z
" transform="scale(0.015625)"/>
     </defs>
     <use xlink:href="#DejaVuSans-b1" transform="translate(0 0.765625)"/>
     <use xlink:href="#DejaVuSans-Oblique-65" transform="translate(83.789062 0.765625)"/>
     <use xlink:href="#DejaVuSans-2212" transform="translate(149.962396 39.046875) scale(0.7)"/>
     <use xlink:href="#DejaVuSans-30" transform="translate(208.61474 39.046875) scale(0.7)"/>
     <use xlink:href="#DejaVuSans-2e" transform="translate(253.150872 39.046875) scale(0.7)"/>
     <use xlink:href="#DejaVuSans-33" transform="translate(275.401849 39.046875) scale(0.7)"/>
     <use xlink:href="#DejaVuSans-Oblique-3c4" transform="translate(319.937982 39.046875) scale(0.7)"/>
    </g>
   </g>
   <g id="line2d_13">
    <path d="M 56.706312 18.925161 
L 59.804976 25.986534 
L 63.346305 33.47332 
L 66.887635 40.383803 
L 70.428964 46.762344 
L 73.970293 52.649889 
L 77.511623 58.084235 
L 81.052952 63.100266 
L 84.594282 67.730183 
L 88.135611 72.003707 
L 91.676941 75.948271 
L 95.21827 79.589199 
L 99.202266 83.351332 
L 103.186261 86.789276 
L 107.170257 89.930966 
L 111.154252 92.801931 
L 115.580914 95.702681 
L 120.007576 98.327059 
L 124.434238 100.701398 
L 129.303566 103.052737 
L 134.172894 105.158858 
L 139.484888 107.206751 
L 144.796882 109.022795 
L 150.551542 110.758914 
L 156.748869 112.392378 
L 163.388861 113.906198 
L 170.47152 115.288997 
L 177.996845 116.534657 
L 186.407503 117.697615 
L 195.703492 118.750079 
L 205.884814 119.675226 
L 217.394135 120.494044 
L 230.67412 121.208518 
L 246.167437 121.811355 
L 264.759416 122.304464 
L 288.220723 122.692892 
L 319.650022 122.975196 
L 366.572637 123.153442 
L 410.396589 123.212746 
L 410.396589 123.212746 
" clip-path="url(#pbe5fb2ba0b)" style="fill: none; stroke: #4a5c79; stroke-width: 2.4; stroke-linecap: round"/>
   </g>
   <g id="line2d_14">
    <path d="M 56.706312 18.925161 
L 58.034311 20.047523 
L 59.36231 21.527142 
L 60.690308 23.352228 
L 62.018307 25.509938 
L 63.788971 28.880263 
L 65.559636 32.781939 
L 67.330301 37.177071 
L 69.543632 43.303488 
L 71.756963 50.055221 
L 74.41296 58.860536 
L 77.511623 69.90668 
L 81.938285 86.65247 
L 93.004939 129.053561 
L 96.546268 141.510097 
L 99.644932 151.555798 
L 102.300929 159.400125 
L 104.51426 165.328342 
L 106.727591 170.656563 
L 108.940921 175.348782 
L 110.711586 178.625216 
L 112.482251 181.465084 
L 114.252916 183.860353 
L 116.02358 185.806063 
L 117.351579 186.969046 
L 118.679577 187.87829 
L 120.007576 188.535002 
L 121.335574 188.941291 
L 122.663573 189.100145 
L 123.991571 189.015403 
L 125.31957 188.691725 
L 126.647569 188.134563 
L 127.975567 187.350123 
L 129.303566 186.345334 
L 131.07423 184.676092 
L 132.844895 182.648512 
L 134.61556 180.284237 
L 136.828891 176.891073 
L 139.042222 173.057079 
L 141.698219 167.947396 
L 144.796882 161.403465 
L 148.338211 153.346164 
L 153.650205 140.5998 
L 161.17553 122.553637 
L 165.159526 113.625428 
L 168.258189 107.208612 
L 170.914186 102.165928 
L 173.570183 97.607039 
L 175.783514 94.213081 
L 177.996845 91.212501 
L 180.210176 88.623932 
L 181.980841 86.859243 
L 183.751506 85.372201 
L 185.52217 84.16585 
L 187.292835 83.24134 
L 189.0635 82.597969 
L 190.834164 82.233229 
L 192.604829 82.142868 
L 194.375494 82.320957 
L 196.146158 82.759968 
L 197.916823 83.450862 
L 199.687488 84.383181 
L 201.458153 85.545154 
L 203.671484 87.300688 
L 205.884814 89.366965 
L 208.098145 91.713941 
L 210.754142 94.855684 
L 213.852806 98.895865 
L 217.394135 103.889454 
L 222.706129 111.82251 
L 231.116787 124.393697 
L 235.100782 129.914892 
L 238.199445 133.866979 
L 241.298109 137.447736 
L 243.954106 140.179402 
L 246.610103 142.569184 
L 248.823434 144.283093 
L 251.036765 145.734049 
L 253.250095 146.915193 
L 255.463426 147.822591 
L 257.676757 148.455188 
L 259.890088 148.814735 
L 262.103419 148.905682 
L 264.31675 148.735061 
L 266.530081 148.312332 
L 268.743412 147.649222 
L 270.956743 146.759533 
L 273.61274 145.415022 
L 276.268737 143.797124 
L 279.3674 141.608347 
L 282.466063 139.149073 
L 286.450059 135.685562 
L 292.204719 130.33075 
L 301.058043 122.090872 
L 305.042038 118.678412 
L 308.583368 115.916864 
L 311.682031 113.758809 
L 314.780694 111.876002 
L 317.436691 110.500871 
L 320.092688 109.359002 
L 322.748685 108.45867 
L 325.404682 107.804362 
L 328.060679 107.396841 
L 330.716677 107.233271 
L 333.372674 107.307386 
L 336.028671 107.609695 
L 338.684668 108.127744 
L 341.783331 108.984473 
L 344.881994 110.086076 
L 348.423324 111.604066 
L 352.407319 113.579749 
L 357.276647 116.268393 
L 374.983294 126.351269 
L 378.96729 128.248233 
L 382.508619 129.716573 
L 386.049949 130.950638 
L 389.591278 131.929872 
L 392.689941 132.567196 
L 395.788605 132.995226 
L 398.887268 133.214172 
L 401.985931 133.228343 
L 405.527261 133.004421 
L 409.06859 132.541576 
L 410.396589 132.310965 
L 410.396589 132.310965 
" clip-path="url(#pbe5fb2ba0b)" style="fill: none; stroke: #e37c47; stroke-width: 2.4; stroke-linecap: round"/>
   </g>
   <g id="line2d_15">
    <defs>
     <path id="m6785c864f0" d="M 0 2.1 
C 0.556927 2.1 1.091118 1.878731 1.484924 1.484924 
C 1.878731 1.091118 2.1 0.556927 2.1 0 
C 2.1 -0.556927 1.878731 -1.091118 1.484924 -1.484924 
C 1.091118 -1.878731 0.556927 -2.1 0 -2.1 
C -0.556927 -2.1 -1.091118 -1.878731 -1.484924 -1.484924 
C -1.878731 -1.091118 -2.1 -0.556927 -2.1 0 
C -2.1 0.556927 -1.878731 1.091118 -1.484924 1.484924 
C -1.091118 1.878731 -0.556927 2.1 0 2.1 
z
" style="stroke: #3a4a63"/>
    </defs>
    <g clip-path="url(#pbe5fb2ba0b)">
     <use xlink:href="#m6785c864f0" x="56.706312" y="18.925161" style="fill: #3a4a63; stroke: #3a4a63"/>
     <use xlink:href="#m6785c864f0" x="78.811955" y="59.972898" style="fill: #3a4a63; stroke: #3a4a63"/>
     <use xlink:href="#m6785c864f0" x="100.917597" y="84.869609" style="fill: #3a4a63; stroke: #3a4a63"/>
     <use xlink:href="#m6785c864f0" x="145.128881" y="109.129216" style="fill: #3a4a63; stroke: #3a4a63"/>
     <use xlink:href="#m6785c864f0" x="233.551451" y="121.337007" style="fill: #3a4a63; stroke: #3a4a63"/>
    </g>
   </g>
   <g id="line2d_16">
    <defs>
     <path id="mbd592aa023" d="M 0 2.1 
C 0.556927 2.1 1.091118 1.878731 1.484924 1.484924 
C 1.878731 1.091118 2.1 0.556927 2.1 0 
C 2.1 -0.556927 1.878731 -1.091118 1.484924 -1.484924 
C 1.091118 -1.878731 0.556927 -2.1 0 -2.1 
C -0.556927 -2.1 -1.091118 -1.878731 -1.484924 -1.484924 
C -1.878731 -1.091118 -2.1 -0.556927 -2.1 0 
C -2.1 0.556927 -1.878731 1.091118 -1.484924 1.484924 
C -1.091118 1.878731 -0.556927 2.1 0 2.1 
z
" style="stroke: #cf6a37"/>
    </defs>
    <g clip-path="url(#pbe5fb2ba0b)">
     <use xlink:href="#mbd592aa023" x="56.706312" y="18.925161" style="fill: #cf6a37; stroke: #cf6a37"/>
     <use xlink:href="#mbd592aa023" x="78.811955" y="74.733308" style="fill: #cf6a37; stroke: #cf6a37"/>
     <use xlink:href="#mbd592aa023" x="100.917597" y="155.409263" style="fill: #cf6a37; stroke: #cf6a37"/>
     <use xlink:href="#mbd592aa023" x="145.128881" y="160.671092" style="fill: #cf6a37; stroke: #cf6a37"/>
     <use xlink:href="#mbd592aa023" x="233.551451" y="127.819551" style="fill: #cf6a37; stroke: #cf6a37"/>
    </g>
   </g>
  </g>
 </g>
 <defs>
  <clipPath id="pbe5fb2ba0b">
   <rect x="48.748281" y="4.32" width="368.28" height="194.04"/>
  </clipPath>
 </defs>
</svg>
