<?xml version="1.0" encoding="utf-8" standalone="no"?>
<!DOCTYPE svg PUBLIC "-//W3C//DTD SVG 1.1//EN"
  "http://www.w3.org/Graphics/SVG/1.1/DTD/svg11.dtd">
<svg xmlns:xlink="http://www.w3.org/1999/xlink" width="403.235pt" height="263.958438pt" viewBox="0 0 403.235 263.958438" xmlns="http://www.w3.org/2000/svg" version="1.1">
 <metadata>
  <rdf:RDF xmlns:dc="http://purl.org/dc/elements/1.1/" xmlns:cc="http://creativecommons.org/ns#" xmlns:rdf="http://www.w3.org/1999/02/22-rdf-syntax-ns#">
   <cc:Work>
    <dc:type rdf:resource="http://purl.org/dc/dcmitype/StillImage"/>
    <dc:date>2026-06-04T23:50:21.101839</dc:date>
    <dc:format>image/svg+xml</dc:format>
    <dc:creator>
     <cc:Agent>
      <dc:title>Matplotlib v3.10.3, https://matplotlib.org/</dc:title>
     </cc:Agent>
    </dc:creator>
   </cc:Work>
  </rdf:RDF>
 </metadata>
 <defs>
  <style type="text/css">*{stroke-linejoin: round; stroke-linecap: butt}</style>
 </defs>
 <g id="figure_1">
  <g id="patch_1">
   <path d="M 0 263.958438 
L 403.235 263.958438 
L 403.235 0 
L 0 0 
z
" style="fill: #ffffff"/>
  </g>
  <g id="axes_1">
   <g id="patch_2">
    <path d="M 41.795 226.08 
L 398.915 226.08 
L 398.915 4.32 
L 41.795 4.32 
z
" style="fill: #ffffff"/>
   </g>
   <g id="matplotlib.axis_1">
    <g id="xtick_1">
     <g id="line2d_1">
      <defs>
       <path id="md73814429d" d="M 0 0 
L 0 4 
" style="stroke: #6b7280"/>
      </defs>
      <g>
       <use xlink:href="#md73814429d" x="41.795" y="226.08" style="fill: #6b7280; stroke: #6b7280"/>
      </g>
     </g>
     <g id="text_1">
      <!-- 0 -->
      <g style="fill: #303030" transform="translate(38.830156 241.723438) scale(0.11 -0.11)">
       <defs>
        <path id="SegoeUI-30" d="M 3188 2259 
Q 3188 1697 3086 1262 
Q 2984 828 2792 529 
Q 2600 231 2320 76 
Q 2041 -78 1684 -78 
Q 1347 -78 1083 70 
Q 819 219 637 503 
Q 456 788 362 1202 
Q 269 1616 269 2150 
Q 269 2738 367 3188 
Q 466 3638 656 3942 
Q 847 4247 1130 4401 
Q 1413 4556 1778 4556 
Q 3188 4556 3188 2259 
z
M 2663 2209 
Q 2663 4122 1753 4122 
Q 794 4122 794 2175 
Q 794 359 1734 359 
Q 2663 359 2663 2209 
z
" transform="scale(0.015625)"/>
       </defs>
       <use xlink:href="#SegoeUI-30"/>
      </g>
     </g>
    </g>
    <g id="xtick_2">
     <g id="line2d_2">
      <g>
       <use xlink:href="#md73814429d" x="99.863293" y="226.08" style="fill: #6b7280; stroke: #6b7280"/>
      </g>
     </g>
     <g id="text_2">
      <!-- 1 -->
      <g style="fill: #303030" transform="translate(96.898449 241.723438) scale(0.11 -0.11)">
       <defs>
        <path id="SegoeUI-31" d="M 2263 0 
L 1750 0 
L 1750 3872 
Q 1691 3813 1577 3736 
Q 1463 3659 1320 3584 
Q 1178 3509 1020 3443 
Q 863 3378 713 3341 
L 713 3859 
Q 881 3906 1070 3986 
Q 1259 4066 1442 4164 
Q 1625 4263 1787 4370 
Q 1950 4478 2069 4581 
L 2263 4581 
L 2263 0 
z
" transform="scale(0.015625)"/>
       </defs>
       <use xlink:href="#SegoeUI-31"/>
      </g>
     </g>
    </g>
    <g id="xtick_3">
     <g id="line2d_3">
      <g>
       <use xlink:href="#md73814429d" x="157.931585" y="226.08" style="fill: #6b7280; stroke: #6b7280"/>
      </g>
     </g>
     <g id="text_3">
      <!-- 2 -->
      <g style="fill: #303030" transform="translate(154.966742 241.723438) scale(0.11 -0.11)">
       <defs>
        <path id="SegoeUI-32" d="M 2413 3306 
Q 2413 3513 2348 3666 
Q 2284 3819 2173 3920 
Q 2063 4022 1913 4072 
Q 1763 4122 1588 4122 
Q 1438 4122 1294 4081 
Q 1150 4041 1014 3969 
Q 878 3897 751 3797 
Q 625 3697 516 3575 
L 516 4125 
Q 731 4334 998 4445 
Q 1266 4556 1650 4556 
Q 1925 4556 2159 4476 
Q 2394 4397 2566 4244 
Q 2738 4091 2836 3866 
Q 2934 3641 2934 3350 
Q 2934 3084 2873 2868 
Q 2813 2653 2689 2462 
Q 2566 2272 2378 2097 
Q 2191 1922 1938 1741 
Q 1622 1516 1417 1356 
Q 1213 1197 1092 1058 
Q 972 919 923 780 
Q 875 641 875 459 
L 3106 459 
L 3106 0 
L 341 0 
L 341 222 
Q 341 509 403 728 
Q 466 947 609 1144 
Q 753 1341 986 1537 
Q 1219 1734 1556 1981 
Q 1800 2156 1964 2315 
Q 2128 2475 2228 2634 
Q 2328 2794 2370 2958 
Q 2413 3122 2413 3306 
z
" transform="scale(0.015625)"/>
       </defs>
       <use xlink:href="#SegoeUI-32"/>
      </g>
     </g>
    </g>
    <g id="xtick_4">
     <g id="line2d_4">
      <g>
       <use xlink:href="#md73814429d" x="215.999878" y="226.08" style="fill: #6b7280; stroke: #6b7280"/>
      </g>
     </g>
     <g id="text_4">
      <!-- 3 -->
      <g style="fill: #303030" transform="translate(213.035034 241.723438) scale(0.11 -0.11)">
       <defs>
        <path id="SegoeUI-33" d="M 2978 1269 
Q 2978 966 2864 717 
Q 2750 469 2542 292 
Q 2334 116 2043 19 
Q 1753 -78 1403 -78 
Q 763 -78 384 166 
L 384 716 
Q 838 359 1422 359 
Q 1656 359 1845 418 
Q 2034 478 2170 590 
Q 2306 703 2379 862 
Q 2453 1022 2453 1222 
Q 2453 2100 1203 2100 
L 831 2100 
L 831 2534 
L 1184 2534 
Q 2291 2534 2291 3359 
Q 2291 4122 1447 4122 
Q 972 4122 556 3803 
L 556 4300 
Q 984 4556 1575 4556 
Q 1856 4556 2084 4478 
Q 2313 4400 2475 4259 
Q 2638 4119 2727 3922 
Q 2816 3725 2816 3488 
Q 2816 2603 1922 2350 
L 1922 2338 
Q 2150 2313 2344 2227 
Q 2538 2141 2678 2003 
Q 2819 1866 2898 1680 
Q 2978 1494 2978 1269 
z
" transform="scale(0.015625)"/>
       </defs>
       <use xlink:href="#SegoeUI-33"/>
      </g>
     </g>
    </g>
    <g id="xtick_5">
     <g id="line2d_5">
      <g>
       <use xlink:href="#md73814429d" x="274.068171" y="226.08" style="fill: #6b7280; stroke: #6b7280"/>
      </g>
     </g>
     <g id="text_5">
      <!-- 4 -->
      <g style="fill: #303030" transform="translate(271.103327 241.723438) scale(0.11 -0.11)">
       <defs>
        <path id="SegoeUI-34" d="M 2656 4481 
L 2656 1522 
L 3231 1522 
L 3231 1053 
L 2656 1053 
L 2656 0 
L 2150 0 
L 2150 1053 
L 44 1053 
L 44 1497 
Q 338 1828 638 2204 
Q 938 2581 1211 2968 
Q 1484 3356 1717 3742 
Q 1950 4128 2109 4481 
L 2656 4481 
z
M 622 1522 
L 2150 1522 
L 2150 3716 
Q 1916 3306 1706 2984 
Q 1497 2663 1308 2400 
Q 1119 2138 947 1925 
Q 775 1713 622 1522 
z
" transform="scale(0.015625)"/>
       </defs>
       <use xlink:href="#SegoeUI-34"/>
      </g>
     </g>
    </g>
    <g id="xtick_6">
     <g id="line2d_6">
      <g>
       <use xlink:href="#md73814429d" x="332.136463" y="226.08" style="fill: #6b7280; stroke: #6b7280"/>
      </g>
     </g>
     <g id="text_6">
      <!-- 5 -->
      <g style="fill: #303030" transform="translate(329.17162 241.723438) scale(0.11 -0.11)">
       <defs>
        <path id="SegoeUI-35" d="M 3028 1369 
Q 3028 1041 2915 775 
Q 2803 509 2595 318 
Q 2388 128 2094 25 
Q 1800 -78 1441 -78 
Q 816 -78 513 109 
L 513 653 
Q 969 359 1447 359 
Q 1691 359 1886 431 
Q 2081 503 2218 631 
Q 2356 759 2429 940 
Q 2503 1122 2503 1338 
Q 2503 1775 2209 2023 
Q 1916 2272 1356 2272 
Q 1266 2272 1166 2269 
Q 1066 2266 966 2261 
Q 866 2256 770 2250 
Q 675 2244 597 2234 
L 750 4481 
L 2822 4481 
L 2822 4019 
L 1194 4019 
L 1103 2703 
Q 1203 2709 1315 2714 
Q 1428 2719 1516 2719 
Q 1872 2719 2153 2625 
Q 2434 2531 2629 2357 
Q 2825 2184 2926 1932 
Q 3028 1681 3028 1369 
z
" transform="scale(0.015625)"/>
       </defs>
       <use xlink:href="#SegoeUI-35"/>
      </g>
     </g>
    </g>
    <g id="xtick_7">
     <g id="line2d_7">
      <g>
       <use xlink:href="#md73814429d" x="390.204756" y="226.08" style="fill: #6b7280; stroke: #6b7280"/>
      </g>
     </g>
     <g id="text_7">
      <!-- 6 -->
      <g style="fill: #303030" transform="translate(387.239912 241.723438) scale(0.11 -0.11)">
       <defs>
        <path id="SegoeUI-36" d="M 3194 1422 
Q 3194 1094 3087 819 
Q 2981 544 2793 344 
Q 2606 144 2347 33 
Q 2088 -78 1784 -78 
Q 1447 -78 1180 62 
Q 913 203 727 467 
Q 541 731 444 1112 
Q 347 1494 347 1972 
Q 347 2556 476 3032 
Q 606 3509 845 3848 
Q 1084 4188 1421 4372 
Q 1759 4556 2175 4556 
Q 2638 4556 2919 4428 
L 2919 3944 
Q 2572 4122 2188 4122 
Q 1888 4122 1647 3987 
Q 1406 3853 1234 3608 
Q 1063 3363 970 3016 
Q 878 2669 878 2244 
L 891 2244 
Q 1200 2803 1913 2803 
Q 2206 2803 2442 2703 
Q 2678 2603 2845 2420 
Q 3013 2238 3103 1984 
Q 3194 1731 3194 1422 
z
M 2669 1356 
Q 2669 1591 2609 1778 
Q 2550 1966 2439 2097 
Q 2328 2228 2165 2298 
Q 2003 2369 1797 2369 
Q 1606 2369 1443 2297 
Q 1281 2225 1162 2101 
Q 1044 1978 976 1814 
Q 909 1650 909 1466 
Q 909 1234 975 1032 
Q 1041 831 1159 681 
Q 1278 531 1442 445 
Q 1606 359 1806 359 
Q 2000 359 2159 432 
Q 2319 506 2431 637 
Q 2544 769 2606 951 
Q 2669 1134 2669 1356 
z
" transform="scale(0.015625)"/>
       </defs>
       <use xlink:href="#SegoeUI-36"/>
      </g>
     </g>
    </g>
    <g id="text_8">
     <!-- lag  $\tau$ -->
     <g style="fill: #303030" transform="translate(206.0375 256.878438) scale(0.115 -0.115)">
      <defs>
       <path id="SegoeUI-6c" d="M 1031 0 
L 519 0 
L 519 4738 
L 1031 4738 
L 1031 0 
z
" transform="scale(0.015625)"/>
       <path id="SegoeUI-61" d="M 2809 0 
L 2297 0 
L 2297 500 
L 2284 500 
Q 1950 -75 1300 -75 
Q 822 -75 551 178 
Q 281 431 281 850 
Q 281 1747 1338 1894 
L 2297 2028 
Q 2297 2844 1638 2844 
Q 1059 2844 594 2450 
L 594 2975 
Q 1066 3275 1681 3275 
Q 2809 3275 2809 2081 
L 2809 0 
z
M 2297 1619 
L 1525 1513 
Q 1169 1463 987 1336 
Q 806 1209 806 888 
Q 806 653 973 504 
Q 1141 356 1419 356 
Q 1800 356 2048 623 
Q 2297 891 2297 1300 
L 2297 1619 
z
" transform="scale(0.015625)"/>
       <path id="SegoeUI-67" d="M 3250 256 
Q 3250 -1506 1563 -1506 
Q 969 -1506 525 -1281 
L 525 -769 
Q 1066 -1069 1556 -1069 
Q 2738 -1069 2738 188 
L 2738 538 
L 2725 538 
Q 2359 -75 1625 -75 
Q 1028 -75 664 351 
Q 300 778 300 1497 
Q 300 2313 692 2794 
Q 1084 3275 1766 3275 
Q 2413 3275 2725 2756 
L 2738 2756 
L 2738 3200 
L 3250 3200 
L 3250 256 
z
M 2738 1447 
L 2738 1919 
Q 2738 2300 2480 2572 
Q 2222 2844 1838 2844 
Q 1363 2844 1094 2498 
Q 825 2153 825 1531 
Q 825 997 1083 676 
Q 1341 356 1766 356 
Q 2197 356 2467 662 
Q 2738 969 2738 1447 
z
" transform="scale(0.015625)"/>
       <path id="SegoeUI-20" transform="scale(0.015625)"/>
       <path id="DejaVuSans-Oblique-3c4" d="M 2103 638 
Q 2188 488 2525 488 
L 2800 488 
L 2706 0 
L 2363 0 
Q 1800 0 1600 300 
Q 1403 606 1534 1269 
L 1856 2925 
L 541 2925 
L 653 3500 
L 3881 3500 
L 3769 2925 
L 2444 2925 
L 2113 1234 
Q 2025 781 2103 638 
z
" transform="scale(0.015625)"/>
      </defs>
      <use xlink:href="#SegoeUI-6c" transform="translate(0 0.96875)"/>
      <use xlink:href="#SegoeUI-61" transform="translate(24.21875 0.96875)"/>
      <use xlink:href="#SegoeUI-67" transform="translate(75.097656 0.96875)"/>
      <use xlink:href="#SegoeUI-20" transform="translate(133.984375 0.96875)"/>
      <use xlink:href="#SegoeUI-20" transform="translate(161.376953 0.96875)"/>
      <use xlink:href="#DejaVuSans-Oblique-3c4" transform="translate(188.769531 0.96875)"/>
     </g>
    </g>
   </g>
   <g id="matplotlib.axis_2">
    <g id="ytick_1">
     <g id="line2d_8">
      <defs>
       <path id="ma38d671270" d="M 0 0 
L -4 0 
" style="stroke: #6b7280"/>
      </defs>
      <g>
       <use xlink:href="#ma38d671270" x="41.795" y="226.08" style="fill: #6b7280; stroke: #6b7280"/>
      </g>
     </g>
     <g id="text_9">
      <!-- 0.0 -->
      <g style="fill: #303030" transform="translate(20.05 230.151719) scale(0.11 -0.11)">
       <defs>
        <path id="SegoeUI-2e" d="M 697 -69 
Q 553 -69 451 34 
Q 350 138 350 281 
Q 350 425 451 529 
Q 553 634 697 634 
Q 844 634 947 529 
Q 1050 425 1050 281 
Q 1050 138 947 34 
Q 844 -69 697 -69 
z
" transform="scale(0.015625)"/>
       </defs>
       <use xlink:href="#SegoeUI-30"/>
       <use xlink:href="#SegoeUI-2e" transform="translate(53.90625 0)"/>
       <use xlink:href="#SegoeUI-30" transform="translate(75.585938 0)"/>
      </g>
     </g>
    </g>
    <g id="ytick_2">
     <g id="line2d_9">
      <g>
       <use xlink:href="#ma38d671270" x="41.795" y="118.429515" style="fill: #6b7280; stroke: #6b7280"/>
      </g>
     </g>
     <g id="text_10">
      <!-- 0.5 -->
      <g style="fill: #303030" transform="translate(20.05 122.501233) scale(0.11 -0.11)">
       <use xlink:href="#SegoeUI-30"/>
       <use xlink:href="#SegoeUI-2e" transform="translate(53.90625 0)"/>
       <use xlink:href="#SegoeUI-35" transform="translate(75.585938 0)"/>
      </g>
     </g>
    </g>
    <g id="ytick_3">
     <g id="line2d_10">
      <g>
       <use xlink:href="#ma38d671270" x="41.795" y="10.779029" style="fill: #6b7280; stroke: #6b7280"/>
      </g>
     </g>
     <g id="text_11">
      <!-- 1.0 -->
      <g style="fill: #303030" transform="translate(20.05 14.850748) scale(0.11 -0.11)">
       <use xlink:href="#SegoeUI-31"/>
       <use xlink:href="#SegoeUI-2e" transform="translate(53.90625 0)"/>
       <use xlink:href="#SegoeUI-30" transform="translate(75.585938 0)"/>
      </g>
     </g>
    </g>
    <g id="text_12">
     <!-- fraction remaining   $e^{-\alpha\tau}$ -->
     <g style="fill: #303030" transform="translate(13.29 178.8525) rotate(-90) scale(0.115 -0.115)">
      <defs>
       <path id="SegoeUI-66" d="M 2100 4288 
Q 1950 4372 1759 4372 
Q 1222 4372 1222 3694 
L 1222 3200 
L 1972 3200 
L 1972 2763 
L 1222 2763 
L 1222 0 
L 713 0 
L 713 2763 
L 166 2763 
L 166 3200 
L 713 3200 
L 713 3719 
Q 713 4222 1003 4514 
Q 1294 4806 1728 4806 
Q 1963 4806 2100 4750 
L 2100 4288 
z
" transform="scale(0.015625)"/>
       <path id="SegoeUI-72" d="M 2188 2681 
Q 2053 2784 1800 2784 
Q 1472 2784 1251 2475 
Q 1031 2166 1031 1631 
L 1031 0 
L 519 0 
L 519 3200 
L 1031 3200 
L 1031 2541 
L 1044 2541 
Q 1153 2878 1378 3067 
Q 1603 3256 1881 3256 
Q 2081 3256 2188 3213 
L 2188 2681 
z
" transform="scale(0.015625)"/>
       <path id="SegoeUI-63" d="M 2700 147 
Q 2331 -75 1825 -75 
Q 1141 -75 720 370 
Q 300 816 300 1525 
Q 300 2316 753 2795 
Q 1206 3275 1963 3275 
Q 2384 3275 2706 3119 
L 2706 2594 
Q 2350 2844 1944 2844 
Q 1453 2844 1139 2492 
Q 825 2141 825 1569 
Q 825 1006 1120 681 
Q 1416 356 1913 356 
Q 2331 356 2700 634 
L 2700 147 
z
" transform="scale(0.015625)"/>
       <path id="SegoeUI-74" d="M 2003 31 
Q 1822 -69 1525 -69 
Q 684 -69 684 869 
L 684 2763 
L 134 2763 
L 134 3200 
L 684 3200 
L 684 3981 
L 1197 4147 
L 1197 3200 
L 2003 3200 
L 2003 2763 
L 1197 2763 
L 1197 959 
Q 1197 638 1306 500 
Q 1416 363 1669 363 
Q 1863 363 2003 469 
L 2003 31 
z
" transform="scale(0.015625)"/>
       <path id="SegoeUI-69" d="M 781 4013 
Q 644 4013 547 4106 
Q 450 4200 450 4344 
Q 450 4488 547 4583 
Q 644 4678 781 4678 
Q 922 4678 1020 4583 
Q 1119 4488 1119 4344 
Q 1119 4206 1020 4109 
Q 922 4013 781 4013 
z
M 1031 0 
L 519 0 
L 519 3200 
L 1031 3200 
L 1031 0 
z
" transform="scale(0.015625)"/>
       <path id="SegoeUI-6f" d="M 1856 -75 
Q 1147 -75 723 373 
Q 300 822 300 1563 
Q 300 2369 740 2822 
Q 1181 3275 1931 3275 
Q 2647 3275 3048 2834 
Q 3450 2394 3450 1613 
Q 3450 847 3017 386 
Q 2584 -75 1856 -75 
z
M 1894 2844 
Q 1400 2844 1112 2508 
Q 825 2172 825 1581 
Q 825 1013 1115 684 
Q 1406 356 1894 356 
Q 2391 356 2658 678 
Q 2925 1000 2925 1594 
Q 2925 2194 2658 2519 
Q 2391 2844 1894 2844 
z
" transform="scale(0.015625)"/>
       <path id="SegoeUI-6e" d="M 3175 0 
L 2663 0 
L 2663 1825 
Q 2663 2844 1919 2844 
Q 1534 2844 1282 2555 
Q 1031 2266 1031 1825 
L 1031 0 
L 519 0 
L 519 3200 
L 1031 3200 
L 1031 2669 
L 1044 2669 
Q 1406 3275 2094 3275 
Q 2619 3275 2897 2936 
Q 3175 2597 3175 1956 
L 3175 0 
z
" transform="scale(0.015625)"/>
       <path id="SegoeUI-65" d="M 3091 1472 
L 831 1472 
Q 844 938 1119 647 
Q 1394 356 1875 356 
Q 2416 356 2869 713 
L 2869 231 
Q 2447 -75 1753 -75 
Q 1075 -75 687 361 
Q 300 797 300 1588 
Q 300 2334 723 2804 
Q 1147 3275 1775 3275 
Q 2403 3275 2747 2869 
Q 3091 2463 3091 1741 
L 3091 1472 
z
M 2566 1906 
Q 2563 2350 2352 2597 
Q 2141 2844 1766 2844 
Q 1403 2844 1150 2584 
Q 897 2325 838 1906 
L 2566 1906 
z
" transform="scale(0.015625)"/>
       <path id="SegoeUI-6d" d="M 5063 0 
L 4550 0 
L 4550 1838 
Q 4550 2369 4386 2606 
Q 4222 2844 3834 2844 
Q 3506 2844 3276 2544 
Q 3047 2244 3047 1825 
L 3047 0 
L 2534 0 
L 2534 1900 
Q 2534 2844 1806 2844 
Q 1469 2844 1250 2561 
Q 1031 2278 1031 1825 
L 1031 0 
L 519 0 
L 519 3200 
L 1031 3200 
L 1031 2694 
L 1044 2694 
Q 1384 3275 2038 3275 
Q 2366 3275 2609 3092 
Q 2853 2909 2944 2613 
Q 3300 3275 4006 3275 
Q 5063 3275 5063 1972 
L 5063 0 
z
" transform="scale(0.015625)"/>
       <path id="DejaVuSans-Oblique-65" d="M 3078 2063 
Q 3088 2113 3092 2166 
Q 3097 2219 3097 2272 
Q 3097 2653 2873 2875 
Q 2650 3097 2266 3097 
Q 1838 3097 1509 2826 
Q 1181 2556 1013 2059 
L 3078 2063 
z
M 3578 1613 
L 903 1613 
Q 884 1494 878 1425 
Q 872 1356 872 1306 
Q 872 872 1139 634 
Q 1406 397 1894 397 
Q 2269 397 2603 481 
Q 2938 566 3225 728 
L 3116 159 
Q 2806 34 2476 -28 
Q 2147 -91 1806 -91 
Q 1078 -91 686 257 
Q 294 606 294 1247 
Q 294 1794 489 2264 
Q 684 2734 1063 3103 
Q 1306 3334 1642 3459 
Q 1978 3584 2356 3584 
Q 2950 3584 3301 3228 
Q 3653 2872 3653 2272 
Q 3653 2128 3634 1964 
Q 3616 1800 3578 1613 
z
" transform="scale(0.015625)"/>
       <path id="DejaVuSans-2212" d="M 678 2272 
L 4684 2272 
L 4684 1741 
L 678 1741 
L 678 2272 
z
" transform="scale(0.015625)"/>
       <path id="DejaVuSans-Oblique-3b1" d="M 2619 1628 
L 2622 2350 
Q 2625 3088 2069 3091 
Q 1653 3094 1394 2747 
Q 1069 2319 959 1747 
Q 825 1059 994 731 
Q 1169 397 1547 397 
Q 1966 397 2319 1063 
L 2619 1628 
z
M 2166 3578 
Q 3141 3594 3128 2584 
Q 3128 2584 3616 3500 
L 4128 3500 
L 3119 1603 
L 3109 919 
Q 3109 766 3194 638 
Q 3291 488 3391 488 
L 3669 488 
L 3575 0 
L 3228 0 
Q 2934 0 2722 263 
Q 2622 394 2619 669 
Q 2416 334 2066 50 
Q 1900 -81 1453 -78 
Q 722 -72 456 397 
Q 184 884 353 1747 
Q 534 2675 1009 3097 
Q 1544 3569 2166 3578 
z
" transform="scale(0.015625)"/>
      </defs>
      <use xlink:href="#SegoeUI-66" transform="translate(0 0.409375)"/>
      <use xlink:href="#SegoeUI-72" transform="translate(31.298828 0.409375)"/>
      <use xlink:href="#SegoeUI-61" transform="translate(66.064453 0.409375)"/>
      <use xlink:href="#SegoeUI-63" transform="translate(116.943359 0.409375)"/>
      <use xlink:href="#SegoeUI-74" transform="translate(163.134766 0.409375)"/>
      <use xlink:href="#SegoeUI-69" transform="translate(197.021484 0.409375)"/>
      <use xlink:href="#SegoeUI-6f" transform="translate(221.240234 0.409375)"/>
      <use xlink:href="#SegoeUI-6e" transform="translate(279.833984 0.409375)"/>
      <use xlink:href="#SegoeUI-20" transform="translate(336.425781 0.409375)"/>
      <use xlink:href="#SegoeUI-72" transform="translate(363.818359 0.409375)"/>
      <use xlink:href="#SegoeUI-65" transform="translate(398.583984 0.409375)"/>
      <use xlink:href="#SegoeUI-6d" transform="translate(450.878906 0.409375)"/>
      <use xlink:href="#SegoeUI-61" transform="translate(537.011719 0.409375)"/>
      <use xlink:href="#SegoeUI-69" transform="translate(587.890625 0.409375)"/>
      <use xlink:href="#SegoeUI-6e" transform="translate(612.109375 0.409375)"/>
      <use xlink:href="#SegoeUI-69" transform="translate(668.701172 0.409375)"/>
      <use xlink:href="#SegoeUI-6e" transform="translate(692.919922 0.409375)"/>
      <use xlink:href="#SegoeUI-67" transform="translate(749.511719 0.409375)"/>
      <use xlink:href="#SegoeUI-20" transform="translate(808.398438 0.409375)"/>
      <use xlink:href="#SegoeUI-20" transform="translate(835.791016 0.409375)"/>
      <use xlink:href="#SegoeUI-20" transform="translate(863.183594 0.409375)"/>
      <use xlink:href="#DejaVuSans-Oblique-65" transform="translate(890.576172 0.409375)"/>
      <use xlink:href="#DejaVuSans-2212" transform="translate(956.749505 38.690625) scale(0.7)"/>
      <use xlink:href="#DejaVuSans-Oblique-3b1" transform="translate(1015.401849 38.690625) scale(0.7)"/>
      <use xlink:href="#DejaVuSans-Oblique-3c4" transform="translate(1061.544427 38.690625) scale(0.7)"/>
     </g>
    </g>
   </g>
   <g id="line2d_11">
    <path d="M 41.795 10.779029 
L 50.519785 18.716289 
L 59.24457 26.360935 
L 67.969356 33.723754 
L 77.275793 41.278491 
L 86.582231 48.536519 
L 95.888668 55.509489 
L 105.195106 62.208598 
L 114.501543 68.644601 
L 124.389633 75.20612 
L 134.277723 81.49417 
L 144.165813 87.520151 
L 154.053903 93.294983 
L 164.523645 99.147395 
L 174.993388 104.741865 
L 185.46313 110.089762 
L 196.514524 115.479265 
L 207.565919 120.618345 
L 218.617314 125.518636 
L 230.250361 130.431056 
L 241.883408 135.103504 
L 254.098107 139.764124 
L 266.312806 144.185986 
L 279.109158 148.575649 
L 291.905509 152.730018 
L 305.283513 156.835324 
L 318.661517 160.710861 
L 332.621174 164.523829 
L 347.162482 168.259363 
L 361.703791 171.768205 
L 376.826752 175.191706 
L 390.204756 178.03986 
L 390.204756 178.03986 
" clip-path="url(#p08f363ef8c)" style="fill: none; stroke: #bcc6d6; stroke-width: 2; stroke-linecap: round"/>
   </g>
   <g id="line2d_12">
    <path d="M 41.795 10.779029 
L 45.284914 23.337491 
L 48.774828 35.16342 
L 52.264742 46.299545 
L 55.754656 56.786102 
L 59.24457 66.66098 
L 62.734485 75.959859 
L 66.224399 84.716336 
L 70.295965 94.288796 
L 74.367531 103.213055 
L 78.439098 111.533007 
L 82.510664 119.289572 
L 86.582231 126.5209 
L 90.653797 133.262558 
L 94.725364 139.547703 
L 98.79693 145.40725 
L 102.868496 150.870016 
L 106.940063 155.96287 
L 111.011629 160.710861 
L 115.083196 165.137341 
L 119.154762 169.264081 
L 123.807981 173.639301 
L 128.4612 177.677598 
L 133.114419 181.404919 
L 137.767637 184.84521 
L 142.420856 188.020575 
L 147.074075 190.951414 
L 152.308946 193.979713 
L 157.543817 196.746955 
L 162.778688 199.275643 
L 168.595212 201.830463 
L 174.411735 204.141775 
L 180.809911 206.430598 
L 187.208087 208.480627 
L 194.187915 210.473883 
L 201.167743 212.241388 
L 208.729224 213.931015 
L 216.872357 215.520648 
L 225.597142 216.993758 
L 234.903579 218.339283 
L 245.373322 219.616352 
L 256.424716 220.736523 
L 268.639415 221.75018 
L 282.599072 222.675407 
L 298.303685 223.482175 
L 316.334908 224.175619 
L 337.274392 224.752157 
L 362.867096 225.225448 
L 390.204756 225.546322 
L 390.204756 225.546322 
" clip-path="url(#p08f363ef8c)" style="fill: none; stroke: #6e7f9c; stroke-width: 2; stroke-linecap: round"/>
   </g>
   <g id="line2d_13">
    <path d="M 41.795 10.779029 
L 44.121609 27.358697 
L 46.448219 42.661615 
L 48.774828 56.786102 
L 51.101438 69.822906 
L 53.428047 81.855785 
L 56.336309 95.602318 
L 59.24457 108.03862 
L 62.152832 119.289572 
L 65.061094 129.468155 
L 67.969356 138.67658 
L 70.877617 147.007317 
L 73.785879 154.544021 
L 76.694141 161.362375 
L 79.602403 167.530847 
L 82.510664 173.111379 
L 85.418926 178.16001 
L 88.327188 182.727438 
L 91.23545 186.859528 
L 94.143711 190.597774 
L 97.051973 193.979713 
L 99.960235 197.039308 
L 102.868496 199.807282 
L 105.776758 202.31143 
L 109.266672 205.003392 
L 112.756586 207.39047 
L 116.2465 209.507195 
L 119.736415 211.384185 
L 123.807981 213.307057 
L 127.879547 214.978332 
L 132.532766 216.622309 
L 137.185985 218.02284 
L 142.420856 219.352116 
L 148.23738 220.573514 
L 154.635555 221.662564 
L 161.615384 222.606514 
L 169.176864 223.402925 
L 177.901649 224.097767 
L 188.371392 224.697874 
L 201.167743 225.190514 
L 216.872357 225.562121 
L 238.393493 225.833218 
L 271.547677 226.001224 
L 339.01935 226.072288 
L 390.204756 226.078677 
L 390.204756 226.078677 
" clip-path="url(#p08f363ef8c)" style="fill: none; stroke: #3a4a63; stroke-width: 2; stroke-linecap: round"/>
   </g>
   <g id="patch_3">
    <path d="M 41.795 226.08 
L 41.795 4.32 
" style="fill: none; stroke: #c9ccd3; stroke-linejoin: miter; stroke-linecap: square"/>
   </g>
   <g id="patch_4">
    <path d="M 41.795 226.08 
L 398.915 226.08 
" style="fill: none; stroke: #c9ccd3; stroke-linejoin: miter; stroke-linecap: square"/>
   </g>
   <g id="line2d_14">
    <path d="M 41.795 118.429515 
L 122.294747 118.429515 
" clip-path="url(#p08f363ef8c)" style="fill: none; stroke-dasharray: 4.8,3.6; stroke-dashoffset: 0; stroke: #6b7280; stroke-width: 1.2"/>
   </g>
   <g id="line2d_15">
    <path d="M 122.294747 226.08 
L 122.294747 118.429515 
" clip-path="url(#p08f363ef8c)" style="fill: none; stroke-dasharray: 4.8,3.6; stroke-dashoffset: 0; stroke: #6b7280; stroke-width: 1.2"/>
   </g>
   <g id="text_13">
    <!-- $\tau_{1/2}$ -->
    <g style="fill: #cf6a37" transform="translate(112.724747 252.52402) scale(0.11 -0.11)">
     <defs>
      <path id="DejaVuSans-31" d="M 794 531 
L 1825 531 
L 1825 4091 
L 703 3866 
L 703 4441 
L 1819 4666 
L 2450 4666 
L 2450 531 
L 3481 531 
L 3481 0 
L 794 0 
L 794 531 
z
" transform="scale(0.015625)"/>
      <path id="DejaVuSans-2f" d="M 1625 4666 
L 2156 4666 
L 531 -594 
L 0 -594 
L 1625 4666 
z
" transform="scale(0.015625)"/>
      <path id="DejaVuSans-32" d="M 1228 531 
L 3431 531 
L 3431 0 
L 469 0 
L 469 531 
Q 828 903 1448 1529 
Q 2069 2156 2228 2338 
Q 2531 2678 2651 2914 
Q 2772 3150 2772 3378 
Q 2772 3750 2511 3984 
Q 2250 4219 1831 4219 
Q 1534 4219 1204 4116 
Q 875 4013 500 3803 
L 500 4441 
Q 881 4594 1212 4672 
Q 1544 4750 1819 4750 
Q 2544 4750 2975 4387 
Q 3406 4025 3406 3419 
Q 3406 3131 3298 2873 
Q 3191 2616 2906 2266 
Q 2828 2175 2409 1742 
Q 1991 1309 1228 531 
z
" transform="scale(0.015625)"/>
     </defs>
     <use xlink:href="#DejaVuSans-Oblique-3c4" transform="translate(0 0.3125)"/>
     <use xlink:href="#DejaVuSans-31" transform="translate(60.205078 -16.09375) scale(0.7)"/>
     <use xlink:href="#DejaVuSans-2f" transform="translate(104.741211 -16.09375) scale(0.7)"/>
     <use xlink:href="#DejaVuSans-32" transform="translate(125.787695 -16.09375) scale(0.7)"/>
    </g>
   </g>
   <g id="line2d_16">
    <path d="M 41.795 10.779029 
L 47.029871 20.268276 
L 52.264742 29.339291 
L 58.081266 38.95007 
L 63.897789 48.091362 
L 69.714313 56.786102 
L 75.530836 65.056104 
L 81.34736 72.922118 
L 87.163883 80.403876 
L 92.980407 87.520151 
L 98.79693 94.288796 
L 104.613454 100.726793 
L 110.429977 106.850294 
L 116.2465 112.674662 
L 122.644676 118.753387 
L 129.042852 124.506281 
L 135.441028 129.950811 
L 141.839204 135.103504 
L 148.23738 139.980004 
L 154.635555 144.595115 
L 161.615384 149.348111 
L 168.595212 153.823867 
L 175.57504 158.038552 
L 182.554868 162.007396 
L 190.116349 166.046162 
L 197.677829 169.830348 
L 205.23931 173.376001 
L 213.382442 176.944859 
L 221.525575 180.272052 
L 230.250361 183.587295 
L 238.975146 186.662606 
L 248.281583 189.698018 
L 257.588021 192.499683 
L 267.476111 195.240443 
L 277.945853 197.899002 
L 288.415595 200.328376 
L 299.46699 202.665884 
L 311.100037 204.897568 
L 323.314736 207.01228 
L 336.111088 209.001622 
L 349.489092 210.859835 
L 364.0304 212.651054 
L 379.153361 214.290663 
L 390.204756 215.360796 
L 390.204756 215.360796 
" clip-path="url(#p08f363ef8c)" style="fill: none; stroke: #e37c47; stroke-width: 2.8; stroke-linecap: round"/>
   </g>
   <g id="line2d_17">
    <path d="M 122.294747 226.08 
L 122.294747 230.816621 
" style="fill: none; stroke: #cf6a37; stroke-width: 1.4; stroke-linecap: round"/>
   </g>
   <g id="legend_1">
    <g id="patch_5">
     <path d="M 311.315 91.835625 
L 391.915 91.835625 
Q 393.915 91.835625 393.915 89.835625 
L 393.915 11.32 
Q 393.915 9.32 391.915 9.32 
L 311.315 9.32 
Q 309.315 9.32 309.315 11.32 
L 309.315 89.835625 
Q 309.315 91.835625 311.315 91.835625 
z
" style="fill: #ffffff; opacity: 0.95; stroke: #c9ccd3; stroke-linejoin: miter"/>
    </g>
    <g id="text_14">
     <!-- rate  $\alpha=-\mathrm{Re}\,\lambda$ -->
     <g style="fill: #303030" transform="translate(316.315 23.723125) scale(0.1 -0.1)">
      <defs>
       <path id="DejaVuSans-3d" d="M 678 2906 
L 4684 2906 
L 4684 2381 
L 678 2381 
L 678 2906 
z
M 678 1631 
L 4684 1631 
L 4684 1100 
L 678 1100 
L 678 1631 
z
" transform="scale(0.015625)"/>
       <path id="DejaVuSans-52" d="M 2841 2188 
Q 3044 2119 3236 1894 
Q 3428 1669 3622 1275 
L 4263 0 
L 3584 0 
L 2988 1197 
Q 2756 1666 2539 1819 
Q 2322 1972 1947 1972 
L 1259 1972 
L 1259 0 
L 628 0 
L 628 4666 
L 2053 4666 
Q 2853 4666 3247 4331 
Q 3641 3997 3641 3322 
Q 3641 2881 3436 2590 
Q 3231 2300 2841 2188 
z
M 1259 4147 
L 1259 2491 
L 2053 2491 
Q 2509 2491 2742 2702 
Q 2975 2913 2975 3322 
Q 2975 3731 2742 3939 
Q 2509 4147 2053 4147 
L 1259 4147 
z
" transform="scale(0.015625)"/>
       <path id="DejaVuSans-65" d="M 3597 1894 
L 3597 1613 
L 953 1613 
Q 991 1019 1311 708 
Q 1631 397 2203 397 
Q 2534 397 2845 478 
Q 3156 559 3463 722 
L 3463 178 
Q 3153 47 2828 -22 
Q 2503 -91 2169 -91 
Q 1331 -91 842 396 
Q 353 884 353 1716 
Q 353 2575 817 3079 
Q 1281 3584 2069 3584 
Q 2775 3584 3186 3129 
Q 3597 2675 3597 1894 
z
M 3022 2063 
Q 3016 2534 2758 2815 
Q 2500 3097 2075 3097 
Q 1594 3097 1305 2825 
Q 1016 2553 972 2059 
L 3022 2063 
z
" transform="scale(0.015625)"/>
       <path id="DejaVuSans-Oblique-3bb" d="M 2350 4316 
L 3125 0 
L 2516 0 
L 2038 2588 
L 328 0 
L -281 0 
L 1903 3356 
L 1794 3975 
Q 1725 4369 1391 4369 
L 1091 4369 
L 1184 4863 
L 1550 4856 
Q 2253 4847 2350 4316 
z
" transform="scale(0.015625)"/>
      </defs>
      <use xlink:href="#SegoeUI-72" transform="translate(0 0.015625)"/>
      <use xlink:href="#SegoeUI-61" transform="translate(34.765625 0.015625)"/>
      <use xlink:href="#SegoeUI-74" transform="translate(85.644531 0.015625)"/>
      <use xlink:href="#SegoeUI-65" transform="translate(119.53125 0.015625)"/>
      <use xlink:href="#SegoeUI-20" transform="translate(171.826172 0.015625)"/>
      <use xlink:href="#SegoeUI-20" transform="translate(199.21875 0.015625)"/>
      <use xlink:href="#DejaVuSans-Oblique-3b1" transform="translate(226.611328 0.015625)"/>
      <use xlink:href="#DejaVuSans-3d" transform="translate(312.011719 0.015625)"/>
      <use xlink:href="#DejaVuSans-2212" transform="translate(415.283203 0.015625)"/>
      <use xlink:href="#DejaVuSans-52" transform="translate(499.072266 0.015625)"/>
      <use xlink:href="#DejaVuSans-65" transform="translate(568.554688 0.015625)"/>
      <use xlink:href="#DejaVuSans-Oblique-3bb" transform="translate(646.313801 0.015625)"/>
     </g>
    </g>
    <g id="line2d_18">
     <path d="M 327.715 34.92625 
L 336.715 34.92625 
L 345.715 34.92625 
" style="fill: none; stroke: #bcc6d6; stroke-width: 2; stroke-linecap: round"/>
    </g>
    <g id="text_15">
     <!-- $0.25$ -->
     <g style="fill: #303030" transform="translate(353.715 38.42625) scale(0.1 -0.1)">
      <defs>
       <path id="DejaVuSans-30" d="M 2034 4250 
Q 1547 4250 1301 3770 
Q 1056 3291 1056 2328 
Q 1056 1369 1301 889 
Q 1547 409 2034 409 
Q 2525 409 2770 889 
Q 3016 1369 3016 2328 
Q 3016 3291 2770 3770 
Q 2525 4250 2034 4250 
z
M 2034 4750 
Q 2819 4750 3233 4129 
Q 3647 3509 3647 2328 
Q 3647 1150 3233 529 
Q 2819 -91 2034 -91 
Q 1250 -91 836 529 
Q 422 1150 422 2328 
Q 422 3509 836 4129 
Q 1250 4750 2034 4750 
z
" transform="scale(0.015625)"/>
       <path id="DejaVuSans-2e" d="M 684 794 
L 1344 794 
L 1344 0 
L 684 0 
L 684 794 
z
" transform="scale(0.015625)"/>
       <path id="DejaVuSans-35" d="M 691 4666 
L 3169 4666 
L 3169 4134 
L 1269 4134 
L 1269 2991 
Q 1406 3038 1543 3061 
Q 1681 3084 1819 3084 
Q 2600 3084 3056 2656 
Q 3513 2228 3513 1497 
Q 3513 744 3044 326 
Q 2575 -91 1722 -91 
Q 1428 -91 1123 -41 
Q 819 9 494 109 
L 494 744 
Q 775 591 1075 516 
Q 1375 441 1709 441 
Q 2250 441 2565 725 
Q 2881 1009 2881 1497 
Q 2881 1984 2565 2268 
Q 2250 2553 1709 2553 
Q 1456 2553 1204 2497 
Q 953 2441 691 2322 
L 691 4666 
z
" transform="scale(0.015625)"/>
      </defs>
      <use xlink:href="#DejaVuSans-30" transform="translate(0 0.78125)"/>
      <use xlink:href="#DejaVuSans-2e" transform="translate(63.623047 0.78125)"/>
      <use xlink:href="#DejaVuSans-32" transform="translate(89.910156 0.78125)"/>
      <use xlink:href="#DejaVuSans-35" transform="translate(153.533203 0.78125)"/>
     </g>
    </g>
    <g id="line2d_19">
     <path d="M 327.715 49.629375 
L 336.715 49.629375 
L 345.715 49.629375 
" style="fill: none; stroke: #e37c47; stroke-width: 2.8; stroke-linecap: round"/>
    </g>
    <g id="text_16">
     <!-- $0.5$ -->
     <g style="fill: #303030" transform="translate(353.715 53.129375) scale(0.1 -0.1)">
      <use xlink:href="#DejaVuSans-30" transform="translate(0 0.78125)"/>
      <use xlink:href="#DejaVuSans-2e" transform="translate(63.623047 0.78125)"/>
      <use xlink:href="#DejaVuSans-35" transform="translate(95.410156 0.78125)"/>
     </g>
    </g>
    <g id="line2d_20">
     <path d="M 327.715 64.3325 
L 336.715 64.3325 
L 345.715 64.3325 
" style="fill: none; stroke: #6e7f9c; stroke-width: 2; stroke-linecap: round"/>
    </g>
    <g id="text_17">
     <!-- $1$ -->
     <g style="fill: #303030" transform="translate(353.715 67.8325) scale(0.1 -0.1)">
      <use xlink:href="#DejaVuSans-31" transform="translate(0 0.09375)"/>
     </g>
    </g>
    <g id="line2d_21">
     <path d="M 327.715 79.035625 
L 336.715 79.035625 
L 345.715 79.035625 
" style="fill: none; stroke: #3a4a63; stroke-width: 2; stroke-linecap: round"/>
    </g>
    <g id="text_18">
     <!-- $2$ -->
     <g style="fill: #303030" transform="translate(353.715 82.535625) scale(0.1 -0.1)">
      <use xlink:href="#DejaVuSans-32" transform="translate(0 0.78125)"/>
     </g>
    </g>
   </g>
   <g id="line2d_22">
    <defs>
     <path id="m96d79efdfa" d="M 0 3.5 
C 0.928211 3.5 1.81853 3.131218 2.474874 2.474874 
C 3.131218 1.81853 3.5 0.928211 3.5 0 
C 3.5 -0.928211 3.131218 -1.81853 2.474874 -2.474874 
C 1.81853 -3.131218 0.928211 -3.5 0 -3.5 
C -0.928211 -3.5 -1.81853 -3.131218 -2.474874 -2.474874 
C -3.131218 -1.81853 -3.5 -0.928211 -3.5 0 
C -3.5 0.928211 -3.131218 1.81853 -2.474874 2.474874 
C -1.81853 3.131218 -0.928211 3.5 0 3.5 
z
" style="stroke: #ffffff; stroke-width: 1.3"/>
    </defs>
    <g clip-path="url(#p08f363ef8c)">
     <use xlink:href="#m96d79efdfa" x="122.294747" y="118.429515" style="fill: #e37c47; stroke: #ffffff; stroke-width: 1.3"/>
    </g>
   </g>
  </g>
 </g>
 <defs>
  <clipPath id="p08f363ef8c">
   <rect x="41.795" y="4.32" width="357.12" height="221.76"/>
  </clipPath>
 </defs>
</svg>
