<?xml version="1.0" encoding="utf-8" standalone="no"?>
<!DOCTYPE svg PUBLIC "-//W3C//DTD SVG 1.1//EN"
  "http://www.w3.org/Graphics/SVG/1.1/DTD/svg11.dtd">
<svg xmlns:xlink="http://www.w3.org/1999/xlink" width="350.1504pt" height="319.104pt" viewBox="0 0 350.1504 319.104" xmlns="http://www.w3.org/2000/svg" version="1.1">
 <metadata>
  <rdf:RDF xmlns:dc="http://purl.org/dc/elements/1.1/" xmlns:cc="http://creativecommons.org/ns#" xmlns:rdf="http://www.w3.org/1999/02/22-rdf-syntax-ns#">
   <cc:Work>
    <dc:type rdf:resource="http://purl.org/dc/dcmitype/StillImage"/>
    <dc:date>2026-06-04T23:53:08.712386</dc:date>
    <dc:format>image/svg+xml</dc:format>
    <dc:creator>
     <cc:Agent>
      <dc:title>Matplotlib v3.10.3, https://matplotlib.org/</dc:title>
     </cc:Agent>
    </dc:creator>
   </cc:Work>
  </rdf:RDF>
 </metadata>
 <defs>
  <style type="text/css">*{stroke-linejoin: round; stroke-linecap: butt}</style>
 </defs>
 <g id="figure_1">
  <g id="patch_1">
   <path d="M 0 319.104 
L 350.1504 319.104 
L 350.1504 0 
L 0 0 
z
" style="fill: #ffffff"/>
  </g>
  <g id="axes_1">
   <g id="patch_2">
    <path d="M 4.32 314.784 
L 190.5984 314.784 
L 190.5984 4.32 
L 4.32 4.32 
z
" clip-path="url(#padd5595b08)" style="fill: #4a5c79; opacity: 0.12"/>
   </g>
   <g id="patch_3">
    <path d="M 190.5984 280.792068 
C 222.751642 280.792068 253.592299 268.017449 276.328074 245.281674 
C 299.063849 222.545899 311.838468 191.705242 311.838468 159.552 
C 311.838468 127.398758 299.063849 96.558101 276.328074 73.822326 
C 253.592299 51.086551 222.751642 38.311932 190.5984 38.311932 
C 158.445158 38.311932 127.604501 51.086551 104.868726 73.822326 
C 82.132951 96.558101 69.358332 127.398758 69.358332 159.552 
C 69.358332 191.705242 82.132951 222.545899 104.868726 245.281674 
C 127.604501 268.017449 158.445158 280.792068 190.5984 280.792068 
L 190.5984 280.792068 
z
" clip-path="url(#padd5595b08)" style="fill: none; stroke: #c9ccd3; stroke-width: 1.3; stroke-linejoin: miter"/>
   </g>
   <g id="patch_4">
    <path d="M 4.32 159.552 
Q 175.0752 159.552 344.376956 159.552 
" style="fill: none; stroke: #6b7280; stroke-width: 1.3; stroke-linecap: round"/>
    <path d="M 339.976956 157.352 
L 344.376956 159.552 
L 339.976956 161.752 
z
" style="fill: #6b7280; stroke: #6b7280; stroke-width: 1.3; stroke-linecap: round"/>
   </g>
   <g id="patch_5">
    <path d="M 190.5984 314.784 
Q 190.5984 159.552 190.5984 5.773444 
" style="fill: none; stroke: #6b7280; stroke-width: 1.3; stroke-linecap: round"/>
    <path d="M 188.3984 10.173444 
L 190.5984 5.773444 
L 192.7984 10.173444 
z
" style="fill: #6b7280; stroke: #6b7280; stroke-width: 1.3; stroke-linecap: round"/>
   </g>
   <g id="text_1">
    <!-- $\mathrm{Re}\,\lambda$ -->
    <g style="fill: #6b7280" transform="translate(318.66192 177.74967) scale(0.12 -0.12)">
     <defs>
      <path id="DejaVuSans-52" d="M 2841 2188 
Q 3044 2119 3236 1894 
Q 3428 1669 3622 1275 
L 4263 0 
L 3584 0 
L 2988 1197 
Q 2756 1666 2539 1819 
Q 2322 1972 1947 1972 
L 1259 1972 
L 1259 0 
L 628 0 
L 628 4666 
L 2053 4666 
Q 2853 4666 3247 4331 
Q 3641 3997 3641 3322 
Q 3641 2881 3436 2590 
Q 3231 2300 2841 2188 
z
M 1259 4147 
L 1259 2491 
L 2053 2491 
Q 2509 2491 2742 2702 
Q 2975 2913 2975 3322 
Q 2975 3731 2742 3939 
Q 2509 4147 2053 4147 
L 1259 4147 
z
" transform="scale(0.015625)"/>
      <path id="DejaVuSans-65" d="M 3597 1894 
L 3597 1613 
L 953 1613 
Q 991 1019 1311 708 
Q 1631 397 2203 397 
Q 2534 397 2845 478 
Q 3156 559 3463 722 
L 3463 178 
Q 3153 47 2828 -22 
Q 2503 -91 2169 -91 
Q 1331 -91 842 396 
Q 353 884 353 1716 
Q 353 2575 817 3079 
Q 1281 3584 2069 3584 
Q 2775 3584 3186 3129 
Q 3597 2675 3597 1894 
z
M 3022 2063 
Q 3016 2534 2758 2815 
Q 2500 3097 2075 3097 
Q 1594 3097 1305 2825 
Q 1016 2553 972 2059 
L 3022 2063 
z
" transform="scale(0.015625)"/>
      <path id="DejaVuSans-Oblique-3bb" d="M 2350 4316 
L 3125 0 
L 2516 0 
L 2038 2588 
L 328 0 
L -281 0 
L 1903 3356 
L 1794 3975 
Q 1725 4369 1391 4369 
L 1091 4369 
L 1184 4863 
L 1550 4856 
Q 2253 4847 2350 4316 
z
" transform="scale(0.015625)"/>
     </defs>
     <use xlink:href="#DejaVuSans-52" transform="translate(0 0.015625)"/>
     <use xlink:href="#DejaVuSans-65" transform="translate(69.482422 0.015625)"/>
     <use xlink:href="#DejaVuSans-Oblique-3bb" transform="translate(147.241536 0.015625)"/>
    </g>
   </g>
   <g id="text_2">
    <!-- $\mathrm{Im}\,\lambda$ -->
    <g style="fill: #6b7280" transform="translate(198.36 14.75607) scale(0.12 -0.12)">
     <defs>
      <path id="DejaVuSans-49" d="M 628 4666 
L 1259 4666 
L 1259 0 
L 628 0 
L 628 4666 
z
" transform="scale(0.015625)"/>
      <path id="DejaVuSans-6d" d="M 3328 2828 
Q 3544 3216 3844 3400 
Q 4144 3584 4550 3584 
Q 5097 3584 5394 3201 
Q 5691 2819 5691 2113 
L 5691 0 
L 5113 0 
L 5113 2094 
Q 5113 2597 4934 2840 
Q 4756 3084 4391 3084 
Q 3944 3084 3684 2787 
Q 3425 2491 3425 1978 
L 3425 0 
L 2847 0 
L 2847 2094 
Q 2847 2600 2669 2842 
Q 2491 3084 2119 3084 
Q 1678 3084 1418 2786 
Q 1159 2488 1159 1978 
L 1159 0 
L 581 0 
L 581 3500 
L 1159 3500 
L 1159 2956 
Q 1356 3278 1631 3431 
Q 1906 3584 2284 3584 
Q 2666 3584 2933 3390 
Q 3200 3197 3328 2828 
z
" transform="scale(0.015625)"/>
     </defs>
     <use xlink:href="#DejaVuSans-49" transform="translate(0 0.015625)"/>
     <use xlink:href="#DejaVuSans-6d" transform="translate(25.867188 0.015625)"/>
     <use xlink:href="#DejaVuSans-Oblique-3bb" transform="translate(139.514973 0.015625)"/>
    </g>
   </g>
   <g id="line2d_1">
    <path d="M 190.5984 159.552 
L 112.9824 252.6912 
" clip-path="url(#padd5595b08)" style="fill: none; stroke: #6b7280; stroke-opacity: 0.7; stroke-linecap: round"/>
   </g>
   <g id="line2d_2">
    <path d="M 112.9824 159.552 
L 112.9824 66.4128 
" clip-path="url(#padd5595b08)" style="fill: none; stroke-dasharray: 2,2.6; stroke-dashoffset: 0; stroke: #6b7280"/>
   </g>
   <g id="line2d_3">
    <path d="M 112.9824 66.4128 
L 190.5984 66.4128 
" clip-path="url(#padd5595b08)" style="fill: none; stroke-dasharray: 2,2.6; stroke-dashoffset: 0; stroke: #6b7280"/>
   </g>
   <g id="line2d_4">
    <path d="M 112.9824 159.552 
L 112.9824 252.6912 
" clip-path="url(#padd5595b08)" style="fill: none; stroke-dasharray: 2,2.6; stroke-dashoffset: 0; stroke: #6b7280"/>
   </g>
   <g id="line2d_5">
    <path d="M 112.9824 252.6912 
L 190.5984 252.6912 
" clip-path="url(#padd5595b08)" style="fill: none; stroke-dasharray: 2,2.6; stroke-dashoffset: 0; stroke: #6b7280"/>
   </g>
   <g id="text_3">
    <!-- $-\alpha$ -->
    <g style="fill: #303030" transform="translate(130.74684 149.92156) scale(0.115 -0.115)">
     <defs>
      <path id="DejaVuSans-2212" d="M 678 2272 
L 4684 2272 
L 4684 1741 
L 678 1741 
L 678 2272 
z
" transform="scale(0.015625)"/>
      <path id="DejaVuSans-Oblique-3b1" d="M 2619 1628 
L 2622 2350 
Q 2625 3088 2069 3091 
Q 1653 3094 1394 2747 
Q 1069 2319 959 1747 
Q 825 1059 994 731 
Q 1169 397 1547 397 
Q 1966 397 2319 1063 
L 2619 1628 
z
M 2166 3578 
Q 3141 3594 3128 2584 
Q 3128 2584 3616 3500 
L 4128 3500 
L 3119 1603 
L 3109 919 
Q 3109 766 3194 638 
Q 3291 488 3391 488 
L 3669 488 
L 3575 0 
L 3228 0 
Q 2934 0 2722 263 
Q 2622 394 2619 669 
Q 2416 334 2066 50 
Q 1900 -81 1453 -78 
Q 722 -72 456 397 
Q 184 884 353 1747 
Q 534 2675 1009 3097 
Q 1544 3569 2166 3578 
z
" transform="scale(0.015625)"/>
     </defs>
     <use xlink:href="#DejaVuSans-2212" transform="translate(0 0.84375)"/>
     <use xlink:href="#DejaVuSans-Oblique-3b1" transform="translate(83.789062 0.84375)"/>
    </g>
   </g>
   <g id="text_4">
    <!-- $i\omega$ -->
    <g style="fill: #303030" transform="translate(199.91232 69.219519) scale(0.11 -0.11)">
     <defs>
      <path id="DejaVuSans-Oblique-69" d="M 1172 4863 
L 1747 4863 
L 1606 4134 
L 1031 4134 
L 1172 4863 
z
M 909 3500 
L 1484 3500 
L 800 0 
L 225 0 
L 909 3500 
z
" transform="scale(0.015625)"/>
      <path id="DejaVuSans-Oblique-3c9" d="M 1369 -91 
Q 72 -91 434 1766 
Q 575 2500 1256 3500 
L 1875 3500 
Q 1231 2500 1088 1750 
Q 819 397 1519 397 
Q 2166 397 2478 2078 
L 3009 2078 
Q 2669 388 3316 397 
Q 4013 403 4275 1750 
Q 4419 2500 4169 3500 
L 4788 3500 
Q 5075 2500 4934 1766 
Q 4578 -94 3278 -91 
Q 2428 -88 2503 844 
Q 2194 -91 1369 -91 
z
" transform="scale(0.015625)"/>
     </defs>
     <use xlink:href="#DejaVuSans-Oblique-69" transform="translate(0 0.015625)"/>
     <use xlink:href="#DejaVuSans-Oblique-3c9" transform="translate(27.783203 0.015625)"/>
    </g>
   </g>
   <g id="text_5">
    <!-- $-i\omega$ -->
    <g style="fill: #303030" transform="translate(199.91232 255.497919) scale(0.11 -0.11)">
     <use xlink:href="#DejaVuSans-2212" transform="translate(0 0.015625)"/>
     <use xlink:href="#DejaVuSans-Oblique-69" transform="translate(83.789062 0.015625)"/>
     <use xlink:href="#DejaVuSans-Oblique-3c9" transform="translate(111.572266 0.015625)"/>
    </g>
   </g>
   <g id="line2d_6">
    <path d="M 190.5984 159.552 
L 112.9824 66.4128 
" clip-path="url(#padd5595b08)" style="fill: none; stroke: #303030; stroke-width: 1.5; stroke-linecap: round"/>
   </g>
   <g id="patch_6">
    <path d="M 164.51191 128.248212 
C 159.923062 132.072252 156.230705 136.858952 153.69708 142.268346 
C 151.163455 147.677741 149.85 153.578659 149.85 159.552 
" clip-path="url(#padd5595b08)" style="fill: none; stroke: #cf6a37; stroke-width: 1.6; stroke-linejoin: miter"/>
   </g>
   <g id="line2d_7">
    <path d="M 112.9824 164.98512 
L 112.9824 154.11888 
" clip-path="url(#padd5595b08)" style="fill: none; stroke: #303030; stroke-width: 1.4; stroke-linecap: round"/>
   </g>
   <g id="line2d_8">
    <path d="M 185.16528 66.4128 
L 196.03152 66.4128 
" clip-path="url(#padd5595b08)" style="fill: none; stroke: #303030; stroke-width: 1.4; stroke-linecap: round"/>
   </g>
   <g id="line2d_9">
    <path d="M 185.16528 252.6912 
L 196.03152 252.6912 
" clip-path="url(#padd5595b08)" style="fill: none; stroke: #303030; stroke-width: 1.4; stroke-linecap: round"/>
   </g>
   <g id="text_6">
    <!-- $\theta$ -->
    <g style="fill: #cf6a37" transform="translate(160.48896 150.195315) scale(0.12 -0.12)">
     <defs>
      <path id="DejaVuSans-Oblique-3b8" d="M 2913 2219 
L 925 2219 
Q 791 1284 928 888 
Q 1100 400 1566 400 
Q 2034 400 2391 891 
Q 2703 1322 2913 2219 
z
M 3009 2750 
Q 3094 3638 2984 3950 
Q 2813 4444 2353 4444 
Q 1875 4444 1525 3956 
Q 1250 3563 1034 2750 
L 3009 2750 
z
M 2444 4913 
Q 3194 4913 3494 4250 
Q 3794 3591 3566 2422 
Q 3341 1256 2781 594 
Q 2225 -72 1475 -72 
Q 722 -72 425 594 
Q 128 1256 353 2422 
Q 581 3591 1134 4250 
Q 1691 4913 2444 4913 
z
" transform="scale(0.015625)"/>
     </defs>
     <use xlink:href="#DejaVuSans-Oblique-3b8" transform="translate(0 0.234375)"/>
    </g>
   </g>
   <g id="line2d_10">
    <defs>
     <path id="ma4e0d30f46" d="M -6 6 
L 6 -6 
M -6 -6 
L 6 6 
" style="stroke: #e37c47; stroke-width: 3"/>
    </defs>
    <g clip-path="url(#padd5595b08)">
     <use xlink:href="#ma4e0d30f46" x="112.9824" y="66.4128" style="fill: #e37c47; stroke: #e37c47; stroke-width: 3"/>
     <use xlink:href="#ma4e0d30f46" x="112.9824" y="252.6912" style="fill: #e37c47; stroke: #e37c47; stroke-width: 3"/>
    </g>
   </g>
   <g id="text_7">
    <!-- $|\lambda|$ -->
    <g style="fill: #303030" transform="translate(167.3136 106.538016) scale(0.12 -0.12)">
     <defs>
      <path id="DejaVuSans-7c" d="M 1344 4891 
L 1344 -1509 
L 813 -1509 
L 813 4891 
L 1344 4891 
z
" transform="scale(0.015625)"/>
     </defs>
     <use xlink:href="#DejaVuSans-7c" transform="translate(0 0.578125)"/>
     <use xlink:href="#DejaVuSans-Oblique-3bb" transform="translate(33.691406 0.578125)"/>
     <use xlink:href="#DejaVuSans-7c" transform="translate(92.871094 0.578125)"/>
    </g>
   </g>
   <g id="text_8">
    <!-- $\lambda=-\alpha+i\omega$ -->
    <g style="fill: #cf6a37" transform="translate(69.8458 51.11924) scale(0.125 -0.125)">
     <defs>
      <path id="DejaVuSans-3d" d="M 678 2906 
L 4684 2906 
L 4684 2381 
L 678 2381 
L 678 2906 
z
M 678 1631 
L 4684 1631 
L 4684 1100 
L 678 1100 
L 678 1631 
z
" transform="scale(0.015625)"/>
      <path id="DejaVuSans-2b" d="M 2944 4013 
L 2944 2272 
L 4684 2272 
L 4684 1741 
L 2944 1741 
L 2944 0 
L 2419 0 
L 2419 1741 
L 678 1741 
L 678 2272 
L 2419 2272 
L 2419 4013 
L 2944 4013 
z
" transform="scale(0.015625)"/>
     </defs>
     <use xlink:href="#DejaVuSans-Oblique-3bb" transform="translate(0 0.015625)"/>
     <use xlink:href="#DejaVuSans-3d" transform="translate(78.662109 0.015625)"/>
     <use xlink:href="#DejaVuSans-2212" transform="translate(181.933594 0.015625)"/>
     <use xlink:href="#DejaVuSans-Oblique-3b1" transform="translate(265.722656 0.015625)"/>
     <use xlink:href="#DejaVuSans-2b" transform="translate(351.123047 0.015625)"/>
     <use xlink:href="#DejaVuSans-Oblique-69" transform="translate(454.394531 0.015625)"/>
     <use xlink:href="#DejaVuSans-Oblique-3c9" transform="translate(482.177734 0.015625)"/>
    </g>
   </g>
   <g id="text_9">
    <!-- $\bar\lambda=-\alpha-i\omega$ -->
    <g style="fill: #cf6a37" transform="translate(69.8458 274.48476) scale(0.125 -0.125)">
     <defs>
      <path id="DejaVuSans-304" d="M -2518 4769 
L -650 4769 
L -650 4306 
L -2518 4306 
L -2518 4769 
z
" transform="scale(0.015625)"/>
     </defs>
     <use xlink:href="#DejaVuSans-304" transform="translate(57.648438 21.484375)"/>
     <use xlink:href="#DejaVuSans-Oblique-3bb" transform="translate(0 0.28125)"/>
     <use xlink:href="#DejaVuSans-3d" transform="translate(78.662109 0.28125)"/>
     <use xlink:href="#DejaVuSans-2212" transform="translate(181.933594 0.28125)"/>
     <use xlink:href="#DejaVuSans-Oblique-3b1" transform="translate(265.722656 0.28125)"/>
     <use xlink:href="#DejaVuSans-2212" transform="translate(351.123047 0.28125)"/>
     <use xlink:href="#DejaVuSans-Oblique-69" transform="translate(454.394531 0.28125)"/>
     <use xlink:href="#DejaVuSans-Oblique-3c9" transform="translate(482.177734 0.28125)"/>
    </g>
   </g>
  </g>
 </g>
 <defs>
  <clipPath id="padd5595b08">
   <rect x="4.32" y="4.32" width="341.5104" height="310.464"/>
  </clipPath>
 </defs>
</svg>
