<?xml version="1.0" encoding="utf-8" standalone="no"?>
<!DOCTYPE svg PUBLIC "-//W3C//DTD SVG 1.1//EN"
  "http://www.w3.org/Graphics/SVG/1.1/DTD/svg11.dtd">
<svg xmlns:xlink="http://www.w3.org/1999/xlink" width="468.27875pt" height="302.766437pt" viewBox="0 0 468.27875 302.766437" xmlns="http://www.w3.org/2000/svg" version="1.1">
 <metadata>
  <rdf:RDF xmlns:dc="http://purl.org/dc/elements/1.1/" xmlns:cc="http://creativecommons.org/ns#" xmlns:rdf="http://www.w3.org/1999/02/22-rdf-syntax-ns#">
   <cc:Work>
    <dc:type rdf:resource="http://purl.org/dc/dcmitype/StillImage"/>
    <dc:date>2026-06-04T18:35:01.463039</dc:date>
    <dc:format>image/svg+xml</dc:format>
    <dc:creator>
     <cc:Agent>
      <dc:title>Matplotlib v3.10.3, https://matplotlib.org/</dc:title>
     </cc:Agent>
    </dc:creator>
   </cc:Work>
  </rdf:RDF>
 </metadata>
 <defs>
  <style type="text/css">*{stroke-linejoin: round; stroke-linecap: butt}</style>
 </defs>
 <g id="figure_1">
  <g id="patch_1">
   <path d="M 0 302.766437 
L 468.27875 302.766437 
L 468.27875 0 
L 0 0 
z
" style="fill: #ffffff"/>
  </g>
  <g id="axes_1">
   <g id="patch_2">
    <path d="M 51.03875 264.888 
L 463.95875 264.888 
L 463.95875 4.32 
L 51.03875 4.32 
z
" style="fill: #ffffff"/>
   </g>
   <g id="matplotlib.axis_1">
    <g id="xtick_1">
     <g id="line2d_1">
      <path d="M 51.03875 264.888 
L 51.03875 4.32 
" clip-path="url(#p82737b1c86)" style="fill: none; stroke: #c9ccd3; stroke-opacity: 0.55; stroke-width: 0.6; stroke-linecap: round"/>
     </g>
     <g id="line2d_2">
      <defs>
       <path id="mdc1245c4f5" d="M 0 0 
L 0 4 
" style="stroke: #6b7280"/>
      </defs>
      <g>
       <use xlink:href="#mdc1245c4f5" x="51.03875" y="264.888" style="fill: #6b7280; stroke: #6b7280"/>
      </g>
     </g>
     <g id="text_1">
      <!-- 0 -->
      <g style="fill: #303030" transform="translate(48.073906 280.531437) scale(0.11 -0.11)">
       <defs>
        <path id="SegoeUI-30" d="M 3188 2259 
Q 3188 1697 3086 1262 
Q 2984 828 2792 529 
Q 2600 231 2320 76 
Q 2041 -78 1684 -78 
Q 1347 -78 1083 70 
Q 819 219 637 503 
Q 456 788 362 1202 
Q 269 1616 269 2150 
Q 269 2738 367 3188 
Q 466 3638 656 3942 
Q 847 4247 1130 4401 
Q 1413 4556 1778 4556 
Q 3188 4556 3188 2259 
z
M 2663 2209 
Q 2663 4122 1753 4122 
Q 794 4122 794 2175 
Q 794 359 1734 359 
Q 2663 359 2663 2209 
z
" transform="scale(0.015625)"/>
       </defs>
       <use xlink:href="#SegoeUI-30"/>
      </g>
     </g>
    </g>
    <g id="xtick_2">
     <g id="line2d_3">
      <path d="M 116.581607 264.888 
L 116.581607 4.32 
" clip-path="url(#p82737b1c86)" style="fill: none; stroke: #c9ccd3; stroke-opacity: 0.55; stroke-width: 0.6; stroke-linecap: round"/>
     </g>
     <g id="line2d_4">
      <g>
       <use xlink:href="#mdc1245c4f5" x="116.581607" y="264.888" style="fill: #6b7280; stroke: #6b7280"/>
      </g>
     </g>
     <g id="text_2">
      <!-- 10 -->
      <g style="fill: #303030" transform="translate(110.65192 280.531437) scale(0.11 -0.11)">
       <defs>
        <path id="SegoeUI-31" d="M 2263 0 
L 1750 0 
L 1750 3872 
Q 1691 3813 1577 3736 
Q 1463 3659 1320 3584 
Q 1178 3509 1020 3443 
Q 863 3378 713 3341 
L 713 3859 
Q 881 3906 1070 3986 
Q 1259 4066 1442 4164 
Q 1625 4263 1787 4370 
Q 1950 4478 2069 4581 
L 2263 4581 
L 2263 0 
z
" transform="scale(0.015625)"/>
       </defs>
       <use xlink:href="#SegoeUI-31"/>
       <use xlink:href="#SegoeUI-30" transform="translate(53.90625 0)"/>
      </g>
     </g>
    </g>
    <g id="xtick_3">
     <g id="line2d_5">
      <path d="M 182.124464 264.888 
L 182.124464 4.32 
" clip-path="url(#p82737b1c86)" style="fill: none; stroke: #c9ccd3; stroke-opacity: 0.55; stroke-width: 0.6; stroke-linecap: round"/>
     </g>
     <g id="line2d_6">
      <g>
       <use xlink:href="#mdc1245c4f5" x="182.124464" y="264.888" style="fill: #6b7280; stroke: #6b7280"/>
      </g>
     </g>
     <g id="text_3">
      <!-- 20 -->
      <g style="fill: #303030" transform="translate(176.194777 280.531437) scale(0.11 -0.11)">
       <defs>
        <path id="SegoeUI-32" d="M 2413 3306 
Q 2413 3513 2348 3666 
Q 2284 3819 2173 3920 
Q 2063 4022 1913 4072 
Q 1763 4122 1588 4122 
Q 1438 4122 1294 4081 
Q 1150 4041 1014 3969 
Q 878 3897 751 3797 
Q 625 3697 516 3575 
L 516 4125 
Q 731 4334 998 4445 
Q 1266 4556 1650 4556 
Q 1925 4556 2159 4476 
Q 2394 4397 2566 4244 
Q 2738 4091 2836 3866 
Q 2934 3641 2934 3350 
Q 2934 3084 2873 2868 
Q 2813 2653 2689 2462 
Q 2566 2272 2378 2097 
Q 2191 1922 1938 1741 
Q 1622 1516 1417 1356 
Q 1213 1197 1092 1058 
Q 972 919 923 780 
Q 875 641 875 459 
L 3106 459 
L 3106 0 
L 341 0 
L 341 222 
Q 341 509 403 728 
Q 466 947 609 1144 
Q 753 1341 986 1537 
Q 1219 1734 1556 1981 
Q 1800 2156 1964 2315 
Q 2128 2475 2228 2634 
Q 2328 2794 2370 2958 
Q 2413 3122 2413 3306 
z
" transform="scale(0.015625)"/>
       </defs>
       <use xlink:href="#SegoeUI-32"/>
       <use xlink:href="#SegoeUI-30" transform="translate(53.90625 0)"/>
      </g>
     </g>
    </g>
    <g id="xtick_4">
     <g id="line2d_7">
      <path d="M 247.667321 264.888 
L 247.667321 4.32 
" clip-path="url(#p82737b1c86)" style="fill: none; stroke: #c9ccd3; stroke-opacity: 0.55; stroke-width: 0.6; stroke-linecap: round"/>
     </g>
     <g id="line2d_8">
      <g>
       <use xlink:href="#mdc1245c4f5" x="247.667321" y="264.888" style="fill: #6b7280; stroke: #6b7280"/>
      </g>
     </g>
     <g id="text_4">
      <!-- 30 -->
      <g style="fill: #303030" transform="translate(241.737634 280.531437) scale(0.11 -0.11)">
       <defs>
        <path id="SegoeUI-33" d="M 2978 1269 
Q 2978 966 2864 717 
Q 2750 469 2542 292 
Q 2334 116 2043 19 
Q 1753 -78 1403 -78 
Q 763 -78 384 166 
L 384 716 
Q 838 359 1422 359 
Q 1656 359 1845 418 
Q 2034 478 2170 590 
Q 2306 703 2379 862 
Q 2453 1022 2453 1222 
Q 2453 2100 1203 2100 
L 831 2100 
L 831 2534 
L 1184 2534 
Q 2291 2534 2291 3359 
Q 2291 4122 1447 4122 
Q 972 4122 556 3803 
L 556 4300 
Q 984 4556 1575 4556 
Q 1856 4556 2084 4478 
Q 2313 4400 2475 4259 
Q 2638 4119 2727 3922 
Q 2816 3725 2816 3488 
Q 2816 2603 1922 2350 
L 1922 2338 
Q 2150 2313 2344 2227 
Q 2538 2141 2678 2003 
Q 2819 1866 2898 1680 
Q 2978 1494 2978 1269 
z
" transform="scale(0.015625)"/>
       </defs>
       <use xlink:href="#SegoeUI-33"/>
       <use xlink:href="#SegoeUI-30" transform="translate(53.90625 0)"/>
      </g>
     </g>
    </g>
    <g id="xtick_5">
     <g id="line2d_9">
      <path d="M 313.210179 264.888 
L 313.210179 4.32 
" clip-path="url(#p82737b1c86)" style="fill: none; stroke: #c9ccd3; stroke-opacity: 0.55; stroke-width: 0.6; stroke-linecap: round"/>
     </g>
     <g id="line2d_10">
      <g>
       <use xlink:href="#mdc1245c4f5" x="313.210179" y="264.888" style="fill: #6b7280; stroke: #6b7280"/>
      </g>
     </g>
     <g id="text_5">
      <!-- 40 -->
      <g style="fill: #303030" transform="translate(307.280491 280.531437) scale(0.11 -0.11)">
       <defs>
        <path id="SegoeUI-34" d="M 2656 4481 
L 2656 1522 
L 3231 1522 
L 3231 1053 
L 2656 1053 
L 2656 0 
L 2150 0 
L 2150 1053 
L 44 1053 
L 44 1497 
Q 338 1828 638 2204 
Q 938 2581 1211 2968 
Q 1484 3356 1717 3742 
Q 1950 4128 2109 4481 
L 2656 4481 
z
M 622 1522 
L 2150 1522 
L 2150 3716 
Q 1916 3306 1706 2984 
Q 1497 2663 1308 2400 
Q 1119 2138 947 1925 
Q 775 1713 622 1522 
z
" transform="scale(0.015625)"/>
       </defs>
       <use xlink:href="#SegoeUI-34"/>
       <use xlink:href="#SegoeUI-30" transform="translate(53.90625 0)"/>
      </g>
     </g>
    </g>
    <g id="xtick_6">
     <g id="line2d_11">
      <path d="M 378.753036 264.888 
L 378.753036 4.32 
" clip-path="url(#p82737b1c86)" style="fill: none; stroke: #c9ccd3; stroke-opacity: 0.55; stroke-width: 0.6; stroke-linecap: round"/>
     </g>
     <g id="line2d_12">
      <g>
       <use xlink:href="#mdc1245c4f5" x="378.753036" y="264.888" style="fill: #6b7280; stroke: #6b7280"/>
      </g>
     </g>
     <g id="text_6">
      <!-- 50 -->
      <g style="fill: #303030" transform="translate(372.823348 280.531437) scale(0.11 -0.11)">
       <defs>
        <path id="SegoeUI-35" d="M 3028 1369 
Q 3028 1041 2915 775 
Q 2803 509 2595 318 
Q 2388 128 2094 25 
Q 1800 -78 1441 -78 
Q 816 -78 513 109 
L 513 653 
Q 969 359 1447 359 
Q 1691 359 1886 431 
Q 2081 503 2218 631 
Q 2356 759 2429 940 
Q 2503 1122 2503 1338 
Q 2503 1775 2209 2023 
Q 1916 2272 1356 2272 
Q 1266 2272 1166 2269 
Q 1066 2266 966 2261 
Q 866 2256 770 2250 
Q 675 2244 597 2234 
L 750 4481 
L 2822 4481 
L 2822 4019 
L 1194 4019 
L 1103 2703 
Q 1203 2709 1315 2714 
Q 1428 2719 1516 2719 
Q 1872 2719 2153 2625 
Q 2434 2531 2629 2357 
Q 2825 2184 2926 1932 
Q 3028 1681 3028 1369 
z
" transform="scale(0.015625)"/>
       </defs>
       <use xlink:href="#SegoeUI-35"/>
       <use xlink:href="#SegoeUI-30" transform="translate(53.90625 0)"/>
      </g>
     </g>
    </g>
    <g id="xtick_7">
     <g id="line2d_13">
      <path d="M 444.295893 264.888 
L 444.295893 4.32 
" clip-path="url(#p82737b1c86)" style="fill: none; stroke: #c9ccd3; stroke-opacity: 0.55; stroke-width: 0.6; stroke-linecap: round"/>
     </g>
     <g id="line2d_14">
      <g>
       <use xlink:href="#mdc1245c4f5" x="444.295893" y="264.888" style="fill: #6b7280; stroke: #6b7280"/>
      </g>
     </g>
     <g id="text_7">
      <!-- 60 -->
      <g style="fill: #303030" transform="translate(438.366205 280.531437) scale(0.11 -0.11)">
       <defs>
        <path id="SegoeUI-36" d="M 3194 1422 
Q 3194 1094 3087 819 
Q 2981 544 2793 344 
Q 2606 144 2347 33 
Q 2088 -78 1784 -78 
Q 1447 -78 1180 62 
Q 913 203 727 467 
Q 541 731 444 1112 
Q 347 1494 347 1972 
Q 347 2556 476 3032 
Q 606 3509 845 3848 
Q 1084 4188 1421 4372 
Q 1759 4556 2175 4556 
Q 2638 4556 2919 4428 
L 2919 3944 
Q 2572 4122 2188 4122 
Q 1888 4122 1647 3987 
Q 1406 3853 1234 3608 
Q 1063 3363 970 3016 
Q 878 2669 878 2244 
L 891 2244 
Q 1200 2803 1913 2803 
Q 2206 2803 2442 2703 
Q 2678 2603 2845 2420 
Q 3013 2238 3103 1984 
Q 3194 1731 3194 1422 
z
M 2669 1356 
Q 2669 1591 2609 1778 
Q 2550 1966 2439 2097 
Q 2328 2228 2165 2298 
Q 2003 2369 1797 2369 
Q 1606 2369 1443 2297 
Q 1281 2225 1162 2101 
Q 1044 1978 976 1814 
Q 909 1650 909 1466 
Q 909 1234 975 1032 
Q 1041 831 1159 681 
Q 1278 531 1442 445 
Q 1606 359 1806 359 
Q 2000 359 2159 432 
Q 2319 506 2431 637 
Q 2544 769 2606 951 
Q 2669 1134 2669 1356 
z
" transform="scale(0.015625)"/>
       </defs>
       <use xlink:href="#SegoeUI-36"/>
       <use xlink:href="#SegoeUI-30" transform="translate(53.90625 0)"/>
      </g>
     </g>
    </g>
    <g id="text_8">
     <!-- $n$-th eigenvalue -->
     <g style="fill: #303030" transform="translate(217.36375 295.686437) scale(0.115 -0.115)">
      <defs>
       <path id="DejaVuSans-Oblique-6e" d="M 3566 2113 
L 3156 0 
L 2578 0 
L 2988 2091 
Q 3016 2238 3031 2350 
Q 3047 2463 3047 2528 
Q 3047 2791 2881 2937 
Q 2716 3084 2419 3084 
Q 1956 3084 1622 2776 
Q 1288 2469 1184 1941 
L 800 0 
L 225 0 
L 903 3500 
L 1478 3500 
L 1363 2950 
Q 1603 3253 1940 3418 
Q 2278 3584 2650 3584 
Q 3113 3584 3367 3334 
Q 3622 3084 3622 2631 
Q 3622 2519 3608 2391 
Q 3594 2263 3566 2113 
z
" transform="scale(0.015625)"/>
       <path id="SegoeUI-2d" d="M 2156 1581 
L 450 1581 
L 450 1984 
L 2156 1984 
L 2156 1581 
z
" transform="scale(0.015625)"/>
       <path id="SegoeUI-74" d="M 2003 31 
Q 1822 -69 1525 -69 
Q 684 -69 684 869 
L 684 2763 
L 134 2763 
L 134 3200 
L 684 3200 
L 684 3981 
L 1197 4147 
L 1197 3200 
L 2003 3200 
L 2003 2763 
L 1197 2763 
L 1197 959 
Q 1197 638 1306 500 
Q 1416 363 1669 363 
Q 1863 363 2003 469 
L 2003 31 
z
" transform="scale(0.015625)"/>
       <path id="SegoeUI-68" d="M 3175 0 
L 2663 0 
L 2663 1844 
Q 2663 2844 1919 2844 
Q 1544 2844 1287 2555 
Q 1031 2266 1031 1813 
L 1031 0 
L 519 0 
L 519 4738 
L 1031 4738 
L 1031 2669 
L 1044 2669 
Q 1413 3275 2094 3275 
Q 3175 3275 3175 1972 
L 3175 0 
z
" transform="scale(0.015625)"/>
       <path id="SegoeUI-20" transform="scale(0.015625)"/>
       <path id="SegoeUI-65" d="M 3091 1472 
L 831 1472 
Q 844 938 1119 647 
Q 1394 356 1875 356 
Q 2416 356 2869 713 
L 2869 231 
Q 2447 -75 1753 -75 
Q 1075 -75 687 361 
Q 300 797 300 1588 
Q 300 2334 723 2804 
Q 1147 3275 1775 3275 
Q 2403 3275 2747 2869 
Q 3091 2463 3091 1741 
L 3091 1472 
z
M 2566 1906 
Q 2563 2350 2352 2597 
Q 2141 2844 1766 2844 
Q 1403 2844 1150 2584 
Q 897 2325 838 1906 
L 2566 1906 
z
" transform="scale(0.015625)"/>
       <path id="SegoeUI-69" d="M 781 4013 
Q 644 4013 547 4106 
Q 450 4200 450 4344 
Q 450 4488 547 4583 
Q 644 4678 781 4678 
Q 922 4678 1020 4583 
Q 1119 4488 1119 4344 
Q 1119 4206 1020 4109 
Q 922 4013 781 4013 
z
M 1031 0 
L 519 0 
L 519 3200 
L 1031 3200 
L 1031 0 
z
" transform="scale(0.015625)"/>
       <path id="SegoeUI-67" d="M 3250 256 
Q 3250 -1506 1563 -1506 
Q 969 -1506 525 -1281 
L 525 -769 
Q 1066 -1069 1556 -1069 
Q 2738 -1069 2738 188 
L 2738 538 
L 2725 538 
Q 2359 -75 1625 -75 
Q 1028 -75 664 351 
Q 300 778 300 1497 
Q 300 2313 692 2794 
Q 1084 3275 1766 3275 
Q 2413 3275 2725 2756 
L 2738 2756 
L 2738 3200 
L 3250 3200 
L 3250 256 
z
M 2738 1447 
L 2738 1919 
Q 2738 2300 2480 2572 
Q 2222 2844 1838 2844 
Q 1363 2844 1094 2498 
Q 825 2153 825 1531 
Q 825 997 1083 676 
Q 1341 356 1766 356 
Q 2197 356 2467 662 
Q 2738 969 2738 1447 
z
" transform="scale(0.015625)"/>
       <path id="SegoeUI-6e" d="M 3175 0 
L 2663 0 
L 2663 1825 
Q 2663 2844 1919 2844 
Q 1534 2844 1282 2555 
Q 1031 2266 1031 1825 
L 1031 0 
L 519 0 
L 519 3200 
L 1031 3200 
L 1031 2669 
L 1044 2669 
Q 1406 3275 2094 3275 
Q 2619 3275 2897 2936 
Q 3175 2597 3175 1956 
L 3175 0 
z
" transform="scale(0.015625)"/>
       <path id="SegoeUI-76" d="M 3034 3200 
L 1759 0 
L 1256 0 
L 44 3200 
L 606 3200 
L 1419 875 
Q 1509 619 1531 428 
L 1544 428 
Q 1575 669 1644 863 
L 2494 3200 
L 3034 3200 
z
" transform="scale(0.015625)"/>
       <path id="SegoeUI-61" d="M 2809 0 
L 2297 0 
L 2297 500 
L 2284 500 
Q 1950 -75 1300 -75 
Q 822 -75 551 178 
Q 281 431 281 850 
Q 281 1747 1338 1894 
L 2297 2028 
Q 2297 2844 1638 2844 
Q 1059 2844 594 2450 
L 594 2975 
Q 1066 3275 1681 3275 
Q 2809 3275 2809 2081 
L 2809 0 
z
M 2297 1619 
L 1525 1513 
Q 1169 1463 987 1336 
Q 806 1209 806 888 
Q 806 653 973 504 
Q 1141 356 1419 356 
Q 1800 356 2048 623 
Q 2297 891 2297 1300 
L 2297 1619 
z
" transform="scale(0.015625)"/>
       <path id="SegoeUI-6c" d="M 1031 0 
L 519 0 
L 519 4738 
L 1031 4738 
L 1031 0 
z
" transform="scale(0.015625)"/>
       <path id="SegoeUI-75" d="M 3106 0 
L 2594 0 
L 2594 506 
L 2581 506 
Q 2263 -75 1594 -75 
Q 450 -75 450 1288 
L 450 3200 
L 959 3200 
L 959 1369 
Q 959 356 1734 356 
Q 2109 356 2351 632 
Q 2594 909 2594 1356 
L 2594 3200 
L 3106 3200 
L 3106 0 
z
" transform="scale(0.015625)"/>
      </defs>
      <use xlink:href="#DejaVuSans-Oblique-6e" transform="translate(0 0.96875)"/>
      <use xlink:href="#SegoeUI-2d" transform="translate(63.378906 0.96875)"/>
      <use xlink:href="#SegoeUI-74" transform="translate(103.369141 0.96875)"/>
      <use xlink:href="#SegoeUI-68" transform="translate(137.255859 0.96875)"/>
      <use xlink:href="#SegoeUI-20" transform="translate(193.847656 0.96875)"/>
      <use xlink:href="#SegoeUI-65" transform="translate(221.240234 0.96875)"/>
      <use xlink:href="#SegoeUI-69" transform="translate(273.535156 0.96875)"/>
      <use xlink:href="#SegoeUI-67" transform="translate(297.753906 0.96875)"/>
      <use xlink:href="#SegoeUI-65" transform="translate(356.640625 0.96875)"/>
      <use xlink:href="#SegoeUI-6e" transform="translate(408.935547 0.96875)"/>
      <use xlink:href="#SegoeUI-76" transform="translate(465.527344 0.96875)"/>
      <use xlink:href="#SegoeUI-61" transform="translate(513.427734 0.96875)"/>
      <use xlink:href="#SegoeUI-6c" transform="translate(564.306641 0.96875)"/>
      <use xlink:href="#SegoeUI-75" transform="translate(588.525391 0.96875)"/>
      <use xlink:href="#SegoeUI-65" transform="translate(645.117188 0.96875)"/>
     </g>
    </g>
   </g>
   <g id="matplotlib.axis_2">
    <g id="ytick_1">
     <g id="line2d_15">
      <path d="M 51.03875 264.888 
L 463.95875 264.888 
" clip-path="url(#p82737b1c86)" style="fill: none; stroke: #c9ccd3; stroke-opacity: 0.55; stroke-width: 0.6; stroke-linecap: round"/>
     </g>
     <g id="line2d_16">
      <defs>
       <path id="md35003d0b7" d="M 0 0 
L -4 0 
" style="stroke: #6b7280"/>
      </defs>
      <g>
       <use xlink:href="#md35003d0b7" x="51.03875" y="264.888" style="fill: #6b7280; stroke: #6b7280"/>
      </g>
     </g>
     <g id="text_9">
      <!-- 0 -->
      <g style="fill: #303030" transform="translate(37.609063 268.959719) scale(0.11 -0.11)">
       <use xlink:href="#SegoeUI-30"/>
      </g>
     </g>
    </g>
    <g id="ytick_2">
     <g id="line2d_17">
      <path d="M 51.03875 226.439265 
L 463.95875 226.439265 
" clip-path="url(#p82737b1c86)" style="fill: none; stroke: #c9ccd3; stroke-opacity: 0.55; stroke-width: 0.6; stroke-linecap: round"/>
     </g>
     <g id="line2d_18">
      <g>
       <use xlink:href="#md35003d0b7" x="51.03875" y="226.439265" style="fill: #6b7280; stroke: #6b7280"/>
      </g>
     </g>
     <g id="text_10">
      <!-- 200 -->
      <g style="fill: #303030" transform="translate(25.749688 230.510984) scale(0.11 -0.11)">
       <use xlink:href="#SegoeUI-32"/>
       <use xlink:href="#SegoeUI-30" transform="translate(53.90625 0)"/>
       <use xlink:href="#SegoeUI-30" transform="translate(107.8125 0)"/>
      </g>
     </g>
    </g>
    <g id="ytick_3">
     <g id="line2d_19">
      <path d="M 51.03875 187.99053 
L 463.95875 187.99053 
" clip-path="url(#p82737b1c86)" style="fill: none; stroke: #c9ccd3; stroke-opacity: 0.55; stroke-width: 0.6; stroke-linecap: round"/>
     </g>
     <g id="line2d_20">
      <g>
       <use xlink:href="#md35003d0b7" x="51.03875" y="187.99053" style="fill: #6b7280; stroke: #6b7280"/>
      </g>
     </g>
     <g id="text_11">
      <!-- 400 -->
      <g style="fill: #303030" transform="translate(25.749688 192.062249) scale(0.11 -0.11)">
       <use xlink:href="#SegoeUI-34"/>
       <use xlink:href="#SegoeUI-30" transform="translate(53.90625 0)"/>
       <use xlink:href="#SegoeUI-30" transform="translate(107.8125 0)"/>
      </g>
     </g>
    </g>
    <g id="ytick_4">
     <g id="line2d_21">
      <path d="M 51.03875 149.541795 
L 463.95875 149.541795 
" clip-path="url(#p82737b1c86)" style="fill: none; stroke: #c9ccd3; stroke-opacity: 0.55; stroke-width: 0.6; stroke-linecap: round"/>
     </g>
     <g id="line2d_22">
      <g>
       <use xlink:href="#md35003d0b7" x="51.03875" y="149.541795" style="fill: #6b7280; stroke: #6b7280"/>
      </g>
     </g>
     <g id="text_12">
      <!-- 600 -->
      <g style="fill: #303030" transform="translate(25.749688 153.613513) scale(0.11 -0.11)">
       <use xlink:href="#SegoeUI-36"/>
       <use xlink:href="#SegoeUI-30" transform="translate(53.90625 0)"/>
       <use xlink:href="#SegoeUI-30" transform="translate(107.8125 0)"/>
      </g>
     </g>
    </g>
    <g id="ytick_5">
     <g id="line2d_23">
      <path d="M 51.03875 111.09306 
L 463.95875 111.09306 
" clip-path="url(#p82737b1c86)" style="fill: none; stroke: #c9ccd3; stroke-opacity: 0.55; stroke-width: 0.6; stroke-linecap: round"/>
     </g>
     <g id="line2d_24">
      <g>
       <use xlink:href="#md35003d0b7" x="51.03875" y="111.09306" style="fill: #6b7280; stroke: #6b7280"/>
      </g>
     </g>
     <g id="text_13">
      <!-- 800 -->
      <g style="fill: #303030" transform="translate(25.749688 115.164778) scale(0.11 -0.11)">
       <defs>
        <path id="SegoeUI-38" d="M 281 1250 
Q 281 1428 337 1608 
Q 394 1788 498 1944 
Q 603 2100 758 2228 
Q 913 2356 1109 2431 
Q 819 2594 647 2848 
Q 475 3103 475 3413 
Q 475 3659 570 3868 
Q 666 4078 834 4231 
Q 1003 4384 1234 4470 
Q 1466 4556 1734 4556 
Q 2006 4556 2237 4468 
Q 2469 4381 2637 4228 
Q 2806 4075 2900 3865 
Q 2994 3656 2994 3413 
Q 2994 3103 2822 2848 
Q 2650 2594 2366 2431 
Q 2559 2356 2712 2228 
Q 2866 2100 2970 1944 
Q 3075 1788 3131 1608 
Q 3188 1428 3188 1250 
Q 3188 956 3081 712 
Q 2975 469 2783 295 
Q 2591 122 2323 25 
Q 2056 -72 1734 -72 
Q 1416 -72 1150 25 
Q 884 122 690 295 
Q 497 469 389 712 
Q 281 956 281 1250 
z
M 838 1294 
Q 838 1084 902 915 
Q 966 747 1083 628 
Q 1200 509 1367 445 
Q 1534 381 1738 381 
Q 1934 381 2100 447 
Q 2266 513 2386 631 
Q 2506 750 2573 919 
Q 2641 1088 2641 1294 
Q 2641 1481 2577 1645 
Q 2513 1809 2394 1934 
Q 2275 2059 2109 2131 
Q 1944 2203 1738 2203 
Q 1544 2203 1380 2136 
Q 1216 2069 1095 1948 
Q 975 1828 906 1661 
Q 838 1494 838 1294 
z
M 997 3372 
Q 997 3213 1055 3077 
Q 1113 2941 1214 2839 
Q 1316 2738 1450 2680 
Q 1584 2622 1738 2622 
Q 1891 2622 2027 2681 
Q 2163 2741 2263 2842 
Q 2363 2944 2422 3080 
Q 2481 3216 2481 3372 
Q 2481 3534 2423 3671 
Q 2366 3809 2266 3909 
Q 2166 4009 2030 4067 
Q 1894 4125 1738 4125 
Q 1572 4125 1436 4065 
Q 1300 4006 1201 3904 
Q 1103 3803 1050 3665 
Q 997 3528 997 3372 
z
" transform="scale(0.015625)"/>
       </defs>
       <use xlink:href="#SegoeUI-38"/>
       <use xlink:href="#SegoeUI-30" transform="translate(53.90625 0)"/>
       <use xlink:href="#SegoeUI-30" transform="translate(107.8125 0)"/>
      </g>
     </g>
    </g>
    <g id="ytick_6">
     <g id="line2d_25">
      <path d="M 51.03875 72.644324 
L 463.95875 72.644324 
" clip-path="url(#p82737b1c86)" style="fill: none; stroke: #c9ccd3; stroke-opacity: 0.55; stroke-width: 0.6; stroke-linecap: round"/>
     </g>
     <g id="line2d_26">
      <g>
       <use xlink:href="#md35003d0b7" x="51.03875" y="72.644324" style="fill: #6b7280; stroke: #6b7280"/>
      </g>
     </g>
     <g id="text_14">
      <!-- 1000 -->
      <g style="fill: #303030" transform="translate(19.82 76.716043) scale(0.11 -0.11)">
       <use xlink:href="#SegoeUI-31"/>
       <use xlink:href="#SegoeUI-30" transform="translate(53.90625 0)"/>
       <use xlink:href="#SegoeUI-30" transform="translate(107.8125 0)"/>
       <use xlink:href="#SegoeUI-30" transform="translate(161.71875 0)"/>
      </g>
     </g>
    </g>
    <g id="ytick_7">
     <g id="line2d_27">
      <path d="M 51.03875 34.195589 
L 463.95875 34.195589 
" clip-path="url(#p82737b1c86)" style="fill: none; stroke: #c9ccd3; stroke-opacity: 0.55; stroke-width: 0.6; stroke-linecap: round"/>
     </g>
     <g id="line2d_28">
      <g>
       <use xlink:href="#md35003d0b7" x="51.03875" y="34.195589" style="fill: #6b7280; stroke: #6b7280"/>
      </g>
     </g>
     <g id="text_15">
      <!-- 1200 -->
      <g style="fill: #303030" transform="translate(19.82 38.267308) scale(0.11 -0.11)">
       <use xlink:href="#SegoeUI-31"/>
       <use xlink:href="#SegoeUI-32" transform="translate(53.90625 0)"/>
       <use xlink:href="#SegoeUI-30" transform="translate(107.8125 0)"/>
       <use xlink:href="#SegoeUI-30" transform="translate(161.71875 0)"/>
      </g>
     </g>
    </g>
    <g id="text_16">
     <!-- $\mathrm{Im}\,\lambda$   (mode frequency) -->
     <g style="fill: #303030" transform="translate(13.06 195.669) rotate(-90) scale(0.115 -0.115)">
      <defs>
       <path id="DejaVuSans-49" d="M 628 4666 
L 1259 4666 
L 1259 0 
L 628 0 
L 628 4666 
z
" transform="scale(0.015625)"/>
       <path id="DejaVuSans-6d" d="M 3328 2828 
Q 3544 3216 3844 3400 
Q 4144 3584 4550 3584 
Q 5097 3584 5394 3201 
Q 5691 2819 5691 2113 
L 5691 0 
L 5113 0 
L 5113 2094 
Q 5113 2597 4934 2840 
Q 4756 3084 4391 3084 
Q 3944 3084 3684 2787 
Q 3425 2491 3425 1978 
L 3425 0 
L 2847 0 
L 2847 2094 
Q 2847 2600 2669 2842 
Q 2491 3084 2119 3084 
Q 1678 3084 1418 2786 
Q 1159 2488 1159 1978 
L 1159 0 
L 581 0 
L 581 3500 
L 1159 3500 
L 1159 2956 
Q 1356 3278 1631 3431 
Q 1906 3584 2284 3584 
Q 2666 3584 2933 3390 
Q 3200 3197 3328 2828 
z
" transform="scale(0.015625)"/>
       <path id="DejaVuSans-Oblique-3bb" d="M 2350 4316 
L 3125 0 
L 2516 0 
L 2038 2588 
L 328 0 
L -281 0 
L 1903 3356 
L 1794 3975 
Q 1725 4369 1391 4369 
L 1091 4369 
L 1184 4863 
L 1550 4856 
Q 2253 4847 2350 4316 
z
" transform="scale(0.015625)"/>
       <path id="SegoeUI-28" d="M 1863 -1019 
L 1406 -1019 
Q 438 88 438 1709 
Q 438 3338 1406 4481 
L 1869 4481 
Q 888 3294 888 1716 
Q 888 150 1863 -1019 
z
" transform="scale(0.015625)"/>
       <path id="SegoeUI-6d" d="M 5063 0 
L 4550 0 
L 4550 1838 
Q 4550 2369 4386 2606 
Q 4222 2844 3834 2844 
Q 3506 2844 3276 2544 
Q 3047 2244 3047 1825 
L 3047 0 
L 2534 0 
L 2534 1900 
Q 2534 2844 1806 2844 
Q 1469 2844 1250 2561 
Q 1031 2278 1031 1825 
L 1031 0 
L 519 0 
L 519 3200 
L 1031 3200 
L 1031 2694 
L 1044 2694 
Q 1384 3275 2038 3275 
Q 2366 3275 2609 3092 
Q 2853 2909 2944 2613 
Q 3300 3275 4006 3275 
Q 5063 3275 5063 1972 
L 5063 0 
z
" transform="scale(0.015625)"/>
       <path id="SegoeUI-6f" d="M 1856 -75 
Q 1147 -75 723 373 
Q 300 822 300 1563 
Q 300 2369 740 2822 
Q 1181 3275 1931 3275 
Q 2647 3275 3048 2834 
Q 3450 2394 3450 1613 
Q 3450 847 3017 386 
Q 2584 -75 1856 -75 
z
M 1894 2844 
Q 1400 2844 1112 2508 
Q 825 2172 825 1581 
Q 825 1013 1115 684 
Q 1406 356 1894 356 
Q 2391 356 2658 678 
Q 2925 1000 2925 1594 
Q 2925 2194 2658 2519 
Q 2391 2844 1894 2844 
z
" transform="scale(0.015625)"/>
       <path id="SegoeUI-64" d="M 3250 0 
L 2738 0 
L 2738 544 
L 2725 544 
Q 2369 -75 1625 -75 
Q 1022 -75 661 354 
Q 300 784 300 1525 
Q 300 2319 700 2797 
Q 1100 3275 1766 3275 
Q 2425 3275 2725 2756 
L 2738 2756 
L 2738 4738 
L 3250 4738 
L 3250 0 
z
M 2738 1447 
L 2738 1919 
Q 2738 2306 2481 2575 
Q 2225 2844 1831 2844 
Q 1363 2844 1094 2500 
Q 825 2156 825 1550 
Q 825 997 1083 676 
Q 1341 356 1775 356 
Q 2203 356 2470 665 
Q 2738 975 2738 1447 
z
" transform="scale(0.015625)"/>
       <path id="SegoeUI-66" d="M 2100 4288 
Q 1950 4372 1759 4372 
Q 1222 4372 1222 3694 
L 1222 3200 
L 1972 3200 
L 1972 2763 
L 1222 2763 
L 1222 0 
L 713 0 
L 713 2763 
L 166 2763 
L 166 3200 
L 713 3200 
L 713 3719 
Q 713 4222 1003 4514 
Q 1294 4806 1728 4806 
Q 1963 4806 2100 4750 
L 2100 4288 
z
" transform="scale(0.015625)"/>
       <path id="SegoeUI-72" d="M 2188 2681 
Q 2053 2784 1800 2784 
Q 1472 2784 1251 2475 
Q 1031 2166 1031 1631 
L 1031 0 
L 519 0 
L 519 3200 
L 1031 3200 
L 1031 2541 
L 1044 2541 
Q 1153 2878 1378 3067 
Q 1603 3256 1881 3256 
Q 2081 3256 2188 3213 
L 2188 2681 
z
" transform="scale(0.015625)"/>
       <path id="SegoeUI-71" d="M 3250 -1472 
L 2738 -1472 
L 2738 550 
L 2725 550 
Q 2391 -75 1631 -75 
Q 1028 -75 664 354 
Q 300 784 300 1525 
Q 300 2322 700 2798 
Q 1100 3275 1775 3275 
Q 2431 3275 2725 2756 
L 2738 2756 
L 2738 3200 
L 3250 3200 
L 3250 -1472 
z
M 2738 1441 
L 2738 1906 
Q 2738 2300 2480 2572 
Q 2222 2844 1825 2844 
Q 1363 2844 1094 2501 
Q 825 2159 825 1538 
Q 825 984 1084 670 
Q 1344 356 1753 356 
Q 2203 356 2470 664 
Q 2738 972 2738 1441 
z
" transform="scale(0.015625)"/>
       <path id="SegoeUI-63" d="M 2700 147 
Q 2331 -75 1825 -75 
Q 1141 -75 720 370 
Q 300 816 300 1525 
Q 300 2316 753 2795 
Q 1206 3275 1963 3275 
Q 2384 3275 2706 3119 
L 2706 2594 
Q 2350 2844 1944 2844 
Q 1453 2844 1139 2492 
Q 825 2141 825 1569 
Q 825 1006 1120 681 
Q 1416 356 1913 356 
Q 2331 356 2700 634 
L 2700 147 
z
" transform="scale(0.015625)"/>
       <path id="SegoeUI-79" d="M 3066 3200 
L 1594 -513 
Q 1200 -1506 488 -1506 
Q 288 -1506 153 -1466 
L 153 -1006 
Q 319 -1063 456 -1063 
Q 844 -1063 1038 -600 
L 1294 6 
L 44 3200 
L 613 3200 
L 1478 738 
Q 1494 691 1544 494 
L 1563 494 
Q 1578 569 1625 731 
L 2534 3200 
L 3066 3200 
z
" transform="scale(0.015625)"/>
       <path id="SegoeUI-29" d="M 531 -1019 
L 75 -1019 
Q 1050 150 1050 1716 
Q 1050 3294 69 4481 
L 531 4481 
Q 1506 3338 1506 1709 
Q 1506 88 531 -1019 
z
" transform="scale(0.015625)"/>
      </defs>
      <use xlink:href="#DejaVuSans-49" transform="translate(0 0.015625)"/>
      <use xlink:href="#DejaVuSans-6d" transform="translate(25.867188 0.015625)"/>
      <use xlink:href="#DejaVuSans-Oblique-3bb" transform="translate(139.514973 0.015625)"/>
      <use xlink:href="#SegoeUI-20" transform="translate(198.694661 0.015625)"/>
      <use xlink:href="#SegoeUI-20" transform="translate(226.087239 0.015625)"/>
      <use xlink:href="#SegoeUI-20" transform="translate(253.479817 0.015625)"/>
      <use xlink:href="#SegoeUI-28" transform="translate(280.872395 0.015625)"/>
      <use xlink:href="#SegoeUI-6d" transform="translate(311.048176 0.015625)"/>
      <use xlink:href="#SegoeUI-6f" transform="translate(397.180989 0.015625)"/>
      <use xlink:href="#SegoeUI-64" transform="translate(455.774739 0.015625)"/>
      <use xlink:href="#SegoeUI-65" transform="translate(514.661458 0.015625)"/>
      <use xlink:href="#SegoeUI-20" transform="translate(566.956379 0.015625)"/>
      <use xlink:href="#SegoeUI-66" transform="translate(594.348958 0.015625)"/>
      <use xlink:href="#SegoeUI-72" transform="translate(625.647786 0.015625)"/>
      <use xlink:href="#SegoeUI-65" transform="translate(660.413411 0.015625)"/>
      <use xlink:href="#SegoeUI-71" transform="translate(712.708333 0.015625)"/>
      <use xlink:href="#SegoeUI-75" transform="translate(771.595051 0.015625)"/>
      <use xlink:href="#SegoeUI-65" transform="translate(828.186848 0.015625)"/>
      <use xlink:href="#SegoeUI-6e" transform="translate(880.48177 0.015625)"/>
      <use xlink:href="#SegoeUI-63" transform="translate(937.073567 0.015625)"/>
      <use xlink:href="#SegoeUI-79" transform="translate(983.264973 0.015625)"/>
      <use xlink:href="#SegoeUI-29" transform="translate(1031.653645 0.015625)"/>
     </g>
    </g>
   </g>
   <g id="patch_3">
    <path d="M 51.03875 264.888 
L 51.03875 4.32 
" style="fill: none; stroke: #c9ccd3; stroke-linejoin: miter; stroke-linecap: square"/>
   </g>
   <g id="patch_4">
    <path d="M 51.03875 264.888 
L 463.95875 264.888 
" style="fill: none; stroke: #c9ccd3; stroke-linejoin: miter; stroke-linecap: square"/>
   </g>
   <g id="line2d_29">
    <path d="M 51.03875 14.341846 
L 64.35875 181.640576 
L 77.67875 215.25987 
L 90.99875 229.780381 
L 104.31875 237.932681 
L 117.63875 243.188297 
L 130.95875 246.882103 
L 144.27875 249.636805 
L 157.59875 251.781897 
L 170.91875 253.508021 
L 184.23875 254.933109 
L 197.55875 256.134016 
L 210.87875 257.162966 
L 224.19875 258.056679 
L 237.51875 258.841727 
L 250.83875 259.537807 
L 264.15875 260.159826 
L 277.47875 260.719264 
L 290.79875 261.2251 
L 304.11875 261.684444 
L 317.43875 262.102985 
L 330.75875 262.485312 
L 344.07875 262.835144 
L 357.39875 263.155499 
L 370.71875 263.448809 
L 384.03875 263.717002 
L 397.35875 263.96155 
L 410.67875 264.183464 
L 423.99875 264.383234 
L 437.31875 264.560615 
L 450.63875 264.713854 
L 463.95875 264.837275 
" clip-path="url(#p82737b1c86)" style="fill: none; stroke: #4a5c79; stroke-opacity: 0.95; stroke-width: 2; stroke-linecap: round"/>
   </g>
   <g id="line2d_30">
    <path d="M 51.03875 18.157572 
L 57.593036 185.255428 
L 64.147321 218.674999 
L 70.701607 232.997673 
L 77.255893 240.954713 
L 83.810179 246.018285 
L 90.364464 249.523834 
L 96.91875 252.09457 
L 103.473036 254.060428 
L 110.027321 255.61242 
L 116.581607 256.868795 
L 123.135893 257.90667 
L 129.690179 258.778485 
L 136.244464 259.521142 
L 142.79875 260.161363 
L 149.353036 260.718976 
L 155.907321 261.208999 
L 162.461607 261.643019 
L 169.015893 262.030119 
L 175.570179 262.377515 
L 182.124464 262.69102 
L 188.67875 262.945241 
L 195.233036 262.975361 
L 201.787321 262.976818 
L 208.341607 263.009423 
L 214.895893 263.043105 
L 221.450179 263.077919 
L 228.004464 263.113924 
L 234.55875 263.151181 
L 241.113036 263.189757 
L 247.667321 263.229723 
L 254.221607 263.234427 
L 260.775893 263.271156 
L 267.330179 263.314137 
L 273.884464 263.358756 
L 280.43875 263.405108 
L 286.993036 263.453295 
L 293.547321 263.471446 
L 300.101607 263.50343 
L 306.655893 263.555631 
L 313.210179 263.610031 
L 319.764464 263.666771 
L 326.31875 263.689116 
L 332.873036 263.726004 
L 339.427321 263.7879 
L 345.981607 263.852642 
L 352.535893 263.889713 
L 359.090179 263.92043 
L 365.644464 263.991485 
L 372.19875 264.066049 
L 378.753036 264.075171 
L 385.307321 264.144388 
L 391.861607 264.226797 
L 398.415893 264.247142 
L 404.970179 264.313601 
L 411.524464 264.405162 
L 418.07875 264.407044 
L 424.633036 264.50188 
L 431.187321 264.556105 
L 437.741607 264.604206 
L 444.295893 264.695392 
L 450.850179 264.712641 
L 457.404464 264.825836 
L 463.95875 264.827748 
" clip-path="url(#p82737b1c86)" style="fill: none; stroke: #e37c47; stroke-opacity: 0.95; stroke-width: 2; stroke-linecap: round"/>
   </g>
   <g id="line2d_31">
    <path d="M 51.03875 226.839067 
L 57.593036 227.443018 
L 64.147321 228.04697 
L 70.701607 228.650921 
L 77.255893 229.254872 
L 83.810179 229.858824 
L 90.364464 230.462775 
L 96.91875 231.066726 
L 103.473036 231.670677 
L 110.027321 232.274629 
L 116.581607 232.87858 
L 123.135893 233.482531 
L 129.690179 234.086483 
L 136.244464 234.690434 
L 142.79875 235.294385 
L 149.353036 235.898337 
L 155.907321 236.502288 
L 162.461607 237.106239 
L 169.015893 237.710191 
L 175.570179 238.314142 
L 182.124464 238.918093 
L 188.67875 239.522045 
L 195.233036 240.125996 
L 201.787321 240.729947 
L 208.341607 241.333899 
L 214.895893 241.93785 
L 221.450179 242.541801 
L 228.004464 243.145753 
L 234.55875 243.749704 
L 241.113036 244.353655 
L 247.667321 244.957606 
L 254.221607 245.561558 
L 260.775893 246.165509 
L 267.330179 246.76946 
L 273.884464 247.373412 
L 280.43875 247.977363 
L 286.993036 248.581314 
L 293.547321 249.185266 
L 300.101607 249.789217 
L 306.655893 250.393168 
L 313.210179 250.99712 
L 319.764464 251.601071 
L 326.31875 252.205022 
L 332.873036 252.808974 
L 339.427321 253.412925 
L 345.981607 254.016876 
L 352.535893 254.620828 
L 359.090179 255.224779 
L 365.644464 255.82873 
L 372.19875 256.432682 
L 378.753036 257.036633 
L 385.307321 257.640584 
L 391.861607 258.244535 
L 398.415893 258.848487 
L 404.970179 259.452438 
L 411.524464 260.056389 
L 418.07875 260.660341 
L 424.633036 261.264292 
L 431.187321 261.868243 
L 437.741607 262.472195 
L 444.295893 263.076146 
L 450.850179 263.680097 
L 457.404464 264.284049 
L 463.95875 264.888 
" clip-path="url(#p82737b1c86)" style="fill: none; stroke: #5e9c6e; stroke-opacity: 0.95; stroke-width: 2; stroke-linecap: round"/>
   </g>
   <g id="line2d_32">
    <path d="M 51.03875 14.341846 
L 57.593036 22.170928 
L 64.147321 29.875739 
L 70.701607 37.456278 
L 77.255893 44.912547 
L 83.810179 52.244544 
L 90.364464 59.45227 
L 96.91875 66.535725 
L 103.473036 73.494909 
L 110.027321 80.329822 
L 116.581607 87.040464 
L 123.135893 93.626834 
L 129.690179 100.088933 
L 136.244464 106.426762 
L 142.79875 112.640319 
L 149.353036 118.729604 
L 155.907321 124.694619 
L 162.461607 130.535363 
L 169.015893 136.251835 
L 175.570179 141.844037 
L 182.124464 147.311967 
L 188.67875 152.655626 
L 195.233036 157.875014 
L 201.787321 162.970131 
L 208.341607 167.940976 
L 214.895893 172.787551 
L 221.450179 177.509854 
L 228.004464 182.107886 
L 234.55875 186.581647 
L 241.113036 190.931137 
L 247.667321 195.156356 
L 254.221607 199.257304 
L 260.775893 203.23398 
L 267.330179 207.086386 
L 273.884464 210.81452 
L 280.43875 214.418383 
L 286.993036 217.897975 
L 293.547321 221.253296 
L 300.101607 224.484345 
L 306.655893 227.591124 
L 313.210179 230.573631 
L 319.764464 233.431867 
L 326.31875 236.165833 
L 332.873036 238.775527 
L 339.427321 241.260949 
L 345.981607 243.622101 
L 352.535893 245.858982 
L 359.090179 247.971591 
L 365.644464 249.959929 
L 372.19875 251.823996 
L 378.753036 253.563792 
L 385.307321 255.179317 
L 391.861607 256.670571 
L 398.415893 258.037553 
L 404.970179 259.280265 
L 411.524464 260.398705 
L 418.07875 261.392874 
L 424.633036 262.262772 
L 431.187321 263.008399 
L 437.741607 263.629755 
L 444.295893 264.126839 
L 450.850179 264.499653 
L 457.404464 264.748195 
L 463.95875 264.872466 
" clip-path="url(#p82737b1c86)" style="fill: none; stroke: #d6849a; stroke-opacity: 0.95; stroke-width: 2; stroke-linecap: round"/>
   </g>
   <g id="line2d_33">
    <path d="M 51.03875 18.157572 
L 57.593036 143.480964 
L 64.147321 185.255428 
L 70.701607 206.14266 
L 77.255893 218.674999 
L 83.810179 227.029892 
L 90.364464 232.997673 
L 96.91875 237.473508 
L 103.473036 240.954713 
L 110.027321 243.739678 
L 116.581607 246.018285 
L 123.135893 247.917124 
L 129.690179 249.523834 
L 136.244464 250.901014 
L 142.79875 252.09457 
L 149.353036 253.138932 
L 155.907321 254.060428 
L 162.461607 254.879535 
L 169.015893 255.61242 
L 175.570179 256.272017 
L 182.124464 256.868795 
L 188.67875 257.41132 
L 195.233036 257.90667 
L 201.787321 258.36074 
L 208.341607 258.778485 
L 214.895893 259.164095 
L 221.450179 259.521142 
L 228.004464 259.852685 
L 234.55875 260.161363 
L 241.113036 260.449463 
L 247.667321 260.718976 
L 254.221607 260.971644 
L 260.775893 261.208999 
L 267.330179 261.432392 
L 273.884464 261.643019 
L 280.43875 261.841945 
L 286.993036 262.030119 
L 293.547321 262.208388 
L 300.101607 262.377515 
L 306.655893 262.538186 
L 313.210179 262.69102 
L 319.764464 262.836575 
L 326.31875 262.975361 
L 332.873036 263.107838 
L 339.427321 263.234427 
L 345.981607 263.355513 
L 352.535893 263.471446 
L 359.090179 263.582548 
L 365.644464 263.689116 
L 372.19875 263.79142 
L 378.753036 263.889713 
L 385.307321 263.984226 
L 391.861607 264.075171 
L 398.415893 264.162749 
L 404.970179 264.247142 
L 411.524464 264.328521 
L 418.07875 264.407044 
L 424.633036 264.48286 
L 431.187321 264.556105 
L 437.741607 264.62691 
L 444.295893 264.695392 
L 450.850179 264.761666 
L 457.404464 264.825836 
L 463.95875 264.888 
" clip-path="url(#p82737b1c86)" style="fill: none; stroke: #8e78a8; stroke-opacity: 0.95; stroke-width: 2; stroke-linecap: round"/>
   </g>
   <g id="legend_1">
    <g id="patch_5">
     <path d="M 368.380781 94.045625 
L 456.25875 94.045625 
Q 458.45875 94.045625 458.45875 91.845625 
L 458.45875 12.02 
Q 458.45875 9.82 456.25875 9.82 
L 368.380781 9.82 
Q 366.180781 9.82 366.180781 12.02 
L 366.180781 91.845625 
Q 366.180781 94.045625 368.380781 94.045625 
z
" style="fill: #ffffff; opacity: 0.96; stroke: #c9ccd3; stroke-linejoin: miter"/>
    </g>
    <g id="line2d_34">
     <path d="M 372.780781 20.713437 
L 383.780781 20.713437 
L 394.780781 20.713437 
" style="fill: none; stroke: #4a5c79; stroke-opacity: 0.95; stroke-width: 2; stroke-linecap: round"/>
    </g>
    <g id="text_17">
     <!-- S4D-LegS -->
     <g style="fill: #303030" transform="translate(401.380781 24.563437) scale(0.11 -0.11)">
      <defs>
       <path id="SegoeUI-53" d="M 378 181 
L 378 800 
Q 484 706 632 631 
Q 781 556 945 504 
Q 1109 453 1275 425 
Q 1441 397 1581 397 
Q 2066 397 2305 576 
Q 2544 756 2544 1094 
Q 2544 1275 2464 1409 
Q 2384 1544 2243 1655 
Q 2103 1766 1911 1867 
Q 1719 1969 1497 2081 
Q 1263 2200 1059 2322 
Q 856 2444 706 2591 
Q 556 2738 470 2923 
Q 384 3109 384 3359 
Q 384 3666 518 3892 
Q 653 4119 872 4266 
Q 1091 4413 1370 4484 
Q 1650 4556 1941 4556 
Q 2603 4556 2906 4397 
L 2906 3806 
Q 2509 4081 1888 4081 
Q 1716 4081 1544 4045 
Q 1372 4009 1237 3928 
Q 1103 3847 1018 3719 
Q 934 3591 934 3406 
Q 934 3234 998 3109 
Q 1063 2984 1188 2881 
Q 1313 2778 1492 2681 
Q 1672 2584 1906 2469 
Q 2147 2350 2362 2219 
Q 2578 2088 2740 1928 
Q 2903 1769 2998 1575 
Q 3094 1381 3094 1131 
Q 3094 800 2964 570 
Q 2834 341 2614 197 
Q 2394 53 2106 -11 
Q 1819 -75 1500 -75 
Q 1394 -75 1237 -58 
Q 1081 -41 918 -8 
Q 756 25 611 73 
Q 466 122 378 181 
z
" transform="scale(0.015625)"/>
       <path id="SegoeUI-44" d="M 588 0 
L 588 4481 
L 1825 4481 
Q 4194 4481 4194 2297 
Q 4194 1259 3536 629 
Q 2878 0 1775 0 
L 588 0 
z
M 1113 4006 
L 1113 475 
L 1781 475 
Q 2663 475 3153 947 
Q 3644 1419 3644 2284 
Q 3644 4006 1813 4006 
L 1113 4006 
z
" transform="scale(0.015625)"/>
       <path id="SegoeUI-4c" d="M 2913 0 
L 588 0 
L 588 4481 
L 1113 4481 
L 1113 475 
L 2913 475 
L 2913 0 
z
" transform="scale(0.015625)"/>
      </defs>
      <use xlink:href="#SegoeUI-53"/>
      <use xlink:href="#SegoeUI-34" transform="translate(53.125 0)"/>
      <use xlink:href="#SegoeUI-44" transform="translate(107.03125 0)"/>
      <use xlink:href="#SegoeUI-2d" transform="translate(177.148438 0)"/>
      <use xlink:href="#SegoeUI-4c" transform="translate(217.138672 0)"/>
      <use xlink:href="#SegoeUI-65" transform="translate(264.208984 0)"/>
      <use xlink:href="#SegoeUI-67" transform="translate(316.503906 0)"/>
      <use xlink:href="#SegoeUI-53" transform="translate(375.390625 0)"/>
     </g>
    </g>
    <g id="line2d_35">
     <path d="M 372.780781 35.845312 
L 383.780781 35.845312 
L 394.780781 35.845312 
" style="fill: none; stroke: #e37c47; stroke-opacity: 0.95; stroke-width: 2; stroke-linecap: round"/>
    </g>
    <g id="text_18">
     <!-- S4D-Inv -->
     <g style="fill: #303030" transform="translate(401.380781 39.695312) scale(0.11 -0.11)">
      <defs>
       <path id="SegoeUI-49" d="M 1113 0 
L 588 0 
L 588 4481 
L 1113 4481 
L 1113 0 
z
" transform="scale(0.015625)"/>
      </defs>
      <use xlink:href="#SegoeUI-53"/>
      <use xlink:href="#SegoeUI-34" transform="translate(53.125 0)"/>
      <use xlink:href="#SegoeUI-44" transform="translate(107.03125 0)"/>
      <use xlink:href="#SegoeUI-2d" transform="translate(177.148438 0)"/>
      <use xlink:href="#SegoeUI-49" transform="translate(217.138672 0)"/>
      <use xlink:href="#SegoeUI-6e" transform="translate(243.75 0)"/>
      <use xlink:href="#SegoeUI-76" transform="translate(300.341797 0)"/>
     </g>
    </g>
    <g id="line2d_36">
     <path d="M 372.780781 50.91875 
L 383.780781 50.91875 
L 394.780781 50.91875 
" style="fill: none; stroke: #5e9c6e; stroke-opacity: 0.95; stroke-width: 2; stroke-linecap: round"/>
    </g>
    <g id="text_19">
     <!-- S4D-Lin -->
     <g style="fill: #303030" transform="translate(401.380781 54.76875) scale(0.11 -0.11)">
      <use xlink:href="#SegoeUI-53"/>
      <use xlink:href="#SegoeUI-34" transform="translate(53.125 0)"/>
      <use xlink:href="#SegoeUI-44" transform="translate(107.03125 0)"/>
      <use xlink:href="#SegoeUI-2d" transform="translate(177.148438 0)"/>
      <use xlink:href="#SegoeUI-4c" transform="translate(217.138672 0)"/>
      <use xlink:href="#SegoeUI-69" transform="translate(264.208984 0)"/>
      <use xlink:href="#SegoeUI-6e" transform="translate(288.427734 0)"/>
     </g>
    </g>
    <g id="line2d_37">
     <path d="M 372.780781 65.992187 
L 383.780781 65.992187 
L 394.780781 65.992187 
" style="fill: none; stroke: #d6849a; stroke-opacity: 0.95; stroke-width: 2; stroke-linecap: round"/>
    </g>
    <g id="text_20">
     <!-- S4D-Quad -->
     <g style="fill: #303030" transform="translate(401.380781 69.842187) scale(0.11 -0.11)">
      <defs>
       <path id="SegoeUI-51" d="M 2394 -75 
Q 1444 -75 866 553 
Q 294 1181 294 2188 
Q 294 3272 878 3913 
Q 1466 4556 2469 4556 
Q 3394 4556 3963 3931 
Q 4531 3306 4531 2297 
Q 4531 1200 3950 563 
Q 3813 409 3656 300 
L 4916 -603 
L 3963 -603 
L 3119 28 
Q 2788 -75 2394 -75 
z
M 2431 4081 
Q 1725 4081 1284 3572 
Q 844 3063 844 2234 
Q 844 1409 1272 900 
Q 1703 397 2394 397 
Q 3131 397 3556 878 
Q 3981 1359 3981 2225 
Q 3981 3116 3569 3597 
Q 3156 4081 2431 4081 
z
" transform="scale(0.015625)"/>
      </defs>
      <use xlink:href="#SegoeUI-53"/>
      <use xlink:href="#SegoeUI-34" transform="translate(53.125 0)"/>
      <use xlink:href="#SegoeUI-44" transform="translate(107.03125 0)"/>
      <use xlink:href="#SegoeUI-2d" transform="translate(177.148438 0)"/>
      <use xlink:href="#SegoeUI-51" transform="translate(217.138672 0)"/>
      <use xlink:href="#SegoeUI-75" transform="translate(292.529297 0)"/>
      <use xlink:href="#SegoeUI-61" transform="translate(349.121094 0)"/>
      <use xlink:href="#SegoeUI-64" transform="translate(400 0)"/>
     </g>
    </g>
    <g id="line2d_38">
     <path d="M 372.780781 81.065625 
L 383.780781 81.065625 
L 394.780781 81.065625 
" style="fill: none; stroke: #8e78a8; stroke-opacity: 0.95; stroke-width: 2; stroke-linecap: round"/>
    </g>
    <g id="text_21">
     <!-- S4D-Inv2 -->
     <g style="fill: #303030" transform="translate(401.380781 84.915625) scale(0.11 -0.11)">
      <use xlink:href="#SegoeUI-53"/>
      <use xlink:href="#SegoeUI-34" transform="translate(53.125 0)"/>
      <use xlink:href="#SegoeUI-44" transform="translate(107.03125 0)"/>
      <use xlink:href="#SegoeUI-2d" transform="translate(177.148438 0)"/>
      <use xlink:href="#SegoeUI-49" transform="translate(217.138672 0)"/>
      <use xlink:href="#SegoeUI-6e" transform="translate(243.75 0)"/>
      <use xlink:href="#SegoeUI-76" transform="translate(300.341797 0)"/>
      <use xlink:href="#SegoeUI-32" transform="translate(348.242188 0)"/>
     </g>
    </g>
   </g>
  </g>
 </g>
 <defs>
  <clipPath id="p82737b1c86">
   <rect x="51.03875" y="4.32" width="412.92" height="260.568"/>
  </clipPath>
 </defs>
</svg>
