<?xml version="1.0" encoding="utf-8" standalone="no"?>
<!DOCTYPE svg PUBLIC "-//W3C//DTD SVG 1.1//EN"
  "http://www.w3.org/Graphics/SVG/1.1/DTD/svg11.dtd">
<svg xmlns:xlink="http://www.w3.org/1999/xlink" width="662.439114pt" height="330.410091pt" viewBox="0 0 662.439114 330.410091" xmlns="http://www.w3.org/2000/svg" version="1.1">
 <metadata>
  <rdf:RDF xmlns:dc="http://purl.org/dc/elements/1.1/" xmlns:cc="http://creativecommons.org/ns#" xmlns:rdf="http://www.w3.org/1999/02/22-rdf-syntax-ns#">
   <cc:Work>
    <dc:type rdf:resource="http://purl.org/dc/dcmitype/StillImage"/>
    <dc:date>2026-06-05T00:54:24.572027</dc:date>
    <dc:format>image/svg+xml</dc:format>
    <dc:creator>
     <cc:Agent>
      <dc:title>Matplotlib v3.10.3, https://matplotlib.org/</dc:title>
     </cc:Agent>
    </dc:creator>
   </cc:Work>
  </rdf:RDF>
 </metadata>
 <defs>
  <style type="text/css">*{stroke-linejoin: round; stroke-linecap: butt}</style>
 </defs>
 <g id="figure_1">
  <g id="patch_1">
   <path d="M 0 330.410091 
L 662.439114 330.410091 
L 662.439114 0 
L 0 0 
z
" style="fill: #ffffff"/>
  </g>
  <g id="axes_1">
   <g id="patch_2">
    <path d="M 4.32 293.25806 
L 295.695584 293.25806 
L 295.695584 5.61806 
L 4.32 5.61806 
z
" style="fill: #ffffff"/>
   </g>
   <g id="patch_3">
    <path d="M 36.201688 141.966891 
Q 155.608357 141.966891 273.896993 141.966891 
" clip-path="url(#p8832872a49)" style="fill: none; stroke: #c9ccd3; stroke-linecap: round"/>
    <path d="M 270.296993 140.166891 
L 273.896993 141.966891 
L 270.296993 143.766891 
z
" clip-path="url(#p8832872a49)" style="fill: #c9ccd3; stroke: #c9ccd3; stroke-linecap: round"/>
   </g>
   <g id="patch_4">
    <path d="M 155.611169 261.376372 
Q 155.611169 141.969703 155.611169 23.681067 
" clip-path="url(#p8832872a49)" style="fill: none; stroke: #c9ccd3; stroke-linecap: round"/>
    <path d="M 153.811169 27.281067 
L 155.611169 23.681067 
L 157.411169 27.281067 
z
" clip-path="url(#p8832872a49)" style="fill: #c9ccd3; stroke: #c9ccd3; stroke-linecap: round"/>
   </g>
   <g id="matplotlib.axis_1"/>
   <g id="matplotlib.axis_2"/>
   <g id="line2d_1">
    <path d="M 249.000779 141.966891 
L 248.896585 137.556621 
L 248.584234 133.156191 
L 248.064424 128.775422 
L 247.338315 124.424088 
L 246.407527 120.111898 
L 245.274136 115.848476 
L 243.940673 111.643334 
L 242.410111 107.505856 
L 240.685867 103.445274 
L 238.771789 99.470649 
L 236.672146 95.590849 
L 234.391625 91.814533 
L 231.935314 88.150126 
L 229.308694 84.605805 
L 226.517625 81.18948 
L 223.568337 77.908772 
L 220.46741 74.771003 
L 217.221763 71.783175 
L 213.838639 68.951954 
L 210.325586 66.283657 
L 206.690444 63.78424 
L 202.941325 61.459279 
L 199.086593 59.313961 
L 195.134851 57.353075 
L 191.094915 55.580995 
L 186.975802 54.001676 
L 182.786702 52.618642 
L 178.536963 51.434978 
L 174.236067 50.453327 
L 169.893612 49.675878 
L 165.519287 49.104366 
L 161.122853 48.740068 
L 156.714121 48.583794 
L 152.302928 48.635895 
L 147.899116 48.896254 
L 143.512513 49.364289 
L 139.152907 50.038958 
L 134.830026 50.918753 
L 130.553515 52.001713 
L 126.332918 53.28542 
L 122.177652 54.76701 
L 118.09699 56.443177 
L 114.100036 58.310181 
L 110.19571 60.363856 
L 106.392723 62.599619 
L 102.699562 65.012481 
L 99.124468 67.597059 
L 95.675417 70.347585 
L 92.360107 73.257922 
L 89.185934 76.321575 
L 86.159982 79.531709 
L 83.289003 82.88116 
L 80.579403 86.362454 
L 78.037228 89.967824 
L 75.668151 93.689223 
L 73.477458 97.51835 
L 71.470037 101.446658 
L 69.650368 105.465383 
L 68.022512 109.565556 
L 66.5901 113.73803 
L 65.356328 117.973494 
L 64.323951 122.262496 
L 63.495271 126.595467 
L 62.872138 130.962737 
L 62.455941 135.354561 
L 62.247611 139.761141 
L 62.247611 144.172642 
L 62.455941 148.579221 
L 62.872138 152.971046 
L 63.495271 157.338316 
L 64.323951 161.671286 
L 65.356328 165.960289 
L 66.5901 170.195752 
L 68.022512 174.368226 
L 69.650368 178.4684 
L 71.470037 182.487125 
L 73.477458 186.415433 
L 75.668151 190.244559 
L 78.037228 193.965959 
L 80.579403 197.571328 
L 83.289003 201.052623 
L 86.159982 204.402074 
L 89.185934 207.612207 
L 92.360107 210.675861 
L 95.675417 213.586197 
L 99.124468 216.336723 
L 102.699562 218.921301 
L 106.392723 221.334164 
L 110.19571 223.569927 
L 114.100036 225.623601 
L 118.09699 227.490605 
L 122.177652 229.166773 
L 126.332918 230.648363 
L 130.553515 231.93207 
L 134.830026 233.015029 
L 139.152907 233.894825 
L 143.512513 234.569493 
L 147.899116 235.037529 
L 152.302928 235.297888 
L 156.714121 235.349988 
L 161.122853 235.193715 
L 165.519287 234.829416 
L 169.893612 234.257905 
L 174.236067 233.480456 
L 178.536963 232.498804 
L 182.786702 231.315141 
L 186.975802 229.932107 
L 191.094915 228.352787 
L 195.134851 226.580708 
L 199.086593 224.619821 
L 202.941325 222.474504 
L 206.690444 220.149542 
L 210.325586 217.650125 
L 213.838639 214.981829 
L 217.221763 212.150608 
L 220.46741 209.162779 
L 223.568337 206.02501 
L 226.517625 202.744303 
L 229.308694 199.327977 
L 231.935314 195.783656 
L 234.391625 192.11925 
L 236.672146 188.342933 
L 238.771789 184.463134 
L 240.685867 180.488508 
L 242.410111 176.427926 
L 243.940673 172.290448 
L 245.274136 168.085306 
L 246.407527 163.821884 
L 247.338315 159.509695 
L 248.064424 155.158361 
L 248.584234 150.777591 
L 248.896585 146.377162 
L 249.000779 141.966891 
L 249.000779 141.966891 
" clip-path="url(#p8832872a49)" style="fill: none; stroke: #4a5c79; stroke-width: 2; stroke-linecap: round"/>
   </g>
   <g id="line2d_2">
    <path d="M 155.611169 141.966891 
L 249.000779 141.966891 
" clip-path="url(#p8832872a49)" style="fill: none; stroke: #c9ccd3; stroke-width: 0.9; stroke-linecap: round"/>
   </g>
   <g id="line2d_3">
    <path d="M 155.611169 141.966891 
L 221.647596 208.003318 
" clip-path="url(#p8832872a49)" style="fill: none; stroke: #c9ccd3; stroke-width: 0.9; stroke-linecap: round"/>
   </g>
   <g id="line2d_4">
    <path d="M 155.611169 141.966891 
L 155.611169 235.356502 
" clip-path="url(#p8832872a49)" style="fill: none; stroke: #c9ccd3; stroke-width: 0.9; stroke-linecap: round"/>
   </g>
   <g id="line2d_5">
    <path d="M 155.611169 141.966891 
L 89.574742 208.003318 
" clip-path="url(#p8832872a49)" style="fill: none; stroke: #c9ccd3; stroke-width: 0.9; stroke-linecap: round"/>
   </g>
   <g id="line2d_6">
    <path d="M 155.611169 141.966891 
L 62.221558 141.966891 
" clip-path="url(#p8832872a49)" style="fill: none; stroke: #c9ccd3; stroke-width: 0.9; stroke-linecap: round"/>
   </g>
   <g id="line2d_7">
    <path d="M 155.611169 141.966891 
L 89.574742 75.930464 
" clip-path="url(#p8832872a49)" style="fill: none; stroke: #c9ccd3; stroke-width: 0.9; stroke-linecap: round"/>
   </g>
   <g id="line2d_8">
    <path d="M 155.611169 141.966891 
L 155.611169 48.577281 
" clip-path="url(#p8832872a49)" style="fill: none; stroke: #c9ccd3; stroke-width: 0.9; stroke-linecap: round"/>
   </g>
   <g id="line2d_9">
    <path d="M 155.611169 141.966891 
L 221.647596 75.930464 
" clip-path="url(#p8832872a49)" style="fill: none; stroke: #c9ccd3; stroke-width: 0.9; stroke-linecap: round"/>
   </g>
   <g id="text_1">
    <!-- $\mathrm{Re}$ -->
    <g style="fill: #6b7280" transform="translate(281.687143 133.3117) scale(0.1 -0.1)">
     <defs>
      <path id="DejaVuSans-52" d="M 2841 2188 
Q 3044 2119 3236 1894 
Q 3428 1669 3622 1275 
L 4263 0 
L 3584 0 
L 2988 1197 
Q 2756 1666 2539 1819 
Q 2322 1972 1947 1972 
L 1259 1972 
L 1259 0 
L 628 0 
L 628 4666 
L 2053 4666 
Q 2853 4666 3247 4331 
Q 3641 3997 3641 3322 
Q 3641 2881 3436 2590 
Q 3231 2300 2841 2188 
z
M 1259 4147 
L 1259 2491 
L 2053 2491 
Q 2509 2491 2742 2702 
Q 2975 2913 2975 3322 
Q 2975 3731 2742 3939 
Q 2509 4147 2053 4147 
L 1259 4147 
z
" transform="scale(0.015625)"/>
      <path id="DejaVuSans-65" d="M 3597 1894 
L 3597 1613 
L 953 1613 
Q 991 1019 1311 708 
Q 1631 397 2203 397 
Q 2534 397 2845 478 
Q 3156 559 3463 722 
L 3463 178 
Q 3153 47 2828 -22 
Q 2503 -91 2169 -91 
Q 1331 -91 842 396 
Q 353 884 353 1716 
Q 353 2575 817 3079 
Q 1281 3584 2069 3584 
Q 2775 3584 3186 3129 
Q 3597 2675 3597 1894 
z
M 3022 2063 
Q 3016 2534 2758 2815 
Q 2500 3097 2075 3097 
Q 1594 3097 1305 2825 
Q 1016 2553 972 2059 
L 3022 2063 
z
" transform="scale(0.015625)"/>
     </defs>
     <use xlink:href="#DejaVuSans-52" transform="translate(0 0.09375)"/>
     <use xlink:href="#DejaVuSans-65" transform="translate(69.482422 0.09375)"/>
    </g>
   </g>
   <g id="text_2">
    <!-- $\mathrm{Im}$ -->
    <g style="fill: #6b7280" transform="translate(164.95013 11.723125) scale(0.1 -0.1)">
     <defs>
      <path id="DejaVuSans-49" d="M 628 4666 
L 1259 4666 
L 1259 0 
L 628 0 
L 628 4666 
z
" transform="scale(0.015625)"/>
      <path id="DejaVuSans-6d" d="M 3328 2828 
Q 3544 3216 3844 3400 
Q 4144 3584 4550 3584 
Q 5097 3584 5394 3201 
Q 5691 2819 5691 2113 
L 5691 0 
L 5113 0 
L 5113 2094 
Q 5113 2597 4934 2840 
Q 4756 3084 4391 3084 
Q 3944 3084 3684 2787 
Q 3425 2491 3425 1978 
L 3425 0 
L 2847 0 
L 2847 2094 
Q 2847 2600 2669 2842 
Q 2491 3084 2119 3084 
Q 1678 3084 1418 2786 
Q 1159 2488 1159 1978 
L 1159 0 
L 581 0 
L 581 3500 
L 1159 3500 
L 1159 2956 
Q 1356 3278 1631 3431 
Q 1906 3584 2284 3584 
Q 2666 3584 2933 3390 
Q 3200 3197 3328 2828 
z
" transform="scale(0.015625)"/>
     </defs>
     <use xlink:href="#DejaVuSans-49" transform="translate(0 0.09375)"/>
     <use xlink:href="#DejaVuSans-6d" transform="translate(25.867188 0.09375)"/>
    </g>
   </g>
   <g id="line2d_10">
    <path d="M 155.611169 141.966891 
L 221.647596 208.003318 
" clip-path="url(#p8832872a49)" style="fill: none; stroke: #e37c47; stroke-width: 1.5; stroke-linecap: round"/>
   </g>
   <g id="line2d_11">
    <path d="M 187.363636 141.966891 
L 187.360823 142.389562 
L 187.352384 142.812158 
L 187.33832 143.234605 
L 187.318633 143.656827 
L 187.293329 144.078749 
L 187.26241 144.500297 
L 187.225882 144.921396 
L 187.183752 145.341972 
L 187.136028 145.761949 
L 187.082717 146.181254 
L 187.023829 146.599812 
L 186.959375 147.01755 
L 186.889366 147.434392 
L 186.813815 147.850265 
L 186.732734 148.265096 
L 186.646138 148.678811 
L 186.554043 149.091337 
L 186.456465 149.5026 
L 186.353421 149.912527 
L 186.244929 150.321047 
L 186.131009 150.728086 
L 186.011681 151.133573 
L 185.886966 151.537435 
L 185.756886 151.939602 
L 185.621463 152.340001 
L 185.480724 152.738562 
L 185.334691 153.135215 
L 185.183391 153.529888 
L 185.02685 153.922512 
L 184.865097 154.313018 
L 184.698161 154.701336 
L 184.52607 155.087398 
L 184.348855 155.471134 
L 184.166548 155.852478 
L 183.979181 156.231361 
L 183.786787 156.607716 
L 183.5894 156.981477 
L 183.387055 157.352577 
L 183.179789 157.720951 
L 182.967637 158.086533 
L 182.750637 158.449259 
L 182.528829 158.809064 
L 182.30225 159.165884 
L 182.070942 159.519657 
L 181.834945 159.87032 
L 181.594301 160.21781 
L 181.349053 160.562066 
L 181.099244 160.903026 
L 180.844919 161.240632 
L 180.586122 161.574822 
L 180.322899 161.905537 
L 180.055297 162.232719 
L 179.783364 162.55631 
L 179.507148 162.876252 
L 179.226697 163.19249 
L 178.942061 163.504966 
L 178.653291 163.813625 
L 178.360438 164.118413 
L 178.063554 164.419276 
" clip-path="url(#p8832872a49)" style="fill: none; stroke: #e37c47; stroke-width: 1.4; stroke-linecap: round"/>
   </g>
   <g id="line2d_12">
    <defs>
     <path id="m7a30459f2e" d="M 0 4.25 
C 1.127113 4.25 2.208214 3.802193 3.005204 3.005204 
C 3.802193 2.208214 4.25 1.127113 4.25 0 
C 4.25 -1.127113 3.802193 -2.208214 3.005204 -3.005204 
C 2.208214 -3.802193 1.127113 -4.25 0 -4.25 
C -1.127113 -4.25 -2.208214 -3.802193 -3.005204 -3.005204 
C -3.802193 -2.208214 -4.25 -1.127113 -4.25 0 
C -4.25 1.127113 -3.802193 2.208214 -3.005204 3.005204 
C -2.208214 3.802193 -1.127113 4.25 0 4.25 
z
" style="stroke: #ffffff; stroke-width: 1.4"/>
    </defs>
    <g clip-path="url(#p8832872a49)">
     <use xlink:href="#m7a30459f2e" x="249.000779" y="141.966891" style="fill: #3a4a63; stroke: #ffffff; stroke-width: 1.4"/>
    </g>
   </g>
   <g id="line2d_13">
    <g clip-path="url(#p8832872a49)">
     <use xlink:href="#m7a30459f2e" x="155.611169" y="235.356502" style="fill: #3a4a63; stroke: #ffffff; stroke-width: 1.4"/>
    </g>
   </g>
   <g id="line2d_14">
    <g clip-path="url(#p8832872a49)">
     <use xlink:href="#m7a30459f2e" x="89.574742" y="208.003318" style="fill: #3a4a63; stroke: #ffffff; stroke-width: 1.4"/>
    </g>
   </g>
   <g id="line2d_15">
    <g clip-path="url(#p8832872a49)">
     <use xlink:href="#m7a30459f2e" x="62.221558" y="141.966891" style="fill: #3a4a63; stroke: #ffffff; stroke-width: 1.4"/>
    </g>
   </g>
   <g id="line2d_16">
    <g clip-path="url(#p8832872a49)">
     <use xlink:href="#m7a30459f2e" x="89.574742" y="75.930464" style="fill: #3a4a63; stroke: #ffffff; stroke-width: 1.4"/>
    </g>
   </g>
   <g id="line2d_17">
    <g clip-path="url(#p8832872a49)">
     <use xlink:href="#m7a30459f2e" x="155.611169" y="48.577281" style="fill: #3a4a63; stroke: #ffffff; stroke-width: 1.4"/>
    </g>
   </g>
   <g id="line2d_18">
    <g clip-path="url(#p8832872a49)">
     <use xlink:href="#m7a30459f2e" x="221.647596" y="75.930464" style="fill: #3a4a63; stroke: #ffffff; stroke-width: 1.4"/>
    </g>
   </g>
   <g id="line2d_19">
    <defs>
     <path id="m42f2a907da" d="M 0 5.5 
C 1.458617 5.5 2.857689 4.920485 3.889087 3.889087 
C 4.920485 2.857689 5.5 1.458617 5.5 0 
C 5.5 -1.458617 4.920485 -2.857689 3.889087 -3.889087 
C 2.857689 -4.920485 1.458617 -5.5 0 -5.5 
C -1.458617 -5.5 -2.857689 -4.920485 -3.889087 -3.889087 
C -4.920485 -2.857689 -5.5 -1.458617 -5.5 0 
C -5.5 1.458617 -4.920485 2.857689 -3.889087 3.889087 
C -2.857689 4.920485 -1.458617 5.5 0 5.5 
z
" style="stroke: #ffffff; stroke-width: 1.4"/>
    </defs>
    <g clip-path="url(#p8832872a49)">
     <use xlink:href="#m42f2a907da" x="221.647596" y="208.003318" style="fill: #e37c47; stroke: #ffffff; stroke-width: 1.4"/>
    </g>
   </g>
   <g id="text_3">
    <!-- $\omega_{0}$ -->
    <g style="fill: #303030" transform="translate(268.612597 144.646032) scale(0.105 -0.105)">
     <defs>
      <path id="DejaVuSans-Oblique-3c9" d="M 1369 -91 
Q 72 -91 434 1766 
Q 575 2500 1256 3500 
L 1875 3500 
Q 1231 2500 1088 1750 
Q 819 397 1519 397 
Q 2166 397 2478 2078 
L 3009 2078 
Q 2669 388 3316 397 
Q 4013 403 4275 1750 
Q 4419 2500 4169 3500 
L 4788 3500 
Q 5075 2500 4934 1766 
Q 4578 -94 3278 -91 
Q 2428 -88 2503 844 
Q 2194 -91 1369 -91 
z
" transform="scale(0.015625)"/>
      <path id="DejaVuSans-30" d="M 2034 4250 
Q 1547 4250 1301 3770 
Q 1056 3291 1056 2328 
Q 1056 1369 1301 889 
Q 1547 409 2034 409 
Q 2525 409 2770 889 
Q 3016 1369 3016 2328 
Q 3016 3291 2770 3770 
Q 2525 4250 2034 4250 
z
M 2034 4750 
Q 2819 4750 3233 4129 
Q 3647 3509 3647 2328 
Q 3647 1150 3233 529 
Q 2819 -91 2034 -91 
Q 1250 -91 836 529 
Q 422 1150 422 2328 
Q 422 3509 836 4129 
Q 1250 4750 2034 4750 
z
" transform="scale(0.015625)"/>
     </defs>
     <use xlink:href="#DejaVuSans-Oblique-3c9" transform="translate(0 0.3125)"/>
     <use xlink:href="#DejaVuSans-30" transform="translate(83.740234 -16.09375) scale(0.7)"/>
    </g>
   </g>
   <g id="text_4">
    <!-- $\omega_{1}$ -->
    <g style="fill: #cf6a37" transform="translate(235.515245 230.754718) scale(0.12 -0.12)">
     <defs>
      <path id="DejaVuSans-31" d="M 794 531 
L 1825 531 
L 1825 4091 
L 703 3866 
L 703 4441 
L 1819 4666 
L 2450 4666 
L 2450 531 
L 3481 531 
L 3481 0 
L 794 0 
L 794 531 
z
" transform="scale(0.015625)"/>
     </defs>
     <use xlink:href="#DejaVuSans-Oblique-3c9" transform="translate(0 0.3125)"/>
     <use xlink:href="#DejaVuSans-31" transform="translate(83.740234 -16.09375) scale(0.7)"/>
    </g>
   </g>
   <g id="text_5">
    <!-- $\omega_{2}$ -->
    <g style="fill: #303030" transform="translate(148.681169 262.741601) scale(0.105 -0.105)">
     <defs>
      <path id="DejaVuSans-32" d="M 1228 531 
L 3431 531 
L 3431 0 
L 469 0 
L 469 531 
Q 828 903 1448 1529 
Q 2069 2156 2228 2338 
Q 2531 2678 2651 2914 
Q 2772 3150 2772 3378 
Q 2772 3750 2511 3984 
Q 2250 4219 1831 4219 
Q 1534 4219 1204 4116 
Q 875 4013 500 3803 
L 500 4441 
Q 881 4594 1212 4672 
Q 1544 4750 1819 4750 
Q 2544 4750 2975 4387 
Q 3406 4025 3406 3419 
Q 3406 3131 3298 2873 
Q 3191 2616 2906 2266 
Q 2828 2175 2409 1742 
Q 1991 1309 1228 531 
z
" transform="scale(0.015625)"/>
     </defs>
     <use xlink:href="#DejaVuSans-Oblique-3c9" transform="translate(0 0.3125)"/>
     <use xlink:href="#DejaVuSans-32" transform="translate(83.740234 -16.09375) scale(0.7)"/>
    </g>
   </g>
   <g id="text_6">
    <!-- $\omega_{3}$ -->
    <g style="fill: #303030" transform="translate(61.847092 229.644249) scale(0.105 -0.105)">
     <defs>
      <path id="DejaVuSans-33" d="M 2597 2516 
Q 3050 2419 3304 2112 
Q 3559 1806 3559 1356 
Q 3559 666 3084 287 
Q 2609 -91 1734 -91 
Q 1441 -91 1130 -33 
Q 819 25 488 141 
L 488 750 
Q 750 597 1062 519 
Q 1375 441 1716 441 
Q 2309 441 2620 675 
Q 2931 909 2931 1356 
Q 2931 1769 2642 2001 
Q 2353 2234 1838 2234 
L 1294 2234 
L 1294 2753 
L 1863 2753 
Q 2328 2753 2575 2939 
Q 2822 3125 2822 3475 
Q 2822 3834 2567 4026 
Q 2313 4219 1838 4219 
Q 1578 4219 1281 4162 
Q 984 4106 628 3988 
L 628 4550 
Q 988 4650 1302 4700 
Q 1616 4750 1894 4750 
Q 2613 4750 3031 4423 
Q 3450 4097 3450 3541 
Q 3450 3153 3228 2886 
Q 3006 2619 2597 2516 
z
" transform="scale(0.015625)"/>
     </defs>
     <use xlink:href="#DejaVuSans-Oblique-3c9" transform="translate(0 0.3125)"/>
     <use xlink:href="#DejaVuSans-33" transform="translate(83.740234 -16.09375) scale(0.7)"/>
    </g>
   </g>
   <g id="text_7">
    <!-- $\omega_{4}$ -->
    <g style="fill: #303030" transform="translate(28.74974 144.646032) scale(0.105 -0.105)">
     <defs>
      <path id="DejaVuSans-34" d="M 2419 4116 
L 825 1625 
L 2419 1625 
L 2419 4116 
z
M 2253 4666 
L 3047 4666 
L 3047 1625 
L 3713 1625 
L 3713 1100 
L 3047 1100 
L 3047 0 
L 2419 0 
L 2419 1100 
L 313 1100 
L 313 1709 
L 2253 4666 
z
" transform="scale(0.015625)"/>
     </defs>
     <use xlink:href="#DejaVuSans-Oblique-3c9" transform="translate(0 0.3125)"/>
     <use xlink:href="#DejaVuSans-34" transform="translate(83.740234 -16.09375) scale(0.7)"/>
    </g>
   </g>
   <g id="text_8">
    <!-- $\omega_{5}$ -->
    <g style="fill: #303030" transform="translate(61.847092 59.647815) scale(0.105 -0.105)">
     <defs>
      <path id="DejaVuSans-35" d="M 691 4666 
L 3169 4666 
L 3169 4134 
L 1269 4134 
L 1269 2991 
Q 1406 3038 1543 3061 
Q 1681 3084 1819 3084 
Q 2600 3084 3056 2656 
Q 3513 2228 3513 1497 
Q 3513 744 3044 326 
Q 2575 -91 1722 -91 
Q 1428 -91 1123 -41 
Q 819 9 494 109 
L 494 744 
Q 775 591 1075 516 
Q 1375 441 1709 441 
Q 2250 441 2565 725 
Q 2881 1009 2881 1497 
Q 2881 1984 2565 2268 
Q 2250 2553 1709 2553 
Q 1456 2553 1204 2497 
Q 953 2441 691 2322 
L 691 4666 
z
" transform="scale(0.015625)"/>
     </defs>
     <use xlink:href="#DejaVuSans-Oblique-3c9" transform="translate(0 0.3125)"/>
     <use xlink:href="#DejaVuSans-35" transform="translate(83.740234 -16.09375) scale(0.7)"/>
    </g>
   </g>
   <g id="text_9">
    <!-- $\omega_{6}$ -->
    <g style="fill: #303030" transform="translate(148.681169 26.550463) scale(0.105 -0.105)">
     <defs>
      <path id="DejaVuSans-36" d="M 2113 2584 
Q 1688 2584 1439 2293 
Q 1191 2003 1191 1497 
Q 1191 994 1439 701 
Q 1688 409 2113 409 
Q 2538 409 2786 701 
Q 3034 994 3034 1497 
Q 3034 2003 2786 2293 
Q 2538 2584 2113 2584 
z
M 3366 4563 
L 3366 3988 
Q 3128 4100 2886 4159 
Q 2644 4219 2406 4219 
Q 1781 4219 1451 3797 
Q 1122 3375 1075 2522 
Q 1259 2794 1537 2939 
Q 1816 3084 2150 3084 
Q 2853 3084 3261 2657 
Q 3669 2231 3669 1497 
Q 3669 778 3244 343 
Q 2819 -91 2113 -91 
Q 1303 -91 875 529 
Q 447 1150 447 2328 
Q 447 3434 972 4092 
Q 1497 4750 2381 4750 
Q 2619 4750 2861 4703 
Q 3103 4656 3366 4563 
z
" transform="scale(0.015625)"/>
     </defs>
     <use xlink:href="#DejaVuSans-Oblique-3c9" transform="translate(0 0.3125)"/>
     <use xlink:href="#DejaVuSans-36" transform="translate(83.740234 -16.09375) scale(0.7)"/>
    </g>
   </g>
   <g id="text_10">
    <!-- $\omega_{7}$ -->
    <g style="fill: #303030" transform="translate(235.515245 59.647815) scale(0.105 -0.105)">
     <defs>
      <path id="DejaVuSans-37" d="M 525 4666 
L 3525 4666 
L 3525 4397 
L 1831 0 
L 1172 0 
L 2766 4134 
L 525 4134 
L 525 4666 
z
" transform="scale(0.015625)"/>
     </defs>
     <use xlink:href="#DejaVuSans-Oblique-3c9" transform="translate(0 0.3125)"/>
     <use xlink:href="#DejaVuSans-37" transform="translate(83.740234 -16.09375) scale(0.7)"/>
    </g>
   </g>
   <g id="text_11">
    <!-- $\dfrac{2\pi}{L}$ -->
    <g style="fill: #cf6a37" transform="translate(202.305974 166.373644) scale(0.11 -0.11)">
     <defs>
      <path id="DejaVuSans-Oblique-3c0" d="M 584 3500 
L 3938 3500 
L 3825 2925 
L 3384 2925 
L 2966 775 
Q 2922 550 2981 450 
Q 3038 353 3209 353 
Q 3256 353 3325 363 
Q 3397 369 3419 372 
L 3338 -44 
Q 3222 -84 3103 -103 
Q 2981 -122 2866 -122 
Q 2491 -122 2388 81 
Q 2284 288 2391 838 
L 2797 2925 
L 1506 2925 
L 938 0 
L 350 0 
L 919 2925 
L 472 2925 
L 584 3500 
z
" transform="scale(0.015625)"/>
      <path id="DejaVuSans-Oblique-4c" d="M 1075 4666 
L 1709 4666 
L 909 525 
L 3181 525 
L 3078 0 
L 172 0 
L 1075 4666 
z
" transform="scale(0.015625)"/>
     </defs>
     <use xlink:href="#DejaVuSans-32" transform="translate(0 45.78125)"/>
     <use xlink:href="#DejaVuSans-Oblique-3c0" transform="translate(63.623047 45.78125)"/>
     <use xlink:href="#DejaVuSans-Oblique-4c" transform="translate(34 -60.28125)"/>
     <path d="M 0 18.875 
L 0 25.125 
L 123.828125 25.125 
L 123.828125 18.875 
L 0 18.875 
z
"/>
    </g>
   </g>
   <g id="text_12">
    <!-- $\omega_j=e^{-2\pi i\,j/L}$ -->
    <g style="fill: #303030" transform="translate(19.262338 259.498385) scale(0.125 -0.125)">
     <defs>
      <path id="DejaVuSans-Oblique-6a" d="M 928 3500 
L 1503 3500 
L 813 -63 
L 809 -78 
Q 694 -675 544 -897 
Q 403 -1106 132 -1218 
Q -138 -1331 -506 -1331 
L -722 -1331 
L -628 -844 
L -481 -844 
Q -144 -844 -1 -703 
Q 141 -563 238 -63 
L 928 3500 
z
M 1197 4863 
L 1772 4863 
L 1631 4134 
L 1056 4134 
L 1197 4863 
z
" transform="scale(0.015625)"/>
      <path id="DejaVuSans-3d" d="M 678 2906 
L 4684 2906 
L 4684 2381 
L 678 2381 
L 678 2906 
z
M 678 1631 
L 4684 1631 
L 4684 1100 
L 678 1100 
L 678 1631 
z
" transform="scale(0.015625)"/>
      <path id="DejaVuSans-Oblique-65" d="M 3078 2063 
Q 3088 2113 3092 2166 
Q 3097 2219 3097 2272 
Q 3097 2653 2873 2875 
Q 2650 3097 2266 3097 
Q 1838 3097 1509 2826 
Q 1181 2556 1013 2059 
L 3078 2063 
z
M 3578 1613 
L 903 1613 
Q 884 1494 878 1425 
Q 872 1356 872 1306 
Q 872 872 1139 634 
Q 1406 397 1894 397 
Q 2269 397 2603 481 
Q 2938 566 3225 728 
L 3116 159 
Q 2806 34 2476 -28 
Q 2147 -91 1806 -91 
Q 1078 -91 686 257 
Q 294 606 294 1247 
Q 294 1794 489 2264 
Q 684 2734 1063 3103 
Q 1306 3334 1642 3459 
Q 1978 3584 2356 3584 
Q 2950 3584 3301 3228 
Q 3653 2872 3653 2272 
Q 3653 2128 3634 1964 
Q 3616 1800 3578 1613 
z
" transform="scale(0.015625)"/>
      <path id="DejaVuSans-2212" d="M 678 2272 
L 4684 2272 
L 4684 1741 
L 678 1741 
L 678 2272 
z
" transform="scale(0.015625)"/>
      <path id="DejaVuSans-Oblique-69" d="M 1172 4863 
L 1747 4863 
L 1606 4134 
L 1031 4134 
L 1172 4863 
z
M 909 3500 
L 1484 3500 
L 800 0 
L 225 0 
L 909 3500 
z
" transform="scale(0.015625)"/>
      <path id="DejaVuSans-2f" d="M 1625 4666 
L 2156 4666 
L 531 -594 
L 0 -594 
L 1625 4666 
z
" transform="scale(0.015625)"/>
     </defs>
     <use xlink:href="#DejaVuSans-Oblique-3c9" transform="translate(0 0.529687)"/>
     <use xlink:href="#DejaVuSans-Oblique-6a" transform="translate(83.740234 -15.876563) scale(0.7)"/>
     <use xlink:href="#DejaVuSans-3d" transform="translate(125.405273 0.529687)"/>
     <use xlink:href="#DejaVuSans-Oblique-65" transform="translate(228.676758 0.529687)"/>
     <use xlink:href="#DejaVuSans-2212" transform="translate(294.850091 38.810937) scale(0.7)"/>
     <use xlink:href="#DejaVuSans-32" transform="translate(353.502435 38.810937) scale(0.7)"/>
     <use xlink:href="#DejaVuSans-Oblique-3c0" transform="translate(398.038568 38.810937) scale(0.7)"/>
     <use xlink:href="#DejaVuSans-Oblique-69" transform="translate(440.182122 38.810937) scale(0.7)"/>
     <use xlink:href="#DejaVuSans-Oblique-6a" transform="translate(470.995338 38.810937) scale(0.7)"/>
     <use xlink:href="#DejaVuSans-2f" transform="translate(490.44358 38.810937) scale(0.7)"/>
     <use xlink:href="#DejaVuSans-Oblique-4c" transform="translate(514.027565 38.810937) scale(0.7)"/>
    </g>
   </g>
   <g id="text_13">
    <!-- (a) -->
    <g style="fill: #303030" transform="translate(7.233756 18.118523) scale(0.13 -0.13)">
     <defs>
      <path id="SegoeUI-Bold-28" d="M 2309 -1019 
L 1503 -1019 
Q 494 94 494 1716 
Q 494 3281 1503 4481 
L 2303 4481 
Q 1356 3225 1356 1716 
Q 1356 206 2309 -1019 
z
" transform="scale(0.015625)"/>
      <path id="SegoeUI-Bold-61" d="M 3078 0 
L 2144 0 
L 2144 459 
L 2131 459 
Q 1809 -78 1178 -78 
Q 713 -78 445 186 
Q 178 450 178 891 
Q 178 1822 1281 1966 
L 2150 2081 
Q 2150 2606 1581 2606 
Q 1009 2606 494 2266 
L 494 3009 
Q 700 3116 1058 3197 
Q 1416 3278 1709 3278 
Q 3078 3278 3078 1913 
L 3078 0 
z
M 2150 1300 
L 2150 1516 
L 1569 1441 
Q 1088 1378 1088 1006 
Q 1088 838 1205 730 
Q 1322 622 1522 622 
Q 1800 622 1975 814 
Q 2150 1006 2150 1300 
z
" transform="scale(0.015625)"/>
      <path id="SegoeUI-Bold-29" d="M 856 -1019 
L 56 -1019 
Q 1013 200 1013 1716 
Q 1013 3219 56 4481 
L 863 4481 
Q 1875 3278 1875 1716 
Q 1875 106 856 -1019 
z
" transform="scale(0.015625)"/>
     </defs>
     <use xlink:href="#SegoeUI-Bold-28"/>
     <use xlink:href="#SegoeUI-Bold-61" transform="translate(36.914062 0)"/>
     <use xlink:href="#SegoeUI-Bold-29" transform="translate(90.722656 0)"/>
    </g>
   </g>
  </g>
  <g id="axes_2">
   <g id="patch_5">
    <path d="M 378.691418 293.25806 
L 658.119114 293.25806 
L 658.119114 5.61806 
L 378.691418 5.61806 
z
" style="fill: #ffffff"/>
   </g>
   <g id="line2d_20">
    <path d="M 378.691418 247.613041 
L 658.119114 247.613041 
" clip-path="url(#p28819d0c7a)" style="fill: none; stroke: #c9ccd3; stroke-linecap: round"/>
   </g>
   <g id="matplotlib.axis_3">
    <g id="xtick_1">
     <g id="line2d_21">
      <defs>
       <path id="m017a585312" d="M 0 0 
L 0 4 
" style="stroke: #6b7280"/>
      </defs>
      <g>
       <use xlink:href="#m017a585312" x="401.977059" y="293.25806" style="fill: #6b7280; stroke: #6b7280"/>
      </g>
     </g>
     <g id="text_14">
      <!-- 0 -->
      <g style="fill: #303030" transform="translate(399.012216 308.401498) scale(0.11 -0.11)">
       <defs>
        <path id="SegoeUI-30" d="M 3188 2259 
Q 3188 1697 3086 1262 
Q 2984 828 2792 529 
Q 2600 231 2320 76 
Q 2041 -78 1684 -78 
Q 1347 -78 1083 70 
Q 819 219 637 503 
Q 456 788 362 1202 
Q 269 1616 269 2150 
Q 269 2738 367 3188 
Q 466 3638 656 3942 
Q 847 4247 1130 4401 
Q 1413 4556 1778 4556 
Q 3188 4556 3188 2259 
z
M 2663 2209 
Q 2663 4122 1753 4122 
Q 794 4122 794 2175 
Q 794 359 1734 359 
Q 2663 359 2663 2209 
z
" transform="scale(0.015625)"/>
       </defs>
       <use xlink:href="#SegoeUI-30"/>
      </g>
     </g>
    </g>
    <g id="xtick_2">
     <g id="line2d_22">
      <g>
       <use xlink:href="#m017a585312" x="435.242261" y="293.25806" style="fill: #6b7280; stroke: #6b7280"/>
      </g>
     </g>
     <g id="text_15">
      <!-- 1 -->
      <g style="fill: #303030" transform="translate(432.277418 308.401498) scale(0.11 -0.11)">
       <defs>
        <path id="SegoeUI-31" d="M 2263 0 
L 1750 0 
L 1750 3872 
Q 1691 3813 1577 3736 
Q 1463 3659 1320 3584 
Q 1178 3509 1020 3443 
Q 863 3378 713 3341 
L 713 3859 
Q 881 3906 1070 3986 
Q 1259 4066 1442 4164 
Q 1625 4263 1787 4370 
Q 1950 4478 2069 4581 
L 2263 4581 
L 2263 0 
z
" transform="scale(0.015625)"/>
       </defs>
       <use xlink:href="#SegoeUI-31"/>
      </g>
     </g>
    </g>
    <g id="xtick_3">
     <g id="line2d_23">
      <g>
       <use xlink:href="#m017a585312" x="468.507463" y="293.25806" style="fill: #6b7280; stroke: #6b7280"/>
      </g>
     </g>
     <g id="text_16">
      <!-- 2 -->
      <g style="fill: #303030" transform="translate(465.542619 308.401498) scale(0.11 -0.11)">
       <defs>
        <path id="SegoeUI-32" d="M 2413 3306 
Q 2413 3513 2348 3666 
Q 2284 3819 2173 3920 
Q 2063 4022 1913 4072 
Q 1763 4122 1588 4122 
Q 1438 4122 1294 4081 
Q 1150 4041 1014 3969 
Q 878 3897 751 3797 
Q 625 3697 516 3575 
L 516 4125 
Q 731 4334 998 4445 
Q 1266 4556 1650 4556 
Q 1925 4556 2159 4476 
Q 2394 4397 2566 4244 
Q 2738 4091 2836 3866 
Q 2934 3641 2934 3350 
Q 2934 3084 2873 2868 
Q 2813 2653 2689 2462 
Q 2566 2272 2378 2097 
Q 2191 1922 1938 1741 
Q 1622 1516 1417 1356 
Q 1213 1197 1092 1058 
Q 972 919 923 780 
Q 875 641 875 459 
L 3106 459 
L 3106 0 
L 341 0 
L 341 222 
Q 341 509 403 728 
Q 466 947 609 1144 
Q 753 1341 986 1537 
Q 1219 1734 1556 1981 
Q 1800 2156 1964 2315 
Q 2128 2475 2228 2634 
Q 2328 2794 2370 2958 
Q 2413 3122 2413 3306 
z
" transform="scale(0.015625)"/>
       </defs>
       <use xlink:href="#SegoeUI-32"/>
      </g>
     </g>
    </g>
    <g id="xtick_4">
     <g id="line2d_24">
      <g>
       <use xlink:href="#m017a585312" x="501.772665" y="293.25806" style="fill: #6b7280; stroke: #6b7280"/>
      </g>
     </g>
     <g id="text_17">
      <!-- 3 -->
      <g style="fill: #303030" transform="translate(498.807821 308.401498) scale(0.11 -0.11)">
       <defs>
        <path id="SegoeUI-33" d="M 2978 1269 
Q 2978 966 2864 717 
Q 2750 469 2542 292 
Q 2334 116 2043 19 
Q 1753 -78 1403 -78 
Q 763 -78 384 166 
L 384 716 
Q 838 359 1422 359 
Q 1656 359 1845 418 
Q 2034 478 2170 590 
Q 2306 703 2379 862 
Q 2453 1022 2453 1222 
Q 2453 2100 1203 2100 
L 831 2100 
L 831 2534 
L 1184 2534 
Q 2291 2534 2291 3359 
Q 2291 4122 1447 4122 
Q 972 4122 556 3803 
L 556 4300 
Q 984 4556 1575 4556 
Q 1856 4556 2084 4478 
Q 2313 4400 2475 4259 
Q 2638 4119 2727 3922 
Q 2816 3725 2816 3488 
Q 2816 2603 1922 2350 
L 1922 2338 
Q 2150 2313 2344 2227 
Q 2538 2141 2678 2003 
Q 2819 1866 2898 1680 
Q 2978 1494 2978 1269 
z
" transform="scale(0.015625)"/>
       </defs>
       <use xlink:href="#SegoeUI-33"/>
      </g>
     </g>
    </g>
    <g id="xtick_5">
     <g id="line2d_25">
      <g>
       <use xlink:href="#m017a585312" x="535.037867" y="293.25806" style="fill: #6b7280; stroke: #6b7280"/>
      </g>
     </g>
     <g id="text_18">
      <!-- 4 -->
      <g style="fill: #303030" transform="translate(532.073023 308.401498) scale(0.11 -0.11)">
       <defs>
        <path id="SegoeUI-34" d="M 2656 4481 
L 2656 1522 
L 3231 1522 
L 3231 1053 
L 2656 1053 
L 2656 0 
L 2150 0 
L 2150 1053 
L 44 1053 
L 44 1497 
Q 338 1828 638 2204 
Q 938 2581 1211 2968 
Q 1484 3356 1717 3742 
Q 1950 4128 2109 4481 
L 2656 4481 
z
M 622 1522 
L 2150 1522 
L 2150 3716 
Q 1916 3306 1706 2984 
Q 1497 2663 1308 2400 
Q 1119 2138 947 1925 
Q 775 1713 622 1522 
z
" transform="scale(0.015625)"/>
       </defs>
       <use xlink:href="#SegoeUI-34"/>
      </g>
     </g>
    </g>
    <g id="xtick_6">
     <g id="line2d_26">
      <g>
       <use xlink:href="#m017a585312" x="568.303069" y="293.25806" style="fill: #6b7280; stroke: #6b7280"/>
      </g>
     </g>
     <g id="text_19">
      <!-- 5 -->
      <g style="fill: #303030" transform="translate(565.338225 308.401498) scale(0.11 -0.11)">
       <defs>
        <path id="SegoeUI-35" d="M 3028 1369 
Q 3028 1041 2915 775 
Q 2803 509 2595 318 
Q 2388 128 2094 25 
Q 1800 -78 1441 -78 
Q 816 -78 513 109 
L 513 653 
Q 969 359 1447 359 
Q 1691 359 1886 431 
Q 2081 503 2218 631 
Q 2356 759 2429 940 
Q 2503 1122 2503 1338 
Q 2503 1775 2209 2023 
Q 1916 2272 1356 2272 
Q 1266 2272 1166 2269 
Q 1066 2266 966 2261 
Q 866 2256 770 2250 
Q 675 2244 597 2234 
L 750 4481 
L 2822 4481 
L 2822 4019 
L 1194 4019 
L 1103 2703 
Q 1203 2709 1315 2714 
Q 1428 2719 1516 2719 
Q 1872 2719 2153 2625 
Q 2434 2531 2629 2357 
Q 2825 2184 2926 1932 
Q 3028 1681 3028 1369 
z
" transform="scale(0.015625)"/>
       </defs>
       <use xlink:href="#SegoeUI-35"/>
      </g>
     </g>
    </g>
    <g id="xtick_7">
     <g id="line2d_27">
      <g>
       <use xlink:href="#m017a585312" x="601.56827" y="293.25806" style="fill: #6b7280; stroke: #6b7280"/>
      </g>
     </g>
     <g id="text_20">
      <!-- 6 -->
      <g style="fill: #303030" transform="translate(598.603427 308.401498) scale(0.11 -0.11)">
       <defs>
        <path id="SegoeUI-36" d="M 3194 1422 
Q 3194 1094 3087 819 
Q 2981 544 2793 344 
Q 2606 144 2347 33 
Q 2088 -78 1784 -78 
Q 1447 -78 1180 62 
Q 913 203 727 467 
Q 541 731 444 1112 
Q 347 1494 347 1972 
Q 347 2556 476 3032 
Q 606 3509 845 3848 
Q 1084 4188 1421 4372 
Q 1759 4556 2175 4556 
Q 2638 4556 2919 4428 
L 2919 3944 
Q 2572 4122 2188 4122 
Q 1888 4122 1647 3987 
Q 1406 3853 1234 3608 
Q 1063 3363 970 3016 
Q 878 2669 878 2244 
L 891 2244 
Q 1200 2803 1913 2803 
Q 2206 2803 2442 2703 
Q 2678 2603 2845 2420 
Q 3013 2238 3103 1984 
Q 3194 1731 3194 1422 
z
M 2669 1356 
Q 2669 1591 2609 1778 
Q 2550 1966 2439 2097 
Q 2328 2228 2165 2298 
Q 2003 2369 1797 2369 
Q 1606 2369 1443 2297 
Q 1281 2225 1162 2101 
Q 1044 1978 976 1814 
Q 909 1650 909 1466 
Q 909 1234 975 1032 
Q 1041 831 1159 681 
Q 1278 531 1442 445 
Q 1606 359 1806 359 
Q 2000 359 2159 432 
Q 2319 506 2431 637 
Q 2544 769 2606 951 
Q 2669 1134 2669 1356 
z
" transform="scale(0.015625)"/>
       </defs>
       <use xlink:href="#SegoeUI-36"/>
      </g>
     </g>
    </g>
    <g id="xtick_8">
     <g id="line2d_28">
      <g>
       <use xlink:href="#m017a585312" x="634.833472" y="293.25806" style="fill: #6b7280; stroke: #6b7280"/>
      </g>
     </g>
     <g id="text_21">
      <!-- 7 -->
      <g style="fill: #303030" transform="translate(631.868629 308.401498) scale(0.11 -0.11)">
       <defs>
        <path id="SegoeUI-37" d="M 3156 4184 
Q 3053 4006 2908 3740 
Q 2763 3475 2600 3144 
Q 2438 2813 2269 2431 
Q 2100 2050 1953 1644 
Q 1806 1238 1695 820 
Q 1584 403 1534 0 
L 984 0 
Q 1041 400 1158 817 
Q 1275 1234 1423 1636 
Q 1572 2038 1737 2409 
Q 1903 2781 2059 3093 
Q 2216 3406 2345 3645 
Q 2475 3884 2553 4019 
L 306 4019 
L 306 4481 
L 3156 4481 
L 3156 4184 
z
" transform="scale(0.015625)"/>
       </defs>
       <use xlink:href="#SegoeUI-37"/>
      </g>
     </g>
    </g>
    <g id="text_22">
     <!-- $m$ -->
     <g style="fill: #303030" transform="translate(512.770266 323.445091) scale(0.115 -0.115)">
      <defs>
       <path id="DejaVuSans-Oblique-6d" d="M 5747 2113 
L 5338 0 
L 4763 0 
L 5166 2094 
Q 5191 2228 5203 2325 
Q 5216 2422 5216 2491 
Q 5216 2772 5059 2928 
Q 4903 3084 4622 3084 
Q 4203 3084 3875 2770 
Q 3547 2456 3450 1953 
L 3066 0 
L 2491 0 
L 2900 2094 
Q 2925 2209 2937 2307 
Q 2950 2406 2950 2484 
Q 2950 2769 2794 2926 
Q 2638 3084 2363 3084 
Q 1938 3084 1609 2770 
Q 1281 2456 1184 1953 
L 800 0 
L 225 0 
L 909 3500 
L 1484 3500 
L 1375 2956 
Q 1609 3263 1923 3423 
Q 2238 3584 2597 3584 
Q 2978 3584 3223 3384 
Q 3469 3184 3519 2828 
Q 3781 3197 4126 3390 
Q 4472 3584 4856 3584 
Q 5306 3584 5551 3325 
Q 5797 3066 5797 2591 
Q 5797 2488 5784 2364 
Q 5772 2241 5747 2113 
z
" transform="scale(0.015625)"/>
      </defs>
      <use xlink:href="#DejaVuSans-Oblique-6d"/>
     </g>
    </g>
   </g>
   <g id="matplotlib.axis_4">
    <g id="ytick_1">
     <g id="line2d_29">
      <defs>
       <path id="mcccb19b722" d="M 0 0 
L -4 0 
" style="stroke: #6b7280"/>
      </defs>
      <g>
       <use xlink:href="#mcccb19b722" x="378.691418" y="247.613041" style="fill: #6b7280; stroke: #6b7280"/>
      </g>
     </g>
     <g id="text_23">
      <!-- 0.0 -->
      <g style="fill: #303030" transform="translate(356.946418 251.68476) scale(0.11 -0.11)">
       <defs>
        <path id="SegoeUI-2e" d="M 697 -69 
Q 553 -69 451 34 
Q 350 138 350 281 
Q 350 425 451 529 
Q 553 634 697 634 
Q 844 634 947 529 
Q 1050 425 1050 281 
Q 1050 138 947 34 
Q 844 -69 697 -69 
z
" transform="scale(0.015625)"/>
       </defs>
       <use xlink:href="#SegoeUI-30"/>
       <use xlink:href="#SegoeUI-2e" transform="translate(53.90625 0)"/>
       <use xlink:href="#SegoeUI-30" transform="translate(75.585938 0)"/>
      </g>
     </g>
    </g>
    <g id="ytick_2">
     <g id="line2d_30">
      <g>
       <use xlink:href="#mcccb19b722" x="378.691418" y="193.275384" style="fill: #6b7280; stroke: #6b7280"/>
      </g>
     </g>
     <g id="text_24">
      <!-- 0.1 -->
      <g style="fill: #303030" transform="translate(356.946418 197.347103) scale(0.11 -0.11)">
       <use xlink:href="#SegoeUI-30"/>
       <use xlink:href="#SegoeUI-2e" transform="translate(53.90625 0)"/>
       <use xlink:href="#SegoeUI-31" transform="translate(75.585938 0)"/>
      </g>
     </g>
    </g>
    <g id="ytick_3">
     <g id="line2d_31">
      <g>
       <use xlink:href="#mcccb19b722" x="378.691418" y="138.937728" style="fill: #6b7280; stroke: #6b7280"/>
      </g>
     </g>
     <g id="text_25">
      <!-- 0.2 -->
      <g style="fill: #303030" transform="translate(356.946418 143.009446) scale(0.11 -0.11)">
       <use xlink:href="#SegoeUI-30"/>
       <use xlink:href="#SegoeUI-2e" transform="translate(53.90625 0)"/>
       <use xlink:href="#SegoeUI-32" transform="translate(75.585938 0)"/>
      </g>
     </g>
    </g>
    <g id="ytick_4">
     <g id="line2d_32">
      <g>
       <use xlink:href="#mcccb19b722" x="378.691418" y="84.600071" style="fill: #6b7280; stroke: #6b7280"/>
      </g>
     </g>
     <g id="text_26">
      <!-- 0.3 -->
      <g style="fill: #303030" transform="translate(356.946418 88.67179) scale(0.11 -0.11)">
       <use xlink:href="#SegoeUI-30"/>
       <use xlink:href="#SegoeUI-2e" transform="translate(53.90625 0)"/>
       <use xlink:href="#SegoeUI-33" transform="translate(75.585938 0)"/>
      </g>
     </g>
    </g>
    <g id="ytick_5">
     <g id="line2d_33">
      <g>
       <use xlink:href="#mcccb19b722" x="378.691418" y="30.262414" style="fill: #6b7280; stroke: #6b7280"/>
      </g>
     </g>
     <g id="text_27">
      <!-- 0.4 -->
      <g style="fill: #303030" transform="translate(356.946418 34.334133) scale(0.11 -0.11)">
       <use xlink:href="#SegoeUI-30"/>
       <use xlink:href="#SegoeUI-2e" transform="translate(53.90625 0)"/>
       <use xlink:href="#SegoeUI-34" transform="translate(75.585938 0)"/>
      </g>
     </g>
    </g>
    <g id="text_28">
     <!-- $\bar K_m$ -->
     <g style="fill: #303030" transform="translate(350.301418 157.60306) rotate(-90) scale(0.115 -0.115)">
      <defs>
       <path id="DejaVuSans-304" d="M -2518 4769 
L -650 4769 
L -650 4306 
L -2518 4306 
L -2518 4769 
z
" transform="scale(0.015625)"/>
       <path id="DejaVuSans-Oblique-4b" d="M 1081 4666 
L 1716 4666 
L 1331 2700 
L 3781 4666 
L 4622 4666 
L 1850 2438 
L 3878 0 
L 3109 0 
L 1247 2272 
L 806 0 
L 172 0 
L 1081 4666 
z
" transform="scale(0.015625)"/>
      </defs>
      <use xlink:href="#DejaVuSans-304" transform="translate(67.726562 18.484375)"/>
      <use xlink:href="#DejaVuSans-Oblique-4b" transform="translate(0 0.359375)"/>
      <use xlink:href="#DejaVuSans-Oblique-6d" transform="translate(70.488281 -16.046875) scale(0.7)"/>
     </g>
    </g>
   </g>
   <g id="line2d_34">
    <path d="M 401.977059 247.613041 
L 401.977059 76.61236 
" clip-path="url(#p28819d0c7a)" style="fill: none; stroke: #4a5c79; stroke-width: 2"/>
   </g>
   <g id="line2d_35">
    <path d="M 435.242261 247.613041 
L 435.242261 52.14806 
" clip-path="url(#p28819d0c7a)" style="fill: none; stroke: #4a5c79; stroke-width: 2"/>
   </g>
   <g id="line2d_36">
    <path d="M 468.507463 247.613041 
L 468.507463 94.479678 
" clip-path="url(#p28819d0c7a)" style="fill: none; stroke: #4a5c79; stroke-width: 2"/>
   </g>
   <g id="line2d_37">
    <path d="M 501.772665 247.613041 
L 501.772665 155.276292 
" clip-path="url(#p28819d0c7a)" style="fill: none; stroke: #4a5c79; stroke-width: 2"/>
   </g>
   <g id="line2d_38">
    <path d="M 535.037867 247.613041 
L 535.037867 207.784046 
" clip-path="url(#p28819d0c7a)" style="fill: none; stroke: #4a5c79; stroke-width: 2"/>
   </g>
   <g id="line2d_39">
    <path d="M 568.303069 247.613041 
L 568.303069 242.242913 
" clip-path="url(#p28819d0c7a)" style="fill: none; stroke: #4a5c79; stroke-width: 2"/>
   </g>
   <g id="line2d_40">
    <path d="M 601.56827 247.613041 
L 601.56827 259.191287 
" clip-path="url(#p28819d0c7a)" style="fill: none; stroke: #4a5c79; stroke-width: 2"/>
   </g>
   <g id="line2d_41">
    <path d="M 634.833472 247.613041 
L 634.833472 263.64806 
" clip-path="url(#p28819d0c7a)" style="fill: none; stroke: #4a5c79; stroke-width: 2"/>
   </g>
   <g id="patch_6">
    <path d="M 378.691418 293.25806 
L 378.691418 5.61806 
" style="fill: none; stroke: #c9ccd3; stroke-linejoin: miter; stroke-linecap: square"/>
   </g>
   <g id="patch_7">
    <path d="M 378.691418 293.25806 
L 658.119114 293.25806 
" style="fill: none; stroke: #c9ccd3; stroke-linejoin: miter; stroke-linecap: square"/>
   </g>
   <g id="line2d_42">
    <defs>
     <path id="m42a4975996" d="M 0 3.5 
C 0.928211 3.5 1.81853 3.131218 2.474874 2.474874 
C 3.131218 1.81853 3.5 0.928211 3.5 0 
C 3.5 -0.928211 3.131218 -1.81853 2.474874 -2.474874 
C 1.81853 -3.131218 0.928211 -3.5 0 -3.5 
C -0.928211 -3.5 -1.81853 -3.131218 -2.474874 -2.474874 
C -3.131218 -1.81853 -3.5 -0.928211 -3.5 0 
C -3.5 0.928211 -3.131218 1.81853 -2.474874 2.474874 
C -1.81853 3.131218 -0.928211 3.5 0 3.5 
z
" style="stroke: #ffffff; stroke-width: 1.2"/>
    </defs>
    <g clip-path="url(#p28819d0c7a)">
     <use xlink:href="#m42a4975996" x="401.977059" y="76.61236" style="fill: #3a4a63; stroke: #ffffff; stroke-width: 1.2"/>
    </g>
   </g>
   <g id="line2d_43">
    <g clip-path="url(#p28819d0c7a)">
     <use xlink:href="#m42a4975996" x="435.242261" y="52.14806" style="fill: #3a4a63; stroke: #ffffff; stroke-width: 1.2"/>
    </g>
   </g>
   <g id="line2d_44">
    <g clip-path="url(#p28819d0c7a)">
     <use xlink:href="#m42a4975996" x="468.507463" y="94.479678" style="fill: #3a4a63; stroke: #ffffff; stroke-width: 1.2"/>
    </g>
   </g>
   <g id="line2d_45">
    <g clip-path="url(#p28819d0c7a)">
     <use xlink:href="#m42a4975996" x="501.772665" y="155.276292" style="fill: #3a4a63; stroke: #ffffff; stroke-width: 1.2"/>
    </g>
   </g>
   <g id="line2d_46">
    <g clip-path="url(#p28819d0c7a)">
     <use xlink:href="#m42a4975996" x="535.037867" y="207.784046" style="fill: #3a4a63; stroke: #ffffff; stroke-width: 1.2"/>
    </g>
   </g>
   <g id="line2d_47">
    <g clip-path="url(#p28819d0c7a)">
     <use xlink:href="#m42a4975996" x="568.303069" y="242.242913" style="fill: #3a4a63; stroke: #ffffff; stroke-width: 1.2"/>
    </g>
   </g>
   <g id="line2d_48">
    <g clip-path="url(#p28819d0c7a)">
     <use xlink:href="#m42a4975996" x="601.56827" y="259.191287" style="fill: #3a4a63; stroke: #ffffff; stroke-width: 1.2"/>
    </g>
   </g>
   <g id="line2d_49">
    <g clip-path="url(#p28819d0c7a)">
     <use xlink:href="#m42a4975996" x="634.833472" y="263.64806" style="fill: #3a4a63; stroke: #ffffff; stroke-width: 1.2"/>
    </g>
   </g>
   <g id="text_29">
    <!-- (b) -->
    <g style="fill: #303030" transform="translate(378.691418 15.242123) scale(0.13 -0.13)">
     <defs>
      <path id="SegoeUI-Bold-62" d="M 1416 372 
L 1403 372 
L 1403 0 
L 416 0 
L 416 4738 
L 1403 4738 
L 1403 2719 
L 1416 2719 
Q 1781 3278 2456 3278 
Q 3075 3278 3409 2853 
Q 3744 2428 3744 1691 
Q 3744 891 3353 406 
Q 2963 -78 2309 -78 
Q 1719 -78 1416 372 
z
M 1388 1722 
L 1388 1394 
Q 1388 1084 1566 881 
Q 1744 678 2022 678 
Q 2359 678 2545 939 
Q 2731 1200 2731 1678 
Q 2731 2075 2561 2298 
Q 2391 2522 2075 2522 
Q 1778 2522 1583 2300 
Q 1388 2078 1388 1722 
z
" transform="scale(0.015625)"/>
     </defs>
     <use xlink:href="#SegoeUI-Bold-28"/>
     <use xlink:href="#SegoeUI-Bold-62" transform="translate(36.914062 0)"/>
     <use xlink:href="#SegoeUI-Bold-29" transform="translate(98.925781 0)"/>
    </g>
   </g>
  </g>
 </g>
 <defs>
  <clipPath id="p8832872a49">
   <rect x="4.32" y="5.61806" width="291.375584" height="287.64"/>
  </clipPath>
  <clipPath id="p28819d0c7a">
   <rect x="378.691418" y="5.61806" width="279.427695" height="287.64"/>
  </clipPath>
 </defs>
</svg>
