<?xml version="1.0" encoding="utf-8" standalone="no"?>
<!DOCTYPE svg PUBLIC "-//W3C//DTD SVG 1.1//EN"
  "http://www.w3.org/Graphics/SVG/1.1/DTD/svg11.dtd">
<svg xmlns:xlink="http://www.w3.org/1999/xlink" width="465.586875pt" height="285.84pt" viewBox="0 0 465.586875 285.84" xmlns="http://www.w3.org/2000/svg" version="1.1">
 <metadata>
  <rdf:RDF xmlns:dc="http://purl.org/dc/elements/1.1/" xmlns:cc="http://creativecommons.org/ns#" xmlns:rdf="http://www.w3.org/1999/02/22-rdf-syntax-ns#">
   <cc:Work>
    <dc:type rdf:resource="http://purl.org/dc/dcmitype/StillImage"/>
    <dc:date>2026-06-04T12:46:11.651958</dc:date>
    <dc:format>image/svg+xml</dc:format>
    <dc:creator>
     <cc:Agent>
      <dc:title>Matplotlib v3.10.3, https://matplotlib.org/</dc:title>
     </cc:Agent>
    </dc:creator>
   </cc:Work>
  </rdf:RDF>
 </metadata>
 <defs>
  <style type="text/css">*{stroke-linejoin: round; stroke-linecap: butt}</style>
 </defs>
 <g id="figure_1">
  <g id="patch_1">
   <path d="M 0 285.84 
L 465.586875 285.84 
L 465.586875 0 
L 0 0 
z
" style="fill: #ffffff"/>
  </g>
  <g id="axes_1">
   <g id="patch_2">
    <path d="M 142.92 62.791875 
L 186.2325 62.791875 
L 186.2325 19.479375 
L 142.92 19.479375 
z
" clip-path="url(#p83ee73064f)" style="fill: #e37c47; stroke: #c9ccd3; stroke-width: 1.1; stroke-linejoin: miter"/>
   </g>
   <g id="patch_3">
    <path d="M 186.2325 62.791875 
L 229.545 62.791875 
L 229.545 19.479375 
L 186.2325 19.479375 
z
" clip-path="url(#p83ee73064f)" style="fill: #f5f5f5; stroke: #c9ccd3; stroke-width: 1.1; stroke-linejoin: miter"/>
   </g>
   <g id="patch_4">
    <path d="M 229.545 62.791875 
L 272.8575 62.791875 
L 272.8575 19.479375 
L 229.545 19.479375 
z
" clip-path="url(#p83ee73064f)" style="fill: #f5f5f5; stroke: #c9ccd3; stroke-width: 1.1; stroke-linejoin: miter"/>
   </g>
   <g id="patch_5">
    <path d="M 272.8575 62.791875 
L 316.17 62.791875 
L 316.17 19.479375 
L 272.8575 19.479375 
z
" clip-path="url(#p83ee73064f)" style="fill: #f5f5f5; stroke: #c9ccd3; stroke-width: 1.1; stroke-linejoin: miter"/>
   </g>
   <g id="patch_6">
    <path d="M 316.17 62.791875 
L 359.4825 62.791875 
L 359.4825 19.479375 
L 316.17 19.479375 
z
" clip-path="url(#p83ee73064f)" style="fill: #f5f5f5; stroke: #c9ccd3; stroke-width: 1.1; stroke-linejoin: miter"/>
   </g>
   <g id="patch_7">
    <path d="M 142.92 106.104375 
L 186.2325 106.104375 
L 186.2325 62.791875 
L 142.92 62.791875 
z
" clip-path="url(#p83ee73064f)" style="fill: #4a5c79; stroke: #c9ccd3; stroke-width: 1.1; stroke-linejoin: miter"/>
   </g>
   <g id="patch_8">
    <path d="M 186.2325 106.104375 
L 229.545 106.104375 
L 229.545 62.791875 
L 186.2325 62.791875 
z
" clip-path="url(#p83ee73064f)" style="fill: #e37c47; stroke: #c9ccd3; stroke-width: 1.1; stroke-linejoin: miter"/>
   </g>
   <g id="patch_9">
    <path d="M 229.545 106.104375 
L 272.8575 106.104375 
L 272.8575 62.791875 
L 229.545 62.791875 
z
" clip-path="url(#p83ee73064f)" style="fill: #f5f5f5; stroke: #c9ccd3; stroke-width: 1.1; stroke-linejoin: miter"/>
   </g>
   <g id="patch_10">
    <path d="M 272.8575 106.104375 
L 316.17 106.104375 
L 316.17 62.791875 
L 272.8575 62.791875 
z
" clip-path="url(#p83ee73064f)" style="fill: #f5f5f5; stroke: #c9ccd3; stroke-width: 1.1; stroke-linejoin: miter"/>
   </g>
   <g id="patch_11">
    <path d="M 316.17 106.104375 
L 359.4825 106.104375 
L 359.4825 62.791875 
L 316.17 62.791875 
z
" clip-path="url(#p83ee73064f)" style="fill: #f5f5f5; stroke: #c9ccd3; stroke-width: 1.1; stroke-linejoin: miter"/>
   </g>
   <g id="patch_12">
    <path d="M 142.92 149.416875 
L 186.2325 149.416875 
L 186.2325 106.104375 
L 142.92 106.104375 
z
" clip-path="url(#p83ee73064f)" style="fill: #6e7f9c; stroke: #c9ccd3; stroke-width: 1.1; stroke-linejoin: miter"/>
   </g>
   <g id="patch_13">
    <path d="M 186.2325 149.416875 
L 229.545 149.416875 
L 229.545 106.104375 
L 186.2325 106.104375 
z
" clip-path="url(#p83ee73064f)" style="fill: #4a5c79; stroke: #c9ccd3; stroke-width: 1.1; stroke-linejoin: miter"/>
   </g>
   <g id="patch_14">
    <path d="M 229.545 149.416875 
L 272.8575 149.416875 
L 272.8575 106.104375 
L 229.545 106.104375 
z
" clip-path="url(#p83ee73064f)" style="fill: #e37c47; stroke: #c9ccd3; stroke-width: 1.1; stroke-linejoin: miter"/>
   </g>
   <g id="patch_15">
    <path d="M 272.8575 149.416875 
L 316.17 149.416875 
L 316.17 106.104375 
L 272.8575 106.104375 
z
" clip-path="url(#p83ee73064f)" style="fill: #f5f5f5; stroke: #c9ccd3; stroke-width: 1.1; stroke-linejoin: miter"/>
   </g>
   <g id="patch_16">
    <path d="M 316.17 149.416875 
L 359.4825 149.416875 
L 359.4825 106.104375 
L 316.17 106.104375 
z
" clip-path="url(#p83ee73064f)" style="fill: #f5f5f5; stroke: #c9ccd3; stroke-width: 1.1; stroke-linejoin: miter"/>
   </g>
   <g id="patch_17">
    <path d="M 142.92 192.729375 
L 186.2325 192.729375 
L 186.2325 149.416875 
L 142.92 149.416875 
z
" clip-path="url(#p83ee73064f)" style="fill: #94a2bb; stroke: #c9ccd3; stroke-width: 1.1; stroke-linejoin: miter"/>
   </g>
   <g id="patch_18">
    <path d="M 186.2325 192.729375 
L 229.545 192.729375 
L 229.545 149.416875 
L 186.2325 149.416875 
z
" clip-path="url(#p83ee73064f)" style="fill: #6e7f9c; stroke: #c9ccd3; stroke-width: 1.1; stroke-linejoin: miter"/>
   </g>
   <g id="patch_19">
    <path d="M 229.545 192.729375 
L 272.8575 192.729375 
L 272.8575 149.416875 
L 229.545 149.416875 
z
" clip-path="url(#p83ee73064f)" style="fill: #4a5c79; stroke: #c9ccd3; stroke-width: 1.1; stroke-linejoin: miter"/>
   </g>
   <g id="patch_20">
    <path d="M 272.8575 192.729375 
L 316.17 192.729375 
L 316.17 149.416875 
L 272.8575 149.416875 
z
" clip-path="url(#p83ee73064f)" style="fill: #e37c47; stroke: #c9ccd3; stroke-width: 1.1; stroke-linejoin: miter"/>
   </g>
   <g id="patch_21">
    <path d="M 316.17 192.729375 
L 359.4825 192.729375 
L 359.4825 149.416875 
L 316.17 149.416875 
z
" clip-path="url(#p83ee73064f)" style="fill: #f5f5f5; stroke: #c9ccd3; stroke-width: 1.1; stroke-linejoin: miter"/>
   </g>
   <g id="patch_22">
    <path d="M 142.92 236.041875 
L 186.2325 236.041875 
L 186.2325 192.729375 
L 142.92 192.729375 
z
" clip-path="url(#p83ee73064f)" style="fill: #bcc6d6; stroke: #c9ccd3; stroke-width: 1.1; stroke-linejoin: miter"/>
   </g>
   <g id="patch_23">
    <path d="M 186.2325 236.041875 
L 229.545 236.041875 
L 229.545 192.729375 
L 186.2325 192.729375 
z
" clip-path="url(#p83ee73064f)" style="fill: #94a2bb; stroke: #c9ccd3; stroke-width: 1.1; stroke-linejoin: miter"/>
   </g>
   <g id="patch_24">
    <path d="M 229.545 236.041875 
L 272.8575 236.041875 
L 272.8575 192.729375 
L 229.545 192.729375 
z
" clip-path="url(#p83ee73064f)" style="fill: #6e7f9c; stroke: #c9ccd3; stroke-width: 1.1; stroke-linejoin: miter"/>
   </g>
   <g id="patch_25">
    <path d="M 272.8575 236.041875 
L 316.17 236.041875 
L 316.17 192.729375 
L 272.8575 192.729375 
z
" clip-path="url(#p83ee73064f)" style="fill: #4a5c79; stroke: #c9ccd3; stroke-width: 1.1; stroke-linejoin: miter"/>
   </g>
   <g id="patch_26">
    <path d="M 316.17 236.041875 
L 359.4825 236.041875 
L 359.4825 192.729375 
L 316.17 192.729375 
z
" clip-path="url(#p83ee73064f)" style="fill: #e37c47; stroke: #c9ccd3; stroke-width: 1.1; stroke-linejoin: miter"/>
   </g>
   <g id="patch_27">
    <path d="M 396.298125 62.791875 
L 439.610625 62.791875 
L 439.610625 19.479375 
L 396.298125 19.479375 
z
" clip-path="url(#p83ee73064f)" style="fill: #ffffff; stroke: #c9ccd3; stroke-width: 1.1; stroke-linejoin: miter"/>
   </g>
   <g id="patch_28">
    <path d="M 396.298125 106.104375 
L 439.610625 106.104375 
L 439.610625 62.791875 
L 396.298125 62.791875 
z
" clip-path="url(#p83ee73064f)" style="fill: #ffffff; stroke: #c9ccd3; stroke-width: 1.1; stroke-linejoin: miter"/>
   </g>
   <g id="patch_29">
    <path d="M 396.298125 149.416875 
L 439.610625 149.416875 
L 439.610625 106.104375 
L 396.298125 106.104375 
z
" clip-path="url(#p83ee73064f)" style="fill: #ffffff; stroke: #c9ccd3; stroke-width: 1.1; stroke-linejoin: miter"/>
   </g>
   <g id="patch_30">
    <path d="M 396.298125 192.729375 
L 439.610625 192.729375 
L 439.610625 149.416875 
L 396.298125 149.416875 
z
" clip-path="url(#p83ee73064f)" style="fill: #ffffff; stroke: #c9ccd3; stroke-width: 1.1; stroke-linejoin: miter"/>
   </g>
   <g id="patch_31">
    <path d="M 396.298125 236.041875 
L 439.610625 236.041875 
L 439.610625 192.729375 
L 396.298125 192.729375 
z
" clip-path="url(#p83ee73064f)" style="fill: #ffffff; stroke: #c9ccd3; stroke-width: 1.1; stroke-linejoin: miter"/>
   </g>
   <g id="patch_32">
    <path d="M 25.97625 62.791875 
L 69.28875 62.791875 
L 69.28875 19.479375 
L 25.97625 19.479375 
z
" clip-path="url(#p83ee73064f)" style="fill: #ffffff; stroke: #c9ccd3; stroke-width: 1.1; stroke-linejoin: miter"/>
   </g>
   <g id="patch_33">
    <path d="M 25.97625 106.104375 
L 69.28875 106.104375 
L 69.28875 62.791875 
L 25.97625 62.791875 
z
" clip-path="url(#p83ee73064f)" style="fill: #ffffff; stroke: #c9ccd3; stroke-width: 1.1; stroke-linejoin: miter"/>
   </g>
   <g id="patch_34">
    <path d="M 25.97625 149.416875 
L 69.28875 149.416875 
L 69.28875 106.104375 
L 25.97625 106.104375 
z
" clip-path="url(#p83ee73064f)" style="fill: #ffffff; stroke: #c9ccd3; stroke-width: 1.1; stroke-linejoin: miter"/>
   </g>
   <g id="patch_35">
    <path d="M 25.97625 192.729375 
L 69.28875 192.729375 
L 69.28875 149.416875 
L 25.97625 149.416875 
z
" clip-path="url(#p83ee73064f)" style="fill: #ffffff; stroke: #c9ccd3; stroke-width: 1.1; stroke-linejoin: miter"/>
   </g>
   <g id="patch_36">
    <path d="M 25.97625 236.041875 
L 69.28875 236.041875 
L 69.28875 192.729375 
L 25.97625 192.729375 
z
" clip-path="url(#p83ee73064f)" style="fill: #ffffff; stroke: #c9ccd3; stroke-width: 1.1; stroke-linejoin: miter"/>
   </g>
   <g id="text_1">
    <!-- $\bar K_{0}$ -->
    <g style="fill: #303030" transform="translate(156.31625 45.685625) scale(0.14 -0.14)">
     <defs>
      <path id="DejaVuSans-304" d="M -2518 4769 
L -650 4769 
L -650 4306 
L -2518 4306 
L -2518 4769 
z
" transform="scale(0.015625)"/>
      <path id="DejaVuSans-Oblique-4b" d="M 1081 4666 
L 1716 4666 
L 1331 2700 
L 3781 4666 
L 4622 4666 
L 1850 2438 
L 3878 0 
L 3109 0 
L 1247 2272 
L 806 0 
L 172 0 
L 1081 4666 
z
" transform="scale(0.015625)"/>
      <path id="DejaVuSans-30" d="M 2034 4250 
Q 1547 4250 1301 3770 
Q 1056 3291 1056 2328 
Q 1056 1369 1301 889 
Q 1547 409 2034 409 
Q 2525 409 2770 889 
Q 3016 1369 3016 2328 
Q 3016 3291 2770 3770 
Q 2525 4250 2034 4250 
z
M 2034 4750 
Q 2819 4750 3233 4129 
Q 3647 3509 3647 2328 
Q 3647 1150 3233 529 
Q 2819 -91 2034 -91 
Q 1250 -91 836 529 
Q 422 1150 422 2328 
Q 422 3509 836 4129 
Q 1250 4750 2034 4750 
z
" transform="scale(0.015625)"/>
     </defs>
     <use xlink:href="#DejaVuSans-304" transform="translate(67.726562 18.484375)"/>
     <use xlink:href="#DejaVuSans-Oblique-4b" transform="translate(0 0.359375)"/>
     <use xlink:href="#DejaVuSans-30" transform="translate(70.488281 -16.046875) scale(0.7)"/>
    </g>
   </g>
   <g id="text_2">
    <!-- $0$ -->
    <g style="fill: #6b7280" transform="translate(204.04875 44.1975) scale(0.12 -0.12)">
     <use xlink:href="#DejaVuSans-30" transform="translate(0 0.78125)"/>
    </g>
   </g>
   <g id="text_3">
    <!-- $0$ -->
    <g style="fill: #6b7280" transform="translate(247.36125 44.1975) scale(0.12 -0.12)">
     <use xlink:href="#DejaVuSans-30" transform="translate(0 0.78125)"/>
    </g>
   </g>
   <g id="text_4">
    <!-- $0$ -->
    <g style="fill: #6b7280" transform="translate(290.67375 44.1975) scale(0.12 -0.12)">
     <use xlink:href="#DejaVuSans-30" transform="translate(0 0.78125)"/>
    </g>
   </g>
   <g id="text_5">
    <!-- $0$ -->
    <g style="fill: #6b7280" transform="translate(333.98625 44.1975) scale(0.12 -0.12)">
     <use xlink:href="#DejaVuSans-30" transform="translate(0 0.78125)"/>
    </g>
   </g>
   <g id="text_6">
    <!-- $\bar K_{1}$ -->
    <g style="fill: #ffffff" transform="translate(156.31625 88.928125) scale(0.14 -0.14)">
     <defs>
      <path id="DejaVuSans-31" d="M 794 531 
L 1825 531 
L 1825 4091 
L 703 3866 
L 703 4441 
L 1819 4666 
L 2450 4666 
L 2450 531 
L 3481 531 
L 3481 0 
L 794 0 
L 794 531 
z
" transform="scale(0.015625)"/>
     </defs>
     <use xlink:href="#DejaVuSans-304" transform="translate(67.726562 18.484375)"/>
     <use xlink:href="#DejaVuSans-Oblique-4b" transform="translate(0 0.359375)"/>
     <use xlink:href="#DejaVuSans-31" transform="translate(70.488281 -16.046875) scale(0.7)"/>
    </g>
   </g>
   <g id="text_7">
    <!-- $\bar K_{0}$ -->
    <g style="fill: #303030" transform="translate(199.62875 88.998125) scale(0.14 -0.14)">
     <use xlink:href="#DejaVuSans-304" transform="translate(67.726562 18.484375)"/>
     <use xlink:href="#DejaVuSans-Oblique-4b" transform="translate(0 0.359375)"/>
     <use xlink:href="#DejaVuSans-30" transform="translate(70.488281 -16.046875) scale(0.7)"/>
    </g>
   </g>
   <g id="text_8">
    <!-- $0$ -->
    <g style="fill: #6b7280" transform="translate(247.36125 87.51) scale(0.12 -0.12)">
     <use xlink:href="#DejaVuSans-30" transform="translate(0 0.78125)"/>
    </g>
   </g>
   <g id="text_9">
    <!-- $0$ -->
    <g style="fill: #6b7280" transform="translate(290.67375 87.51) scale(0.12 -0.12)">
     <use xlink:href="#DejaVuSans-30" transform="translate(0 0.78125)"/>
    </g>
   </g>
   <g id="text_10">
    <!-- $0$ -->
    <g style="fill: #6b7280" transform="translate(333.98625 87.51) scale(0.12 -0.12)">
     <use xlink:href="#DejaVuSans-30" transform="translate(0 0.78125)"/>
    </g>
   </g>
   <g id="text_11">
    <!-- $\bar K_{2}$ -->
    <g style="fill: #ffffff" transform="translate(156.31625 132.240625) scale(0.14 -0.14)">
     <defs>
      <path id="DejaVuSans-32" d="M 1228 531 
L 3431 531 
L 3431 0 
L 469 0 
L 469 531 
Q 828 903 1448 1529 
Q 2069 2156 2228 2338 
Q 2531 2678 2651 2914 
Q 2772 3150 2772 3378 
Q 2772 3750 2511 3984 
Q 2250 4219 1831 4219 
Q 1534 4219 1204 4116 
Q 875 4013 500 3803 
L 500 4441 
Q 881 4594 1212 4672 
Q 1544 4750 1819 4750 
Q 2544 4750 2975 4387 
Q 3406 4025 3406 3419 
Q 3406 3131 3298 2873 
Q 3191 2616 2906 2266 
Q 2828 2175 2409 1742 
Q 1991 1309 1228 531 
z
" transform="scale(0.015625)"/>
     </defs>
     <use xlink:href="#DejaVuSans-304" transform="translate(67.726562 18.484375)"/>
     <use xlink:href="#DejaVuSans-Oblique-4b" transform="translate(0 0.359375)"/>
     <use xlink:href="#DejaVuSans-32" transform="translate(70.488281 -16.046875) scale(0.7)"/>
    </g>
   </g>
   <g id="text_12">
    <!-- $\bar K_{1}$ -->
    <g style="fill: #ffffff" transform="translate(199.62875 132.240625) scale(0.14 -0.14)">
     <use xlink:href="#DejaVuSans-304" transform="translate(67.726562 18.484375)"/>
     <use xlink:href="#DejaVuSans-Oblique-4b" transform="translate(0 0.359375)"/>
     <use xlink:href="#DejaVuSans-31" transform="translate(70.488281 -16.046875) scale(0.7)"/>
    </g>
   </g>
   <g id="text_13">
    <!-- $\bar K_{0}$ -->
    <g style="fill: #303030" transform="translate(242.94125 132.310625) scale(0.14 -0.14)">
     <use xlink:href="#DejaVuSans-304" transform="translate(67.726562 18.484375)"/>
     <use xlink:href="#DejaVuSans-Oblique-4b" transform="translate(0 0.359375)"/>
     <use xlink:href="#DejaVuSans-30" transform="translate(70.488281 -16.046875) scale(0.7)"/>
    </g>
   </g>
   <g id="text_14">
    <!-- $0$ -->
    <g style="fill: #6b7280" transform="translate(290.67375 130.8225) scale(0.12 -0.12)">
     <use xlink:href="#DejaVuSans-30" transform="translate(0 0.78125)"/>
    </g>
   </g>
   <g id="text_15">
    <!-- $0$ -->
    <g style="fill: #6b7280" transform="translate(333.98625 130.8225) scale(0.12 -0.12)">
     <use xlink:href="#DejaVuSans-30" transform="translate(0 0.78125)"/>
    </g>
   </g>
   <g id="text_16">
    <!-- $\bar K_{3}$ -->
    <g style="fill: #303030" transform="translate(156.31625 175.623125) scale(0.14 -0.14)">
     <defs>
      <path id="DejaVuSans-33" d="M 2597 2516 
Q 3050 2419 3304 2112 
Q 3559 1806 3559 1356 
Q 3559 666 3084 287 
Q 2609 -91 1734 -91 
Q 1441 -91 1130 -33 
Q 819 25 488 141 
L 488 750 
Q 750 597 1062 519 
Q 1375 441 1716 441 
Q 2309 441 2620 675 
Q 2931 909 2931 1356 
Q 2931 1769 2642 2001 
Q 2353 2234 1838 2234 
L 1294 2234 
L 1294 2753 
L 1863 2753 
Q 2328 2753 2575 2939 
Q 2822 3125 2822 3475 
Q 2822 3834 2567 4026 
Q 2313 4219 1838 4219 
Q 1578 4219 1281 4162 
Q 984 4106 628 3988 
L 628 4550 
Q 988 4650 1302 4700 
Q 1616 4750 1894 4750 
Q 2613 4750 3031 4423 
Q 3450 4097 3450 3541 
Q 3450 3153 3228 2886 
Q 3006 2619 2597 2516 
z
" transform="scale(0.015625)"/>
     </defs>
     <use xlink:href="#DejaVuSans-304" transform="translate(67.726562 18.484375)"/>
     <use xlink:href="#DejaVuSans-Oblique-4b" transform="translate(0 0.359375)"/>
     <use xlink:href="#DejaVuSans-33" transform="translate(70.488281 -16.046875) scale(0.7)"/>
    </g>
   </g>
   <g id="text_17">
    <!-- $\bar K_{2}$ -->
    <g style="fill: #ffffff" transform="translate(199.62875 175.553125) scale(0.14 -0.14)">
     <use xlink:href="#DejaVuSans-304" transform="translate(67.726562 18.484375)"/>
     <use xlink:href="#DejaVuSans-Oblique-4b" transform="translate(0 0.359375)"/>
     <use xlink:href="#DejaVuSans-32" transform="translate(70.488281 -16.046875) scale(0.7)"/>
    </g>
   </g>
   <g id="text_18">
    <!-- $\bar K_{1}$ -->
    <g style="fill: #ffffff" transform="translate(242.94125 175.553125) scale(0.14 -0.14)">
     <use xlink:href="#DejaVuSans-304" transform="translate(67.726562 18.484375)"/>
     <use xlink:href="#DejaVuSans-Oblique-4b" transform="translate(0 0.359375)"/>
     <use xlink:href="#DejaVuSans-31" transform="translate(70.488281 -16.046875) scale(0.7)"/>
    </g>
   </g>
   <g id="text_19">
    <!-- $\bar K_{0}$ -->
    <g style="fill: #303030" transform="translate(286.25375 175.623125) scale(0.14 -0.14)">
     <use xlink:href="#DejaVuSans-304" transform="translate(67.726562 18.484375)"/>
     <use xlink:href="#DejaVuSans-Oblique-4b" transform="translate(0 0.359375)"/>
     <use xlink:href="#DejaVuSans-30" transform="translate(70.488281 -16.046875) scale(0.7)"/>
    </g>
   </g>
   <g id="text_20">
    <!-- $0$ -->
    <g style="fill: #6b7280" transform="translate(333.98625 174.135) scale(0.12 -0.12)">
     <use xlink:href="#DejaVuSans-30" transform="translate(0 0.78125)"/>
    </g>
   </g>
   <g id="text_21">
    <!-- $\bar K_{4}$ -->
    <g style="fill: #303030" transform="translate(156.31625 218.865625) scale(0.14 -0.14)">
     <defs>
      <path id="DejaVuSans-34" d="M 2419 4116 
L 825 1625 
L 2419 1625 
L 2419 4116 
z
M 2253 4666 
L 3047 4666 
L 3047 1625 
L 3713 1625 
L 3713 1100 
L 3047 1100 
L 3047 0 
L 2419 0 
L 2419 1100 
L 313 1100 
L 313 1709 
L 2253 4666 
z
" transform="scale(0.015625)"/>
     </defs>
     <use xlink:href="#DejaVuSans-304" transform="translate(67.726562 18.484375)"/>
     <use xlink:href="#DejaVuSans-Oblique-4b" transform="translate(0 0.359375)"/>
     <use xlink:href="#DejaVuSans-34" transform="translate(70.488281 -16.046875) scale(0.7)"/>
    </g>
   </g>
   <g id="text_22">
    <!-- $\bar K_{3}$ -->
    <g style="fill: #303030" transform="translate(199.62875 218.935625) scale(0.14 -0.14)">
     <use xlink:href="#DejaVuSans-304" transform="translate(67.726562 18.484375)"/>
     <use xlink:href="#DejaVuSans-Oblique-4b" transform="translate(0 0.359375)"/>
     <use xlink:href="#DejaVuSans-33" transform="translate(70.488281 -16.046875) scale(0.7)"/>
    </g>
   </g>
   <g id="text_23">
    <!-- $\bar K_{2}$ -->
    <g style="fill: #ffffff" transform="translate(242.94125 218.865625) scale(0.14 -0.14)">
     <use xlink:href="#DejaVuSans-304" transform="translate(67.726562 18.484375)"/>
     <use xlink:href="#DejaVuSans-Oblique-4b" transform="translate(0 0.359375)"/>
     <use xlink:href="#DejaVuSans-32" transform="translate(70.488281 -16.046875) scale(0.7)"/>
    </g>
   </g>
   <g id="text_24">
    <!-- $\bar K_{1}$ -->
    <g style="fill: #ffffff" transform="translate(286.25375 218.865625) scale(0.14 -0.14)">
     <use xlink:href="#DejaVuSans-304" transform="translate(67.726562 18.484375)"/>
     <use xlink:href="#DejaVuSans-Oblique-4b" transform="translate(0 0.359375)"/>
     <use xlink:href="#DejaVuSans-31" transform="translate(70.488281 -16.046875) scale(0.7)"/>
    </g>
   </g>
   <g id="text_25">
    <!-- $\bar K_{0}$ -->
    <g style="fill: #303030" transform="translate(329.56625 218.935625) scale(0.14 -0.14)">
     <use xlink:href="#DejaVuSans-304" transform="translate(67.726562 18.484375)"/>
     <use xlink:href="#DejaVuSans-Oblique-4b" transform="translate(0 0.359375)"/>
     <use xlink:href="#DejaVuSans-30" transform="translate(70.488281 -16.046875) scale(0.7)"/>
    </g>
   </g>
   <g id="text_26">
    <!-- $u_{0}$ -->
    <g style="fill: #303030" transform="translate(410.739375 44.452656) scale(0.13 -0.13)">
     <defs>
      <path id="DejaVuSans-Oblique-75" d="M 428 1388 
L 838 3500 
L 1416 3500 
L 1006 1409 
Q 975 1256 961 1147 
Q 947 1038 947 966 
Q 947 700 1109 554 
Q 1272 409 1569 409 
Q 2031 409 2368 721 
Q 2706 1034 2809 1563 
L 3194 3500 
L 3769 3500 
L 3091 0 
L 2516 0 
L 2631 550 
Q 2388 244 2052 76 
Q 1716 -91 1338 -91 
Q 878 -91 622 161 
Q 366 413 366 863 
Q 366 956 381 1097 
Q 397 1238 428 1388 
z
" transform="scale(0.015625)"/>
     </defs>
     <use xlink:href="#DejaVuSans-Oblique-75" transform="translate(0 0.3125)"/>
     <use xlink:href="#DejaVuSans-30" transform="translate(63.378906 -16.09375) scale(0.7)"/>
    </g>
   </g>
   <g id="text_27">
    <!-- $u_{1}$ -->
    <g style="fill: #303030" transform="translate(410.739375 87.765156) scale(0.13 -0.13)">
     <use xlink:href="#DejaVuSans-Oblique-75" transform="translate(0 0.3125)"/>
     <use xlink:href="#DejaVuSans-31" transform="translate(63.378906 -16.09375) scale(0.7)"/>
    </g>
   </g>
   <g id="text_28">
    <!-- $u_{2}$ -->
    <g style="fill: #303030" transform="translate(410.739375 131.077656) scale(0.13 -0.13)">
     <use xlink:href="#DejaVuSans-Oblique-75" transform="translate(0 0.3125)"/>
     <use xlink:href="#DejaVuSans-32" transform="translate(63.378906 -16.09375) scale(0.7)"/>
    </g>
   </g>
   <g id="text_29">
    <!-- $u_{3}$ -->
    <g style="fill: #303030" transform="translate(410.739375 174.390156) scale(0.13 -0.13)">
     <use xlink:href="#DejaVuSans-Oblique-75" transform="translate(0 0.3125)"/>
     <use xlink:href="#DejaVuSans-33" transform="translate(63.378906 -16.09375) scale(0.7)"/>
    </g>
   </g>
   <g id="text_30">
    <!-- $u_{4}$ -->
    <g style="fill: #303030" transform="translate(410.739375 217.702656) scale(0.13 -0.13)">
     <use xlink:href="#DejaVuSans-Oblique-75" transform="translate(0 0.3125)"/>
     <use xlink:href="#DejaVuSans-34" transform="translate(63.378906 -16.09375) scale(0.7)"/>
    </g>
   </g>
   <g id="text_31">
    <!-- $y_{0}$ -->
    <g style="fill: #303030" transform="translate(40.6775 44.452656) scale(0.13 -0.13)">
     <defs>
      <path id="DejaVuSans-Oblique-79" d="M 1588 -325 
Q 1188 -997 936 -1164 
Q 684 -1331 294 -1331 
L -159 -1331 
L -63 -850 
L 269 -850 
Q 509 -850 678 -719 
Q 847 -588 1056 -206 
L 1234 128 
L 459 3500 
L 1069 3500 
L 1650 819 
L 3256 3500 
L 3859 3500 
L 1588 -325 
z
" transform="scale(0.015625)"/>
     </defs>
     <use xlink:href="#DejaVuSans-Oblique-79" transform="translate(0 0.3125)"/>
     <use xlink:href="#DejaVuSans-30" transform="translate(59.179688 -16.09375) scale(0.7)"/>
    </g>
   </g>
   <g id="text_32">
    <!-- $y_{1}$ -->
    <g style="fill: #303030" transform="translate(40.6775 87.765156) scale(0.13 -0.13)">
     <use xlink:href="#DejaVuSans-Oblique-79" transform="translate(0 0.3125)"/>
     <use xlink:href="#DejaVuSans-31" transform="translate(59.179688 -16.09375) scale(0.7)"/>
    </g>
   </g>
   <g id="text_33">
    <!-- $y_{2}$ -->
    <g style="fill: #303030" transform="translate(40.6775 131.077656) scale(0.13 -0.13)">
     <use xlink:href="#DejaVuSans-Oblique-79" transform="translate(0 0.3125)"/>
     <use xlink:href="#DejaVuSans-32" transform="translate(59.179688 -16.09375) scale(0.7)"/>
    </g>
   </g>
   <g id="text_34">
    <!-- $y_{3}$ -->
    <g style="fill: #303030" transform="translate(40.6775 174.390156) scale(0.13 -0.13)">
     <use xlink:href="#DejaVuSans-Oblique-79" transform="translate(0 0.3125)"/>
     <use xlink:href="#DejaVuSans-33" transform="translate(59.179688 -16.09375) scale(0.7)"/>
    </g>
   </g>
   <g id="text_35">
    <!-- $y_{4}$ -->
    <g style="fill: #303030" transform="translate(40.6775 217.702656) scale(0.13 -0.13)">
     <use xlink:href="#DejaVuSans-Oblique-79" transform="translate(0 0.3125)"/>
     <use xlink:href="#DejaVuSans-34" transform="translate(59.179688 -16.09375) scale(0.7)"/>
    </g>
   </g>
   <g id="text_36">
    <!-- $y$ -->
    <g style="fill: #303030" transform="translate(43.4325 270.228125) scale(0.14 -0.14)">
     <use xlink:href="#DejaVuSans-Oblique-79" transform="translate(0 0.3125)"/>
    </g>
   </g>
   <g id="text_37">
    <!-- $T$ -->
    <g style="fill: #303030" transform="translate(246.86125 270.228125) scale(0.14 -0.14)">
     <defs>
      <path id="DejaVuSans-Oblique-54" d="M 378 4666 
L 4325 4666 
L 4225 4134 
L 2559 4134 
L 1759 0 
L 1125 0 
L 1925 4134 
L 275 4134 
L 378 4666 
z
" transform="scale(0.015625)"/>
     </defs>
     <use xlink:href="#DejaVuSans-Oblique-54" transform="translate(0 0.09375)"/>
    </g>
   </g>
   <g id="text_38">
    <!-- $u$ -->
    <g style="fill: #303030" transform="translate(413.474375 270.228125) scale(0.14 -0.14)">
     <use xlink:href="#DejaVuSans-Oblique-75" transform="translate(0 0.3125)"/>
    </g>
   </g>
   <g id="line2d_1">
    <path d="M 140.32125 236.041875 
L 140.32125 19.479375 
" clip-path="url(#p83ee73064f)" style="fill: none; stroke: #303030; stroke-width: 1.8; stroke-linecap: round"/>
   </g>
   <g id="line2d_2">
    <path d="M 140.32125 236.041875 
L 148.1175 236.041875 
" clip-path="url(#p83ee73064f)" style="fill: none; stroke: #303030; stroke-width: 1.8; stroke-linecap: round"/>
   </g>
   <g id="line2d_3">
    <path d="M 140.32125 19.479375 
L 148.1175 19.479375 
" clip-path="url(#p83ee73064f)" style="fill: none; stroke: #303030; stroke-width: 1.8; stroke-linecap: round"/>
   </g>
   <g id="line2d_4">
    <path d="M 362.08125 236.041875 
L 362.08125 19.479375 
" clip-path="url(#p83ee73064f)" style="fill: none; stroke: #303030; stroke-width: 1.8; stroke-linecap: round"/>
   </g>
   <g id="line2d_5">
    <path d="M 362.08125 236.041875 
L 354.285 236.041875 
" clip-path="url(#p83ee73064f)" style="fill: none; stroke: #303030; stroke-width: 1.8; stroke-linecap: round"/>
   </g>
   <g id="line2d_6">
    <path d="M 362.08125 19.479375 
L 354.285 19.479375 
" clip-path="url(#p83ee73064f)" style="fill: none; stroke: #303030; stroke-width: 1.8; stroke-linecap: round"/>
   </g>
   <g id="line2d_7">
    <path d="M 393.699375 236.041875 
L 393.699375 19.479375 
" clip-path="url(#p83ee73064f)" style="fill: none; stroke: #303030; stroke-width: 1.8; stroke-linecap: round"/>
   </g>
   <g id="line2d_8">
    <path d="M 393.699375 236.041875 
L 401.495625 236.041875 
" clip-path="url(#p83ee73064f)" style="fill: none; stroke: #303030; stroke-width: 1.8; stroke-linecap: round"/>
   </g>
   <g id="line2d_9">
    <path d="M 393.699375 19.479375 
L 401.495625 19.479375 
" clip-path="url(#p83ee73064f)" style="fill: none; stroke: #303030; stroke-width: 1.8; stroke-linecap: round"/>
   </g>
   <g id="line2d_10">
    <path d="M 442.209375 236.041875 
L 442.209375 19.479375 
" clip-path="url(#p83ee73064f)" style="fill: none; stroke: #303030; stroke-width: 1.8; stroke-linecap: round"/>
   </g>
   <g id="line2d_11">
    <path d="M 442.209375 236.041875 
L 434.413125 236.041875 
" clip-path="url(#p83ee73064f)" style="fill: none; stroke: #303030; stroke-width: 1.8; stroke-linecap: round"/>
   </g>
   <g id="line2d_12">
    <path d="M 442.209375 19.479375 
L 434.413125 19.479375 
" clip-path="url(#p83ee73064f)" style="fill: none; stroke: #303030; stroke-width: 1.8; stroke-linecap: round"/>
   </g>
   <g id="line2d_13">
    <path d="M 23.3775 236.041875 
L 23.3775 19.479375 
" clip-path="url(#p83ee73064f)" style="fill: none; stroke: #303030; stroke-width: 1.8; stroke-linecap: round"/>
   </g>
   <g id="line2d_14">
    <path d="M 23.3775 236.041875 
L 31.17375 236.041875 
" clip-path="url(#p83ee73064f)" style="fill: none; stroke: #303030; stroke-width: 1.8; stroke-linecap: round"/>
   </g>
   <g id="line2d_15">
    <path d="M 23.3775 19.479375 
L 31.17375 19.479375 
" clip-path="url(#p83ee73064f)" style="fill: none; stroke: #303030; stroke-width: 1.8; stroke-linecap: round"/>
   </g>
   <g id="line2d_16">
    <path d="M 71.8875 236.041875 
L 71.8875 19.479375 
" clip-path="url(#p83ee73064f)" style="fill: none; stroke: #303030; stroke-width: 1.8; stroke-linecap: round"/>
   </g>
   <g id="line2d_17">
    <path d="M 71.8875 236.041875 
L 64.09125 236.041875 
" clip-path="url(#p83ee73064f)" style="fill: none; stroke: #303030; stroke-width: 1.8; stroke-linecap: round"/>
   </g>
   <g id="line2d_18">
    <path d="M 71.8875 19.479375 
L 64.09125 19.479375 
" clip-path="url(#p83ee73064f)" style="fill: none; stroke: #303030; stroke-width: 1.8; stroke-linecap: round"/>
   </g>
   <g id="text_39">
    <!-- $=$ -->
    <g style="fill: #303030" transform="translate(95.034375 132.353438) scale(0.18 -0.18)">
     <defs>
      <path id="DejaVuSans-3d" d="M 678 2906 
L 4684 2906 
L 4684 2381 
L 678 2381 
L 678 2906 
z
M 678 1631 
L 4684 1631 
L 4684 1100 
L 678 1100 
L 678 1631 
z
" transform="scale(0.015625)"/>
     </defs>
     <use xlink:href="#DejaVuSans-3d" transform="translate(19.482422 0.59375)"/>
    </g>
   </g>
  </g>
 </g>
 <defs>
  <clipPath id="p83ee73064f">
   <rect x="4.32" y="4.32" width="456.946875" height="277.2"/>
  </clipPath>
 </defs>
</svg>
