<?xml version="1.0" encoding="utf-8" standalone="no"?>
<!DOCTYPE svg PUBLIC "-//W3C//DTD SVG 1.1//EN"
  "http://www.w3.org/Graphics/SVG/1.1/DTD/svg11.dtd">
<svg xmlns:xlink="http://www.w3.org/1999/xlink" width="423.644687pt" height="275.046438pt" viewBox="0 0 423.644687 275.046438" xmlns="http://www.w3.org/2000/svg" version="1.1">
 <metadata>
  <rdf:RDF xmlns:dc="http://purl.org/dc/elements/1.1/" xmlns:cc="http://creativecommons.org/ns#" xmlns:rdf="http://www.w3.org/1999/02/22-rdf-syntax-ns#">
   <cc:Work>
    <dc:type rdf:resource="http://purl.org/dc/dcmitype/StillImage"/>
    <dc:date>2026-06-04T12:46:17.695829</dc:date>
    <dc:format>image/svg+xml</dc:format>
    <dc:creator>
     <cc:Agent>
      <dc:title>Matplotlib v3.10.3, https://matplotlib.org/</dc:title>
     </cc:Agent>
    </dc:creator>
   </cc:Work>
  </rdf:RDF>
 </metadata>
 <defs>
  <style type="text/css">*{stroke-linejoin: round; stroke-linecap: butt}</style>
 </defs>
 <g id="figure_1">
  <g id="patch_1">
   <path d="M 0 275.046438 
L 423.644687 275.046438 
L 423.644687 0 
L 0 0 
z
" style="fill: #ffffff"/>
  </g>
  <g id="axes_1">
   <g id="patch_2">
    <path d="M 51.044688 237.168 
L 419.324688 237.168 
L 419.324688 4.32 
L 51.044688 4.32 
z
" style="fill: #ffffff"/>
   </g>
   <g id="line2d_1">
    <path d="M 51.044688 180.2496 
L 419.324688 180.2496 
" clip-path="url(#p8ed929acf5)" style="fill: none; stroke: #c9ccd3; stroke-linecap: round"/>
   </g>
   <g id="matplotlib.axis_1">
    <g id="xtick_1">
     <g id="line2d_2">
      <defs>
       <path id="m950df2d9b8" d="M 0 0 
L 0 4 
" style="stroke: #6b7280"/>
      </defs>
      <g>
       <use xlink:href="#m950df2d9b8" x="57.70035" y="237.168" style="fill: #6b7280; stroke: #6b7280"/>
      </g>
     </g>
     <g id="text_1">
      <!-- 0 -->
      <g style="fill: #303030" transform="translate(54.735506 252.811438) scale(0.11 -0.11)">
       <defs>
        <path id="SegoeUI-30" d="M 3188 2259 
Q 3188 1697 3086 1262 
Q 2984 828 2792 529 
Q 2600 231 2320 76 
Q 2041 -78 1684 -78 
Q 1347 -78 1083 70 
Q 819 219 637 503 
Q 456 788 362 1202 
Q 269 1616 269 2150 
Q 269 2738 367 3188 
Q 466 3638 656 3942 
Q 847 4247 1130 4401 
Q 1413 4556 1778 4556 
Q 3188 4556 3188 2259 
z
M 2663 2209 
Q 2663 4122 1753 4122 
Q 794 4122 794 2175 
Q 794 359 1734 359 
Q 2663 359 2663 2209 
z
" transform="scale(0.015625)"/>
       </defs>
       <use xlink:href="#SegoeUI-30"/>
      </g>
     </g>
    </g>
    <g id="xtick_2">
     <g id="line2d_3">
      <g>
       <use xlink:href="#m950df2d9b8" x="146.442519" y="237.168" style="fill: #6b7280; stroke: #6b7280"/>
      </g>
     </g>
     <g id="text_2">
      <!-- 8 -->
      <g style="fill: #303030" transform="translate(143.477675 252.811438) scale(0.11 -0.11)">
       <defs>
        <path id="SegoeUI-38" d="M 281 1250 
Q 281 1428 337 1608 
Q 394 1788 498 1944 
Q 603 2100 758 2228 
Q 913 2356 1109 2431 
Q 819 2594 647 2848 
Q 475 3103 475 3413 
Q 475 3659 570 3868 
Q 666 4078 834 4231 
Q 1003 4384 1234 4470 
Q 1466 4556 1734 4556 
Q 2006 4556 2237 4468 
Q 2469 4381 2637 4228 
Q 2806 4075 2900 3865 
Q 2994 3656 2994 3413 
Q 2994 3103 2822 2848 
Q 2650 2594 2366 2431 
Q 2559 2356 2712 2228 
Q 2866 2100 2970 1944 
Q 3075 1788 3131 1608 
Q 3188 1428 3188 1250 
Q 3188 956 3081 712 
Q 2975 469 2783 295 
Q 2591 122 2323 25 
Q 2056 -72 1734 -72 
Q 1416 -72 1150 25 
Q 884 122 690 295 
Q 497 469 389 712 
Q 281 956 281 1250 
z
M 838 1294 
Q 838 1084 902 915 
Q 966 747 1083 628 
Q 1200 509 1367 445 
Q 1534 381 1738 381 
Q 1934 381 2100 447 
Q 2266 513 2386 631 
Q 2506 750 2573 919 
Q 2641 1088 2641 1294 
Q 2641 1481 2577 1645 
Q 2513 1809 2394 1934 
Q 2275 2059 2109 2131 
Q 1944 2203 1738 2203 
Q 1544 2203 1380 2136 
Q 1216 2069 1095 1948 
Q 975 1828 906 1661 
Q 838 1494 838 1294 
z
M 997 3372 
Q 997 3213 1055 3077 
Q 1113 2941 1214 2839 
Q 1316 2738 1450 2680 
Q 1584 2622 1738 2622 
Q 1891 2622 2027 2681 
Q 2163 2741 2263 2842 
Q 2363 2944 2422 3080 
Q 2481 3216 2481 3372 
Q 2481 3534 2423 3671 
Q 2366 3809 2266 3909 
Q 2166 4009 2030 4067 
Q 1894 4125 1738 4125 
Q 1572 4125 1436 4065 
Q 1300 4006 1201 3904 
Q 1103 3803 1050 3665 
Q 997 3528 997 3372 
z
" transform="scale(0.015625)"/>
       </defs>
       <use xlink:href="#SegoeUI-38"/>
      </g>
     </g>
    </g>
    <g id="xtick_3">
     <g id="line2d_4">
      <g>
       <use xlink:href="#m950df2d9b8" x="235.184687" y="237.168" style="fill: #6b7280; stroke: #6b7280"/>
      </g>
     </g>
     <g id="text_3">
      <!-- 16 -->
      <g style="fill: #303030" transform="translate(229.255 252.811438) scale(0.11 -0.11)">
       <defs>
        <path id="SegoeUI-31" d="M 2263 0 
L 1750 0 
L 1750 3872 
Q 1691 3813 1577 3736 
Q 1463 3659 1320 3584 
Q 1178 3509 1020 3443 
Q 863 3378 713 3341 
L 713 3859 
Q 881 3906 1070 3986 
Q 1259 4066 1442 4164 
Q 1625 4263 1787 4370 
Q 1950 4478 2069 4581 
L 2263 4581 
L 2263 0 
z
" transform="scale(0.015625)"/>
        <path id="SegoeUI-36" d="M 3194 1422 
Q 3194 1094 3087 819 
Q 2981 544 2793 344 
Q 2606 144 2347 33 
Q 2088 -78 1784 -78 
Q 1447 -78 1180 62 
Q 913 203 727 467 
Q 541 731 444 1112 
Q 347 1494 347 1972 
Q 347 2556 476 3032 
Q 606 3509 845 3848 
Q 1084 4188 1421 4372 
Q 1759 4556 2175 4556 
Q 2638 4556 2919 4428 
L 2919 3944 
Q 2572 4122 2188 4122 
Q 1888 4122 1647 3987 
Q 1406 3853 1234 3608 
Q 1063 3363 970 3016 
Q 878 2669 878 2244 
L 891 2244 
Q 1200 2803 1913 2803 
Q 2206 2803 2442 2703 
Q 2678 2603 2845 2420 
Q 3013 2238 3103 1984 
Q 3194 1731 3194 1422 
z
M 2669 1356 
Q 2669 1591 2609 1778 
Q 2550 1966 2439 2097 
Q 2328 2228 2165 2298 
Q 2003 2369 1797 2369 
Q 1606 2369 1443 2297 
Q 1281 2225 1162 2101 
Q 1044 1978 976 1814 
Q 909 1650 909 1466 
Q 909 1234 975 1032 
Q 1041 831 1159 681 
Q 1278 531 1442 445 
Q 1606 359 1806 359 
Q 2000 359 2159 432 
Q 2319 506 2431 637 
Q 2544 769 2606 951 
Q 2669 1134 2669 1356 
z
" transform="scale(0.015625)"/>
       </defs>
       <use xlink:href="#SegoeUI-31"/>
       <use xlink:href="#SegoeUI-36" transform="translate(53.90625 0)"/>
      </g>
     </g>
    </g>
    <g id="xtick_4">
     <g id="line2d_5">
      <g>
       <use xlink:href="#m950df2d9b8" x="323.926856" y="237.168" style="fill: #6b7280; stroke: #6b7280"/>
      </g>
     </g>
     <g id="text_4">
      <!-- 24 -->
      <g style="fill: #303030" transform="translate(317.997169 252.811438) scale(0.11 -0.11)">
       <defs>
        <path id="SegoeUI-32" d="M 2413 3306 
Q 2413 3513 2348 3666 
Q 2284 3819 2173 3920 
Q 2063 4022 1913 4072 
Q 1763 4122 1588 4122 
Q 1438 4122 1294 4081 
Q 1150 4041 1014 3969 
Q 878 3897 751 3797 
Q 625 3697 516 3575 
L 516 4125 
Q 731 4334 998 4445 
Q 1266 4556 1650 4556 
Q 1925 4556 2159 4476 
Q 2394 4397 2566 4244 
Q 2738 4091 2836 3866 
Q 2934 3641 2934 3350 
Q 2934 3084 2873 2868 
Q 2813 2653 2689 2462 
Q 2566 2272 2378 2097 
Q 2191 1922 1938 1741 
Q 1622 1516 1417 1356 
Q 1213 1197 1092 1058 
Q 972 919 923 780 
Q 875 641 875 459 
L 3106 459 
L 3106 0 
L 341 0 
L 341 222 
Q 341 509 403 728 
Q 466 947 609 1144 
Q 753 1341 986 1537 
Q 1219 1734 1556 1981 
Q 1800 2156 1964 2315 
Q 2128 2475 2228 2634 
Q 2328 2794 2370 2958 
Q 2413 3122 2413 3306 
z
" transform="scale(0.015625)"/>
        <path id="SegoeUI-34" d="M 2656 4481 
L 2656 1522 
L 3231 1522 
L 3231 1053 
L 2656 1053 
L 2656 0 
L 2150 0 
L 2150 1053 
L 44 1053 
L 44 1497 
Q 338 1828 638 2204 
Q 938 2581 1211 2968 
Q 1484 3356 1717 3742 
Q 1950 4128 2109 4481 
L 2656 4481 
z
M 622 1522 
L 2150 1522 
L 2150 3716 
Q 1916 3306 1706 2984 
Q 1497 2663 1308 2400 
Q 1119 2138 947 1925 
Q 775 1713 622 1522 
z
" transform="scale(0.015625)"/>
       </defs>
       <use xlink:href="#SegoeUI-32"/>
       <use xlink:href="#SegoeUI-34" transform="translate(53.90625 0)"/>
      </g>
     </g>
    </g>
    <g id="xtick_5">
     <g id="line2d_6">
      <g>
       <use xlink:href="#m950df2d9b8" x="412.669025" y="237.168" style="fill: #6b7280; stroke: #6b7280"/>
      </g>
     </g>
     <g id="text_5">
      <!-- 32 -->
      <g style="fill: #303030" transform="translate(406.739337 252.811438) scale(0.11 -0.11)">
       <defs>
        <path id="SegoeUI-33" d="M 2978 1269 
Q 2978 966 2864 717 
Q 2750 469 2542 292 
Q 2334 116 2043 19 
Q 1753 -78 1403 -78 
Q 763 -78 384 166 
L 384 716 
Q 838 359 1422 359 
Q 1656 359 1845 418 
Q 2034 478 2170 590 
Q 2306 703 2379 862 
Q 2453 1022 2453 1222 
Q 2453 2100 1203 2100 
L 831 2100 
L 831 2534 
L 1184 2534 
Q 2291 2534 2291 3359 
Q 2291 4122 1447 4122 
Q 972 4122 556 3803 
L 556 4300 
Q 984 4556 1575 4556 
Q 1856 4556 2084 4478 
Q 2313 4400 2475 4259 
Q 2638 4119 2727 3922 
Q 2816 3725 2816 3488 
Q 2816 2603 1922 2350 
L 1922 2338 
Q 2150 2313 2344 2227 
Q 2538 2141 2678 2003 
Q 2819 1866 2898 1680 
Q 2978 1494 2978 1269 
z
" transform="scale(0.015625)"/>
       </defs>
       <use xlink:href="#SegoeUI-33"/>
       <use xlink:href="#SegoeUI-32" transform="translate(53.90625 0)"/>
      </g>
     </g>
    </g>
    <g id="text_6">
     <!-- lag $m$ -->
     <g style="fill: #303030" transform="translate(220.292188 267.966438) scale(0.115 -0.115)">
      <defs>
       <path id="SegoeUI-6c" d="M 1031 0 
L 519 0 
L 519 4738 
L 1031 4738 
L 1031 0 
z
" transform="scale(0.015625)"/>
       <path id="SegoeUI-61" d="M 2809 0 
L 2297 0 
L 2297 500 
L 2284 500 
Q 1950 -75 1300 -75 
Q 822 -75 551 178 
Q 281 431 281 850 
Q 281 1747 1338 1894 
L 2297 2028 
Q 2297 2844 1638 2844 
Q 1059 2844 594 2450 
L 594 2975 
Q 1066 3275 1681 3275 
Q 2809 3275 2809 2081 
L 2809 0 
z
M 2297 1619 
L 1525 1513 
Q 1169 1463 987 1336 
Q 806 1209 806 888 
Q 806 653 973 504 
Q 1141 356 1419 356 
Q 1800 356 2048 623 
Q 2297 891 2297 1300 
L 2297 1619 
z
" transform="scale(0.015625)"/>
       <path id="SegoeUI-67" d="M 3250 256 
Q 3250 -1506 1563 -1506 
Q 969 -1506 525 -1281 
L 525 -769 
Q 1066 -1069 1556 -1069 
Q 2738 -1069 2738 188 
L 2738 538 
L 2725 538 
Q 2359 -75 1625 -75 
Q 1028 -75 664 351 
Q 300 778 300 1497 
Q 300 2313 692 2794 
Q 1084 3275 1766 3275 
Q 2413 3275 2725 2756 
L 2738 2756 
L 2738 3200 
L 3250 3200 
L 3250 256 
z
M 2738 1447 
L 2738 1919 
Q 2738 2300 2480 2572 
Q 2222 2844 1838 2844 
Q 1363 2844 1094 2498 
Q 825 2153 825 1531 
Q 825 997 1083 676 
Q 1341 356 1766 356 
Q 2197 356 2467 662 
Q 2738 969 2738 1447 
z
" transform="scale(0.015625)"/>
       <path id="SegoeUI-20" transform="scale(0.015625)"/>
       <path id="DejaVuSans-Oblique-6d" d="M 5747 2113 
L 5338 0 
L 4763 0 
L 5166 2094 
Q 5191 2228 5203 2325 
Q 5216 2422 5216 2491 
Q 5216 2772 5059 2928 
Q 4903 3084 4622 3084 
Q 4203 3084 3875 2770 
Q 3547 2456 3450 1953 
L 3066 0 
L 2491 0 
L 2900 2094 
Q 2925 2209 2937 2307 
Q 2950 2406 2950 2484 
Q 2950 2769 2794 2926 
Q 2638 3084 2363 3084 
Q 1938 3084 1609 2770 
Q 1281 2456 1184 1953 
L 800 0 
L 225 0 
L 909 3500 
L 1484 3500 
L 1375 2956 
Q 1609 3263 1923 3423 
Q 2238 3584 2597 3584 
Q 2978 3584 3223 3384 
Q 3469 3184 3519 2828 
Q 3781 3197 4126 3390 
Q 4472 3584 4856 3584 
Q 5306 3584 5551 3325 
Q 5797 3066 5797 2591 
Q 5797 2488 5784 2364 
Q 5772 2241 5747 2113 
z
" transform="scale(0.015625)"/>
      </defs>
      <use xlink:href="#SegoeUI-6c" transform="translate(0 0.96875)"/>
      <use xlink:href="#SegoeUI-61" transform="translate(24.21875 0.96875)"/>
      <use xlink:href="#SegoeUI-67" transform="translate(75.097656 0.96875)"/>
      <use xlink:href="#SegoeUI-20" transform="translate(133.984375 0.96875)"/>
      <use xlink:href="#DejaVuSans-Oblique-6d" transform="translate(161.376953 0.96875)"/>
     </g>
    </g>
   </g>
   <g id="matplotlib.axis_2">
    <g id="ytick_1">
     <g id="line2d_7">
      <defs>
       <path id="m76cf009fec" d="M 0 0 
L -4 0 
" style="stroke: #6b7280"/>
      </defs>
      <g>
       <use xlink:href="#m76cf009fec" x="51.044688" y="231.9936" style="fill: #6b7280; stroke: #6b7280"/>
      </g>
     </g>
     <g id="text_7">
      <!-- −0.5 -->
      <g style="fill: #303030" transform="translate(21.775 236.065319) scale(0.11 -0.11)">
       <defs>
        <path id="SegoeUI-2212" d="M 3663 1656 
L 725 1656 
L 725 2075 
L 3663 2075 
L 3663 1656 
z
" transform="scale(0.015625)"/>
        <path id="SegoeUI-2e" d="M 697 -69 
Q 553 -69 451 34 
Q 350 138 350 281 
Q 350 425 451 529 
Q 553 634 697 634 
Q 844 634 947 529 
Q 1050 425 1050 281 
Q 1050 138 947 34 
Q 844 -69 697 -69 
z
" transform="scale(0.015625)"/>
        <path id="SegoeUI-35" d="M 3028 1369 
Q 3028 1041 2915 775 
Q 2803 509 2595 318 
Q 2388 128 2094 25 
Q 1800 -78 1441 -78 
Q 816 -78 513 109 
L 513 653 
Q 969 359 1447 359 
Q 1691 359 1886 431 
Q 2081 503 2218 631 
Q 2356 759 2429 940 
Q 2503 1122 2503 1338 
Q 2503 1775 2209 2023 
Q 1916 2272 1356 2272 
Q 1266 2272 1166 2269 
Q 1066 2266 966 2261 
Q 866 2256 770 2250 
Q 675 2244 597 2234 
L 750 4481 
L 2822 4481 
L 2822 4019 
L 1194 4019 
L 1103 2703 
Q 1203 2709 1315 2714 
Q 1428 2719 1516 2719 
Q 1872 2719 2153 2625 
Q 2434 2531 2629 2357 
Q 2825 2184 2926 1932 
Q 3028 1681 3028 1369 
z
" transform="scale(0.015625)"/>
       </defs>
       <use xlink:href="#SegoeUI-2212"/>
       <use xlink:href="#SegoeUI-30" transform="translate(68.408203 0)"/>
       <use xlink:href="#SegoeUI-2e" transform="translate(122.314453 0)"/>
       <use xlink:href="#SegoeUI-35" transform="translate(143.994141 0)"/>
      </g>
     </g>
    </g>
    <g id="ytick_2">
     <g id="line2d_8">
      <g>
       <use xlink:href="#m76cf009fec" x="51.044688" y="180.2496" style="fill: #6b7280; stroke: #6b7280"/>
      </g>
     </g>
     <g id="text_8">
      <!-- 0.0 -->
      <g style="fill: #303030" transform="translate(29.299688 184.321319) scale(0.11 -0.11)">
       <use xlink:href="#SegoeUI-30"/>
       <use xlink:href="#SegoeUI-2e" transform="translate(53.90625 0)"/>
       <use xlink:href="#SegoeUI-30" transform="translate(75.585938 0)"/>
      </g>
     </g>
    </g>
    <g id="ytick_3">
     <g id="line2d_9">
      <g>
       <use xlink:href="#m76cf009fec" x="51.044688" y="128.5056" style="fill: #6b7280; stroke: #6b7280"/>
      </g>
     </g>
     <g id="text_9">
      <!-- 0.5 -->
      <g style="fill: #303030" transform="translate(29.299688 132.577319) scale(0.11 -0.11)">
       <use xlink:href="#SegoeUI-30"/>
       <use xlink:href="#SegoeUI-2e" transform="translate(53.90625 0)"/>
       <use xlink:href="#SegoeUI-35" transform="translate(75.585938 0)"/>
      </g>
     </g>
    </g>
    <g id="ytick_4">
     <g id="line2d_10">
      <g>
       <use xlink:href="#m76cf009fec" x="51.044688" y="76.7616" style="fill: #6b7280; stroke: #6b7280"/>
      </g>
     </g>
     <g id="text_10">
      <!-- 1.0 -->
      <g style="fill: #303030" transform="translate(29.299688 80.833319) scale(0.11 -0.11)">
       <use xlink:href="#SegoeUI-31"/>
       <use xlink:href="#SegoeUI-2e" transform="translate(53.90625 0)"/>
       <use xlink:href="#SegoeUI-30" transform="translate(75.585938 0)"/>
      </g>
     </g>
    </g>
    <g id="ytick_5">
     <g id="line2d_11">
      <g>
       <use xlink:href="#m76cf009fec" x="51.044688" y="25.0176" style="fill: #6b7280; stroke: #6b7280"/>
      </g>
     </g>
     <g id="text_11">
      <!-- 1.5 -->
      <g style="fill: #303030" transform="translate(29.299688 29.089319) scale(0.11 -0.11)">
       <use xlink:href="#SegoeUI-31"/>
       <use xlink:href="#SegoeUI-2e" transform="translate(53.90625 0)"/>
       <use xlink:href="#SegoeUI-35" transform="translate(75.585938 0)"/>
      </g>
     </g>
    </g>
    <g id="text_12">
     <!-- kernel weight   $\bar K_m$ -->
     <g style="fill: #303030" transform="translate(15.015 167.8365) rotate(-90) scale(0.115 -0.115)">
      <defs>
       <path id="SegoeUI-6b" d="M 3175 0 
L 2456 0 
L 1044 1538 
L 1031 1538 
L 1031 0 
L 519 0 
L 519 4738 
L 1031 4738 
L 1031 1734 
L 1044 1734 
L 2388 3200 
L 3059 3200 
L 1575 1656 
L 3175 0 
z
" transform="scale(0.015625)"/>
       <path id="SegoeUI-65" d="M 3091 1472 
L 831 1472 
Q 844 938 1119 647 
Q 1394 356 1875 356 
Q 2416 356 2869 713 
L 2869 231 
Q 2447 -75 1753 -75 
Q 1075 -75 687 361 
Q 300 797 300 1588 
Q 300 2334 723 2804 
Q 1147 3275 1775 3275 
Q 2403 3275 2747 2869 
Q 3091 2463 3091 1741 
L 3091 1472 
z
M 2566 1906 
Q 2563 2350 2352 2597 
Q 2141 2844 1766 2844 
Q 1403 2844 1150 2584 
Q 897 2325 838 1906 
L 2566 1906 
z
" transform="scale(0.015625)"/>
       <path id="SegoeUI-72" d="M 2188 2681 
Q 2053 2784 1800 2784 
Q 1472 2784 1251 2475 
Q 1031 2166 1031 1631 
L 1031 0 
L 519 0 
L 519 3200 
L 1031 3200 
L 1031 2541 
L 1044 2541 
Q 1153 2878 1378 3067 
Q 1603 3256 1881 3256 
Q 2081 3256 2188 3213 
L 2188 2681 
z
" transform="scale(0.015625)"/>
       <path id="SegoeUI-6e" d="M 3175 0 
L 2663 0 
L 2663 1825 
Q 2663 2844 1919 2844 
Q 1534 2844 1282 2555 
Q 1031 2266 1031 1825 
L 1031 0 
L 519 0 
L 519 3200 
L 1031 3200 
L 1031 2669 
L 1044 2669 
Q 1406 3275 2094 3275 
Q 2619 3275 2897 2936 
Q 3175 2597 3175 1956 
L 3175 0 
z
" transform="scale(0.015625)"/>
       <path id="SegoeUI-77" d="M 4550 3200 
L 3591 0 
L 3059 0 
L 2400 2291 
Q 2363 2422 2350 2588 
L 2338 2588 
Q 2328 2475 2272 2297 
L 1556 0 
L 1044 0 
L 75 3200 
L 613 3200 
L 1275 794 
Q 1306 684 1319 506 
L 1344 506 
Q 1353 644 1400 800 
L 2138 3200 
L 2606 3200 
L 3269 788 
Q 3300 672 3316 500 
L 3341 500 
Q 3347 622 3394 788 
L 4044 3200 
L 4550 3200 
z
" transform="scale(0.015625)"/>
       <path id="SegoeUI-69" d="M 781 4013 
Q 644 4013 547 4106 
Q 450 4200 450 4344 
Q 450 4488 547 4583 
Q 644 4678 781 4678 
Q 922 4678 1020 4583 
Q 1119 4488 1119 4344 
Q 1119 4206 1020 4109 
Q 922 4013 781 4013 
z
M 1031 0 
L 519 0 
L 519 3200 
L 1031 3200 
L 1031 0 
z
" transform="scale(0.015625)"/>
       <path id="SegoeUI-68" d="M 3175 0 
L 2663 0 
L 2663 1844 
Q 2663 2844 1919 2844 
Q 1544 2844 1287 2555 
Q 1031 2266 1031 1813 
L 1031 0 
L 519 0 
L 519 4738 
L 1031 4738 
L 1031 2669 
L 1044 2669 
Q 1413 3275 2094 3275 
Q 3175 3275 3175 1972 
L 3175 0 
z
" transform="scale(0.015625)"/>
       <path id="SegoeUI-74" d="M 2003 31 
Q 1822 -69 1525 -69 
Q 684 -69 684 869 
L 684 2763 
L 134 2763 
L 134 3200 
L 684 3200 
L 684 3981 
L 1197 4147 
L 1197 3200 
L 2003 3200 
L 2003 2763 
L 1197 2763 
L 1197 959 
Q 1197 638 1306 500 
Q 1416 363 1669 363 
Q 1863 363 2003 469 
L 2003 31 
z
" transform="scale(0.015625)"/>
       <path id="DejaVuSans-304" d="M -2518 4769 
L -650 4769 
L -650 4306 
L -2518 4306 
L -2518 4769 
z
" transform="scale(0.015625)"/>
       <path id="DejaVuSans-Oblique-4b" d="M 1081 4666 
L 1716 4666 
L 1331 2700 
L 3781 4666 
L 4622 4666 
L 1850 2438 
L 3878 0 
L 3109 0 
L 1247 2272 
L 806 0 
L 172 0 
L 1081 4666 
z
" transform="scale(0.015625)"/>
      </defs>
      <use xlink:href="#SegoeUI-6b" transform="translate(0 0.359375)"/>
      <use xlink:href="#SegoeUI-65" transform="translate(49.707031 0.359375)"/>
      <use xlink:href="#SegoeUI-72" transform="translate(102.001953 0.359375)"/>
      <use xlink:href="#SegoeUI-6e" transform="translate(136.767578 0.359375)"/>
      <use xlink:href="#SegoeUI-65" transform="translate(193.359375 0.359375)"/>
      <use xlink:href="#SegoeUI-6c" transform="translate(245.654297 0.359375)"/>
      <use xlink:href="#SegoeUI-20" transform="translate(269.873047 0.359375)"/>
      <use xlink:href="#SegoeUI-77" transform="translate(297.265625 0.359375)"/>
      <use xlink:href="#SegoeUI-65" transform="translate(369.53125 0.359375)"/>
      <use xlink:href="#SegoeUI-69" transform="translate(421.826172 0.359375)"/>
      <use xlink:href="#SegoeUI-67" transform="translate(446.044922 0.359375)"/>
      <use xlink:href="#SegoeUI-68" transform="translate(504.931641 0.359375)"/>
      <use xlink:href="#SegoeUI-74" transform="translate(561.523438 0.359375)"/>
      <use xlink:href="#SegoeUI-20" transform="translate(595.410156 0.359375)"/>
      <use xlink:href="#SegoeUI-20" transform="translate(622.802734 0.359375)"/>
      <use xlink:href="#SegoeUI-20" transform="translate(650.195312 0.359375)"/>
      <use xlink:href="#DejaVuSans-304" transform="translate(745.314453 18.484375)"/>
      <use xlink:href="#DejaVuSans-Oblique-4b" transform="translate(677.587891 0.359375)"/>
      <use xlink:href="#DejaVuSans-Oblique-6d" transform="translate(748.076172 -16.046875) scale(0.7)"/>
     </g>
    </g>
   </g>
   <g id="line2d_12">
    <path d="M 57.70035 140.92416 
L 68.793121 142.30055 
L 79.885892 143.628767 
L 90.978663 144.910496 
L 102.071434 146.147365 
L 113.164206 147.340943 
L 124.256977 148.492746 
L 135.349748 149.604236 
L 146.442519 150.676824 
L 157.53529 151.711871 
L 168.628061 152.710691 
L 179.720832 153.674553 
L 190.813603 154.60468 
L 201.906374 155.502252 
L 212.999145 156.368409 
L 224.091916 157.204251 
L 235.184687 158.010838 
L 246.277459 158.789195 
L 257.37023 159.540309 
L 268.463001 160.265134 
L 279.555772 160.96459 
L 290.648543 161.639566 
L 301.741314 162.290917 
L 312.834085 162.919471 
L 323.926856 163.526025 
L 335.019627 164.111351 
L 346.112398 164.676189 
L 357.205169 165.221259 
L 368.297941 165.747251 
L 379.390712 166.254833 
L 390.483483 166.74465 
L 401.576254 167.217323 
L 412.669025 167.673453 
" clip-path="url(#p8ed929acf5)" style="fill: none; stroke: #3a4a63; stroke-opacity: 0.7; stroke-width: 1.4; stroke-linecap: round"/>
   </g>
   <g id="line2d_13">
    <path d="M 57.70035 132.64512 
L 68.793121 141.209684 
L 79.885892 158.729169 
L 90.978663 179.815879 
L 102.071434 198.756502 
L 113.164206 210.991543 
L 124.256977 214.144739 
L 135.349748 208.390347 
L 146.442519 196.136234 
L 157.53529 181.176121 
L 168.628061 167.582099 
L 179.720832 158.645233 
L 190.813603 156.126983 
L 201.906374 159.977447 
L 212.999145 168.541757 
L 224.091916 179.150189 
L 235.184687 188.901767 
L 246.277459 195.422497 
L 257.37023 197.409255 
L 268.463001 194.844716 
L 279.555772 188.864191 
L 290.648543 181.345261 
L 301.741314 174.353635 
L 312.834085 169.600713 
L 323.926856 168.048772 
L 335.019627 169.747789 
L 346.112398 173.920403 
L 357.205169 179.246968 
L 368.297941 184.257236 
L 379.390712 187.718213 
L 390.483483 188.920538 
L 401.576254 187.801825 
L 412.669025 184.893231 
" clip-path="url(#p8ed929acf5)" style="fill: none; stroke: #4a5c79; stroke-opacity: 0.7; stroke-width: 1.4; stroke-linecap: round"/>
   </g>
   <g id="line2d_14">
    <path d="M 57.70035 138.8544 
L 68.793121 165.031123 
L 79.885892 202.58991 
L 90.978663 209.002891 
L 102.071434 183.295594 
L 113.164206 159.199085 
L 124.256977 162.304377 
L 135.349748 184.1058 
L 146.442519 197.620608 
L 157.53529 189.898587 
L 168.628061 173.273766 
L 179.720832 167.304747 
L 190.813603 176.381968 
L 201.906374 187.891148 
L 212.999145 189.00104 
L 224.091916 180.494681 
L 235.184687 173.341137 
L 246.277459 174.971447 
L 257.37023 181.964549 
L 268.463001 185.785867 
L 279.555772 182.931183 
L 290.648543 177.736931 
L 301.741314 176.230009 
L 312.834085 179.329347 
L 323.926856 182.828828 
L 335.019627 182.891452 
L 346.112398 180.10292 
L 357.205169 178.001849 
L 368.297941 178.71569 
L 379.390712 180.942429 
L 390.483483 182.001488 
L 401.576254 180.976532 
L 412.669025 179.365067 
" clip-path="url(#p8ed929acf5)" style="fill: none; stroke: #6e7f9c; stroke-opacity: 0.7; stroke-width: 1.4; stroke-linecap: round"/>
   </g>
   <g id="line2d_15">
    <path d="M 57.70035 149.2032 
L 68.793121 193.572206 
L 79.885892 191.246652 
L 90.978663 161.185925 
L 102.071434 188.665407 
L 113.164206 186.800336 
L 124.256977 168.547086 
L 135.349748 185.56024 
L 146.442519 184.146872 
L 157.53529 173.067875 
L 168.628061 183.597454 
L 179.720832 182.56514 
L 190.813603 175.84349 
L 201.906374 182.358115 
L 212.999145 181.623406 
L 224.091916 177.547145 
L 235.184687 181.576376 
L 246.277459 181.063434 
L 257.37023 178.592541 
L 268.463001 181.083757 
L 279.555772 180.73092 
L 290.648543 179.233835 
L 301.741314 180.773615 
L 312.834085 180.533761 
L 323.926856 179.627122 
L 335.019627 180.578529 
L 346.112398 180.417041 
L 357.205169 179.868244 
L 368.297941 180.455918 
L 379.390712 180.34806 
L 390.483483 180.016034 
L 401.576254 180.378919 
L 412.669025 180.307366 
" clip-path="url(#p8ed929acf5)" style="fill: none; stroke: #94a2bb; stroke-opacity: 0.7; stroke-width: 1.4; stroke-linecap: round"/>
   </g>
   <g id="patch_3">
    <path d="M 51.044688 237.168 
L 51.044688 4.32 
" style="fill: none; stroke: #c9ccd3; stroke-linejoin: miter; stroke-linecap: square"/>
   </g>
   <g id="patch_4">
    <path d="M 51.044688 237.168 
L 419.324687 237.168 
" style="fill: none; stroke: #c9ccd3; stroke-linejoin: miter; stroke-linecap: square"/>
   </g>
   <g id="line2d_16">
    <path d="M 57.70035 20.87808 
L 68.793121 101.364763 
L 79.885892 155.445698 
L 90.978663 154.166391 
L 102.071434 176.116069 
L 113.164206 163.583107 
L 124.256977 152.740148 
L 135.349748 186.911823 
L 146.442519 187.831737 
L 157.53529 155.105654 
L 168.628061 136.415209 
L 179.720832 121.440874 
L 190.813603 122.208321 
L 201.906374 144.980163 
L 212.999145 154.785812 
L 224.091916 153.647467 
L 235.184687 161.081317 
L 246.277459 169.497773 
L 257.37023 176.757854 
L 268.463001 181.230674 
L 279.555772 172.742085 
L 290.648543 159.206793 
L 301.741314 152.899376 
L 312.834085 151.634492 
L 323.926856 153.281946 
L 335.019627 156.580321 
L 346.112398 158.367753 
L 357.205169 161.58952 
L 368.297941 168.427295 
L 379.390712 174.514735 
L 390.483483 176.933909 
L 401.576254 175.625799 
L 412.669025 171.490317 
" clip-path="url(#p8ed929acf5)" style="fill: none; stroke: #e37c47; stroke-width: 2.8; stroke-linecap: round"/>
   </g>
   <g id="legend_1">
    <g id="patch_5">
     <path d="M 272.849688 62.28 
L 411.974688 62.28 
Q 414.074688 62.28 414.074688 60.18 
L 414.074688 11.67 
Q 414.074688 9.57 411.974688 9.57 
L 272.849688 9.57 
Q 270.749688 9.57 270.749688 11.67 
L 270.749688 60.18 
Q 270.749688 62.28 272.849688 62.28 
z
" style="fill: #ffffff; opacity: 0.96; stroke: #c9ccd3; stroke-linejoin: miter"/>
    </g>
    <g id="line2d_17">
     <path d="M 278.099688 23.325 
L 287.024688 23.325 
L 295.949688 23.325 
" style="fill: none; stroke: #3a4a63; stroke-opacity: 0.7; stroke-width: 1.4; stroke-linecap: round"/>
    </g>
    <g id="text_13">
     <!-- modes   $w_n\,\bar\lambda_n^{\,m}$ -->
     <g style="fill: #303030" transform="translate(302.249688 27) scale(0.105 -0.105)">
      <defs>
       <path id="SegoeUI-6d" d="M 5063 0 
L 4550 0 
L 4550 1838 
Q 4550 2369 4386 2606 
Q 4222 2844 3834 2844 
Q 3506 2844 3276 2544 
Q 3047 2244 3047 1825 
L 3047 0 
L 2534 0 
L 2534 1900 
Q 2534 2844 1806 2844 
Q 1469 2844 1250 2561 
Q 1031 2278 1031 1825 
L 1031 0 
L 519 0 
L 519 3200 
L 1031 3200 
L 1031 2694 
L 1044 2694 
Q 1384 3275 2038 3275 
Q 2366 3275 2609 3092 
Q 2853 2909 2944 2613 
Q 3300 3275 4006 3275 
Q 5063 3275 5063 1972 
L 5063 0 
z
" transform="scale(0.015625)"/>
       <path id="SegoeUI-6f" d="M 1856 -75 
Q 1147 -75 723 373 
Q 300 822 300 1563 
Q 300 2369 740 2822 
Q 1181 3275 1931 3275 
Q 2647 3275 3048 2834 
Q 3450 2394 3450 1613 
Q 3450 847 3017 386 
Q 2584 -75 1856 -75 
z
M 1894 2844 
Q 1400 2844 1112 2508 
Q 825 2172 825 1581 
Q 825 1013 1115 684 
Q 1406 356 1894 356 
Q 2391 356 2658 678 
Q 2925 1000 2925 1594 
Q 2925 2194 2658 2519 
Q 2391 2844 1894 2844 
z
" transform="scale(0.015625)"/>
       <path id="SegoeUI-64" d="M 3250 0 
L 2738 0 
L 2738 544 
L 2725 544 
Q 2369 -75 1625 -75 
Q 1022 -75 661 354 
Q 300 784 300 1525 
Q 300 2319 700 2797 
Q 1100 3275 1766 3275 
Q 2425 3275 2725 2756 
L 2738 2756 
L 2738 4738 
L 3250 4738 
L 3250 0 
z
M 2738 1447 
L 2738 1919 
Q 2738 2306 2481 2575 
Q 2225 2844 1831 2844 
Q 1363 2844 1094 2500 
Q 825 2156 825 1550 
Q 825 997 1083 676 
Q 1341 356 1775 356 
Q 2203 356 2470 665 
Q 2738 975 2738 1447 
z
" transform="scale(0.015625)"/>
       <path id="SegoeUI-73" d="M 325 116 
L 325 666 
Q 744 356 1247 356 
Q 1922 356 1922 806 
Q 1922 934 1864 1023 
Q 1806 1113 1707 1181 
Q 1609 1250 1476 1304 
Q 1344 1359 1191 1419 
Q 978 1503 817 1589 
Q 656 1675 548 1783 
Q 441 1891 386 2028 
Q 331 2166 331 2350 
Q 331 2575 434 2748 
Q 538 2922 709 3039 
Q 881 3156 1101 3215 
Q 1322 3275 1556 3275 
Q 1972 3275 2300 3131 
L 2300 2613 
Q 1947 2844 1488 2844 
Q 1344 2844 1228 2811 
Q 1113 2778 1030 2718 
Q 947 2659 901 2576 
Q 856 2494 856 2394 
Q 856 2269 901 2184 
Q 947 2100 1034 2034 
Q 1122 1969 1247 1916 
Q 1372 1863 1531 1800 
Q 1744 1719 1912 1633 
Q 2081 1547 2200 1439 
Q 2319 1331 2383 1190 
Q 2447 1050 2447 856 
Q 2447 619 2342 444 
Q 2238 269 2063 153 
Q 1888 38 1659 -18 
Q 1431 -75 1181 -75 
Q 688 -75 325 116 
z
" transform="scale(0.015625)"/>
       <path id="DejaVuSans-Oblique-77" d="M 544 3500 
L 1113 3500 
L 1259 684 
L 2566 3500 
L 3231 3500 
L 3425 684 
L 4666 3500 
L 5241 3500 
L 3641 0 
L 2969 0 
L 2797 2900 
L 1459 0 
L 781 0 
L 544 3500 
z
" transform="scale(0.015625)"/>
       <path id="DejaVuSans-Oblique-6e" d="M 3566 2113 
L 3156 0 
L 2578 0 
L 2988 2091 
Q 3016 2238 3031 2350 
Q 3047 2463 3047 2528 
Q 3047 2791 2881 2937 
Q 2716 3084 2419 3084 
Q 1956 3084 1622 2776 
Q 1288 2469 1184 1941 
L 800 0 
L 225 0 
L 903 3500 
L 1478 3500 
L 1363 2950 
Q 1603 3253 1940 3418 
Q 2278 3584 2650 3584 
Q 3113 3584 3367 3334 
Q 3622 3084 3622 2631 
Q 3622 2519 3608 2391 
Q 3594 2263 3566 2113 
z
" transform="scale(0.015625)"/>
       <path id="DejaVuSans-Oblique-3bb" d="M 2350 4316 
L 3125 0 
L 2516 0 
L 2038 2588 
L 328 0 
L -281 0 
L 1903 3356 
L 1794 3975 
Q 1725 4369 1391 4369 
L 1091 4369 
L 1184 4863 
L 1550 4856 
Q 2253 4847 2350 4316 
z
" transform="scale(0.015625)"/>
      </defs>
      <use xlink:href="#SegoeUI-6d" transform="translate(0 0.28125)"/>
      <use xlink:href="#SegoeUI-6f" transform="translate(86.132812 0.28125)"/>
      <use xlink:href="#SegoeUI-64" transform="translate(144.726562 0.28125)"/>
      <use xlink:href="#SegoeUI-65" transform="translate(203.613281 0.28125)"/>
      <use xlink:href="#SegoeUI-73" transform="translate(255.908203 0.28125)"/>
      <use xlink:href="#SegoeUI-20" transform="translate(298.339844 0.28125)"/>
      <use xlink:href="#SegoeUI-20" transform="translate(325.732422 0.28125)"/>
      <use xlink:href="#SegoeUI-20" transform="translate(353.125 0.28125)"/>
      <use xlink:href="#DejaVuSans-Oblique-77" transform="translate(380.517578 0.28125)"/>
      <use xlink:href="#DejaVuSans-Oblique-6e" transform="translate(462.304688 -16.125) scale(0.7)"/>
      <use xlink:href="#DejaVuSans-304" transform="translate(583.288411 21.484375)"/>
      <use xlink:href="#DejaVuSans-Oblique-3bb" transform="translate(525.639973 0.28125)"/>
      <use xlink:href="#DejaVuSans-Oblique-6d" transform="translate(597.141665 38.5625) scale(0.7)"/>
      <use xlink:href="#DejaVuSans-Oblique-6e" transform="translate(585.776692 -27.0625) scale(0.7)"/>
     </g>
    </g>
    <g id="line2d_18">
     <path d="M 278.099688 42.225 
L 287.024688 42.225 
L 295.949688 42.225 
" style="fill: none; stroke: #e37c47; stroke-width: 2.8; stroke-linecap: round"/>
    </g>
    <g id="text_14">
     <!-- kernel   $\bar K_m=\sum_n w_n\,\bar\lambda_n^{\,m}$ -->
     <g style="fill: #303030" transform="translate(302.249688 45.9) scale(0.105 -0.105)">
      <defs>
       <path id="DejaVuSans-3d" d="M 678 2906 
L 4684 2906 
L 4684 2381 
L 678 2381 
L 678 2906 
z
M 678 1631 
L 4684 1631 
L 4684 1100 
L 678 1100 
L 678 1631 
z
" transform="scale(0.015625)"/>
       <path id="DejaVuSansDisplay-2211" d="M 244 6509 
L 5803 6509 
L 5803 5656 
L 1566 5656 
L 4534 2488 
L 1469 -888 
L 5919 -888 
L 5919 -1738 
L 109 -1738 
L 109 -1078 
L 3316 2463 
L 244 5728 
L 244 6509 
z
" transform="scale(0.015625)"/>
      </defs>
      <use xlink:href="#SegoeUI-6b" transform="translate(0 0.296875)"/>
      <use xlink:href="#SegoeUI-65" transform="translate(49.707031 0.296875)"/>
      <use xlink:href="#SegoeUI-72" transform="translate(102.001953 0.296875)"/>
      <use xlink:href="#SegoeUI-6e" transform="translate(136.767578 0.296875)"/>
      <use xlink:href="#SegoeUI-65" transform="translate(193.359375 0.296875)"/>
      <use xlink:href="#SegoeUI-6c" transform="translate(245.654297 0.296875)"/>
      <use xlink:href="#SegoeUI-20" transform="translate(269.873047 0.296875)"/>
      <use xlink:href="#SegoeUI-20" transform="translate(297.265625 0.296875)"/>
      <use xlink:href="#SegoeUI-20" transform="translate(324.658203 0.296875)"/>
      <use xlink:href="#DejaVuSans-304" transform="translate(419.777344 18.421875)"/>
      <use xlink:href="#DejaVuSans-Oblique-4b" transform="translate(352.050781 0.296875)"/>
      <use xlink:href="#DejaVuSans-Oblique-6d" transform="translate(422.539062 -16.109375) scale(0.7)"/>
      <use xlink:href="#DejaVuSans-3d" transform="translate(512.944336 0.296875)"/>
      <use xlink:href="#DejaVuSansDisplay-2211" transform="translate(616.21582 0.296875)"/>
      <use xlink:href="#DejaVuSans-Oblique-6e" transform="translate(643.21582 -84.809375) scale(0.7)"/>
      <use xlink:href="#DejaVuSans-Oblique-77" transform="translate(706.981445 0.296875)"/>
      <use xlink:href="#DejaVuSans-Oblique-6e" transform="translate(788.768555 -16.109375) scale(0.7)"/>
      <use xlink:href="#DejaVuSans-304" transform="translate(909.752278 21.5)"/>
      <use xlink:href="#DejaVuSans-Oblique-3bb" transform="translate(852.10384 0.296875)"/>
      <use xlink:href="#DejaVuSans-Oblique-6d" transform="translate(923.605532 38.578125) scale(0.7)"/>
      <use xlink:href="#DejaVuSans-Oblique-6e" transform="translate(912.240559 -27.046875) scale(0.7)"/>
     </g>
    </g>
   </g>
   <g id="line2d_19">
    <defs>
     <path id="m7e13e6e85e" d="M 0 2.3 
C 0.609967 2.3 1.195034 2.057657 1.626346 1.626346 
C 2.057657 1.195034 2.3 0.609967 2.3 0 
C 2.3 -0.609967 2.057657 -1.195034 1.626346 -1.626346 
C 1.195034 -2.057657 0.609967 -2.3 0 -2.3 
C -0.609967 -2.3 -1.195034 -2.057657 -1.626346 -1.626346 
C -2.057657 -1.195034 -2.3 -0.609967 -2.3 0 
C -2.3 0.609967 -2.057657 1.195034 -1.626346 1.626346 
C -1.195034 2.057657 -0.609967 2.3 0 2.3 
z
" style="stroke: #ffffff"/>
    </defs>
    <g clip-path="url(#p8ed929acf5)">
     <use xlink:href="#m7e13e6e85e" x="57.70035" y="20.87808" style="fill: #e37c47; stroke: #ffffff"/>
     <use xlink:href="#m7e13e6e85e" x="68.793121" y="101.364763" style="fill: #e37c47; stroke: #ffffff"/>
     <use xlink:href="#m7e13e6e85e" x="79.885892" y="155.445698" style="fill: #e37c47; stroke: #ffffff"/>
     <use xlink:href="#m7e13e6e85e" x="90.978663" y="154.166391" style="fill: #e37c47; stroke: #ffffff"/>
     <use xlink:href="#m7e13e6e85e" x="102.071434" y="176.116069" style="fill: #e37c47; stroke: #ffffff"/>
     <use xlink:href="#m7e13e6e85e" x="113.164206" y="163.583107" style="fill: #e37c47; stroke: #ffffff"/>
     <use xlink:href="#m7e13e6e85e" x="124.256977" y="152.740148" style="fill: #e37c47; stroke: #ffffff"/>
     <use xlink:href="#m7e13e6e85e" x="135.349748" y="186.911823" style="fill: #e37c47; stroke: #ffffff"/>
     <use xlink:href="#m7e13e6e85e" x="146.442519" y="187.831737" style="fill: #e37c47; stroke: #ffffff"/>
     <use xlink:href="#m7e13e6e85e" x="157.53529" y="155.105654" style="fill: #e37c47; stroke: #ffffff"/>
     <use xlink:href="#m7e13e6e85e" x="168.628061" y="136.415209" style="fill: #e37c47; stroke: #ffffff"/>
     <use xlink:href="#m7e13e6e85e" x="179.720832" y="121.440874" style="fill: #e37c47; stroke: #ffffff"/>
     <use xlink:href="#m7e13e6e85e" x="190.813603" y="122.208321" style="fill: #e37c47; stroke: #ffffff"/>
     <use xlink:href="#m7e13e6e85e" x="201.906374" y="144.980163" style="fill: #e37c47; stroke: #ffffff"/>
     <use xlink:href="#m7e13e6e85e" x="212.999145" y="154.785812" style="fill: #e37c47; stroke: #ffffff"/>
     <use xlink:href="#m7e13e6e85e" x="224.091916" y="153.647467" style="fill: #e37c47; stroke: #ffffff"/>
     <use xlink:href="#m7e13e6e85e" x="235.184687" y="161.081317" style="fill: #e37c47; stroke: #ffffff"/>
     <use xlink:href="#m7e13e6e85e" x="246.277459" y="169.497773" style="fill: #e37c47; stroke: #ffffff"/>
     <use xlink:href="#m7e13e6e85e" x="257.37023" y="176.757854" style="fill: #e37c47; stroke: #ffffff"/>
     <use xlink:href="#m7e13e6e85e" x="268.463001" y="181.230674" style="fill: #e37c47; stroke: #ffffff"/>
     <use xlink:href="#m7e13e6e85e" x="279.555772" y="172.742085" style="fill: #e37c47; stroke: #ffffff"/>
     <use xlink:href="#m7e13e6e85e" x="290.648543" y="159.206793" style="fill: #e37c47; stroke: #ffffff"/>
     <use xlink:href="#m7e13e6e85e" x="301.741314" y="152.899376" style="fill: #e37c47; stroke: #ffffff"/>
     <use xlink:href="#m7e13e6e85e" x="312.834085" y="151.634492" style="fill: #e37c47; stroke: #ffffff"/>
     <use xlink:href="#m7e13e6e85e" x="323.926856" y="153.281946" style="fill: #e37c47; stroke: #ffffff"/>
     <use xlink:href="#m7e13e6e85e" x="335.019627" y="156.580321" style="fill: #e37c47; stroke: #ffffff"/>
     <use xlink:href="#m7e13e6e85e" x="346.112398" y="158.367753" style="fill: #e37c47; stroke: #ffffff"/>
     <use xlink:href="#m7e13e6e85e" x="357.205169" y="161.58952" style="fill: #e37c47; stroke: #ffffff"/>
     <use xlink:href="#m7e13e6e85e" x="368.297941" y="168.427295" style="fill: #e37c47; stroke: #ffffff"/>
     <use xlink:href="#m7e13e6e85e" x="379.390712" y="174.514735" style="fill: #e37c47; stroke: #ffffff"/>
     <use xlink:href="#m7e13e6e85e" x="390.483483" y="176.933909" style="fill: #e37c47; stroke: #ffffff"/>
     <use xlink:href="#m7e13e6e85e" x="401.576254" y="175.625799" style="fill: #e37c47; stroke: #ffffff"/>
     <use xlink:href="#m7e13e6e85e" x="412.669025" y="171.490317" style="fill: #e37c47; stroke: #ffffff"/>
    </g>
   </g>
  </g>
 </g>
 <defs>
  <clipPath id="p8ed929acf5">
   <rect x="51.044688" y="4.32" width="368.28" height="232.848"/>
  </clipPath>
 </defs>
</svg>
