<?xml version="1.0" encoding="utf-8" standalone="no"?>
<!DOCTYPE svg PUBLIC "-//W3C//DTD SVG 1.1//EN"
  "http://www.w3.org/Graphics/SVG/1.1/DTD/svg11.dtd">
<svg xmlns:xlink="http://www.w3.org/1999/xlink" width="408.210673pt" height="252.644031pt" viewBox="0 0 408.210673 252.644031" xmlns="http://www.w3.org/2000/svg" version="1.1">
 <metadata>
  <rdf:RDF xmlns:dc="http://purl.org/dc/elements/1.1/" xmlns:cc="http://creativecommons.org/ns#" xmlns:rdf="http://www.w3.org/1999/02/22-rdf-syntax-ns#">
   <cc:Work>
    <dc:type rdf:resource="http://purl.org/dc/dcmitype/StillImage"/>
    <dc:date>2026-06-04T12:46:10.005460</dc:date>
    <dc:format>image/svg+xml</dc:format>
    <dc:creator>
     <cc:Agent>
      <dc:title>Matplotlib v3.10.3, https://matplotlib.org/</dc:title>
     </cc:Agent>
    </dc:creator>
   </cc:Work>
  </rdf:RDF>
 </metadata>
 <defs>
  <style type="text/css">*{stroke-linejoin: round; stroke-linecap: butt}</style>
 </defs>
 <g id="figure_1">
  <g id="patch_1">
   <path d="M 0 252.644031 
L 408.210673 252.644031 
L 408.210673 0 
L 0 0 
z
" style="fill: #ffffff"/>
  </g>
  <g id="axes_1">
   <g id="patch_2">
    <path d="M 41.223594 214.992 
L 398.343594 214.992 
L 398.343594 4.32 
L 41.223594 4.32 
z
" style="fill: #ffffff"/>
   </g>
   <g id="line2d_1">
    <path d="M 42.991515 214.992 
L 42.991515 4.32 
" clip-path="url(#p6495833b5f)" style="fill: none; stroke-dasharray: 1.8,2.16; stroke-dashoffset: 0; stroke: #c9ccd3; stroke-width: 0.9"/>
   </g>
   <g id="line2d_2">
    <path d="M 87.189534 214.992 
L 87.189534 4.32 
" clip-path="url(#p6495833b5f)" style="fill: none; stroke-dasharray: 1.8,2.16; stroke-dashoffset: 0; stroke: #c9ccd3; stroke-width: 0.9"/>
   </g>
   <g id="line2d_3">
    <path d="M 131.387554 214.992 
L 131.387554 4.32 
" clip-path="url(#p6495833b5f)" style="fill: none; stroke-dasharray: 1.8,2.16; stroke-dashoffset: 0; stroke: #c9ccd3; stroke-width: 0.9"/>
   </g>
   <g id="line2d_4">
    <path d="M 175.585574 214.992 
L 175.585574 4.32 
" clip-path="url(#p6495833b5f)" style="fill: none; stroke-dasharray: 1.8,2.16; stroke-dashoffset: 0; stroke: #c9ccd3; stroke-width: 0.9"/>
   </g>
   <g id="line2d_5">
    <path d="M 219.783594 214.992 
L 219.783594 4.32 
" clip-path="url(#p6495833b5f)" style="fill: none; stroke-dasharray: 1.8,2.16; stroke-dashoffset: 0; stroke: #c9ccd3; stroke-width: 0.9"/>
   </g>
   <g id="line2d_6">
    <path d="M 263.981614 214.992 
L 263.981614 4.32 
" clip-path="url(#p6495833b5f)" style="fill: none; stroke-dasharray: 1.8,2.16; stroke-dashoffset: 0; stroke: #c9ccd3; stroke-width: 0.9"/>
   </g>
   <g id="line2d_7">
    <path d="M 308.179633 214.992 
L 308.179633 4.32 
" clip-path="url(#p6495833b5f)" style="fill: none; stroke-dasharray: 1.8,2.16; stroke-dashoffset: 0; stroke: #c9ccd3; stroke-width: 0.9"/>
   </g>
   <g id="line2d_8">
    <path d="M 352.377653 214.992 
L 352.377653 4.32 
" clip-path="url(#p6495833b5f)" style="fill: none; stroke-dasharray: 1.8,2.16; stroke-dashoffset: 0; stroke: #c9ccd3; stroke-width: 0.9"/>
   </g>
   <g id="line2d_9">
    <path d="M 396.575673 214.992 
L 396.575673 4.32 
" clip-path="url(#p6495833b5f)" style="fill: none; stroke-dasharray: 1.8,2.16; stroke-dashoffset: 0; stroke: #c9ccd3; stroke-width: 0.9"/>
   </g>
   <g id="matplotlib.axis_1">
    <g id="xtick_1">
     <g id="line2d_10">
      <defs>
       <path id="mde08a02cd7" d="M 0 0 
L 0 4 
" style="stroke: #6b7280"/>
      </defs>
      <g>
       <use xlink:href="#mde08a02cd7" x="42.991515" y="214.992" style="fill: #6b7280; stroke: #6b7280"/>
      </g>
     </g>
     <g id="text_1">
      <!-- $0$ -->
      <g style="fill: #303030" transform="translate(39.471515 230.635437) scale(0.11 -0.11)">
       <defs>
        <path id="DejaVuSans-30" d="M 2034 4250 
Q 1547 4250 1301 3770 
Q 1056 3291 1056 2328 
Q 1056 1369 1301 889 
Q 1547 409 2034 409 
Q 2525 409 2770 889 
Q 3016 1369 3016 2328 
Q 3016 3291 2770 3770 
Q 2525 4250 2034 4250 
z
M 2034 4750 
Q 2819 4750 3233 4129 
Q 3647 3509 3647 2328 
Q 3647 1150 3233 529 
Q 2819 -91 2034 -91 
Q 1250 -91 836 529 
Q 422 1150 422 2328 
Q 422 3509 836 4129 
Q 1250 4750 2034 4750 
z
" transform="scale(0.015625)"/>
       </defs>
       <use xlink:href="#DejaVuSans-30" transform="translate(0 0.78125)"/>
      </g>
     </g>
    </g>
    <g id="xtick_2">
     <g id="line2d_11">
      <g>
       <use xlink:href="#mde08a02cd7" x="87.189534" y="214.992" style="fill: #6b7280; stroke: #6b7280"/>
      </g>
     </g>
     <g id="text_2">
      <!-- $\Delta$ -->
      <g style="fill: #303030" transform="translate(83.394534 230.635437) scale(0.11 -0.11)">
       <defs>
        <path id="DejaVuSans-394" d="M 2188 4044 
L 906 525 
L 3472 525 
L 2188 4044 
z
M 50 0 
L 1831 4666 
L 2547 4666 
L 4325 0 
L 50 0 
z
" transform="scale(0.015625)"/>
       </defs>
       <use xlink:href="#DejaVuSans-394" transform="translate(0 0.09375)"/>
      </g>
     </g>
    </g>
    <g id="xtick_3">
     <g id="line2d_12">
      <g>
       <use xlink:href="#mde08a02cd7" x="131.387554" y="214.992" style="fill: #6b7280; stroke: #6b7280"/>
      </g>
     </g>
     <g id="text_3">
      <!-- $2\Delta$ -->
      <g style="fill: #303030" transform="translate(124.072554 230.635437) scale(0.11 -0.11)">
       <defs>
        <path id="DejaVuSans-32" d="M 1228 531 
L 3431 531 
L 3431 0 
L 469 0 
L 469 531 
Q 828 903 1448 1529 
Q 2069 2156 2228 2338 
Q 2531 2678 2651 2914 
Q 2772 3150 2772 3378 
Q 2772 3750 2511 3984 
Q 2250 4219 1831 4219 
Q 1534 4219 1204 4116 
Q 875 4013 500 3803 
L 500 4441 
Q 881 4594 1212 4672 
Q 1544 4750 1819 4750 
Q 2544 4750 2975 4387 
Q 3406 4025 3406 3419 
Q 3406 3131 3298 2873 
Q 3191 2616 2906 2266 
Q 2828 2175 2409 1742 
Q 1991 1309 1228 531 
z
" transform="scale(0.015625)"/>
       </defs>
       <use xlink:href="#DejaVuSans-32" transform="translate(0 0.78125)"/>
       <use xlink:href="#DejaVuSans-394" transform="translate(63.623047 0.78125)"/>
      </g>
     </g>
    </g>
    <g id="xtick_4">
     <g id="line2d_13">
      <g>
       <use xlink:href="#mde08a02cd7" x="175.585574" y="214.992" style="fill: #6b7280; stroke: #6b7280"/>
      </g>
     </g>
     <g id="text_4">
      <!-- $3\Delta$ -->
      <g style="fill: #303030" transform="translate(168.270574 230.635437) scale(0.11 -0.11)">
       <defs>
        <path id="DejaVuSans-33" d="M 2597 2516 
Q 3050 2419 3304 2112 
Q 3559 1806 3559 1356 
Q 3559 666 3084 287 
Q 2609 -91 1734 -91 
Q 1441 -91 1130 -33 
Q 819 25 488 141 
L 488 750 
Q 750 597 1062 519 
Q 1375 441 1716 441 
Q 2309 441 2620 675 
Q 2931 909 2931 1356 
Q 2931 1769 2642 2001 
Q 2353 2234 1838 2234 
L 1294 2234 
L 1294 2753 
L 1863 2753 
Q 2328 2753 2575 2939 
Q 2822 3125 2822 3475 
Q 2822 3834 2567 4026 
Q 2313 4219 1838 4219 
Q 1578 4219 1281 4162 
Q 984 4106 628 3988 
L 628 4550 
Q 988 4650 1302 4700 
Q 1616 4750 1894 4750 
Q 2613 4750 3031 4423 
Q 3450 4097 3450 3541 
Q 3450 3153 3228 2886 
Q 3006 2619 2597 2516 
z
" transform="scale(0.015625)"/>
       </defs>
       <use xlink:href="#DejaVuSans-33" transform="translate(0 0.78125)"/>
       <use xlink:href="#DejaVuSans-394" transform="translate(63.623047 0.78125)"/>
      </g>
     </g>
    </g>
    <g id="xtick_5">
     <g id="line2d_14">
      <g>
       <use xlink:href="#mde08a02cd7" x="219.783594" y="214.992" style="fill: #6b7280; stroke: #6b7280"/>
      </g>
     </g>
     <g id="text_5">
      <!-- $4\Delta$ -->
      <g style="fill: #303030" transform="translate(212.468594 230.635437) scale(0.11 -0.11)">
       <defs>
        <path id="DejaVuSans-34" d="M 2419 4116 
L 825 1625 
L 2419 1625 
L 2419 4116 
z
M 2253 4666 
L 3047 4666 
L 3047 1625 
L 3713 1625 
L 3713 1100 
L 3047 1100 
L 3047 0 
L 2419 0 
L 2419 1100 
L 313 1100 
L 313 1709 
L 2253 4666 
z
" transform="scale(0.015625)"/>
       </defs>
       <use xlink:href="#DejaVuSans-34" transform="translate(0 0.09375)"/>
       <use xlink:href="#DejaVuSans-394" transform="translate(63.623047 0.09375)"/>
      </g>
     </g>
    </g>
    <g id="xtick_6">
     <g id="line2d_15">
      <g>
       <use xlink:href="#mde08a02cd7" x="263.981614" y="214.992" style="fill: #6b7280; stroke: #6b7280"/>
      </g>
     </g>
     <g id="text_6">
      <!-- $5\Delta$ -->
      <g style="fill: #303030" transform="translate(256.666614 230.635437) scale(0.11 -0.11)">
       <defs>
        <path id="DejaVuSans-35" d="M 691 4666 
L 3169 4666 
L 3169 4134 
L 1269 4134 
L 1269 2991 
Q 1406 3038 1543 3061 
Q 1681 3084 1819 3084 
Q 2600 3084 3056 2656 
Q 3513 2228 3513 1497 
Q 3513 744 3044 326 
Q 2575 -91 1722 -91 
Q 1428 -91 1123 -41 
Q 819 9 494 109 
L 494 744 
Q 775 591 1075 516 
Q 1375 441 1709 441 
Q 2250 441 2565 725 
Q 2881 1009 2881 1497 
Q 2881 1984 2565 2268 
Q 2250 2553 1709 2553 
Q 1456 2553 1204 2497 
Q 953 2441 691 2322 
L 691 4666 
z
" transform="scale(0.015625)"/>
       </defs>
       <use xlink:href="#DejaVuSans-35" transform="translate(0 0.09375)"/>
       <use xlink:href="#DejaVuSans-394" transform="translate(63.623047 0.09375)"/>
      </g>
     </g>
    </g>
    <g id="xtick_7">
     <g id="line2d_16">
      <g>
       <use xlink:href="#mde08a02cd7" x="308.179633" y="214.992" style="fill: #6b7280; stroke: #6b7280"/>
      </g>
     </g>
     <g id="text_7">
      <!-- $6\Delta$ -->
      <g style="fill: #303030" transform="translate(300.864633 230.635437) scale(0.11 -0.11)">
       <defs>
        <path id="DejaVuSans-36" d="M 2113 2584 
Q 1688 2584 1439 2293 
Q 1191 2003 1191 1497 
Q 1191 994 1439 701 
Q 1688 409 2113 409 
Q 2538 409 2786 701 
Q 3034 994 3034 1497 
Q 3034 2003 2786 2293 
Q 2538 2584 2113 2584 
z
M 3366 4563 
L 3366 3988 
Q 3128 4100 2886 4159 
Q 2644 4219 2406 4219 
Q 1781 4219 1451 3797 
Q 1122 3375 1075 2522 
Q 1259 2794 1537 2939 
Q 1816 3084 2150 3084 
Q 2853 3084 3261 2657 
Q 3669 2231 3669 1497 
Q 3669 778 3244 343 
Q 2819 -91 2113 -91 
Q 1303 -91 875 529 
Q 447 1150 447 2328 
Q 447 3434 972 4092 
Q 1497 4750 2381 4750 
Q 2619 4750 2861 4703 
Q 3103 4656 3366 4563 
z
" transform="scale(0.015625)"/>
       </defs>
       <use xlink:href="#DejaVuSans-36" transform="translate(0 0.78125)"/>
       <use xlink:href="#DejaVuSans-394" transform="translate(63.623047 0.78125)"/>
      </g>
     </g>
    </g>
    <g id="xtick_8">
     <g id="line2d_17">
      <g>
       <use xlink:href="#mde08a02cd7" x="352.377653" y="214.992" style="fill: #6b7280; stroke: #6b7280"/>
      </g>
     </g>
     <g id="text_8">
      <!-- $7\Delta$ -->
      <g style="fill: #303030" transform="translate(345.062653 230.635437) scale(0.11 -0.11)">
       <defs>
        <path id="DejaVuSans-37" d="M 525 4666 
L 3525 4666 
L 3525 4397 
L 1831 0 
L 1172 0 
L 2766 4134 
L 525 4134 
L 525 4666 
z
" transform="scale(0.015625)"/>
       </defs>
       <use xlink:href="#DejaVuSans-37" transform="translate(0 0.09375)"/>
       <use xlink:href="#DejaVuSans-394" transform="translate(63.623047 0.09375)"/>
      </g>
     </g>
    </g>
    <g id="xtick_9">
     <g id="line2d_18">
      <g>
       <use xlink:href="#mde08a02cd7" x="396.575673" y="214.992" style="fill: #6b7280; stroke: #6b7280"/>
      </g>
     </g>
     <g id="text_9">
      <!-- $8\Delta$ -->
      <g style="fill: #303030" transform="translate(389.260673 230.635437) scale(0.11 -0.11)">
       <defs>
        <path id="DejaVuSans-38" d="M 2034 2216 
Q 1584 2216 1326 1975 
Q 1069 1734 1069 1313 
Q 1069 891 1326 650 
Q 1584 409 2034 409 
Q 2484 409 2743 651 
Q 3003 894 3003 1313 
Q 3003 1734 2745 1975 
Q 2488 2216 2034 2216 
z
M 1403 2484 
Q 997 2584 770 2862 
Q 544 3141 544 3541 
Q 544 4100 942 4425 
Q 1341 4750 2034 4750 
Q 2731 4750 3128 4425 
Q 3525 4100 3525 3541 
Q 3525 3141 3298 2862 
Q 3072 2584 2669 2484 
Q 3125 2378 3379 2068 
Q 3634 1759 3634 1313 
Q 3634 634 3220 271 
Q 2806 -91 2034 -91 
Q 1263 -91 848 271 
Q 434 634 434 1313 
Q 434 1759 690 2068 
Q 947 2378 1403 2484 
z
M 1172 3481 
Q 1172 3119 1398 2916 
Q 1625 2713 2034 2713 
Q 2441 2713 2670 2916 
Q 2900 3119 2900 3481 
Q 2900 3844 2670 4047 
Q 2441 4250 2034 4250 
Q 1625 4250 1398 4047 
Q 1172 3844 1172 3481 
z
" transform="scale(0.015625)"/>
       </defs>
       <use xlink:href="#DejaVuSans-38" transform="translate(0 0.78125)"/>
       <use xlink:href="#DejaVuSans-394" transform="translate(63.623047 0.78125)"/>
      </g>
     </g>
    </g>
    <g id="text_10">
     <!-- time $t$ -->
     <g style="fill: #303030" transform="translate(204.603594 245.679031) scale(0.115 -0.115)">
      <defs>
       <path id="SegoeUI-74" d="M 2003 31 
Q 1822 -69 1525 -69 
Q 684 -69 684 869 
L 684 2763 
L 134 2763 
L 134 3200 
L 684 3200 
L 684 3981 
L 1197 4147 
L 1197 3200 
L 2003 3200 
L 2003 2763 
L 1197 2763 
L 1197 959 
Q 1197 638 1306 500 
Q 1416 363 1669 363 
Q 1863 363 2003 469 
L 2003 31 
z
" transform="scale(0.015625)"/>
       <path id="SegoeUI-69" d="M 781 4013 
Q 644 4013 547 4106 
Q 450 4200 450 4344 
Q 450 4488 547 4583 
Q 644 4678 781 4678 
Q 922 4678 1020 4583 
Q 1119 4488 1119 4344 
Q 1119 4206 1020 4109 
Q 922 4013 781 4013 
z
M 1031 0 
L 519 0 
L 519 3200 
L 1031 3200 
L 1031 0 
z
" transform="scale(0.015625)"/>
       <path id="SegoeUI-6d" d="M 5063 0 
L 4550 0 
L 4550 1838 
Q 4550 2369 4386 2606 
Q 4222 2844 3834 2844 
Q 3506 2844 3276 2544 
Q 3047 2244 3047 1825 
L 3047 0 
L 2534 0 
L 2534 1900 
Q 2534 2844 1806 2844 
Q 1469 2844 1250 2561 
Q 1031 2278 1031 1825 
L 1031 0 
L 519 0 
L 519 3200 
L 1031 3200 
L 1031 2694 
L 1044 2694 
Q 1384 3275 2038 3275 
Q 2366 3275 2609 3092 
Q 2853 2909 2944 2613 
Q 3300 3275 4006 3275 
Q 5063 3275 5063 1972 
L 5063 0 
z
" transform="scale(0.015625)"/>
       <path id="SegoeUI-65" d="M 3091 1472 
L 831 1472 
Q 844 938 1119 647 
Q 1394 356 1875 356 
Q 2416 356 2869 713 
L 2869 231 
Q 2447 -75 1753 -75 
Q 1075 -75 687 361 
Q 300 797 300 1588 
Q 300 2334 723 2804 
Q 1147 3275 1775 3275 
Q 2403 3275 2747 2869 
Q 3091 2463 3091 1741 
L 3091 1472 
z
M 2566 1906 
Q 2563 2350 2352 2597 
Q 2141 2844 1766 2844 
Q 1403 2844 1150 2584 
Q 897 2325 838 1906 
L 2566 1906 
z
" transform="scale(0.015625)"/>
       <path id="SegoeUI-20" transform="scale(0.015625)"/>
       <path id="DejaVuSans-Oblique-74" d="M 2706 3500 
L 2619 3053 
L 1472 3053 
L 1100 1153 
Q 1081 1047 1072 975 
Q 1063 903 1063 863 
Q 1063 663 1183 572 
Q 1303 481 1569 481 
L 2150 481 
L 2053 0 
L 1503 0 
Q 991 0 739 200 
Q 488 400 488 806 
Q 488 878 497 964 
Q 506 1050 525 1153 
L 897 3053 
L 409 3053 
L 500 3500 
L 978 3500 
L 1172 4494 
L 1747 4494 
L 1556 3500 
L 2706 3500 
z
" transform="scale(0.015625)"/>
      </defs>
      <use xlink:href="#SegoeUI-74" transform="translate(0 0.90625)"/>
      <use xlink:href="#SegoeUI-69" transform="translate(33.886719 0.90625)"/>
      <use xlink:href="#SegoeUI-6d" transform="translate(58.105469 0.90625)"/>
      <use xlink:href="#SegoeUI-65" transform="translate(144.238281 0.90625)"/>
      <use xlink:href="#SegoeUI-20" transform="translate(196.533203 0.90625)"/>
      <use xlink:href="#DejaVuSans-Oblique-74" transform="translate(223.925781 0.90625)"/>
     </g>
    </g>
   </g>
   <g id="matplotlib.axis_2">
    <g id="ytick_1">
     <g id="line2d_19">
      <defs>
       <path id="m6be04ae593" d="M 0 0 
L -4 0 
" style="stroke: #6b7280"/>
      </defs>
      <g>
       <use xlink:href="#m6be04ae593" x="41.223594" y="214.992" style="fill: #6b7280; stroke: #6b7280"/>
      </g>
     </g>
     <g id="text_11">
      <!-- 0.0 -->
      <g style="fill: #303030" transform="translate(19.478594 219.063719) scale(0.11 -0.11)">
       <defs>
        <path id="SegoeUI-30" d="M 3188 2259 
Q 3188 1697 3086 1262 
Q 2984 828 2792 529 
Q 2600 231 2320 76 
Q 2041 -78 1684 -78 
Q 1347 -78 1083 70 
Q 819 219 637 503 
Q 456 788 362 1202 
Q 269 1616 269 2150 
Q 269 2738 367 3188 
Q 466 3638 656 3942 
Q 847 4247 1130 4401 
Q 1413 4556 1778 4556 
Q 3188 4556 3188 2259 
z
M 2663 2209 
Q 2663 4122 1753 4122 
Q 794 4122 794 2175 
Q 794 359 1734 359 
Q 2663 359 2663 2209 
z
" transform="scale(0.015625)"/>
        <path id="SegoeUI-2e" d="M 697 -69 
Q 553 -69 451 34 
Q 350 138 350 281 
Q 350 425 451 529 
Q 553 634 697 634 
Q 844 634 947 529 
Q 1050 425 1050 281 
Q 1050 138 947 34 
Q 844 -69 697 -69 
z
" transform="scale(0.015625)"/>
       </defs>
       <use xlink:href="#SegoeUI-30"/>
       <use xlink:href="#SegoeUI-2e" transform="translate(53.90625 0)"/>
       <use xlink:href="#SegoeUI-30" transform="translate(75.585938 0)"/>
      </g>
     </g>
    </g>
    <g id="ytick_2">
     <g id="line2d_20">
      <g>
       <use xlink:href="#m6be04ae593" x="41.223594" y="155.814472" style="fill: #6b7280; stroke: #6b7280"/>
      </g>
     </g>
     <g id="text_12">
      <!-- 0.5 -->
      <g style="fill: #303030" transform="translate(19.478594 159.886191) scale(0.11 -0.11)">
       <defs>
        <path id="SegoeUI-35" d="M 3028 1369 
Q 3028 1041 2915 775 
Q 2803 509 2595 318 
Q 2388 128 2094 25 
Q 1800 -78 1441 -78 
Q 816 -78 513 109 
L 513 653 
Q 969 359 1447 359 
Q 1691 359 1886 431 
Q 2081 503 2218 631 
Q 2356 759 2429 940 
Q 2503 1122 2503 1338 
Q 2503 1775 2209 2023 
Q 1916 2272 1356 2272 
Q 1266 2272 1166 2269 
Q 1066 2266 966 2261 
Q 866 2256 770 2250 
Q 675 2244 597 2234 
L 750 4481 
L 2822 4481 
L 2822 4019 
L 1194 4019 
L 1103 2703 
Q 1203 2709 1315 2714 
Q 1428 2719 1516 2719 
Q 1872 2719 2153 2625 
Q 2434 2531 2629 2357 
Q 2825 2184 2926 1932 
Q 3028 1681 3028 1369 
z
" transform="scale(0.015625)"/>
       </defs>
       <use xlink:href="#SegoeUI-30"/>
       <use xlink:href="#SegoeUI-2e" transform="translate(53.90625 0)"/>
       <use xlink:href="#SegoeUI-35" transform="translate(75.585938 0)"/>
      </g>
     </g>
    </g>
    <g id="ytick_3">
     <g id="line2d_21">
      <g>
       <use xlink:href="#m6be04ae593" x="41.223594" y="96.636944" style="fill: #6b7280; stroke: #6b7280"/>
      </g>
     </g>
     <g id="text_13">
      <!-- 1.0 -->
      <g style="fill: #303030" transform="translate(19.478594 100.708663) scale(0.11 -0.11)">
       <defs>
        <path id="SegoeUI-31" d="M 2263 0 
L 1750 0 
L 1750 3872 
Q 1691 3813 1577 3736 
Q 1463 3659 1320 3584 
Q 1178 3509 1020 3443 
Q 863 3378 713 3341 
L 713 3859 
Q 881 3906 1070 3986 
Q 1259 4066 1442 4164 
Q 1625 4263 1787 4370 
Q 1950 4478 2069 4581 
L 2263 4581 
L 2263 0 
z
" transform="scale(0.015625)"/>
       </defs>
       <use xlink:href="#SegoeUI-31"/>
       <use xlink:href="#SegoeUI-2e" transform="translate(53.90625 0)"/>
       <use xlink:href="#SegoeUI-30" transform="translate(75.585938 0)"/>
      </g>
     </g>
    </g>
    <g id="ytick_4">
     <g id="line2d_22">
      <g>
       <use xlink:href="#m6be04ae593" x="41.223594" y="37.459416" style="fill: #6b7280; stroke: #6b7280"/>
      </g>
     </g>
     <g id="text_14">
      <!-- 1.5 -->
      <g style="fill: #303030" transform="translate(19.478594 41.531134) scale(0.11 -0.11)">
       <use xlink:href="#SegoeUI-31"/>
       <use xlink:href="#SegoeUI-2e" transform="translate(53.90625 0)"/>
       <use xlink:href="#SegoeUI-35" transform="translate(75.585938 0)"/>
      </g>
     </g>
    </g>
    <g id="text_15">
     <!-- input $u$ -->
     <g style="fill: #303030" transform="translate(12.833594 128.1135) rotate(-90) scale(0.115 -0.115)">
      <defs>
       <path id="SegoeUI-6e" d="M 3175 0 
L 2663 0 
L 2663 1825 
Q 2663 2844 1919 2844 
Q 1534 2844 1282 2555 
Q 1031 2266 1031 1825 
L 1031 0 
L 519 0 
L 519 3200 
L 1031 3200 
L 1031 2669 
L 1044 2669 
Q 1406 3275 2094 3275 
Q 2619 3275 2897 2936 
Q 3175 2597 3175 1956 
L 3175 0 
z
" transform="scale(0.015625)"/>
       <path id="SegoeUI-70" d="M 1044 463 
L 1031 463 
L 1031 -1472 
L 519 -1472 
L 519 3200 
L 1031 3200 
L 1031 2638 
L 1044 2638 
Q 1422 3275 2150 3275 
Q 2769 3275 3116 2845 
Q 3463 2416 3463 1694 
Q 3463 891 3072 408 
Q 2681 -75 2003 -75 
Q 1381 -75 1044 463 
z
M 1031 1753 
L 1031 1306 
Q 1031 909 1289 632 
Q 1547 356 1944 356 
Q 2409 356 2673 712 
Q 2938 1069 2938 1703 
Q 2938 2238 2691 2541 
Q 2444 2844 2022 2844 
Q 1575 2844 1303 2533 
Q 1031 2222 1031 1753 
z
" transform="scale(0.015625)"/>
       <path id="SegoeUI-75" d="M 3106 0 
L 2594 0 
L 2594 506 
L 2581 506 
Q 2263 -75 1594 -75 
Q 450 -75 450 1288 
L 450 3200 
L 959 3200 
L 959 1369 
Q 959 356 1734 356 
Q 2109 356 2351 632 
Q 2594 909 2594 1356 
L 2594 3200 
L 3106 3200 
L 3106 0 
z
" transform="scale(0.015625)"/>
       <path id="DejaVuSans-Oblique-75" d="M 428 1388 
L 838 3500 
L 1416 3500 
L 1006 1409 
Q 975 1256 961 1147 
Q 947 1038 947 966 
Q 947 700 1109 554 
Q 1272 409 1569 409 
Q 2031 409 2368 721 
Q 2706 1034 2809 1563 
L 3194 3500 
L 3769 3500 
L 3091 0 
L 2516 0 
L 2631 550 
Q 2388 244 2052 76 
Q 1716 -91 1338 -91 
Q 878 -91 622 161 
Q 366 413 366 863 
Q 366 956 381 1097 
Q 397 1238 428 1388 
z
" transform="scale(0.015625)"/>
      </defs>
      <use xlink:href="#SegoeUI-69" transform="translate(0 0.90625)"/>
      <use xlink:href="#SegoeUI-6e" transform="translate(24.21875 0.90625)"/>
      <use xlink:href="#SegoeUI-70" transform="translate(80.810547 0.90625)"/>
      <use xlink:href="#SegoeUI-75" transform="translate(139.599609 0.90625)"/>
      <use xlink:href="#SegoeUI-74" transform="translate(196.191406 0.90625)"/>
      <use xlink:href="#SegoeUI-20" transform="translate(230.078125 0.90625)"/>
      <use xlink:href="#DejaVuSans-Oblique-75" transform="translate(257.470703 0.90625)"/>
     </g>
    </g>
   </g>
   <g id="patch_3">
    <path d="M 41.223594 214.992 
L 41.223594 4.32 
" style="fill: none; stroke: #c9ccd3; stroke-linejoin: miter; stroke-linecap: square"/>
   </g>
   <g id="patch_4">
    <path d="M 41.223594 214.992 
L 398.343594 214.992 
" style="fill: none; stroke: #c9ccd3; stroke-linejoin: miter; stroke-linecap: square"/>
   </g>
   <g id="line2d_23">
    <path d="M 42.991515 77.344515 
L 47.859382 68.542428 
L 52.284715 61.010029 
L 56.267515 54.691189 
L 59.807782 49.491173 
L 62.905516 45.294044 
L 66.00325 41.449864 
L 69.100983 37.978234 
L 71.756183 35.311779 
L 74.411383 32.940027 
L 77.066584 30.869994 
L 79.721784 29.106977 
L 81.934451 27.874943 
L 84.147117 26.859755 
L 86.359784 26.061707 
L 88.572451 25.480259 
L 90.785118 25.114042 
L 92.997785 24.96087 
L 95.210452 25.017758 
L 97.423118 25.280935 
L 99.635785 25.74587 
L 101.848452 26.407294 
L 104.503652 27.451904 
L 107.158852 28.7592 
L 109.814053 30.316246 
L 112.469253 32.108874 
L 115.566986 34.477554 
L 118.66472 37.119973 
L 122.204987 40.43946 
L 126.187787 44.503591 
L 130.613121 49.352501 
L 135.923521 55.50865 
L 145.216722 66.704564 
L 153.624856 76.697747 
L 158.935256 82.668123 
L 163.36059 87.327609 
L 167.34339 91.217207 
L 170.883657 94.397823 
L 174.423924 97.291992 
L 177.964191 99.8793 
L 181.061924 101.878872 
L 184.159658 103.623556 
L 187.257391 105.108414 
L 190.355125 106.331298 
L 193.452859 107.292843 
L 196.550592 107.996429 
L 199.648326 108.44812 
L 202.746059 108.656579 
L 205.843793 108.632962 
L 208.941526 108.390781 
L 212.481793 107.866631 
L 216.02206 107.1043 
L 220.00486 105.999165 
L 224.430194 104.518556 
L 229.740594 102.484815 
L 238.591262 98.80066 
L 246.114329 95.76617 
L 250.982196 94.032362 
L 254.964996 92.825325 
L 258.947797 91.858728 
L 262.488063 91.235553 
L 265.585797 90.894238 
L 268.683531 90.759538 
L 271.781264 90.844674 
L 274.878998 91.160503 
L 277.976731 91.715396 
L 281.074465 92.515131 
L 284.172198 93.562816 
L 287.269932 94.858839 
L 290.367665 96.400833 
L 293.465399 98.183674 
L 296.563133 100.199508 
L 300.103399 102.77497 
L 303.643666 105.62099 
L 307.626467 109.115912 
L 312.0518 113.315351 
L 316.919667 118.24477 
L 323.557668 125.319149 
L 338.161269 141.023978 
L 343.029136 145.880375 
L 347.011936 149.570013 
L 350.552203 152.579858 
L 354.09247 155.291072 
L 357.190203 157.386415 
L 360.287937 159.196444 
L 362.943137 160.502784 
L 365.598337 161.568315 
L 368.253538 162.380506 
L 370.908738 162.928125 
L 373.121405 163.175219 
L 375.334071 163.226785 
L 377.546738 163.078623 
L 379.759405 162.727287 
L 381.972072 162.170106 
L 384.184739 161.405201 
L 386.397406 160.431501 
L 388.610072 159.248754 
L 391.265273 157.554379 
L 393.920473 155.562409 
L 396.575673 153.277128 
L 396.575673 153.277128 
" clip-path="url(#p6495833b5f)" style="fill: none; stroke: #4a5c79; stroke-width: 2.2; stroke-linecap: round"/>
   </g>
   <g id="line2d_24">
    <path d="M 42.991515 77.344515 
L 87.189534 77.344515 
L 87.189534 25.818337 
L 87.189534 25.818337 
L 131.387554 25.818337 
L 131.387554 50.230614 
L 131.387554 50.230614 
L 175.585574 50.230614 
L 175.585574 98.175647 
L 175.585574 98.175647 
L 219.783594 98.175647 
L 219.783594 106.066707 
L 219.783594 106.066707 
L 263.981614 106.066707 
L 263.981614 91.046121 
L 263.981614 91.046121 
L 308.179633 91.046121 
L 308.179633 109.623765 
L 308.179633 109.623765 
L 352.377653 109.623765 
L 352.377653 154.017741 
L 352.377653 154.017741 
L 396.575673 154.017741 
" clip-path="url(#p6495833b5f)" style="fill: none; stroke: #e37c47; stroke-width: 2.4; stroke-linejoin: miter"/>
   </g>
   <g id="legend_1">
    <g id="patch_5">
     <path d="M 47.873594 210.242 
L 180.968594 210.242 
Q 182.868594 210.242 182.868594 208.342 
L 182.868594 161.314031 
Q 182.868594 159.414031 180.968594 159.414031 
L 47.873594 159.414031 
Q 45.973594 159.414031 45.973594 161.314031 
L 45.973594 208.342 
Q 45.973594 210.242 47.873594 210.242 
z
" style="fill: #ffffff; opacity: 0.94; stroke: #c9ccd3; stroke-linejoin: miter"/>
    </g>
    <g id="line2d_25">
     <path d="M 52.623594 169.959031 
L 61.648594 169.959031 
L 70.673594 169.959031 
" style="fill: none; stroke: #4a5c79; stroke-width: 2.2; stroke-linecap: round"/>
    </g>
    <g id="text_16">
     <!-- continuous input $u(t)$ -->
     <g style="fill: #303030" transform="translate(78.273594 173.284031) scale(0.095 -0.095)">
      <defs>
       <path id="SegoeUI-63" d="M 2700 147 
Q 2331 -75 1825 -75 
Q 1141 -75 720 370 
Q 300 816 300 1525 
Q 300 2316 753 2795 
Q 1206 3275 1963 3275 
Q 2384 3275 2706 3119 
L 2706 2594 
Q 2350 2844 1944 2844 
Q 1453 2844 1139 2492 
Q 825 2141 825 1569 
Q 825 1006 1120 681 
Q 1416 356 1913 356 
Q 2331 356 2700 634 
L 2700 147 
z
" transform="scale(0.015625)"/>
       <path id="SegoeUI-6f" d="M 1856 -75 
Q 1147 -75 723 373 
Q 300 822 300 1563 
Q 300 2369 740 2822 
Q 1181 3275 1931 3275 
Q 2647 3275 3048 2834 
Q 3450 2394 3450 1613 
Q 3450 847 3017 386 
Q 2584 -75 1856 -75 
z
M 1894 2844 
Q 1400 2844 1112 2508 
Q 825 2172 825 1581 
Q 825 1013 1115 684 
Q 1406 356 1894 356 
Q 2391 356 2658 678 
Q 2925 1000 2925 1594 
Q 2925 2194 2658 2519 
Q 2391 2844 1894 2844 
z
" transform="scale(0.015625)"/>
       <path id="SegoeUI-73" d="M 325 116 
L 325 666 
Q 744 356 1247 356 
Q 1922 356 1922 806 
Q 1922 934 1864 1023 
Q 1806 1113 1707 1181 
Q 1609 1250 1476 1304 
Q 1344 1359 1191 1419 
Q 978 1503 817 1589 
Q 656 1675 548 1783 
Q 441 1891 386 2028 
Q 331 2166 331 2350 
Q 331 2575 434 2748 
Q 538 2922 709 3039 
Q 881 3156 1101 3215 
Q 1322 3275 1556 3275 
Q 1972 3275 2300 3131 
L 2300 2613 
Q 1947 2844 1488 2844 
Q 1344 2844 1228 2811 
Q 1113 2778 1030 2718 
Q 947 2659 901 2576 
Q 856 2494 856 2394 
Q 856 2269 901 2184 
Q 947 2100 1034 2034 
Q 1122 1969 1247 1916 
Q 1372 1863 1531 1800 
Q 1744 1719 1912 1633 
Q 2081 1547 2200 1439 
Q 2319 1331 2383 1190 
Q 2447 1050 2447 856 
Q 2447 619 2342 444 
Q 2238 269 2063 153 
Q 1888 38 1659 -18 
Q 1431 -75 1181 -75 
Q 688 -75 325 116 
z
" transform="scale(0.015625)"/>
       <path id="DejaVuSans-28" d="M 1984 4856 
Q 1566 4138 1362 3434 
Q 1159 2731 1159 2009 
Q 1159 1288 1364 580 
Q 1569 -128 1984 -844 
L 1484 -844 
Q 1016 -109 783 600 
Q 550 1309 550 2009 
Q 550 2706 781 3412 
Q 1013 4119 1484 4856 
L 1984 4856 
z
" transform="scale(0.015625)"/>
       <path id="DejaVuSans-29" d="M 513 4856 
L 1013 4856 
Q 1481 4119 1714 3412 
Q 1947 2706 1947 2009 
Q 1947 1309 1714 600 
Q 1481 -109 1013 -844 
L 513 -844 
Q 928 -128 1133 580 
Q 1338 1288 1338 2009 
Q 1338 2731 1133 3434 
Q 928 4138 513 4856 
z
" transform="scale(0.015625)"/>
      </defs>
      <use xlink:href="#SegoeUI-63" transform="translate(0 0.125)"/>
      <use xlink:href="#SegoeUI-6f" transform="translate(46.191406 0.125)"/>
      <use xlink:href="#SegoeUI-6e" transform="translate(104.785156 0.125)"/>
      <use xlink:href="#SegoeUI-74" transform="translate(161.376953 0.125)"/>
      <use xlink:href="#SegoeUI-69" transform="translate(195.263672 0.125)"/>
      <use xlink:href="#SegoeUI-6e" transform="translate(219.482422 0.125)"/>
      <use xlink:href="#SegoeUI-75" transform="translate(276.074219 0.125)"/>
      <use xlink:href="#SegoeUI-6f" transform="translate(332.666016 0.125)"/>
      <use xlink:href="#SegoeUI-75" transform="translate(391.259766 0.125)"/>
      <use xlink:href="#SegoeUI-73" transform="translate(447.851562 0.125)"/>
      <use xlink:href="#SegoeUI-20" transform="translate(490.283203 0.125)"/>
      <use xlink:href="#SegoeUI-69" transform="translate(517.675781 0.125)"/>
      <use xlink:href="#SegoeUI-6e" transform="translate(541.894531 0.125)"/>
      <use xlink:href="#SegoeUI-70" transform="translate(598.486328 0.125)"/>
      <use xlink:href="#SegoeUI-75" transform="translate(657.275391 0.125)"/>
      <use xlink:href="#SegoeUI-74" transform="translate(713.867188 0.125)"/>
      <use xlink:href="#SegoeUI-20" transform="translate(747.753906 0.125)"/>
      <use xlink:href="#DejaVuSans-Oblique-75" transform="translate(775.146484 0.125)"/>
      <use xlink:href="#DejaVuSans-28" transform="translate(838.525391 0.125)"/>
      <use xlink:href="#DejaVuSans-Oblique-74" transform="translate(877.539062 0.125)"/>
      <use xlink:href="#DejaVuSans-29" transform="translate(916.748047 0.125)"/>
     </g>
    </g>
    <g id="line2d_26">
     <path d="M 52.623594 183.927 
L 61.648594 183.927 
L 70.673594 183.927 
" style="fill: none; stroke: #e37c47; stroke-width: 2.4; stroke-linejoin: miter"/>
    </g>
    <g id="text_17">
     <!-- zero-order hold $u_{\mathrm{zoh}}(t)$ -->
     <g style="fill: #303030" transform="translate(78.273594 187.252) scale(0.095 -0.095)">
      <defs>
       <path id="SegoeUI-7a" d="M 2750 3053 
L 856 438 
L 2731 438 
L 2731 0 
L 103 0 
L 103 159 
L 1997 2763 
L 281 2763 
L 281 3200 
L 2750 3200 
L 2750 3053 
z
" transform="scale(0.015625)"/>
       <path id="SegoeUI-72" d="M 2188 2681 
Q 2053 2784 1800 2784 
Q 1472 2784 1251 2475 
Q 1031 2166 1031 1631 
L 1031 0 
L 519 0 
L 519 3200 
L 1031 3200 
L 1031 2541 
L 1044 2541 
Q 1153 2878 1378 3067 
Q 1603 3256 1881 3256 
Q 2081 3256 2188 3213 
L 2188 2681 
z
" transform="scale(0.015625)"/>
       <path id="SegoeUI-2d" d="M 2156 1581 
L 450 1581 
L 450 1984 
L 2156 1984 
L 2156 1581 
z
" transform="scale(0.015625)"/>
       <path id="SegoeUI-64" d="M 3250 0 
L 2738 0 
L 2738 544 
L 2725 544 
Q 2369 -75 1625 -75 
Q 1022 -75 661 354 
Q 300 784 300 1525 
Q 300 2319 700 2797 
Q 1100 3275 1766 3275 
Q 2425 3275 2725 2756 
L 2738 2756 
L 2738 4738 
L 3250 4738 
L 3250 0 
z
M 2738 1447 
L 2738 1919 
Q 2738 2306 2481 2575 
Q 2225 2844 1831 2844 
Q 1363 2844 1094 2500 
Q 825 2156 825 1550 
Q 825 997 1083 676 
Q 1341 356 1775 356 
Q 2203 356 2470 665 
Q 2738 975 2738 1447 
z
" transform="scale(0.015625)"/>
       <path id="SegoeUI-68" d="M 3175 0 
L 2663 0 
L 2663 1844 
Q 2663 2844 1919 2844 
Q 1544 2844 1287 2555 
Q 1031 2266 1031 1813 
L 1031 0 
L 519 0 
L 519 4738 
L 1031 4738 
L 1031 2669 
L 1044 2669 
Q 1413 3275 2094 3275 
Q 3175 3275 3175 1972 
L 3175 0 
z
" transform="scale(0.015625)"/>
       <path id="SegoeUI-6c" d="M 1031 0 
L 519 0 
L 519 4738 
L 1031 4738 
L 1031 0 
z
" transform="scale(0.015625)"/>
       <path id="DejaVuSans-7a" d="M 353 3500 
L 3084 3500 
L 3084 2975 
L 922 459 
L 3084 459 
L 3084 0 
L 275 0 
L 275 525 
L 2438 3041 
L 353 3041 
L 353 3500 
z
" transform="scale(0.015625)"/>
       <path id="DejaVuSans-6f" d="M 1959 3097 
Q 1497 3097 1228 2736 
Q 959 2375 959 1747 
Q 959 1119 1226 758 
Q 1494 397 1959 397 
Q 2419 397 2687 759 
Q 2956 1122 2956 1747 
Q 2956 2369 2687 2733 
Q 2419 3097 1959 3097 
z
M 1959 3584 
Q 2709 3584 3137 3096 
Q 3566 2609 3566 1747 
Q 3566 888 3137 398 
Q 2709 -91 1959 -91 
Q 1206 -91 779 398 
Q 353 888 353 1747 
Q 353 2609 779 3096 
Q 1206 3584 1959 3584 
z
" transform="scale(0.015625)"/>
       <path id="DejaVuSans-68" d="M 3513 2113 
L 3513 0 
L 2938 0 
L 2938 2094 
Q 2938 2591 2744 2837 
Q 2550 3084 2163 3084 
Q 1697 3084 1428 2787 
Q 1159 2491 1159 1978 
L 1159 0 
L 581 0 
L 581 4863 
L 1159 4863 
L 1159 2956 
Q 1366 3272 1645 3428 
Q 1925 3584 2291 3584 
Q 2894 3584 3203 3211 
Q 3513 2838 3513 2113 
z
" transform="scale(0.015625)"/>
      </defs>
      <use xlink:href="#SegoeUI-7a" transform="translate(0 0.125)"/>
      <use xlink:href="#SegoeUI-65" transform="translate(45.214844 0.125)"/>
      <use xlink:href="#SegoeUI-72" transform="translate(97.509766 0.125)"/>
      <use xlink:href="#SegoeUI-6f" transform="translate(132.275391 0.125)"/>
      <use xlink:href="#SegoeUI-2d" transform="translate(190.869141 0.125)"/>
      <use xlink:href="#SegoeUI-6f" transform="translate(230.859375 0.125)"/>
      <use xlink:href="#SegoeUI-72" transform="translate(289.453125 0.125)"/>
      <use xlink:href="#SegoeUI-64" transform="translate(324.21875 0.125)"/>
      <use xlink:href="#SegoeUI-65" transform="translate(383.105469 0.125)"/>
      <use xlink:href="#SegoeUI-72" transform="translate(435.400391 0.125)"/>
      <use xlink:href="#SegoeUI-20" transform="translate(470.166016 0.125)"/>
      <use xlink:href="#SegoeUI-68" transform="translate(497.558594 0.125)"/>
      <use xlink:href="#SegoeUI-6f" transform="translate(554.150391 0.125)"/>
      <use xlink:href="#SegoeUI-6c" transform="translate(612.744141 0.125)"/>
      <use xlink:href="#SegoeUI-64" transform="translate(636.962891 0.125)"/>
      <use xlink:href="#SegoeUI-20" transform="translate(695.849609 0.125)"/>
      <use xlink:href="#DejaVuSans-Oblique-75" transform="translate(723.242188 0.125)"/>
      <use xlink:href="#DejaVuSans-7a" transform="translate(786.621094 -16.28125) scale(0.7)"/>
      <use xlink:href="#DejaVuSans-6f" transform="translate(823.364258 -16.28125) scale(0.7)"/>
      <use xlink:href="#DejaVuSans-68" transform="translate(866.191406 -16.28125) scale(0.7)"/>
      <use xlink:href="#DejaVuSans-28" transform="translate(913.291016 0.125)"/>
      <use xlink:href="#DejaVuSans-Oblique-74" transform="translate(952.304688 0.125)"/>
      <use xlink:href="#DejaVuSans-29" transform="translate(991.513672 0.125)"/>
     </g>
    </g>
    <g id="line2d_27">
     <defs>
      <path id="mb8f9498f8b" d="M 0 2.75 
C 0.729309 2.75 1.428845 2.460243 1.944544 1.944544 
C 2.460243 1.428845 2.75 0.729309 2.75 0 
C 2.75 -0.729309 2.460243 -1.428845 1.944544 -1.944544 
C 1.428845 -2.460243 0.729309 -2.75 0 -2.75 
C -0.729309 -2.75 -1.428845 -2.460243 -1.944544 -1.944544 
C -2.460243 -1.428845 -2.75 -0.729309 -2.75 0 
C -2.75 0.729309 -2.460243 1.428845 -1.944544 1.944544 
C -1.428845 2.460243 -0.729309 2.75 0 2.75 
z
" style="stroke: #ffffff; stroke-width: 1.2"/>
     </defs>
     <g>
      <use xlink:href="#mb8f9498f8b" x="61.648594" y="198.082" style="fill: #e37c47; stroke: #ffffff; stroke-width: 1.2"/>
     </g>
    </g>
    <g id="text_18">
     <!-- samples $u_k=u(k\Delta)$ -->
     <g style="fill: #303030" transform="translate(78.273594 201.407) scale(0.095 -0.095)">
      <defs>
       <path id="SegoeUI-61" d="M 2809 0 
L 2297 0 
L 2297 500 
L 2284 500 
Q 1950 -75 1300 -75 
Q 822 -75 551 178 
Q 281 431 281 850 
Q 281 1747 1338 1894 
L 2297 2028 
Q 2297 2844 1638 2844 
Q 1059 2844 594 2450 
L 594 2975 
Q 1066 3275 1681 3275 
Q 2809 3275 2809 2081 
L 2809 0 
z
M 2297 1619 
L 1525 1513 
Q 1169 1463 987 1336 
Q 806 1209 806 888 
Q 806 653 973 504 
Q 1141 356 1419 356 
Q 1800 356 2048 623 
Q 2297 891 2297 1300 
L 2297 1619 
z
" transform="scale(0.015625)"/>
       <path id="DejaVuSans-Oblique-6b" d="M 1172 4863 
L 1747 4863 
L 1197 2028 
L 3169 3500 
L 3916 3500 
L 1716 1825 
L 3322 0 
L 2625 0 
L 1131 1709 
L 800 0 
L 225 0 
L 1172 4863 
z
" transform="scale(0.015625)"/>
       <path id="DejaVuSans-3d" d="M 678 2906 
L 4684 2906 
L 4684 2381 
L 678 2381 
L 678 2906 
z
M 678 1631 
L 4684 1631 
L 4684 1100 
L 678 1100 
L 678 1631 
z
" transform="scale(0.015625)"/>
      </defs>
      <use xlink:href="#SegoeUI-73" transform="translate(0 0.015625)"/>
      <use xlink:href="#SegoeUI-61" transform="translate(42.431641 0.015625)"/>
      <use xlink:href="#SegoeUI-6d" transform="translate(93.310547 0.015625)"/>
      <use xlink:href="#SegoeUI-70" transform="translate(179.443359 0.015625)"/>
      <use xlink:href="#SegoeUI-6c" transform="translate(238.232422 0.015625)"/>
      <use xlink:href="#SegoeUI-65" transform="translate(262.451172 0.015625)"/>
      <use xlink:href="#SegoeUI-73" transform="translate(314.746094 0.015625)"/>
      <use xlink:href="#SegoeUI-20" transform="translate(357.177734 0.015625)"/>
      <use xlink:href="#DejaVuSans-Oblique-75" transform="translate(384.570312 0.015625)"/>
      <use xlink:href="#DejaVuSans-Oblique-6b" transform="translate(447.949219 -16.390625) scale(0.7)"/>
      <use xlink:href="#DejaVuSans-3d" transform="translate(510.703125 0.015625)"/>
      <use xlink:href="#DejaVuSans-Oblique-75" transform="translate(613.974609 0.015625)"/>
      <use xlink:href="#DejaVuSans-28" transform="translate(677.353516 0.015625)"/>
      <use xlink:href="#DejaVuSans-Oblique-6b" transform="translate(716.367188 0.015625)"/>
      <use xlink:href="#DejaVuSans-394" transform="translate(774.277344 0.015625)"/>
      <use xlink:href="#DejaVuSans-29" transform="translate(842.685547 0.015625)"/>
     </g>
    </g>
   </g>
   <g id="line2d_28">
    <g clip-path="url(#p6495833b5f)">
     <use xlink:href="#mb8f9498f8b" x="42.991515" y="77.344515" style="fill: #e37c47; stroke: #ffffff; stroke-width: 1.2"/>
     <use xlink:href="#mb8f9498f8b" x="87.189534" y="25.818337" style="fill: #e37c47; stroke: #ffffff; stroke-width: 1.2"/>
     <use xlink:href="#mb8f9498f8b" x="131.387554" y="50.230614" style="fill: #e37c47; stroke: #ffffff; stroke-width: 1.2"/>
     <use xlink:href="#mb8f9498f8b" x="175.585574" y="98.175647" style="fill: #e37c47; stroke: #ffffff; stroke-width: 1.2"/>
     <use xlink:href="#mb8f9498f8b" x="219.783594" y="106.066707" style="fill: #e37c47; stroke: #ffffff; stroke-width: 1.2"/>
     <use xlink:href="#mb8f9498f8b" x="263.981614" y="91.046121" style="fill: #e37c47; stroke: #ffffff; stroke-width: 1.2"/>
     <use xlink:href="#mb8f9498f8b" x="308.179633" y="109.623765" style="fill: #e37c47; stroke: #ffffff; stroke-width: 1.2"/>
     <use xlink:href="#mb8f9498f8b" x="352.377653" y="154.017741" style="fill: #e37c47; stroke: #ffffff; stroke-width: 1.2"/>
    </g>
   </g>
  </g>
 </g>
 <defs>
  <clipPath id="p6495833b5f">
   <rect x="41.223594" y="4.32" width="357.12" height="210.672"/>
  </clipPath>
 </defs>
</svg>
