<?xml version="1.0" encoding="utf-8" standalone="no"?>
<!DOCTYPE svg PUBLIC "-//W3C//DTD SVG 1.1//EN"
  "http://www.w3.org/Graphics/SVG/1.1/DTD/svg11.dtd">
<svg xmlns:xlink="http://www.w3.org/1999/xlink" width="638.4185pt" height="235.072031pt" viewBox="0 0 638.4185 235.072031" xmlns="http://www.w3.org/2000/svg" version="1.1">
 <metadata>
  <rdf:RDF xmlns:dc="http://purl.org/dc/elements/1.1/" xmlns:cc="http://creativecommons.org/ns#" xmlns:rdf="http://www.w3.org/1999/02/22-rdf-syntax-ns#">
   <cc:Work>
    <dc:type rdf:resource="http://purl.org/dc/dcmitype/StillImage"/>
    <dc:date>2026-06-05T10:36:52.357269</dc:date>
    <dc:format>image/svg+xml</dc:format>
    <dc:creator>
     <cc:Agent>
      <dc:title>Matplotlib v3.10.3, https://matplotlib.org/</dc:title>
     </cc:Agent>
    </dc:creator>
   </cc:Work>
  </rdf:RDF>
 </metadata>
 <defs>
  <style type="text/css">*{stroke-linejoin: round; stroke-linecap: butt}</style>
 </defs>
 <g id="figure_1">
  <g id="patch_1">
   <path d="M 0 235.072031 
L 638.4185 235.072031 
L 638.4185 0 
L 0 0 
z
" style="fill: #ffffff"/>
  </g>
  <g id="axes_1">
   <g id="patch_2">
    <path d="M 11.4425 197.42 
L 183.130735 197.42 
L 183.130735 22.28 
L 11.4425 22.28 
z
" style="fill: #ffffff"/>
   </g>
   <g id="line2d_1">
    <path d="M 11.4425 114.626545 
L 183.130735 114.626545 
" clip-path="url(#p2e1953a464)" style="fill: none; stroke: #c9ccd3; stroke-linecap: round"/>
   </g>
   <g id="matplotlib.axis_1">
    <g id="xtick_1">
     <g id="line2d_2">
      <defs>
       <path id="mbeb86bf775" d="M 0 0 
L 0 4 
" style="stroke: #6b7280"/>
      </defs>
      <g>
       <use xlink:href="#mbeb86bf775" x="11.4425" y="197.42" style="fill: #6b7280; stroke: #6b7280"/>
      </g>
     </g>
     <g id="text_1">
      <!-- 0.0 -->
      <g style="fill: #303030" transform="translate(4.32 213.063437) scale(0.11 -0.11)">
       <defs>
        <path id="SegoeUI-30" d="M 3188 2259 
Q 3188 1697 3086 1262 
Q 2984 828 2792 529 
Q 2600 231 2320 76 
Q 2041 -78 1684 -78 
Q 1347 -78 1083 70 
Q 819 219 637 503 
Q 456 788 362 1202 
Q 269 1616 269 2150 
Q 269 2738 367 3188 
Q 466 3638 656 3942 
Q 847 4247 1130 4401 
Q 1413 4556 1778 4556 
Q 3188 4556 3188 2259 
z
M 2663 2209 
Q 2663 4122 1753 4122 
Q 794 4122 794 2175 
Q 794 359 1734 359 
Q 2663 359 2663 2209 
z
" transform="scale(0.015625)"/>
        <path id="SegoeUI-2e" d="M 697 -69 
Q 553 -69 451 34 
Q 350 138 350 281 
Q 350 425 451 529 
Q 553 634 697 634 
Q 844 634 947 529 
Q 1050 425 1050 281 
Q 1050 138 947 34 
Q 844 -69 697 -69 
z
" transform="scale(0.015625)"/>
       </defs>
       <use xlink:href="#SegoeUI-30"/>
       <use xlink:href="#SegoeUI-2e" transform="translate(53.90625 0)"/>
       <use xlink:href="#SegoeUI-30" transform="translate(75.585938 0)"/>
      </g>
     </g>
    </g>
    <g id="xtick_2">
     <g id="line2d_3">
      <g>
       <use xlink:href="#mbeb86bf775" x="97.286618" y="197.42" style="fill: #6b7280; stroke: #6b7280"/>
      </g>
     </g>
     <g id="text_2">
      <!-- 0.5 -->
      <g style="fill: #303030" transform="translate(90.164118 213.063437) scale(0.11 -0.11)">
       <defs>
        <path id="SegoeUI-35" d="M 3028 1369 
Q 3028 1041 2915 775 
Q 2803 509 2595 318 
Q 2388 128 2094 25 
Q 1800 -78 1441 -78 
Q 816 -78 513 109 
L 513 653 
Q 969 359 1447 359 
Q 1691 359 1886 431 
Q 2081 503 2218 631 
Q 2356 759 2429 940 
Q 2503 1122 2503 1338 
Q 2503 1775 2209 2023 
Q 1916 2272 1356 2272 
Q 1266 2272 1166 2269 
Q 1066 2266 966 2261 
Q 866 2256 770 2250 
Q 675 2244 597 2234 
L 750 4481 
L 2822 4481 
L 2822 4019 
L 1194 4019 
L 1103 2703 
Q 1203 2709 1315 2714 
Q 1428 2719 1516 2719 
Q 1872 2719 2153 2625 
Q 2434 2531 2629 2357 
Q 2825 2184 2926 1932 
Q 3028 1681 3028 1369 
z
" transform="scale(0.015625)"/>
       </defs>
       <use xlink:href="#SegoeUI-30"/>
       <use xlink:href="#SegoeUI-2e" transform="translate(53.90625 0)"/>
       <use xlink:href="#SegoeUI-35" transform="translate(75.585938 0)"/>
      </g>
     </g>
    </g>
    <g id="xtick_3">
     <g id="line2d_4">
      <g>
       <use xlink:href="#mbeb86bf775" x="183.130735" y="197.42" style="fill: #6b7280; stroke: #6b7280"/>
      </g>
     </g>
     <g id="text_3">
      <!-- 1.0 -->
      <g style="fill: #303030" transform="translate(176.008235 213.063437) scale(0.11 -0.11)">
       <defs>
        <path id="SegoeUI-31" d="M 2263 0 
L 1750 0 
L 1750 3872 
Q 1691 3813 1577 3736 
Q 1463 3659 1320 3584 
Q 1178 3509 1020 3443 
Q 863 3378 713 3341 
L 713 3859 
Q 881 3906 1070 3986 
Q 1259 4066 1442 4164 
Q 1625 4263 1787 4370 
Q 1950 4478 2069 4581 
L 2263 4581 
L 2263 0 
z
" transform="scale(0.015625)"/>
       </defs>
       <use xlink:href="#SegoeUI-31"/>
       <use xlink:href="#SegoeUI-2e" transform="translate(53.90625 0)"/>
       <use xlink:href="#SegoeUI-30" transform="translate(75.585938 0)"/>
      </g>
     </g>
    </g>
    <g id="text_4">
     <!-- $r\in[0,1]$ -->
     <g style="fill: #303030" transform="translate(72.906618 228.107031) scale(0.115 -0.115)">
      <defs>
       <path id="DejaVuSans-Oblique-72" d="M 2853 2969 
Q 2766 3016 2653 3041 
Q 2541 3066 2413 3066 
Q 1953 3066 1609 2717 
Q 1266 2369 1153 1784 
L 800 0 
L 225 0 
L 909 3500 
L 1484 3500 
L 1375 2956 
Q 1603 3259 1920 3421 
Q 2238 3584 2597 3584 
Q 2691 3584 2781 3573 
Q 2872 3563 2963 3538 
L 2853 2969 
z
" transform="scale(0.015625)"/>
       <path id="DejaVuSans-2208" d="M 1072 1959 
Q 1094 1728 1291 1353 
Q 1522 919 1959 675 
Q 2388 438 2850 434 
L 5028 434 
L 5028 -63 
L 2850 -63 
Q 2250 -63 1695 246 
Q 1141 556 844 1106 
Q 547 1656 547 2241 
Q 547 2819 844 3369 
Q 1141 3919 1695 4231 
Q 2250 4544 2850 4544 
L 5028 4544 
L 5028 4047 
L 2850 4047 
Q 2388 4044 1959 3803 
Q 1525 3556 1291 3125 
Q 1091 2750 1063 2459 
L 5028 2459 
L 5028 1959 
L 1072 1959 
z
" transform="scale(0.015625)"/>
       <path id="DejaVuSans-5b" d="M 550 4863 
L 1875 4863 
L 1875 4416 
L 1125 4416 
L 1125 -397 
L 1875 -397 
L 1875 -844 
L 550 -844 
L 550 4863 
z
" transform="scale(0.015625)"/>
       <path id="DejaVuSans-30" d="M 2034 4250 
Q 1547 4250 1301 3770 
Q 1056 3291 1056 2328 
Q 1056 1369 1301 889 
Q 1547 409 2034 409 
Q 2525 409 2770 889 
Q 3016 1369 3016 2328 
Q 3016 3291 2770 3770 
Q 2525 4250 2034 4250 
z
M 2034 4750 
Q 2819 4750 3233 4129 
Q 3647 3509 3647 2328 
Q 3647 1150 3233 529 
Q 2819 -91 2034 -91 
Q 1250 -91 836 529 
Q 422 1150 422 2328 
Q 422 3509 836 4129 
Q 1250 4750 2034 4750 
z
" transform="scale(0.015625)"/>
       <path id="DejaVuSans-2c" d="M 750 794 
L 1409 794 
L 1409 256 
L 897 -744 
L 494 -744 
L 750 256 
L 750 794 
z
" transform="scale(0.015625)"/>
       <path id="DejaVuSans-31" d="M 794 531 
L 1825 531 
L 1825 4091 
L 703 3866 
L 703 4441 
L 1819 4666 
L 2450 4666 
L 2450 531 
L 3481 531 
L 3481 0 
L 794 0 
L 794 531 
z
" transform="scale(0.015625)"/>
       <path id="DejaVuSans-5d" d="M 1947 4863 
L 1947 -844 
L 622 -844 
L 622 -397 
L 1369 -397 
L 1369 4416 
L 622 4416 
L 622 4863 
L 1947 4863 
z
" transform="scale(0.015625)"/>
      </defs>
      <use xlink:href="#DejaVuSans-Oblique-72" transform="translate(0 0.015625)"/>
      <use xlink:href="#DejaVuSans-2208" transform="translate(60.595703 0.015625)"/>
      <use xlink:href="#DejaVuSans-5b" transform="translate(167.1875 0.015625)"/>
      <use xlink:href="#DejaVuSans-30" transform="translate(206.201172 0.015625)"/>
      <use xlink:href="#DejaVuSans-2c" transform="translate(269.824219 0.015625)"/>
      <use xlink:href="#DejaVuSans-31" transform="translate(321.09375 0.015625)"/>
      <use xlink:href="#DejaVuSans-5d" transform="translate(384.716797 0.015625)"/>
     </g>
    </g>
   </g>
   <g id="matplotlib.axis_2"/>
   <g id="patch_3">
    <path d="M 11.4425 197.42 
L 183.130735 197.42 
" style="fill: none; stroke: #c9ccd3; stroke-linejoin: miter; stroke-linecap: square"/>
   </g>
   <g id="text_5">
    <!-- (a)  basis  $g_0,\dots,g_{N-1}$ -->
    <g style="fill: #303030" transform="translate(34.826618 14.28) scale(0.12 -0.12)">
     <defs>
      <path id="SegoeUI-28" d="M 1863 -1019 
L 1406 -1019 
Q 438 88 438 1709 
Q 438 3338 1406 4481 
L 1869 4481 
Q 888 3294 888 1716 
Q 888 150 1863 -1019 
z
" transform="scale(0.015625)"/>
      <path id="SegoeUI-61" d="M 2809 0 
L 2297 0 
L 2297 500 
L 2284 500 
Q 1950 -75 1300 -75 
Q 822 -75 551 178 
Q 281 431 281 850 
Q 281 1747 1338 1894 
L 2297 2028 
Q 2297 2844 1638 2844 
Q 1059 2844 594 2450 
L 594 2975 
Q 1066 3275 1681 3275 
Q 2809 3275 2809 2081 
L 2809 0 
z
M 2297 1619 
L 1525 1513 
Q 1169 1463 987 1336 
Q 806 1209 806 888 
Q 806 653 973 504 
Q 1141 356 1419 356 
Q 1800 356 2048 623 
Q 2297 891 2297 1300 
L 2297 1619 
z
" transform="scale(0.015625)"/>
      <path id="SegoeUI-29" d="M 531 -1019 
L 75 -1019 
Q 1050 150 1050 1716 
Q 1050 3294 69 4481 
L 531 4481 
Q 1506 3338 1506 1709 
Q 1506 88 531 -1019 
z
" transform="scale(0.015625)"/>
      <path id="SegoeUI-20" transform="scale(0.015625)"/>
      <path id="SegoeUI-62" d="M 1044 463 
L 1031 463 
L 1031 0 
L 519 0 
L 519 4738 
L 1031 4738 
L 1031 2638 
L 1044 2638 
Q 1422 3275 2150 3275 
Q 2766 3275 3114 2845 
Q 3463 2416 3463 1694 
Q 3463 891 3072 408 
Q 2681 -75 2003 -75 
Q 1369 -75 1044 463 
z
M 1031 1753 
L 1031 1306 
Q 1031 909 1289 632 
Q 1547 356 1944 356 
Q 2409 356 2673 712 
Q 2938 1069 2938 1703 
Q 2938 2238 2691 2541 
Q 2444 2844 2022 2844 
Q 1575 2844 1303 2533 
Q 1031 2222 1031 1753 
z
" transform="scale(0.015625)"/>
      <path id="SegoeUI-73" d="M 325 116 
L 325 666 
Q 744 356 1247 356 
Q 1922 356 1922 806 
Q 1922 934 1864 1023 
Q 1806 1113 1707 1181 
Q 1609 1250 1476 1304 
Q 1344 1359 1191 1419 
Q 978 1503 817 1589 
Q 656 1675 548 1783 
Q 441 1891 386 2028 
Q 331 2166 331 2350 
Q 331 2575 434 2748 
Q 538 2922 709 3039 
Q 881 3156 1101 3215 
Q 1322 3275 1556 3275 
Q 1972 3275 2300 3131 
L 2300 2613 
Q 1947 2844 1488 2844 
Q 1344 2844 1228 2811 
Q 1113 2778 1030 2718 
Q 947 2659 901 2576 
Q 856 2494 856 2394 
Q 856 2269 901 2184 
Q 947 2100 1034 2034 
Q 1122 1969 1247 1916 
Q 1372 1863 1531 1800 
Q 1744 1719 1912 1633 
Q 2081 1547 2200 1439 
Q 2319 1331 2383 1190 
Q 2447 1050 2447 856 
Q 2447 619 2342 444 
Q 2238 269 2063 153 
Q 1888 38 1659 -18 
Q 1431 -75 1181 -75 
Q 688 -75 325 116 
z
" transform="scale(0.015625)"/>
      <path id="SegoeUI-69" d="M 781 4013 
Q 644 4013 547 4106 
Q 450 4200 450 4344 
Q 450 4488 547 4583 
Q 644 4678 781 4678 
Q 922 4678 1020 4583 
Q 1119 4488 1119 4344 
Q 1119 4206 1020 4109 
Q 922 4013 781 4013 
z
M 1031 0 
L 519 0 
L 519 3200 
L 1031 3200 
L 1031 0 
z
" transform="scale(0.015625)"/>
      <path id="DejaVuSans-Oblique-67" d="M 3816 3500 
L 3219 434 
Q 3047 -456 2561 -893 
Q 2075 -1331 1253 -1331 
Q 950 -1331 690 -1286 
Q 431 -1241 206 -1147 
L 313 -588 
Q 525 -725 762 -790 
Q 1000 -856 1269 -856 
Q 1816 -856 2167 -557 
Q 2519 -259 2631 300 
L 2681 563 
Q 2441 288 2122 144 
Q 1803 0 1434 0 
Q 903 0 598 351 
Q 294 703 294 1319 
Q 294 1803 478 2267 
Q 663 2731 997 3091 
Q 1219 3328 1514 3456 
Q 1809 3584 2131 3584 
Q 2484 3584 2746 3420 
Q 3009 3256 3138 2956 
L 3238 3500 
L 3816 3500 
z
M 2950 2216 
Q 2950 2641 2750 2872 
Q 2550 3103 2181 3103 
Q 1953 3103 1747 3012 
Q 1541 2922 1394 2759 
Q 1156 2491 1023 2127 
Q 891 1763 891 1375 
Q 891 944 1092 712 
Q 1294 481 1672 481 
Q 2219 481 2584 976 
Q 2950 1472 2950 2216 
z
" transform="scale(0.015625)"/>
      <path id="DejaVuSans-2026" d="M 2869 794 
L 3531 794 
L 3531 0 
L 2869 0 
L 2869 794 
z
M 4997 794 
L 5663 794 
L 5663 0 
L 4997 0 
L 4997 794 
z
M 738 794 
L 1403 794 
L 1403 0 
L 738 0 
L 738 794 
z
" transform="scale(0.015625)"/>
      <path id="DejaVuSans-Oblique-4e" d="M 1081 4666 
L 1931 4666 
L 3219 666 
L 4000 4666 
L 4616 4666 
L 3706 0 
L 2853 0 
L 1569 4025 
L 788 0 
L 172 0 
L 1081 4666 
z
" transform="scale(0.015625)"/>
      <path id="DejaVuSans-2212" d="M 678 2272 
L 4684 2272 
L 4684 1741 
L 678 1741 
L 678 2272 
z
" transform="scale(0.015625)"/>
     </defs>
     <use xlink:href="#SegoeUI-28" transform="translate(0 0.96875)"/>
     <use xlink:href="#SegoeUI-61" transform="translate(30.175781 0.96875)"/>
     <use xlink:href="#SegoeUI-29" transform="translate(81.054688 0.96875)"/>
     <use xlink:href="#SegoeUI-20" transform="translate(111.230469 0.96875)"/>
     <use xlink:href="#SegoeUI-20" transform="translate(138.623047 0.96875)"/>
     <use xlink:href="#SegoeUI-62" transform="translate(166.015625 0.96875)"/>
     <use xlink:href="#SegoeUI-61" transform="translate(224.804688 0.96875)"/>
     <use xlink:href="#SegoeUI-73" transform="translate(275.683594 0.96875)"/>
     <use xlink:href="#SegoeUI-69" transform="translate(318.115234 0.96875)"/>
     <use xlink:href="#SegoeUI-73" transform="translate(342.333984 0.96875)"/>
     <use xlink:href="#SegoeUI-20" transform="translate(384.765625 0.96875)"/>
     <use xlink:href="#SegoeUI-20" transform="translate(412.158203 0.96875)"/>
     <use xlink:href="#DejaVuSans-Oblique-67" transform="translate(439.550781 0.96875)"/>
     <use xlink:href="#DejaVuSans-30" transform="translate(503.027344 -15.4375) scale(0.7)"/>
     <use xlink:href="#DejaVuSans-2c" transform="translate(550.297852 0.96875)"/>
     <use xlink:href="#DejaVuSans-2026" transform="translate(621.049805 0.96875)"/>
     <use xlink:href="#DejaVuSans-2c" transform="translate(740.532227 0.96875)"/>
     <use xlink:href="#DejaVuSans-Oblique-67" transform="translate(791.801758 0.96875)"/>
     <use xlink:href="#DejaVuSans-Oblique-4e" transform="translate(855.27832 -15.4375) scale(0.7)"/>
     <use xlink:href="#DejaVuSans-2212" transform="translate(921.279297 -15.4375) scale(0.7)"/>
     <use xlink:href="#DejaVuSans-31" transform="translate(993.569336 -15.4375) scale(0.7)"/>
    </g>
   </g>
   <g id="line2d_5">
    <path d="M 11.4425 191.828163 
L 14.192262 177.578368 
L 16.942023 164.478704 
L 19.691785 152.491112 
L 22.269686 142.228885 
L 24.847587 132.879253 
L 27.253629 124.948627 
L 29.65967 117.760157 
L 32.065711 111.288345 
L 34.299893 105.89822 
L 36.534074 101.08363 
L 38.596395 97.132568 
L 40.658716 93.638451 
L 42.721037 90.585224 
L 44.611498 88.160027 
L 46.501959 86.079439 
L 48.392421 84.331093 
L 50.282882 82.902621 
L 52.001483 81.87118 
L 53.720083 81.084584 
L 55.438684 80.533541 
L 57.157285 80.208759 
L 58.875886 80.100947 
L 60.594487 80.200811 
L 62.484948 80.539439 
L 64.375409 81.105746 
L 66.437731 81.968668 
L 68.500052 83.071771 
L 70.734233 84.519214 
L 73.140274 86.348745 
L 75.718176 88.592237 
L 78.639797 91.450369 
L 81.733279 94.793229 
L 85.342341 99.033789 
L 89.638843 104.446284 
L 95.653947 112.425425 
L 105.965552 126.134848 
L 110.433915 131.668715 
L 114.042977 135.79522 
L 117.136459 139.017488 
L 120.05808 141.742377 
L 122.635982 143.852691 
L 125.042023 145.544718 
L 127.276204 146.853064 
L 129.338525 147.818013 
L 131.400847 148.533414 
L 133.291308 148.956266 
L 135.181769 149.143568 
L 136.90037 149.099035 
L 138.618971 148.840319 
L 140.337572 148.35813 
L 142.056172 147.643176 
L 143.774773 146.686164 
L 145.493374 145.477802 
L 147.211975 144.008798 
L 149.102436 142.080763 
L 150.992897 139.813739 
L 152.883359 137.195361 
L 154.77382 134.213259 
L 156.836141 130.5307 
L 158.898462 126.384506 
L 160.960783 121.758618 
L 163.194964 116.187298 
L 165.429145 110.013747 
L 167.835187 102.66839 
L 170.241228 94.575414 
L 172.647269 85.709321 
L 175.225171 75.323045 
L 177.803072 63.988633 
L 180.380974 51.674723 
L 183.130735 37.424928 
L 183.130735 37.424928 
" clip-path="url(#p2e1953a464)" style="fill: none; stroke: #d6849a; stroke-width: 2; stroke-linecap: round"/>
   </g>
   <g id="line2d_6">
    <path d="M 11.4425 49.37927 
L 16.082723 59.673946 
L 20.551085 69.046793 
L 24.847587 77.559004 
L 29.14409 85.58088 
L 33.268732 92.820575 
L 37.393374 99.608377 
L 41.346157 105.689312 
L 45.298939 111.355228 
L 49.079861 116.386455 
L 52.688923 120.834772 
L 56.297985 124.937108 
L 59.735187 128.522436 
L 63.172389 131.793949 
L 66.609591 134.751649 
L 69.874932 137.270792 
L 73.140274 139.506719 
L 76.233756 141.363715 
L 79.327238 142.966521 
L 82.420719 144.315138 
L 85.342341 145.355432 
L 88.263963 146.168995 
L 91.185584 146.755828 
L 94.107206 147.11593 
L 97.028828 147.249301 
L 99.950449 147.155941 
L 102.872071 146.83585 
L 105.793692 146.289029 
L 108.715314 145.515477 
L 111.636936 144.515194 
L 114.558557 143.28818 
L 117.652039 141.741861 
L 120.745521 139.941352 
L 123.839002 137.886653 
L 127.104344 135.44204 
L 130.369686 132.71421 
L 133.635028 129.703162 
L 137.07223 126.227669 
L 140.509432 122.438362 
L 144.118494 118.121848 
L 147.727556 113.459353 
L 151.508478 108.203749 
L 155.2894 102.56843 
L 159.242182 96.270962 
L 163.194964 89.558476 
L 167.319607 82.111664 
L 171.444249 74.21296 
L 175.740751 65.504614 
L 180.209114 55.927788 
L 183.130735 49.37927 
L 183.130735 49.37927 
" clip-path="url(#p2e1953a464)" style="fill: none; stroke: #8e78a8; stroke-width: 2; stroke-linecap: round"/>
   </g>
   <g id="line2d_7">
    <path d="M 11.4425 165.166868 
L 183.130735 64.086223 
L 183.130735 64.086223 
" clip-path="url(#p2e1953a464)" style="fill: none; stroke: #5e9c6e; stroke-width: 2; stroke-linecap: round"/>
   </g>
   <g id="line2d_8">
    <path d="M 11.4425 85.447077 
L 183.130735 85.447077 
L 183.130735 85.447077 
" clip-path="url(#p2e1953a464)" style="fill: none; stroke: #4a5c79; stroke-width: 2; stroke-linecap: round"/>
   </g>
  </g>
  <g id="axes_2">
   <g id="patch_4">
    <path d="M 240.658735 197.42 
L 460.867559 197.42 
L 460.867559 22.28 
L 240.658735 22.28 
z
" style="fill: #ffffff"/>
   </g>
   <g id="FillBetweenPolyCollection_1">
    <defs>
     <path id="m4f1ab58e1a" d="M 240.658735 -172.557166 
L 240.658735 -123.719631 
L 240.879165 -123.986124 
L 241.099594 -124.251187 
L 241.320023 -124.514794 
L 241.540452 -124.77692 
L 241.760882 -125.03754 
L 241.981311 -125.296628 
L 242.20174 -125.554159 
L 242.422169 -125.810108 
L 242.642599 -126.06445 
L 242.863028 -126.317159 
L 243.083457 -126.568213 
L 243.303886 -126.817585 
L 243.524316 -127.065251 
L 243.744745 -127.311188 
L 243.965174 -127.55537 
L 244.185603 -127.797774 
L 244.406033 -128.038375 
L 244.626462 -128.27715 
L 244.846891 -128.514076 
L 245.06732 -128.749127 
L 245.28775 -128.982282 
L 245.508179 -129.213517 
L 245.728608 -129.442808 
L 245.949037 -129.670133 
L 246.169467 -129.895468 
L 246.389896 -130.118792 
L 246.610325 -130.340081 
L 246.830754 -130.559314 
L 247.051184 -130.776467 
L 247.271613 -130.991519 
L 247.492042 -131.204448 
L 247.712471 -131.415232 
L 247.932901 -131.623849 
L 248.15333 -131.830279 
L 248.373759 -132.0345 
L 248.594188 -132.23649 
L 248.814618 -132.43623 
L 249.035047 -132.633697 
L 249.255476 -132.828872 
L 249.475905 -133.021735 
L 249.696335 -133.212265 
L 249.916764 -133.400442 
L 250.137193 -133.586246 
L 250.357622 -133.769658 
L 250.578052 -133.950659 
L 250.798481 -134.129228 
L 251.01891 -134.305348 
L 251.239339 -134.478999 
L 251.459769 -134.650162 
L 251.680198 -134.81882 
L 251.900627 -134.984954 
L 252.121056 -135.148545 
L 252.341486 -135.309577 
L 252.561915 -135.468031 
L 252.782344 -135.623891 
L 253.002773 -135.777138 
L 253.223203 -135.927756 
L 253.443632 -136.075729 
L 253.664061 -136.221039 
L 253.88449 -136.36367 
L 254.10492 -136.503607 
L 254.325349 -136.640833 
L 254.545778 -136.775332 
L 254.766207 -136.907091 
L 254.986637 -137.036092 
L 255.207066 -137.162321 
L 255.427495 -137.285764 
L 255.647924 -137.406405 
L 255.868354 -137.524232 
L 256.088783 -137.639229 
L 256.309212 -137.751382 
L 256.529641 -137.860679 
L 256.750071 -137.967106 
L 256.9705 -138.07065 
L 257.190929 -138.171297 
L 257.411359 -138.269036 
L 257.631788 -138.363855 
L 257.852217 -138.45574 
L 258.072646 -138.54468 
L 258.293076 -138.630664 
L 258.513505 -138.71368 
L 258.733934 -138.793718 
L 258.954363 -138.870765 
L 259.174793 -138.944812 
L 259.395222 -139.015849 
L 259.615651 -139.083865 
L 259.83608 -139.14885 
L 260.05651 -139.210795 
L 260.276939 -139.269691 
L 260.497368 -139.325528 
L 260.717797 -139.378298 
L 260.938227 -139.427993 
L 261.158656 -139.474603 
L 261.379085 -139.518122 
L 261.599514 -139.558541 
L 261.819944 -139.595853 
L 262.040373 -139.63005 
L 262.260802 -139.661127 
L 262.481231 -139.689075 
L 262.701661 -139.71389 
L 262.92209 -139.735564 
L 263.142519 -139.754092 
L 263.362948 -139.769468 
L 263.583378 -139.781688 
L 263.803807 -139.790745 
L 264.024236 -139.796636 
L 264.244665 -139.799356 
L 264.465095 -139.798901 
L 264.685524 -139.795266 
L 264.905953 -139.788449 
L 265.126382 -139.778445 
L 265.346812 -139.765253 
L 265.567241 -139.748868 
L 265.78767 -139.729289 
L 266.008099 -139.706514 
L 266.228529 -139.680539 
L 266.448958 -139.651365 
L 266.669387 -139.618988 
L 266.889816 -139.583409 
L 267.110246 -139.544627 
L 267.330675 -139.50264 
L 267.551104 -139.457449 
L 267.771533 -139.409054 
L 267.991963 -139.357455 
L 268.212392 -139.302652 
L 268.432821 -139.244647 
L 268.65325 -139.18344 
L 268.87368 -139.119033 
L 269.094109 -139.051429 
L 269.314538 -138.980628 
L 269.534967 -138.906633 
L 269.755397 -138.829447 
L 269.975826 -138.749073 
L 270.196255 -138.665513 
L 270.416684 -138.578772 
L 270.637114 -138.488853 
L 270.857543 -138.395759 
L 271.077972 -138.299496 
L 271.298401 -138.200067 
L 271.518831 -138.097478 
L 271.73926 -137.991734 
L 271.959689 -137.882839 
L 272.180118 -137.770801 
L 272.400548 -137.655625 
L 272.620977 -137.537316 
L 272.841406 -137.415882 
L 273.061835 -137.29133 
L 273.282265 -137.163666 
L 273.502694 -137.032898 
L 273.723123 -136.899034 
L 273.943552 -136.762081 
L 274.163982 -136.622048 
L 274.384411 -136.478943 
L 274.60484 -136.332775 
L 274.825269 -136.183553 
L 275.045699 -136.031287 
L 275.266128 -135.875985 
L 275.486557 -135.717658 
L 275.706986 -135.556316 
L 275.927416 -135.39197 
L 276.147845 -135.224629 
L 276.368274 -135.054306 
L 276.588703 -134.88101 
L 276.809133 -134.704755 
L 277.029562 -134.52555 
L 277.249991 -134.34341 
L 277.470421 -134.158345 
L 277.69085 -133.970368 
L 277.911279 -133.779493 
L 278.131708 -133.585731 
L 278.352138 -133.389098 
L 278.572567 -133.189605 
L 278.792996 -132.987268 
L 279.013425 -132.7821 
L 279.233855 -132.574115 
L 279.454284 -132.363329 
L 279.674713 -132.149756 
L 279.895142 -131.933411 
L 280.115572 -131.71431 
L 280.336001 -131.492468 
L 280.55643 -131.267901 
L 280.776859 -131.040626 
L 280.997289 -130.810659 
L 281.217718 -130.578016 
L 281.438147 -130.342714 
L 281.658576 -130.104771 
L 281.879006 -129.864204 
L 282.099435 -129.621031 
L 282.319864 -129.375268 
L 282.540293 -129.126936 
L 282.760723 -128.876051 
L 282.981152 -128.622632 
L 283.201581 -128.366699 
L 283.42201 -128.10827 
L 283.64244 -127.847364 
L 283.862869 -127.584001 
L 284.083298 -127.318201 
L 284.303727 -127.049984 
L 284.524157 -126.779369 
L 284.744586 -126.506378 
L 284.965015 -126.23103 
L 285.185444 -125.953347 
L 285.405874 -125.67335 
L 285.626303 -125.391059 
L 285.846732 -125.106497 
L 286.067161 -124.819685 
L 286.287591 -124.530645 
L 286.50802 -124.239398 
L 286.728449 -123.945969 
L 286.948878 -123.650378 
L 287.169308 -123.352648 
L 287.389737 -123.052803 
L 287.610166 -122.750865 
L 287.830595 -122.446858 
L 288.051025 -122.140806 
L 288.271454 -121.832731 
L 288.491883 -121.522658 
L 288.712312 -121.210611 
L 288.932742 -120.896614 
L 289.153171 -120.580692 
L 289.3736 -120.262868 
L 289.594029 -119.943169 
L 289.814459 -119.621618 
L 290.034888 -119.298241 
L 290.255317 -118.973063 
L 290.475746 -118.64611 
L 290.696176 -118.317407 
L 290.916605 -117.986981 
L 291.137034 -117.654856 
L 291.357463 -117.321059 
L 291.577893 -116.985617 
L 291.798322 -116.648556 
L 292.018751 -116.309902 
L 292.23918 -115.969682 
L 292.45961 -115.627923 
L 292.680039 -115.284652 
L 292.900468 -114.939896 
L 293.120897 -114.593683 
L 293.341327 -114.24604 
L 293.561756 -113.896994 
L 293.782185 -113.546573 
L 294.002614 -113.194806 
L 294.223044 -112.841719 
L 294.443473 -112.487342 
L 294.663902 -112.131702 
L 294.884331 -111.774827 
L 295.104761 -111.416747 
L 295.32519 -111.057489 
L 295.545619 -110.697083 
L 295.766048 -110.335556 
L 295.986478 -109.972939 
L 296.206907 -109.60926 
L 296.427336 -109.244548 
L 296.647766 -108.878833 
L 296.868195 -108.512143 
L 297.088624 -108.144508 
L 297.309053 -107.775958 
L 297.529483 -107.406522 
L 297.749912 -107.03623 
L 297.970341 -106.665112 
L 298.19077 -106.293197 
L 298.4112 -105.920515 
L 298.631629 -105.547097 
L 298.852058 -105.172972 
L 299.072487 -104.79817 
L 299.292917 -104.422723 
L 299.513346 -104.046659 
L 299.733775 -103.670009 
L 299.954204 -103.292805 
L 300.174634 -102.915075 
L 300.395063 -102.536851 
L 300.615492 -102.158164 
L 300.835921 -101.779043 
L 301.056351 -101.399519 
L 301.27678 -101.019624 
L 301.497209 -100.639387 
L 301.717638 -100.25884 
L 301.938068 -99.878013 
L 302.158497 -99.496938 
L 302.378926 -99.115645 
L 302.599355 -98.734164 
L 302.819785 -98.352528 
L 303.040214 -97.970766 
L 303.260643 -97.58891 
L 303.481072 -97.206991 
L 303.701502 -96.825039 
L 303.921931 -96.443086 
L 304.14236 -96.061162 
L 304.362789 -95.679299 
L 304.583219 -95.297528 
L 304.803648 -94.915879 
L 305.024077 -94.534384 
L 305.244506 -94.153073 
L 305.464936 -93.771978 
L 305.685365 -93.391129 
L 305.905794 -93.010557 
L 306.126223 -92.630294 
L 306.346653 -92.25037 
L 306.567082 -91.870815 
L 306.787511 -91.491662 
L 307.00794 -91.11294 
L 307.22837 -90.734681 
L 307.448799 -90.356914 
L 307.669228 -89.979672 
L 307.889657 -89.602984 
L 308.110087 -89.226881 
L 308.330516 -88.851394 
L 308.550945 -88.476553 
L 308.771374 -88.102388 
L 308.991804 -87.728931 
L 309.212233 -87.356211 
L 309.432662 -86.984258 
L 309.653091 -86.613104 
L 309.873521 -86.242777 
L 310.09395 -85.873308 
L 310.314379 -85.504728 
L 310.534808 -85.137065 
L 310.755238 -84.770351 
L 310.975667 -84.404614 
L 311.196096 -84.039884 
L 311.416525 -83.676191 
L 311.636955 -83.313565 
L 311.857384 -82.952035 
L 312.077813 -82.591629 
L 312.298242 -82.232378 
L 312.518672 -81.874311 
L 312.739101 -81.517456 
L 312.95953 -81.161843 
L 313.179959 -80.8075 
L 313.400389 -80.454456 
L 313.620818 -80.102739 
L 313.841247 -79.752379 
L 314.061676 -79.403403 
L 314.282106 -79.05584 
L 314.502535 -78.709718 
L 314.722964 -78.365064 
L 314.943393 -78.021907 
L 315.163823 -77.680274 
L 315.384252 -77.340193 
L 315.604681 -77.001692 
L 315.82511 -76.664797 
L 316.04554 -76.329536 
L 316.265969 -75.995937 
L 316.486398 -75.664025 
L 316.706828 -75.333827 
L 316.927257 -75.005371 
L 317.147686 -74.678682 
L 317.368115 -74.353787 
L 317.588545 -74.030712 
L 317.808974 -73.709483 
L 318.029403 -73.390126 
L 318.249832 -73.072666 
L 318.470262 -72.757129 
L 318.690691 -72.44354 
L 318.91112 -72.131924 
L 319.131549 -71.822307 
L 319.351979 -71.514712 
L 319.572408 -71.209165 
L 319.792837 -70.90569 
L 320.013266 -70.604311 
L 320.233696 -70.305052 
L 320.454125 -70.007938 
L 320.674554 -69.712991 
L 320.894983 -69.420235 
L 321.115413 -69.129694 
L 321.335842 -68.84139 
L 321.556271 -68.555347 
L 321.7767 -68.271587 
L 321.99713 -67.990132 
L 322.217559 -67.711005 
L 322.437988 -67.434228 
L 322.658417 -67.159823 
L 322.878847 -66.887812 
L 323.099276 -66.618215 
L 323.319705 -66.351054 
L 323.540134 -66.08635 
L 323.760564 -65.824124 
L 323.980993 -65.564397 
L 324.201422 -65.307188 
L 324.421851 -65.052518 
L 324.642281 -64.800406 
L 324.86271 -64.550873 
L 325.083139 -64.303938 
L 325.303568 -64.05962 
L 325.523998 -63.817938 
L 325.744427 -63.578911 
L 325.964856 -63.342556 
L 326.185285 -63.108893 
L 326.405715 -62.87794 
L 326.626144 -62.649714 
L 326.846573 -62.424232 
L 327.067002 -62.201513 
L 327.287432 -61.981573 
L 327.507861 -61.764429 
L 327.72829 -61.550097 
L 327.948719 -61.338593 
L 328.169149 -61.129935 
L 328.389578 -60.924137 
L 328.610007 -60.721215 
L 328.830436 -60.521185 
L 329.050866 -60.324061 
L 329.271295 -60.129858 
L 329.491724 -59.938591 
L 329.712153 -59.750273 
L 329.932583 -59.56492 
L 330.153012 -59.382544 
L 330.373441 -59.203159 
L 330.59387 -59.026778 
L 330.8143 -58.853414 
L 331.034729 -58.68308 
L 331.255158 -58.515788 
L 331.475587 -58.351551 
L 331.696017 -58.190379 
L 331.916446 -58.032285 
L 332.136875 -57.87728 
L 332.357304 -57.725375 
L 332.577734 -57.57658 
L 332.798163 -57.430907 
L 333.018592 -57.288365 
L 333.239021 -57.148964 
L 333.459451 -57.012714 
L 333.67988 -56.879624 
L 333.900309 -56.749703 
L 334.120738 -56.62296 
L 334.341168 -56.499404 
L 334.561597 -56.379042 
L 334.782026 -56.261883 
L 335.002455 -56.147934 
L 335.222885 -56.037203 
L 335.443314 -55.929696 
L 335.663743 -55.825421 
L 335.884172 -55.724384 
L 336.104602 -55.626591 
L 336.325031 -55.532048 
L 336.54546 -55.440761 
L 336.76589 -55.352735 
L 336.986319 -55.267976 
L 337.206748 -55.186487 
L 337.427177 -55.108273 
L 337.647607 -55.03334 
L 337.868036 -54.961689 
L 338.088465 -54.893326 
L 338.308894 -54.828253 
L 338.529324 -54.766474 
L 338.749753 -54.707991 
L 338.970182 -54.652806 
L 339.190611 -54.600922 
L 339.411041 -54.552341 
L 339.63147 -54.507064 
L 339.851899 -54.465093 
L 340.072328 -54.426428 
L 340.292758 -54.39107 
L 340.513187 -54.35902 
L 340.733616 -54.330277 
L 340.954045 -54.304842 
L 341.174475 -54.282714 
L 341.394904 -54.263892 
L 341.615333 -54.248375 
L 341.835762 -54.236162 
L 342.056192 -54.227252 
L 342.276621 -54.221641 
L 342.49705 -54.219329 
L 342.717479 -54.220312 
L 342.937909 -54.224587 
L 343.158338 -54.232153 
L 343.378767 -54.243004 
L 343.599196 -54.257139 
L 343.819626 -54.274551 
L 344.040055 -54.295239 
L 344.260484 -54.319196 
L 344.480913 -54.346418 
L 344.701343 -54.3769 
L 344.921772 -54.410636 
L 345.142201 -54.447621 
L 345.36263 -54.48785 
L 345.58306 -54.531314 
L 345.803489 -54.578009 
L 346.023918 -54.627928 
L 346.244347 -54.681062 
L 346.464777 -54.737406 
L 346.685206 -54.79695 
L 346.905635 -54.859688 
L 347.126064 -54.925611 
L 347.346494 -54.99471 
L 347.566923 -55.066978 
L 347.787352 -55.142404 
L 348.007781 -55.220979 
L 348.228211 -55.302695 
L 348.44864 -55.38754 
L 348.669069 -55.475506 
L 348.889498 -55.566581 
L 349.109928 -55.660754 
L 349.330357 -55.758016 
L 349.550786 -55.858354 
L 349.771215 -55.961758 
L 349.991645 -56.068215 
L 350.212074 -56.177713 
L 350.432503 -56.290241 
L 350.652932 -56.405785 
L 350.873362 -56.524333 
L 351.093791 -56.645873 
L 351.31422 -56.770389 
L 351.534649 -56.89787 
L 351.755079 -57.028301 
L 351.975508 -57.161668 
L 352.195937 -57.297957 
L 352.416366 -57.437153 
L 352.636796 -57.579241 
L 352.857225 -57.724207 
L 353.077654 -57.872035 
L 353.298083 -58.022709 
L 353.518513 -58.176215 
L 353.738942 -58.332534 
L 353.959371 -58.491653 
L 354.1798 -58.653553 
L 354.40023 -58.818218 
L 354.620659 -58.985631 
L 354.841088 -59.155776 
L 355.061517 -59.328634 
L 355.281947 -59.504187 
L 355.502376 -59.682419 
L 355.722805 -59.86331 
L 355.943234 -60.046842 
L 356.163664 -60.232998 
L 356.384093 -60.421757 
L 356.604522 -60.613102 
L 356.824952 -60.807012 
L 357.045381 -61.003468 
L 357.26581 -61.202451 
L 357.486239 -61.403941 
L 357.706669 -61.607917 
L 357.927098 -61.81436 
L 358.147527 -62.023249 
L 358.367956 -62.234563 
L 358.588386 -62.448281 
L 358.808815 -62.664382 
L 359.029244 -62.882845 
L 359.249673 -63.103648 
L 359.470103 -63.32677 
L 359.690532 -63.552189 
L 359.910961 -63.779882 
L 360.13139 -64.009828 
L 360.35182 -64.242004 
L 360.572249 -64.476387 
L 360.792678 -64.712955 
L 361.013107 -64.951685 
L 361.233537 -65.192552 
L 361.453966 -65.435535 
L 361.674395 -65.68061 
L 361.894824 -65.927752 
L 362.115254 -66.176939 
L 362.335683 -66.428145 
L 362.556112 -66.681347 
L 362.776541 -66.936521 
L 362.996971 -67.193642 
L 363.2174 -67.452686 
L 363.437829 -67.713627 
L 363.658258 -67.976441 
L 363.878688 -68.241102 
L 364.099117 -68.507586 
L 364.319546 -68.775867 
L 364.539975 -69.045919 
L 364.760405 -69.317717 
L 364.980834 -69.591235 
L 365.201263 -69.866447 
L 365.421692 -70.143328 
L 365.642122 -70.42185 
L 365.862551 -70.701987 
L 366.08298 -70.983714 
L 366.303409 -71.267003 
L 366.523839 -71.551828 
L 366.744268 -71.838162 
L 366.964697 -72.125978 
L 367.185126 -72.415249 
L 367.405556 -72.705948 
L 367.625985 -72.998048 
L 367.846414 -73.291522 
L 368.066843 -73.586341 
L 368.287273 -73.882479 
L 368.507702 -74.179908 
L 368.728131 -74.478599 
L 368.94856 -74.778526 
L 369.16899 -75.079661 
L 369.389419 -75.381974 
L 369.609848 -75.685439 
L 369.830277 -75.990027 
L 370.050707 -76.295711 
L 370.271136 -76.60246 
L 370.491565 -76.910248 
L 370.711994 -77.219046 
L 370.932424 -77.528825 
L 371.152853 -77.839557 
L 371.373282 -78.151213 
L 371.593711 -78.463765 
L 371.814141 -78.777183 
L 372.03457 -79.091439 
L 372.254999 -79.406504 
L 372.475428 -79.722349 
L 372.695858 -80.038945 
L 372.916287 -80.356264 
L 373.136716 -80.674275 
L 373.357145 -80.992951 
L 373.577575 -81.312262 
L 373.798004 -81.632178 
L 374.018433 -81.952672 
L 374.238862 -82.273712 
L 374.459292 -82.595272 
L 374.679721 -82.91732 
L 374.90015 -83.239828 
L 375.120579 -83.562767 
L 375.341009 -83.886107 
L 375.561438 -84.209819 
L 375.781867 -84.533874 
L 376.002297 -84.858242 
L 376.222726 -85.182895 
L 376.443155 -85.507802 
L 376.663584 -85.832935 
L 376.884014 -86.158264 
L 377.104443 -86.48376 
L 377.324872 -86.809394 
L 377.545301 -87.135136 
L 377.765731 -87.460958 
L 377.98616 -87.786829 
L 378.206589 -88.112722 
L 378.427018 -88.438606 
L 378.647448 -88.764453 
L 378.867877 -89.090233 
L 379.088306 -89.415917 
L 379.308735 -89.741477 
L 379.529165 -90.066883 
L 379.749594 -90.392106 
L 379.970023 -90.717118 
L 380.190452 -91.041889 
L 380.410882 -91.366391 
L 380.631311 -91.690595 
L 380.85174 -92.014472 
L 381.072169 -92.337994 
L 381.292599 -92.661131 
L 381.513028 -92.983856 
L 381.733457 -93.30614 
L 381.953886 -93.627955 
L 382.174316 -93.949272 
L 382.394745 -94.270062 
L 382.615174 -94.590298 
L 382.835603 -94.909952 
L 383.056033 -95.228995 
L 383.276462 -95.5474 
L 383.496891 -95.865139 
L 383.71732 -96.182184 
L 383.93775 -96.498506 
L 384.158179 -96.81408 
L 384.378608 -97.128876 
L 384.599037 -97.442868 
L 384.819467 -97.756029 
L 385.039896 -98.068331 
L 385.260325 -98.379746 
L 385.480754 -98.690249 
L 385.701184 -98.999812 
L 385.921613 -99.308408 
L 386.142042 -99.616011 
L 386.362471 -99.922594 
L 386.582901 -100.228131 
L 386.80333 -100.532595 
L 387.023759 -100.83596 
L 387.244188 -101.138201 
L 387.464618 -101.43929 
L 387.685047 -101.739203 
L 387.905476 -102.037914 
L 388.125905 -102.335396 
L 388.346335 -102.631625 
L 388.566764 -102.926576 
L 388.787193 -103.220223 
L 389.007622 -103.512541 
L 389.228052 -103.803506 
L 389.448481 -104.093093 
L 389.66891 -104.381276 
L 389.889339 -104.668033 
L 390.109769 -104.953338 
L 390.330198 -105.237167 
L 390.550627 -105.519497 
L 390.771056 -105.800304 
L 390.991486 -106.079564 
L 391.211915 -106.357253 
L 391.432344 -106.633349 
L 391.652773 -106.907828 
L 391.873203 -107.180668 
L 392.093632 -107.451845 
L 392.314061 -107.721337 
L 392.53449 -107.989122 
L 392.75492 -108.255176 
L 392.975349 -108.519479 
L 393.195778 -108.782009 
L 393.416207 -109.042742 
L 393.636637 -109.301659 
L 393.857066 -109.558738 
L 394.077495 -109.813957 
L 394.297924 -110.067296 
L 394.518354 -110.318734 
L 394.738783 -110.56825 
L 394.959212 -110.815823 
L 395.179641 -111.061435 
L 395.400071 -111.305064 
L 395.6205 -111.546691 
L 395.840929 -111.786296 
L 396.061359 -112.02386 
L 396.281788 -112.259364 
L 396.502217 -112.492788 
L 396.722646 -112.724115 
L 396.943076 -112.953325 
L 397.163505 -113.1804 
L 397.383934 -113.405322 
L 397.604363 -113.628072 
L 397.824793 -113.848634 
L 398.045222 -114.06699 
L 398.265651 -114.283122 
L 398.48608 -114.497014 
L 398.70651 -114.708648 
L 398.926939 -114.918008 
L 399.147368 -115.125078 
L 399.367797 -115.329841 
L 399.588227 -115.532281 
L 399.808656 -115.732383 
L 400.029085 -115.930131 
L 400.249514 -116.12551 
L 400.469944 -116.318505 
L 400.690373 -116.5091 
L 400.910802 -116.697283 
L 401.131231 -116.883037 
L 401.351661 -117.066349 
L 401.57209 -117.247205 
L 401.792519 -117.425592 
L 402.012948 -117.601495 
L 402.233378 -117.774903 
L 402.453807 -117.945801 
L 402.674236 -118.114178 
L 402.894665 -118.28002 
L 403.115095 -118.443316 
L 403.335524 -118.604053 
L 403.555953 -118.76222 
L 403.776382 -118.917805 
L 403.996812 -119.070798 
L 404.217241 -119.221186 
L 404.43767 -119.36896 
L 404.658099 -119.514109 
L 404.878529 -119.656622 
L 405.098958 -119.796489 
L 405.319387 -119.933701 
L 405.539816 -120.068249 
L 405.760246 -120.200122 
L 405.980675 -120.329312 
L 406.201104 -120.455811 
L 406.421533 -120.579609 
L 406.641963 -120.700698 
L 406.862392 -120.819071 
L 407.082821 -120.934719 
L 407.30325 -121.047635 
L 407.52368 -121.157812 
L 407.744109 -121.265243 
L 407.964538 -121.369921 
L 408.184967 -121.471839 
L 408.405397 -121.570991 
L 408.625826 -121.667372 
L 408.846255 -121.760975 
L 409.066684 -121.851795 
L 409.287114 -121.939826 
L 409.507543 -122.025065 
L 409.727972 -122.107505 
L 409.948401 -122.187143 
L 410.168831 -122.263975 
L 410.38926 -122.337995 
L 410.609689 -122.409202 
L 410.830118 -122.47759 
L 411.050548 -122.543157 
L 411.270977 -122.605901 
L 411.491406 -122.665817 
L 411.711835 -122.722905 
L 411.932265 -122.777161 
L 412.152694 -122.828584 
L 412.373123 -122.877172 
L 412.593552 -122.922924 
L 412.813982 -122.965838 
L 413.034411 -123.005914 
L 413.25484 -123.043151 
L 413.475269 -123.077548 
L 413.695699 -123.109105 
L 413.916128 -123.137823 
L 414.136557 -123.163701 
L 414.356986 -123.186741 
L 414.577416 -123.206943 
L 414.797845 -123.224308 
L 415.018274 -123.238837 
L 415.238703 -123.250533 
L 415.459133 -123.259397 
L 415.679562 -123.265431 
L 415.899991 -123.268637 
L 416.120421 -123.269018 
L 416.34085 -123.266577 
L 416.561279 -123.261316 
L 416.781708 -123.25324 
L 417.002138 -123.242352 
L 417.222567 -123.228654 
L 417.442996 -123.212153 
L 417.663425 -123.192851 
L 417.883855 -123.170754 
L 418.104284 -123.145866 
L 418.324713 -123.118191 
L 418.545142 -123.087737 
L 418.765572 -123.054506 
L 418.986001 -123.018507 
L 419.20643 -122.979744 
L 419.426859 -122.938223 
L 419.647289 -122.893952 
L 419.867718 -122.846936 
L 420.088147 -122.797183 
L 420.308576 -122.744699 
L 420.529006 -122.689493 
L 420.749435 -122.631571 
L 420.969864 -122.570941 
L 421.190293 -122.507612 
L 421.410723 -122.441592 
L 421.631152 -122.372889 
L 421.851581 -122.301511 
L 422.07201 -122.227468 
L 422.29244 -122.150769 
L 422.512869 -122.071424 
L 422.733298 -121.989441 
L 422.953727 -121.904831 
L 423.174157 -121.817603 
L 423.394586 -121.727768 
L 423.615015 -121.635337 
L 423.835444 -121.540319 
L 424.055874 -121.442726 
L 424.276303 -121.342569 
L 424.496732 -121.239859 
L 424.717161 -121.134607 
L 424.937591 -121.026826 
L 425.15802 -120.916527 
L 425.378449 -120.803722 
L 425.598878 -120.688424 
L 425.819308 -120.570645 
L 426.039737 -120.450397 
L 426.260166 -120.327694 
L 426.480595 -120.202548 
L 426.701025 -120.074973 
L 426.921454 -119.944983 
L 427.141883 -119.812591 
L 427.362312 -119.67781 
L 427.582742 -119.540656 
L 427.803171 -119.401141 
L 428.0236 -119.259281 
L 428.244029 -119.115089 
L 428.464459 -118.968582 
L 428.684888 -118.819773 
L 428.905317 -118.668678 
L 429.125746 -118.515312 
L 429.346176 -118.35969 
L 429.566605 -118.201829 
L 429.787034 -118.041743 
L 430.007463 -117.879449 
L 430.227893 -117.714963 
L 430.448322 -117.548301 
L 430.668751 -117.37948 
L 430.88918 -117.208517 
L 431.10961 -117.035427 
L 431.330039 -116.860228 
L 431.550468 -116.682938 
L 431.770897 -116.503572 
L 431.991327 -116.322149 
L 432.211756 -116.138686 
L 432.432185 -115.953202 
L 432.652614 -115.765712 
L 432.873044 -115.576237 
L 433.093473 -115.384793 
L 433.313902 -115.191398 
L 433.534331 -114.996073 
L 433.754761 -114.798834 
L 433.97519 -114.5997 
L 434.195619 -114.398691 
L 434.416048 -114.195824 
L 434.636478 -113.99112 
L 434.856907 -113.784597 
L 435.077336 -113.576275 
L 435.297766 -113.366173 
L 435.518195 -113.15431 
L 435.738624 -112.940706 
L 435.959053 -112.725381 
L 436.179483 -112.508355 
L 436.399912 -112.289647 
L 436.620341 -112.069279 
L 436.84077 -111.847269 
L 437.0612 -111.623638 
L 437.281629 -111.398407 
L 437.502058 -111.171596 
L 437.722487 -110.943226 
L 437.942917 -110.713317 
L 438.163346 -110.48189 
L 438.383775 -110.248966 
L 438.604204 -110.014566 
L 438.824634 -109.778711 
L 439.045063 -109.541422 
L 439.265492 -109.302721 
L 439.485921 -109.062628 
L 439.706351 -108.821165 
L 439.92678 -108.578354 
L 440.147209 -108.334215 
L 440.367638 -108.088771 
L 440.588068 -107.842043 
L 440.808497 -107.594053 
L 441.028926 -107.344823 
L 441.249355 -107.094374 
L 441.469785 -106.842729 
L 441.690214 -106.589909 
L 441.910643 -106.335937 
L 442.131072 -106.080834 
L 442.351502 -105.824623 
L 442.571931 -105.567326 
L 442.79236 -105.308964 
L 443.012789 -105.049562 
L 443.233219 -104.78914 
L 443.453648 -104.527721 
L 443.674077 -104.265327 
L 443.894506 -104.001981 
L 444.114936 -103.737706 
L 444.335365 -103.472524 
L 444.555794 -103.206457 
L 444.776223 -102.939528 
L 444.996653 -102.671759 
L 445.217082 -102.403174 
L 445.437511 -102.133794 
L 445.65794 -101.863643 
L 445.87837 -101.592743 
L 446.098799 -101.321117 
L 446.319228 -101.048788 
L 446.539657 -100.775777 
L 446.760087 -100.502109 
L 446.980516 -100.227805 
L 447.200945 -99.952889 
L 447.421374 -99.677382 
L 447.641804 -99.401309 
L 447.862233 -99.124691 
L 448.082662 -98.847551 
L 448.303091 -98.569912 
L 448.523521 -98.291797 
L 448.74395 -98.013229 
L 448.964379 -97.734229 
L 449.184808 -97.454821 
L 449.405238 -97.175027 
L 449.625667 -96.894871 
L 449.846096 -96.614374 
L 450.066525 -96.333559 
L 450.286955 -96.052449 
L 450.507384 -95.771066 
L 450.727813 -95.489432 
L 450.948242 -95.207571 
L 451.168672 -94.925505 
L 451.389101 -94.643256 
L 451.60953 -94.360846 
L 451.829959 -94.078297 
L 452.050389 -93.795633 
L 452.270818 -93.512875 
L 452.491247 -93.230045 
L 452.711676 -92.947166 
L 452.932106 -92.664259 
L 453.152535 -92.381347 
L 453.372964 -92.098452 
L 453.593393 -91.815595 
L 453.813823 -91.532799 
L 454.034252 -91.250085 
L 454.254681 -90.967474 
L 454.47511 -90.684989 
L 454.69554 -90.402652 
L 454.915969 -90.120483 
L 455.136398 -89.838505 
L 455.356828 -89.556738 
L 455.577257 -89.275204 
L 455.797686 -88.993924 
L 456.018115 -88.71292 
L 456.238545 -88.432212 
L 456.458974 -88.151822 
L 456.679403 -87.87177 
L 456.899832 -87.592078 
L 457.120262 -87.312766 
L 457.340691 -87.033854 
L 457.56112 -86.755364 
L 457.781549 -86.477315 
L 458.001979 -86.199729 
L 458.222408 -85.922625 
L 458.442837 -85.646025 
L 458.663266 -85.369947 
L 458.883696 -85.094411 
L 459.104125 -84.819439 
L 459.324554 -84.545049 
L 459.544983 -84.271262 
L 459.765413 -83.998097 
L 459.985842 -83.725573 
L 460.206271 -83.453709 
L 460.4267 -83.182526 
L 460.64713 -82.912042 
L 460.867559 -82.642277 
L 460.867559 -108.077623 
L 460.867559 -108.077623 
L 460.64713 -108.123352 
L 460.4267 -108.168239 
L 460.206271 -108.212289 
L 459.985842 -108.255502 
L 459.765413 -108.297883 
L 459.544983 -108.339433 
L 459.324554 -108.380156 
L 459.104125 -108.420054 
L 458.883696 -108.459129 
L 458.663266 -108.497385 
L 458.442837 -108.534823 
L 458.222408 -108.571448 
L 458.001979 -108.60726 
L 457.781549 -108.642263 
L 457.56112 -108.67646 
L 457.340691 -108.709853 
L 457.120262 -108.742444 
L 456.899832 -108.774237 
L 456.679403 -108.805234 
L 456.458974 -108.835438 
L 456.238545 -108.864851 
L 456.018115 -108.893476 
L 455.797686 -108.921316 
L 455.577257 -108.948373 
L 455.356828 -108.97465 
L 455.136398 -109.000149 
L 454.915969 -109.024874 
L 454.69554 -109.048827 
L 454.47511 -109.07201 
L 454.254681 -109.094426 
L 454.034252 -109.116078 
L 453.813823 -109.136969 
L 453.593393 -109.1571 
L 453.372964 -109.176476 
L 453.152535 -109.195097 
L 452.932106 -109.212968 
L 452.711676 -109.23009 
L 452.491247 -109.246467 
L 452.270818 -109.2621 
L 452.050389 -109.276993 
L 451.829959 -109.291149 
L 451.60953 -109.304569 
L 451.389101 -109.317257 
L 451.168672 -109.329214 
L 450.948242 -109.340445 
L 450.727813 -109.350951 
L 450.507384 -109.360735 
L 450.286955 -109.3698 
L 450.066525 -109.378149 
L 449.846096 -109.385783 
L 449.625667 -109.392706 
L 449.405238 -109.39892 
L 449.184808 -109.404429 
L 448.964379 -109.409233 
L 448.74395 -109.413338 
L 448.523521 -109.416744 
L 448.303091 -109.419454 
L 448.082662 -109.421472 
L 447.862233 -109.422799 
L 447.641804 -109.423439 
L 447.421374 -109.423394 
L 447.200945 -109.422667 
L 446.980516 -109.42126 
L 446.760087 -109.419176 
L 446.539657 -109.416418 
L 446.319228 -109.412988 
L 446.098799 -109.408889 
L 445.87837 -109.404124 
L 445.65794 -109.398695 
L 445.437511 -109.392605 
L 445.217082 -109.385857 
L 444.996653 -109.378452 
L 444.776223 -109.370395 
L 444.555794 -109.361686 
L 444.335365 -109.35233 
L 444.114936 -109.342329 
L 443.894506 -109.331685 
L 443.674077 -109.320402 
L 443.453648 -109.308481 
L 443.233219 -109.295925 
L 443.012789 -109.282737 
L 442.79236 -109.26892 
L 442.571931 -109.254476 
L 442.351502 -109.239408 
L 442.131072 -109.223718 
L 441.910643 -109.20741 
L 441.690214 -109.190486 
L 441.469785 -109.172948 
L 441.249355 -109.154799 
L 441.028926 -109.136042 
L 440.808497 -109.116679 
L 440.588068 -109.096713 
L 440.367638 -109.076148 
L 440.147209 -109.054984 
L 439.92678 -109.033225 
L 439.706351 -109.010874 
L 439.485921 -108.987934 
L 439.265492 -108.964406 
L 439.045063 -108.940294 
L 438.824634 -108.9156 
L 438.604204 -108.890327 
L 438.383775 -108.864477 
L 438.163346 -108.838053 
L 437.942917 -108.811059 
L 437.722487 -108.783495 
L 437.502058 -108.755366 
L 437.281629 -108.726673 
L 437.0612 -108.69742 
L 436.84077 -108.667609 
L 436.620341 -108.637242 
L 436.399912 -108.606323 
L 436.179483 -108.574854 
L 435.959053 -108.542837 
L 435.738624 -108.510275 
L 435.518195 -108.477172 
L 435.297766 -108.443528 
L 435.077336 -108.409348 
L 434.856907 -108.374634 
L 434.636478 -108.339388 
L 434.416048 -108.303614 
L 434.195619 -108.267312 
L 433.97519 -108.230488 
L 433.754761 -108.193142 
L 433.534331 -108.155278 
L 433.313902 -108.116898 
L 433.093473 -108.078006 
L 432.873044 -108.038602 
L 432.652614 -107.998691 
L 432.432185 -107.958275 
L 432.211756 -107.917357 
L 431.991327 -107.875938 
L 431.770897 -107.834023 
L 431.550468 -107.791612 
L 431.330039 -107.74871 
L 431.10961 -107.705319 
L 430.88918 -107.661441 
L 430.668751 -107.617079 
L 430.448322 -107.572236 
L 430.227893 -107.526914 
L 430.007463 -107.481116 
L 429.787034 -107.434844 
L 429.566605 -107.388102 
L 429.346176 -107.340892 
L 429.125746 -107.293216 
L 428.905317 -107.245077 
L 428.684888 -107.196478 
L 428.464459 -107.147422 
L 428.244029 -107.097911 
L 428.0236 -107.047947 
L 427.803171 -106.997534 
L 427.582742 -106.946674 
L 427.362312 -106.895369 
L 427.141883 -106.843623 
L 426.921454 -106.791438 
L 426.701025 -106.738817 
L 426.480595 -106.685761 
L 426.260166 -106.632275 
L 426.039737 -106.57836 
L 425.819308 -106.524019 
L 425.598878 -106.469255 
L 425.378449 -106.414071 
L 425.15802 -106.358469 
L 424.937591 -106.302451 
L 424.717161 -106.246021 
L 424.496732 -106.189181 
L 424.276303 -106.131934 
L 424.055874 -106.074282 
L 423.835444 -106.016227 
L 423.615015 -105.957774 
L 423.394586 -105.898924 
L 423.174157 -105.839679 
L 422.953727 -105.780044 
L 422.733298 -105.720019 
L 422.512869 -105.659608 
L 422.29244 -105.598814 
L 422.07201 -105.537639 
L 421.851581 -105.476086 
L 421.631152 -105.414157 
L 421.410723 -105.351855 
L 421.190293 -105.289183 
L 420.969864 -105.226143 
L 420.749435 -105.162738 
L 420.529006 -105.098971 
L 420.308576 -105.034844 
L 420.088147 -104.970359 
L 419.867718 -104.905521 
L 419.647289 -104.840331 
L 419.426859 -104.774791 
L 419.20643 -104.708905 
L 418.986001 -104.642675 
L 418.765572 -104.576104 
L 418.545142 -104.509195 
L 418.324713 -104.441949 
L 418.104284 -104.37437 
L 417.883855 -104.306461 
L 417.663425 -104.238223 
L 417.442996 -104.169661 
L 417.222567 -104.100775 
L 417.002138 -104.031569 
L 416.781708 -103.962046 
L 416.561279 -103.892208 
L 416.34085 -103.822058 
L 416.120421 -103.751599 
L 415.899991 -103.680833 
L 415.679562 -103.609762 
L 415.459133 -103.53839 
L 415.238703 -103.466719 
L 415.018274 -103.394752 
L 414.797845 -103.322491 
L 414.577416 -103.249939 
L 414.356986 -103.177098 
L 414.136557 -103.103972 
L 413.916128 -103.030563 
L 413.695699 -102.956874 
L 413.475269 -102.882907 
L 413.25484 -102.808664 
L 413.034411 -102.734149 
L 412.813982 -102.659365 
L 412.593552 -102.584313 
L 412.373123 -102.508996 
L 412.152694 -102.433418 
L 411.932265 -102.35758 
L 411.711835 -102.281486 
L 411.491406 -102.205138 
L 411.270977 -102.128538 
L 411.050548 -102.05169 
L 410.830118 -101.974596 
L 410.609689 -101.897258 
L 410.38926 -101.819679 
L 410.168831 -101.741863 
L 409.948401 -101.663811 
L 409.727972 -101.585526 
L 409.507543 -101.507011 
L 409.287114 -101.428268 
L 409.066684 -101.349301 
L 408.846255 -101.270111 
L 408.625826 -101.190701 
L 408.405397 -101.111075 
L 408.184967 -101.031234 
L 407.964538 -100.951182 
L 407.744109 -100.870921 
L 407.52368 -100.790453 
L 407.30325 -100.709781 
L 407.082821 -100.628909 
L 406.862392 -100.547837 
L 406.641963 -100.466571 
L 406.421533 -100.38511 
L 406.201104 -100.30346 
L 405.980675 -100.221621 
L 405.760246 -100.139597 
L 405.539816 -100.057391 
L 405.319387 -99.975005 
L 405.098958 -99.892441 
L 404.878529 -99.809703 
L 404.658099 -99.726792 
L 404.43767 -99.643713 
L 404.217241 -99.560466 
L 403.996812 -99.477056 
L 403.776382 -99.393484 
L 403.555953 -99.309753 
L 403.335524 -99.225866 
L 403.115095 -99.141825 
L 402.894665 -99.057634 
L 402.674236 -98.973294 
L 402.453807 -98.888809 
L 402.233378 -98.804181 
L 402.012948 -98.719413 
L 401.792519 -98.634507 
L 401.57209 -98.549465 
L 401.351661 -98.464292 
L 401.131231 -98.378989 
L 400.910802 -98.293558 
L 400.690373 -98.208004 
L 400.469944 -98.122327 
L 400.249514 -98.036532 
L 400.029085 -97.950619 
L 399.808656 -97.864593 
L 399.588227 -97.778456 
L 399.367797 -97.69221 
L 399.147368 -97.605858 
L 398.926939 -97.519403 
L 398.70651 -97.432848 
L 398.48608 -97.346194 
L 398.265651 -97.259445 
L 398.045222 -97.172603 
L 397.824793 -97.085671 
L 397.604363 -96.998652 
L 397.383934 -96.911548 
L 397.163505 -96.824362 
L 396.943076 -96.737096 
L 396.722646 -96.649753 
L 396.502217 -96.562337 
L 396.281788 -96.474848 
L 396.061359 -96.387291 
L 395.840929 -96.299667 
L 395.6205 -96.21198 
L 395.400071 -96.124232 
L 395.179641 -96.036426 
L 394.959212 -95.948563 
L 394.738783 -95.860648 
L 394.518354 -95.772682 
L 394.297924 -95.684669 
L 394.077495 -95.59661 
L 393.857066 -95.508509 
L 393.636637 -95.420368 
L 393.416207 -95.33219 
L 393.195778 -95.243978 
L 392.975349 -95.155733 
L 392.75492 -95.067459 
L 392.53449 -94.979159 
L 392.314061 -94.890834 
L 392.093632 -94.802488 
L 391.873203 -94.714124 
L 391.652773 -94.625743 
L 391.432344 -94.537349 
L 391.211915 -94.448945 
L 390.991486 -94.360532 
L 390.771056 -94.272114 
L 390.550627 -94.183693 
L 390.330198 -94.095271 
L 390.109769 -94.006852 
L 389.889339 -93.918439 
L 389.66891 -93.830033 
L 389.448481 -93.741637 
L 389.228052 -93.653255 
L 389.007622 -93.564888 
L 388.787193 -93.476539 
L 388.566764 -93.388211 
L 388.346335 -93.299907 
L 388.125905 -93.21163 
L 387.905476 -93.123381 
L 387.685047 -93.035164 
L 387.464618 -92.94698 
L 387.244188 -92.858834 
L 387.023759 -92.770727 
L 386.80333 -92.682663 
L 386.582901 -92.594643 
L 386.362471 -92.50667 
L 386.142042 -92.418747 
L 385.921613 -92.330878 
L 385.701184 -92.243063 
L 385.480754 -92.155307 
L 385.260325 -92.067611 
L 385.039896 -91.979978 
L 384.819467 -91.892411 
L 384.599037 -91.804913 
L 384.378608 -91.717486 
L 384.158179 -91.630133 
L 383.93775 -91.542856 
L 383.71732 -91.455659 
L 383.496891 -91.368543 
L 383.276462 -91.281511 
L 383.056033 -91.194567 
L 382.835603 -91.107713 
L 382.615174 -91.02095 
L 382.394745 -90.934283 
L 382.174316 -90.847713 
L 381.953886 -90.761244 
L 381.733457 -90.674877 
L 381.513028 -90.588616 
L 381.292599 -90.502464 
L 381.072169 -90.416422 
L 380.85174 -90.330494 
L 380.631311 -90.244681 
L 380.410882 -90.158988 
L 380.190452 -90.073416 
L 379.970023 -89.987968 
L 379.749594 -89.902647 
L 379.529165 -89.817455 
L 379.308735 -89.732395 
L 379.088306 -89.64747 
L 378.867877 -89.562682 
L 378.647448 -89.478034 
L 378.427018 -89.393528 
L 378.206589 -89.309168 
L 377.98616 -89.224955 
L 377.765731 -89.140894 
L 377.545301 -89.056985 
L 377.324872 -88.973232 
L 377.104443 -88.889637 
L 376.884014 -88.806204 
L 376.663584 -88.722934 
L 376.443155 -88.639831 
L 376.222726 -88.556897 
L 376.002297 -88.474134 
L 375.781867 -88.391546 
L 375.561438 -88.309134 
L 375.341009 -88.226902 
L 375.120579 -88.144853 
L 374.90015 -88.062988 
L 374.679721 -87.981311 
L 374.459292 -87.899824 
L 374.238862 -87.818529 
L 374.018433 -87.73743 
L 373.798004 -87.65653 
L 373.577575 -87.57583 
L 373.357145 -87.495333 
L 373.136716 -87.415042 
L 372.916287 -87.334961 
L 372.695858 -87.25509 
L 372.475428 -87.175433 
L 372.254999 -87.095993 
L 372.03457 -87.016772 
L 371.814141 -86.937773 
L 371.593711 -86.858999 
L 371.373282 -86.780452 
L 371.152853 -86.702134 
L 370.932424 -86.624049 
L 370.711994 -86.546199 
L 370.491565 -86.468587 
L 370.271136 -86.391215 
L 370.050707 -86.314087 
L 369.830277 -86.237204 
L 369.609848 -86.160569 
L 369.389419 -86.084185 
L 369.16899 -86.008055 
L 368.94856 -85.932181 
L 368.728131 -85.856566 
L 368.507702 -85.781213 
L 368.287273 -85.706123 
L 368.066843 -85.631301 
L 367.846414 -85.556748 
L 367.625985 -85.482467 
L 367.405556 -85.408461 
L 367.185126 -85.334732 
L 366.964697 -85.261283 
L 366.744268 -85.188118 
L 366.523839 -85.115237 
L 366.303409 -85.042644 
L 366.08298 -84.970342 
L 365.862551 -84.898333 
L 365.642122 -84.82662 
L 365.421692 -84.755206 
L 365.201263 -84.684093 
L 364.980834 -84.613284 
L 364.760405 -84.542781 
L 364.539975 -84.472587 
L 364.319546 -84.402705 
L 364.099117 -84.333138 
L 363.878688 -84.263887 
L 363.658258 -84.194956 
L 363.437829 -84.126348 
L 363.2174 -84.058065 
L 362.996971 -83.990109 
L 362.776541 -83.922483 
L 362.556112 -83.855191 
L 362.335683 -83.788234 
L 362.115254 -83.721615 
L 361.894824 -83.655337 
L 361.674395 -83.589402 
L 361.453966 -83.523814 
L 361.233537 -83.458574 
L 361.013107 -83.393686 
L 360.792678 -83.329152 
L 360.572249 -83.264975 
L 360.35182 -83.201157 
L 360.13139 -83.137701 
L 359.910961 -83.074609 
L 359.690532 -83.011885 
L 359.470103 -82.949531 
L 359.249673 -82.88755 
L 359.029244 -82.825943 
L 358.808815 -82.764715 
L 358.588386 -82.703867 
L 358.367956 -82.643402 
L 358.147527 -82.583323 
L 357.927098 -82.523632 
L 357.706669 -82.464333 
L 357.486239 -82.405427 
L 357.26581 -82.346917 
L 357.045381 -82.288807 
L 356.824952 -82.231098 
L 356.604522 -82.173794 
L 356.384093 -82.116896 
L 356.163664 -82.060408 
L 355.943234 -82.004332 
L 355.722805 -81.948671 
L 355.502376 -81.893428 
L 355.281947 -81.838605 
L 355.061517 -81.784204 
L 354.841088 -81.730229 
L 354.620659 -81.676683 
L 354.40023 -81.623567 
L 354.1798 -81.570884 
L 353.959371 -81.518637 
L 353.738942 -81.466829 
L 353.518513 -81.415462 
L 353.298083 -81.364539 
L 353.077654 -81.314063 
L 352.857225 -81.264036 
L 352.636796 -81.214461 
L 352.416366 -81.165341 
L 352.195937 -81.116677 
L 351.975508 -81.068474 
L 351.755079 -81.020733 
L 351.534649 -80.973457 
L 351.31422 -80.926648 
L 351.093791 -80.880311 
L 350.873362 -80.834446 
L 350.652932 -80.789057 
L 350.432503 -80.744146 
L 350.212074 -80.699716 
L 349.991645 -80.65577 
L 349.771215 -80.61231 
L 349.550786 -80.569339 
L 349.330357 -80.526859 
L 349.109928 -80.484874 
L 348.889498 -80.443385 
L 348.669069 -80.402396 
L 348.44864 -80.361909 
L 348.228211 -80.321927 
L 348.007781 -80.282452 
L 347.787352 -80.243487 
L 347.566923 -80.205035 
L 347.346494 -80.167098 
L 347.126064 -80.12968 
L 346.905635 -80.092782 
L 346.685206 -80.056407 
L 346.464777 -80.020558 
L 346.244347 -79.985237 
L 346.023918 -79.950448 
L 345.803489 -79.916193 
L 345.58306 -79.882474 
L 345.36263 -79.849294 
L 345.142201 -79.816656 
L 344.921772 -79.784562 
L 344.701343 -79.753016 
L 344.480913 -79.722019 
L 344.260484 -79.691574 
L 344.040055 -79.661685 
L 343.819626 -79.632353 
L 343.599196 -79.603581 
L 343.378767 -79.575373 
L 343.158338 -79.54773 
L 342.937909 -79.520655 
L 342.717479 -79.494151 
L 342.49705 -79.46822 
L 342.276621 -79.442866 
L 342.056192 -79.41809 
L 341.835762 -79.393896 
L 341.615333 -79.370286 
L 341.394904 -79.347262 
L 341.174475 -79.324828 
L 340.954045 -79.302986 
L 340.733616 -79.281739 
L 340.513187 -79.261088 
L 340.292758 -79.241038 
L 340.072328 -79.22159 
L 339.851899 -79.202748 
L 339.63147 -79.184513 
L 339.411041 -79.166889 
L 339.190611 -79.149878 
L 338.970182 -79.133483 
L 338.749753 -79.117707 
L 338.529324 -79.102551 
L 338.308894 -79.088019 
L 338.088465 -79.074114 
L 337.868036 -79.060837 
L 337.647607 -79.048192 
L 337.427177 -79.036182 
L 337.206748 -79.024808 
L 336.986319 -79.014074 
L 336.76589 -79.003982 
L 336.54546 -78.994535 
L 336.325031 -78.985736 
L 336.104602 -78.977587 
L 335.884172 -78.97009 
L 335.663743 -78.963249 
L 335.443314 -78.957066 
L 335.222885 -78.951544 
L 335.002455 -78.946685 
L 334.782026 -78.942492 
L 334.561597 -78.938968 
L 334.341168 -78.936116 
L 334.120738 -78.933937 
L 333.900309 -78.932434 
L 333.67988 -78.931611 
L 333.459451 -78.93147 
L 333.239021 -78.932014 
L 333.018592 -78.933244 
L 332.798163 -78.935165 
L 332.577734 -78.937778 
L 332.357304 -78.941086 
L 332.136875 -78.945091 
L 331.916446 -78.949797 
L 331.696017 -78.955206 
L 331.475587 -78.961321 
L 331.255158 -78.968144 
L 331.034729 -78.975679 
L 330.8143 -78.983926 
L 330.59387 -78.99289 
L 330.373441 -79.002573 
L 330.153012 -79.012977 
L 329.932583 -79.024106 
L 329.712153 -79.035961 
L 329.491724 -79.048546 
L 329.271295 -79.061863 
L 329.050866 -79.075915 
L 328.830436 -79.090704 
L 328.610007 -79.106233 
L 328.389578 -79.122505 
L 328.169149 -79.139522 
L 327.948719 -79.157288 
L 327.72829 -79.175803 
L 327.507861 -79.195073 
L 327.287432 -79.215098 
L 327.067002 -79.235881 
L 326.846573 -79.257426 
L 326.626144 -79.279734 
L 326.405715 -79.302809 
L 326.185285 -79.326654 
L 325.964856 -79.35127 
L 325.744427 -79.37666 
L 325.523998 -79.402827 
L 325.303568 -79.429774 
L 325.083139 -79.457504 
L 324.86271 -79.486018 
L 324.642281 -79.515321 
L 324.421851 -79.545413 
L 324.201422 -79.576298 
L 323.980993 -79.607979 
L 323.760564 -79.640458 
L 323.540134 -79.673738 
L 323.319705 -79.707821 
L 323.099276 -79.742711 
L 322.878847 -79.778409 
L 322.658417 -79.814919 
L 322.437988 -79.852243 
L 322.217559 -79.890383 
L 321.99713 -79.929343 
L 321.7767 -79.969125 
L 321.556271 -80.009732 
L 321.335842 -80.051165 
L 321.115413 -80.093429 
L 320.894983 -80.136525 
L 320.674554 -80.180457 
L 320.454125 -80.225226 
L 320.233696 -80.270836 
L 320.013266 -80.317289 
L 319.792837 -80.364588 
L 319.572408 -80.412736 
L 319.351979 -80.461734 
L 319.131549 -80.511586 
L 318.91112 -80.562294 
L 318.690691 -80.613862 
L 318.470262 -80.666291 
L 318.249832 -80.719584 
L 318.029403 -80.773745 
L 317.808974 -80.828775 
L 317.588545 -80.884677 
L 317.368115 -80.941454 
L 317.147686 -80.999109 
L 316.927257 -81.057643 
L 316.706828 -81.117061 
L 316.486398 -81.177364 
L 316.265969 -81.238555 
L 316.04554 -81.300637 
L 315.82511 -81.363612 
L 315.604681 -81.427483 
L 315.384252 -81.492253 
L 315.163823 -81.557924 
L 314.943393 -81.624499 
L 314.722964 -81.691981 
L 314.502535 -81.760372 
L 314.282106 -81.829675 
L 314.061676 -81.899892 
L 313.841247 -81.971027 
L 313.620818 -82.043081 
L 313.400389 -82.116058 
L 313.179959 -82.18996 
L 312.95953 -82.26479 
L 312.739101 -82.34055 
L 312.518672 -82.417243 
L 312.298242 -82.494872 
L 312.077813 -82.573439 
L 311.857384 -82.652947 
L 311.636955 -82.733399 
L 311.416525 -82.814797 
L 311.196096 -82.897144 
L 310.975667 -82.980442 
L 310.755238 -83.064695 
L 310.534808 -83.149904 
L 310.314379 -83.236073 
L 310.09395 -83.323204 
L 309.873521 -83.4113 
L 309.653091 -83.500363 
L 309.432662 -83.590396 
L 309.212233 -83.681402 
L 308.991804 -83.773383 
L 308.771374 -83.866342 
L 308.550945 -83.960282 
L 308.330516 -84.055205 
L 308.110087 -84.151114 
L 307.889657 -84.248012 
L 307.669228 -84.345901 
L 307.448799 -84.444783 
L 307.22837 -84.544662 
L 307.00794 -84.645541 
L 306.787511 -84.74742 
L 306.567082 -84.850305 
L 306.346653 -84.954196 
L 306.126223 -85.059097 
L 305.905794 -85.165011 
L 305.685365 -85.271939 
L 305.464936 -85.379886 
L 305.244506 -85.488852 
L 305.024077 -85.598841 
L 304.803648 -85.709856 
L 304.583219 -85.821899 
L 304.362789 -85.934973 
L 304.14236 -86.049081 
L 303.921931 -86.164224 
L 303.701502 -86.280406 
L 303.481072 -86.39763 
L 303.260643 -86.515898 
L 303.040214 -86.635213 
L 302.819785 -86.755577 
L 302.599355 -86.876992 
L 302.378926 -86.999463 
L 302.158497 -87.122991 
L 301.938068 -87.247579 
L 301.717638 -87.373229 
L 301.497209 -87.499945 
L 301.27678 -87.627728 
L 301.056351 -87.756582 
L 300.835921 -87.886509 
L 300.615492 -88.017512 
L 300.395063 -88.149593 
L 300.174634 -88.282756 
L 299.954204 -88.417002 
L 299.733775 -88.552334 
L 299.513346 -88.688756 
L 299.292917 -88.826269 
L 299.072487 -88.964876 
L 298.852058 -89.104581 
L 298.631629 -89.245385 
L 298.4112 -89.387291 
L 298.19077 -89.530302 
L 297.970341 -89.674421 
L 297.749912 -89.819649 
L 297.529483 -89.965991 
L 297.309053 -90.113448 
L 297.088624 -90.262023 
L 296.868195 -90.411719 
L 296.647766 -90.562538 
L 296.427336 -90.714484 
L 296.206907 -90.867557 
L 295.986478 -91.021763 
L 295.766048 -91.177102 
L 295.545619 -91.333578 
L 295.32519 -91.491193 
L 295.104761 -91.64995 
L 294.884331 -91.809851 
L 294.663902 -91.9709 
L 294.443473 -92.133098 
L 294.223044 -92.296449 
L 294.002614 -92.460955 
L 293.782185 -92.626619 
L 293.561756 -92.793443 
L 293.341327 -92.96143 
L 293.120897 -93.130583 
L 292.900468 -93.300904 
L 292.680039 -93.472396 
L 292.45961 -93.645062 
L 292.23918 -93.818904 
L 292.018751 -93.993925 
L 291.798322 -94.170128 
L 291.577893 -94.347514 
L 291.357463 -94.526088 
L 291.137034 -94.705851 
L 290.916605 -94.886806 
L 290.696176 -95.068955 
L 290.475746 -95.252303 
L 290.255317 -95.43685 
L 290.034888 -95.6226 
L 289.814459 -95.809555 
L 289.594029 -95.997718 
L 289.3736 -96.187092 
L 289.153171 -96.37768 
L 288.932742 -96.569483 
L 288.712312 -96.762504 
L 288.491883 -96.956747 
L 288.271454 -97.152214 
L 288.051025 -97.348907 
L 287.830595 -97.546829 
L 287.610166 -97.745983 
L 287.389737 -97.946372 
L 287.169308 -98.147997 
L 286.948878 -98.350862 
L 286.728449 -98.55497 
L 286.50802 -98.760322 
L 286.287591 -98.966923 
L 286.067161 -99.174773 
L 285.846732 -99.383876 
L 285.626303 -99.594235 
L 285.405874 -99.805853 
L 285.185444 -100.018731 
L 284.965015 -100.232872 
L 284.744586 -100.44828 
L 284.524157 -100.664956 
L 284.303727 -100.882904 
L 284.083298 -101.102126 
L 283.862869 -101.322625 
L 283.64244 -101.544402 
L 283.42201 -101.767462 
L 283.201581 -101.991807 
L 282.981152 -102.217439 
L 282.760723 -102.444361 
L 282.540293 -102.672575 
L 282.319864 -102.902085 
L 282.099435 -103.132892 
L 281.879006 -103.365001 
L 281.658576 -103.598412 
L 281.438147 -103.833129 
L 281.217718 -104.069154 
L 280.997289 -104.306491 
L 280.776859 -104.545141 
L 280.55643 -104.785107 
L 280.336001 -105.026393 
L 280.115572 -105.269 
L 279.895142 -105.512932 
L 279.674713 -105.75819 
L 279.454284 -106.004778 
L 279.233855 -106.252699 
L 279.013425 -106.501954 
L 278.792996 -106.752547 
L 278.572567 -107.004479 
L 278.352138 -107.257755 
L 278.131708 -107.512376 
L 277.911279 -107.768345 
L 277.69085 -108.025665 
L 277.470421 -108.284339 
L 277.249991 -108.544368 
L 277.029562 -108.805756 
L 276.809133 -109.068505 
L 276.588703 -109.332619 
L 276.368274 -109.598099 
L 276.147845 -109.864948 
L 275.927416 -110.133169 
L 275.706986 -110.402764 
L 275.486557 -110.673737 
L 275.266128 -110.94609 
L 275.045699 -111.219825 
L 274.825269 -111.494945 
L 274.60484 -111.771453 
L 274.384411 -112.049351 
L 274.163982 -112.328642 
L 273.943552 -112.609329 
L 273.723123 -112.891414 
L 273.502694 -113.174901 
L 273.282265 -113.459791 
L 273.061835 -113.746087 
L 272.841406 -114.033792 
L 272.620977 -114.322908 
L 272.400548 -114.613439 
L 272.180118 -114.905387 
L 271.959689 -115.198754 
L 271.73926 -115.493543 
L 271.518831 -115.789757 
L 271.298401 -116.087398 
L 271.077972 -116.386469 
L 270.857543 -116.686973 
L 270.637114 -116.988913 
L 270.416684 -117.29229 
L 270.196255 -117.597108 
L 269.975826 -117.90337 
L 269.755397 -118.211077 
L 269.534967 -118.520232 
L 269.314538 -118.830839 
L 269.094109 -119.1429 
L 268.87368 -119.456417 
L 268.65325 -119.771394 
L 268.432821 -120.087832 
L 268.212392 -120.405735 
L 267.991963 -120.725104 
L 267.771533 -121.045944 
L 267.551104 -121.368255 
L 267.330675 -121.692042 
L 267.110246 -122.017306 
L 266.889816 -122.344051 
L 266.669387 -122.672278 
L 266.448958 -123.001991 
L 266.228529 -123.333193 
L 266.008099 -123.665885 
L 265.78767 -124.00007 
L 265.567241 -124.335752 
L 265.346812 -124.672933 
L 265.126382 -125.011615 
L 264.905953 -125.351801 
L 264.685524 -125.693493 
L 264.465095 -126.036696 
L 264.244665 -126.38141 
L 264.024236 -126.727638 
L 263.803807 -127.075385 
L 263.583378 -127.424651 
L 263.362948 -127.775439 
L 263.142519 -128.127753 
L 262.92209 -128.481595 
L 262.701661 -128.836967 
L 262.481231 -129.193872 
L 262.260802 -129.552313 
L 262.040373 -129.912293 
L 261.819944 -130.273813 
L 261.599514 -130.636878 
L 261.379085 -131.001488 
L 261.158656 -131.367648 
L 260.938227 -131.735359 
L 260.717797 -132.104625 
L 260.497368 -132.475448 
L 260.276939 -132.84783 
L 260.05651 -133.221774 
L 259.83608 -133.597284 
L 259.615651 -133.974361 
L 259.395222 -134.353008 
L 259.174793 -134.733227 
L 258.954363 -135.115023 
L 258.733934 -135.498396 
L 258.513505 -135.88335 
L 258.293076 -136.269888 
L 258.072646 -136.658011 
L 257.852217 -137.047723 
L 257.631788 -137.439027 
L 257.411359 -137.831924 
L 257.190929 -138.226418 
L 256.9705 -138.622512 
L 256.750071 -139.020207 
L 256.529641 -139.419507 
L 256.309212 -139.820413 
L 256.088783 -140.22293 
L 255.868354 -140.627059 
L 255.647924 -141.032804 
L 255.427495 -141.440166 
L 255.207066 -141.849148 
L 254.986637 -142.259753 
L 254.766207 -142.671985 
L 254.545778 -143.085844 
L 254.325349 -143.501334 
L 254.10492 -143.918458 
L 253.88449 -144.337219 
L 253.664061 -144.757618 
L 253.443632 -145.179659 
L 253.223203 -145.603343 
L 253.002773 -146.028675 
L 252.782344 -146.455656 
L 252.561915 -146.88429 
L 252.341486 -147.314578 
L 252.121056 -147.746523 
L 251.900627 -148.180129 
L 251.680198 -148.615397 
L 251.459769 -149.052331 
L 251.239339 -149.490932 
L 251.01891 -149.931204 
L 250.798481 -150.37315 
L 250.578052 -150.816771 
L 250.357622 -151.262071 
L 250.137193 -151.709052 
L 249.916764 -152.157717 
L 249.696335 -152.608069 
L 249.475905 -153.060109 
L 249.255476 -153.513841 
L 249.035047 -153.969268 
L 248.814618 -154.426392 
L 248.594188 -154.885216 
L 248.373759 -155.345741 
L 248.15333 -155.807972 
L 247.932901 -156.271911 
L 247.712471 -156.737559 
L 247.492042 -157.204921 
L 247.271613 -157.673998 
L 247.051184 -158.144794 
L 246.830754 -158.61731 
L 246.610325 -159.09155 
L 246.389896 -159.567516 
L 246.169467 -160.045211 
L 245.949037 -160.524637 
L 245.728608 -161.005797 
L 245.508179 -161.488694 
L 245.28775 -161.97333 
L 245.06732 -162.459709 
L 244.846891 -162.947832 
L 244.626462 -163.437702 
L 244.406033 -163.929322 
L 244.185603 -164.422695 
L 243.965174 -164.917823 
L 243.744745 -165.414708 
L 243.524316 -165.913355 
L 243.303886 -166.413764 
L 243.083457 -166.91594 
L 242.863028 -167.419883 
L 242.642599 -167.925598 
L 242.422169 -168.433087 
L 242.20174 -168.942352 
L 241.981311 -169.453396 
L 241.760882 -169.966221 
L 241.540452 -170.480831 
L 241.320023 -170.997228 
L 241.099594 -171.515414 
L 240.879165 -172.035393 
L 240.658735 -172.557166 
z
"/>
    </defs>
    <g clip-path="url(#p47500b6f0a)">
     <use xlink:href="#m4f1ab58e1a" x="0" y="235.072031" style="fill: #e37c47; fill-opacity: 0.13"/>
    </g>
   </g>
   <g id="matplotlib.axis_3">
    <g id="xtick_4">
     <g id="line2d_9">
      <g>
       <use xlink:href="#mbeb86bf775" x="240.658735" y="197.42" style="fill: #6b7280; stroke: #6b7280"/>
      </g>
     </g>
     <g id="text_6">
      <!-- 0.0 -->
      <g style="fill: #303030" transform="translate(233.536235 213.063437) scale(0.11 -0.11)">
       <use xlink:href="#SegoeUI-30"/>
       <use xlink:href="#SegoeUI-2e" transform="translate(53.90625 0)"/>
       <use xlink:href="#SegoeUI-30" transform="translate(75.585938 0)"/>
      </g>
     </g>
    </g>
    <g id="xtick_5">
     <g id="line2d_10">
      <g>
       <use xlink:href="#mbeb86bf775" x="350.763147" y="197.42" style="fill: #6b7280; stroke: #6b7280"/>
      </g>
     </g>
     <g id="text_7">
      <!-- 0.5 -->
      <g style="fill: #303030" transform="translate(343.640647 213.063437) scale(0.11 -0.11)">
       <use xlink:href="#SegoeUI-30"/>
       <use xlink:href="#SegoeUI-2e" transform="translate(53.90625 0)"/>
       <use xlink:href="#SegoeUI-35" transform="translate(75.585938 0)"/>
      </g>
     </g>
    </g>
    <g id="xtick_6">
     <g id="line2d_11">
      <g>
       <use xlink:href="#mbeb86bf775" x="460.867559" y="197.42" style="fill: #6b7280; stroke: #6b7280"/>
      </g>
     </g>
     <g id="text_8">
      <!-- 1.0 -->
      <g style="fill: #303030" transform="translate(453.745059 213.063437) scale(0.11 -0.11)">
       <use xlink:href="#SegoeUI-31"/>
       <use xlink:href="#SegoeUI-2e" transform="translate(53.90625 0)"/>
       <use xlink:href="#SegoeUI-30" transform="translate(75.585938 0)"/>
      </g>
     </g>
    </g>
    <g id="text_9">
     <!-- $r\in[0,1]$ -->
     <g style="fill: #303030" transform="translate(326.383147 228.107031) scale(0.115 -0.115)">
      <use xlink:href="#DejaVuSans-Oblique-72" transform="translate(0 0.015625)"/>
      <use xlink:href="#DejaVuSans-2208" transform="translate(60.595703 0.015625)"/>
      <use xlink:href="#DejaVuSans-5b" transform="translate(167.1875 0.015625)"/>
      <use xlink:href="#DejaVuSans-30" transform="translate(206.201172 0.015625)"/>
      <use xlink:href="#DejaVuSans-2c" transform="translate(269.824219 0.015625)"/>
      <use xlink:href="#DejaVuSans-31" transform="translate(321.09375 0.015625)"/>
      <use xlink:href="#DejaVuSans-5d" transform="translate(384.716797 0.015625)"/>
     </g>
    </g>
   </g>
   <g id="matplotlib.axis_4"/>
   <g id="patch_5">
    <path d="M 240.658735 197.42 
L 460.867559 197.42 
" style="fill: none; stroke: #c9ccd3; stroke-linejoin: miter; stroke-linecap: square"/>
   </g>
   <g id="line2d_12">
    <path d="M 240.658735 111.352401 
L 243.965174 107.516661 
L 246.830754 104.512718 
L 249.475905 102.050296 
L 251.900627 100.087077 
L 254.10492 98.568425 
L 256.309212 97.320649 
L 258.293076 96.441367 
L 260.276939 95.80234 
L 262.260802 95.410905 
L 264.024236 95.275395 
L 265.78767 95.342742 
L 267.551104 95.614582 
L 269.314538 96.091403 
L 271.298401 96.871964 
L 273.282265 97.908365 
L 275.266128 99.196046 
L 277.470421 100.913687 
L 279.674713 102.922275 
L 282.099435 105.451001 
L 284.744586 108.565654 
L 287.610166 112.321166 
L 290.696176 116.754624 
L 294.223044 122.230312 
L 298.631629 129.524934 
L 307.00794 143.959091 
L 312.518672 153.19772 
L 316.265969 159.076095 
L 319.572408 163.862866 
L 322.437988 167.637803 
L 325.083139 170.768093 
L 327.507861 173.307603 
L 329.712153 175.321758 
L 331.916446 177.039746 
L 333.900309 178.322328 
L 335.884172 179.347647 
L 337.868036 180.110342 
L 339.63147 180.564967 
L 341.394904 180.808139 
L 343.158338 180.839879 
L 344.921772 180.661395 
L 346.685206 180.275081 
L 348.669069 179.596525 
L 350.652932 178.666246 
L 352.636796 177.49279 
L 354.841088 175.916255 
L 357.045381 174.068563 
L 359.470103 171.745261 
L 362.115254 168.895093 
L 364.980834 165.480796 
L 368.287273 161.189552 
L 372.254999 155.665527 
L 378.427018 146.633425 
L 385.701184 136.072219 
L 389.66891 130.690755 
L 392.975349 126.552552 
L 396.061359 123.048171 
L 398.70651 120.363383 
L 401.131231 118.188994 
L 403.555953 116.309811 
L 405.760246 114.871909 
L 407.964538 113.702111 
L 409.948401 112.884888 
L 411.932265 112.29487 
L 413.916128 111.934208 
L 415.899991 111.803395 
L 417.883855 111.901277 
L 419.867718 112.225095 
L 421.851581 112.77052 
L 423.835444 113.531712 
L 426.039737 114.621634 
L 428.244029 115.956942 
L 430.668751 117.692551 
L 433.313902 119.880633 
L 436.179483 122.563676 
L 439.265492 125.76931 
L 442.79236 129.763067 
L 447.200945 135.119143 
L 454.47511 144.387042 
L 460.867559 152.429755 
L 460.867559 152.429755 
" clip-path="url(#p47500b6f0a)" style="fill: none; stroke: #4a5c79; stroke-width: 2.4; stroke-linecap: round"/>
   </g>
   <g id="text_10">
    <!-- (b)  history and projection -->
    <g style="fill: #303030" transform="translate(282.124085 14.28) scale(0.12 -0.12)">
     <defs>
      <path id="SegoeUI-68" d="M 3175 0 
L 2663 0 
L 2663 1844 
Q 2663 2844 1919 2844 
Q 1544 2844 1287 2555 
Q 1031 2266 1031 1813 
L 1031 0 
L 519 0 
L 519 4738 
L 1031 4738 
L 1031 2669 
L 1044 2669 
Q 1413 3275 2094 3275 
Q 3175 3275 3175 1972 
L 3175 0 
z
" transform="scale(0.015625)"/>
      <path id="SegoeUI-74" d="M 2003 31 
Q 1822 -69 1525 -69 
Q 684 -69 684 869 
L 684 2763 
L 134 2763 
L 134 3200 
L 684 3200 
L 684 3981 
L 1197 4147 
L 1197 3200 
L 2003 3200 
L 2003 2763 
L 1197 2763 
L 1197 959 
Q 1197 638 1306 500 
Q 1416 363 1669 363 
Q 1863 363 2003 469 
L 2003 31 
z
" transform="scale(0.015625)"/>
      <path id="SegoeUI-6f" d="M 1856 -75 
Q 1147 -75 723 373 
Q 300 822 300 1563 
Q 300 2369 740 2822 
Q 1181 3275 1931 3275 
Q 2647 3275 3048 2834 
Q 3450 2394 3450 1613 
Q 3450 847 3017 386 
Q 2584 -75 1856 -75 
z
M 1894 2844 
Q 1400 2844 1112 2508 
Q 825 2172 825 1581 
Q 825 1013 1115 684 
Q 1406 356 1894 356 
Q 2391 356 2658 678 
Q 2925 1000 2925 1594 
Q 2925 2194 2658 2519 
Q 2391 2844 1894 2844 
z
" transform="scale(0.015625)"/>
      <path id="SegoeUI-72" d="M 2188 2681 
Q 2053 2784 1800 2784 
Q 1472 2784 1251 2475 
Q 1031 2166 1031 1631 
L 1031 0 
L 519 0 
L 519 3200 
L 1031 3200 
L 1031 2541 
L 1044 2541 
Q 1153 2878 1378 3067 
Q 1603 3256 1881 3256 
Q 2081 3256 2188 3213 
L 2188 2681 
z
" transform="scale(0.015625)"/>
      <path id="SegoeUI-79" d="M 3066 3200 
L 1594 -513 
Q 1200 -1506 488 -1506 
Q 288 -1506 153 -1466 
L 153 -1006 
Q 319 -1063 456 -1063 
Q 844 -1063 1038 -600 
L 1294 6 
L 44 3200 
L 613 3200 
L 1478 738 
Q 1494 691 1544 494 
L 1563 494 
Q 1578 569 1625 731 
L 2534 3200 
L 3066 3200 
z
" transform="scale(0.015625)"/>
      <path id="SegoeUI-6e" d="M 3175 0 
L 2663 0 
L 2663 1825 
Q 2663 2844 1919 2844 
Q 1534 2844 1282 2555 
Q 1031 2266 1031 1825 
L 1031 0 
L 519 0 
L 519 3200 
L 1031 3200 
L 1031 2669 
L 1044 2669 
Q 1406 3275 2094 3275 
Q 2619 3275 2897 2936 
Q 3175 2597 3175 1956 
L 3175 0 
z
" transform="scale(0.015625)"/>
      <path id="SegoeUI-64" d="M 3250 0 
L 2738 0 
L 2738 544 
L 2725 544 
Q 2369 -75 1625 -75 
Q 1022 -75 661 354 
Q 300 784 300 1525 
Q 300 2319 700 2797 
Q 1100 3275 1766 3275 
Q 2425 3275 2725 2756 
L 2738 2756 
L 2738 4738 
L 3250 4738 
L 3250 0 
z
M 2738 1447 
L 2738 1919 
Q 2738 2306 2481 2575 
Q 2225 2844 1831 2844 
Q 1363 2844 1094 2500 
Q 825 2156 825 1550 
Q 825 997 1083 676 
Q 1341 356 1775 356 
Q 2203 356 2470 665 
Q 2738 975 2738 1447 
z
" transform="scale(0.015625)"/>
      <path id="SegoeUI-70" d="M 1044 463 
L 1031 463 
L 1031 -1472 
L 519 -1472 
L 519 3200 
L 1031 3200 
L 1031 2638 
L 1044 2638 
Q 1422 3275 2150 3275 
Q 2769 3275 3116 2845 
Q 3463 2416 3463 1694 
Q 3463 891 3072 408 
Q 2681 -75 2003 -75 
Q 1381 -75 1044 463 
z
M 1031 1753 
L 1031 1306 
Q 1031 909 1289 632 
Q 1547 356 1944 356 
Q 2409 356 2673 712 
Q 2938 1069 2938 1703 
Q 2938 2238 2691 2541 
Q 2444 2844 2022 2844 
Q 1575 2844 1303 2533 
Q 1031 2222 1031 1753 
z
" transform="scale(0.015625)"/>
      <path id="SegoeUI-6a" d="M 1031 134 
Q 1031 -653 714 -1079 
Q 397 -1506 -194 -1506 
Q -413 -1506 -619 -1406 
L -619 -928 
Q -388 -1069 -181 -1069 
Q 519 -1069 519 50 
L 519 3200 
L 1031 3200 
L 1031 134 
z
M 781 4013 
Q 644 4013 547 4106 
Q 450 4200 450 4344 
Q 450 4488 547 4583 
Q 644 4678 781 4678 
Q 922 4678 1020 4583 
Q 1119 4488 1119 4344 
Q 1119 4206 1020 4109 
Q 922 4013 781 4013 
z
" transform="scale(0.015625)"/>
      <path id="SegoeUI-65" d="M 3091 1472 
L 831 1472 
Q 844 938 1119 647 
Q 1394 356 1875 356 
Q 2416 356 2869 713 
L 2869 231 
Q 2447 -75 1753 -75 
Q 1075 -75 687 361 
Q 300 797 300 1588 
Q 300 2334 723 2804 
Q 1147 3275 1775 3275 
Q 2403 3275 2747 2869 
Q 3091 2463 3091 1741 
L 3091 1472 
z
M 2566 1906 
Q 2563 2350 2352 2597 
Q 2141 2844 1766 2844 
Q 1403 2844 1150 2584 
Q 897 2325 838 1906 
L 2566 1906 
z
" transform="scale(0.015625)"/>
      <path id="SegoeUI-63" d="M 2700 147 
Q 2331 -75 1825 -75 
Q 1141 -75 720 370 
Q 300 816 300 1525 
Q 300 2316 753 2795 
Q 1206 3275 1963 3275 
Q 2384 3275 2706 3119 
L 2706 2594 
Q 2350 2844 1944 2844 
Q 1453 2844 1139 2492 
Q 825 2141 825 1569 
Q 825 1006 1120 681 
Q 1416 356 1913 356 
Q 2331 356 2700 634 
L 2700 147 
z
" transform="scale(0.015625)"/>
     </defs>
     <use xlink:href="#SegoeUI-28"/>
     <use xlink:href="#SegoeUI-62" transform="translate(30.175781 0)"/>
     <use xlink:href="#SegoeUI-29" transform="translate(88.964844 0)"/>
     <use xlink:href="#SegoeUI-20" transform="translate(119.140625 0)"/>
     <use xlink:href="#SegoeUI-20" transform="translate(146.533203 0)"/>
     <use xlink:href="#SegoeUI-68" transform="translate(173.925781 0)"/>
     <use xlink:href="#SegoeUI-69" transform="translate(230.517578 0)"/>
     <use xlink:href="#SegoeUI-73" transform="translate(254.736328 0)"/>
     <use xlink:href="#SegoeUI-74" transform="translate(297.167969 0)"/>
     <use xlink:href="#SegoeUI-6f" transform="translate(330.304688 0)"/>
     <use xlink:href="#SegoeUI-72" transform="translate(388.898438 0)"/>
     <use xlink:href="#SegoeUI-79" transform="translate(427.664062 0)"/>
     <use xlink:href="#SegoeUI-20" transform="translate(476.052734 0)"/>
     <use xlink:href="#SegoeUI-61" transform="translate(503.445312 0)"/>
     <use xlink:href="#SegoeUI-6e" transform="translate(554.324219 0)"/>
     <use xlink:href="#SegoeUI-64" transform="translate(610.916016 0)"/>
     <use xlink:href="#SegoeUI-20" transform="translate(669.802734 0)"/>
     <use xlink:href="#SegoeUI-70" transform="translate(697.195312 0)"/>
     <use xlink:href="#SegoeUI-72" transform="translate(755.984375 0)"/>
     <use xlink:href="#SegoeUI-6f" transform="translate(789.375 0)"/>
     <use xlink:href="#SegoeUI-6a" transform="translate(847.96875 0)"/>
     <use xlink:href="#SegoeUI-65" transform="translate(872.1875 0)"/>
     <use xlink:href="#SegoeUI-63" transform="translate(924.482422 0)"/>
     <use xlink:href="#SegoeUI-74" transform="translate(970.673828 0)"/>
     <use xlink:href="#SegoeUI-69" transform="translate(1004.560547 0)"/>
     <use xlink:href="#SegoeUI-6f" transform="translate(1028.779297 0)"/>
     <use xlink:href="#SegoeUI-6e" transform="translate(1087.373047 0)"/>
    </g>
   </g>
   <g id="line2d_13">
    <path d="M 240.658735 62.514865 
L 244.626462 71.63433 
L 248.594188 80.186816 
L 252.341486 87.757453 
L 256.088783 94.849101 
L 259.83608 101.474747 
L 263.583378 107.647381 
L 267.330675 113.379989 
L 270.857543 118.385058 
L 274.384411 123.02268 
L 277.911279 127.303686 
L 281.438147 131.238903 
L 284.965015 134.839159 
L 288.491883 138.115284 
L 292.018751 141.078106 
L 295.545619 143.738454 
L 299.072487 146.107155 
L 302.599355 148.195039 
L 306.126223 150.012934 
L 309.653091 151.571668 
L 313.179959 152.882071 
L 316.706828 153.95497 
L 320.233696 154.801195 
L 323.980993 155.464052 
L 327.72829 155.896228 
L 331.475587 156.11071 
L 335.443314 156.114965 
L 339.63147 155.887518 
L 343.819626 155.439678 
L 348.228211 154.750104 
L 353.077654 153.757968 
L 358.147527 152.488709 
L 363.658258 150.877075 
L 369.830277 148.834828 
L 377.104443 146.182394 
L 386.80333 142.389369 
L 405.760246 134.932434 
L 413.034411 132.337882 
L 419.20643 130.363126 
L 424.717161 128.82601 
L 429.787034 127.637187 
L 434.636478 126.732643 
L 439.045063 126.131738 
L 443.233219 125.776106 
L 447.421374 125.648637 
L 451.389101 125.754775 
L 455.136398 126.071882 
L 458.883696 126.612902 
L 460.867559 126.994408 
L 460.867559 126.994408 
" clip-path="url(#p47500b6f0a)" style="fill: none; stroke: #e37c47; stroke-width: 2.7; stroke-linecap: round"/>
   </g>
   <g id="legend_1">
    <g id="patch_6">
     <path d="M 247.658735 66.48 
L 348.158735 66.48 
Q 350.158735 66.48 350.158735 64.48 
L 350.158735 29.28 
Q 350.158735 27.28 348.158735 27.28 
L 247.658735 27.28 
Q 245.658735 27.28 245.658735 29.28 
L 245.658735 64.48 
Q 245.658735 66.48 247.658735 66.48 
z
" style="fill: #ffffff; opacity: 0.92; stroke: #c9ccd3; stroke-linejoin: miter"/>
    </g>
    <g id="line2d_14">
     <path d="M 251.158735 36.88 
L 259.158735 36.88 
L 267.158735 36.88 
" style="fill: none; stroke: #4a5c79; stroke-width: 2.4; stroke-linecap: round"/>
    </g>
    <g id="text_11">
     <!-- history  $f_t(r)$ -->
     <g style="fill: #303030" transform="translate(275.158735 40.38) scale(0.1 -0.1)">
      <defs>
       <path id="DejaVuSans-Oblique-66" d="M 3059 4863 
L 2969 4384 
L 2419 4384 
Q 2106 4384 1964 4261 
Q 1822 4138 1753 3809 
L 1691 3500 
L 2638 3500 
L 2553 3053 
L 1606 3053 
L 1013 0 
L 434 0 
L 1031 3053 
L 481 3053 
L 563 3500 
L 1113 3500 
L 1159 3744 
Q 1278 4363 1576 4613 
Q 1875 4863 2516 4863 
L 3059 4863 
z
" transform="scale(0.015625)"/>
       <path id="DejaVuSans-Oblique-74" d="M 2706 3500 
L 2619 3053 
L 1472 3053 
L 1100 1153 
Q 1081 1047 1072 975 
Q 1063 903 1063 863 
Q 1063 663 1183 572 
Q 1303 481 1569 481 
L 2150 481 
L 2053 0 
L 1503 0 
Q 991 0 739 200 
Q 488 400 488 806 
Q 488 878 497 964 
Q 506 1050 525 1153 
L 897 3053 
L 409 3053 
L 500 3500 
L 978 3500 
L 1172 4494 
L 1747 4494 
L 1556 3500 
L 2706 3500 
z
" transform="scale(0.015625)"/>
       <path id="DejaVuSans-28" d="M 1984 4856 
Q 1566 4138 1362 3434 
Q 1159 2731 1159 2009 
Q 1159 1288 1364 580 
Q 1569 -128 1984 -844 
L 1484 -844 
Q 1016 -109 783 600 
Q 550 1309 550 2009 
Q 550 2706 781 3412 
Q 1013 4119 1484 4856 
L 1984 4856 
z
" transform="scale(0.015625)"/>
       <path id="DejaVuSans-29" d="M 513 4856 
L 1013 4856 
Q 1481 4119 1714 3412 
Q 1947 2706 1947 2009 
Q 1947 1309 1714 600 
Q 1481 -109 1013 -844 
L 513 -844 
Q 928 -128 1133 580 
Q 1338 1288 1338 2009 
Q 1338 2731 1133 3434 
Q 928 4138 513 4856 
z
" transform="scale(0.015625)"/>
      </defs>
      <use xlink:href="#SegoeUI-68" transform="translate(0 0.015625)"/>
      <use xlink:href="#SegoeUI-69" transform="translate(56.591797 0.015625)"/>
      <use xlink:href="#SegoeUI-73" transform="translate(80.810547 0.015625)"/>
      <use xlink:href="#SegoeUI-74" transform="translate(123.242188 0.015625)"/>
      <use xlink:href="#SegoeUI-6f" transform="translate(157.128906 0.015625)"/>
      <use xlink:href="#SegoeUI-72" transform="translate(215.722656 0.015625)"/>
      <use xlink:href="#SegoeUI-79" transform="translate(250.488281 0.015625)"/>
      <use xlink:href="#SegoeUI-20" transform="translate(298.876953 0.015625)"/>
      <use xlink:href="#SegoeUI-20" transform="translate(326.269531 0.015625)"/>
      <use xlink:href="#DejaVuSans-Oblique-66" transform="translate(353.662109 0.015625)"/>
      <use xlink:href="#DejaVuSans-Oblique-74" transform="translate(388.867188 -16.390625) scale(0.7)"/>
      <use xlink:href="#DejaVuSans-28" transform="translate(419.047852 0.015625)"/>
      <use xlink:href="#DejaVuSans-Oblique-72" transform="translate(458.061523 0.015625)"/>
      <use xlink:href="#DejaVuSans-29" transform="translate(499.174805 0.015625)"/>
     </g>
    </g>
    <g id="line2d_15">
     <path d="M 251.158735 55.08 
L 259.158735 55.08 
L 267.158735 55.08 
" style="fill: none; stroke: #e37c47; stroke-width: 2.7; stroke-linecap: round"/>
    </g>
    <g id="text_12">
     <!-- projection  $\hat f_t(r)$ -->
     <g style="fill: #303030" transform="translate(275.158735 58.58) scale(0.1 -0.1)">
      <defs>
       <path id="DejaVuSans-302" d="M -1831 5119 
L -1369 5119 
L -603 3944 
L -1038 3944 
L -1600 4709 
L -2163 3944 
L -2597 3944 
L -1831 5119 
z
M -1600 3584 
L -1600 3584 
z
" transform="scale(0.015625)"/>
      </defs>
      <use xlink:href="#SegoeUI-70" transform="translate(0 0.53125)"/>
      <use xlink:href="#SegoeUI-72" transform="translate(58.789062 0.53125)"/>
      <use xlink:href="#SegoeUI-6f" transform="translate(93.554688 0.53125)"/>
      <use xlink:href="#SegoeUI-6a" transform="translate(152.148438 0.53125)"/>
      <use xlink:href="#SegoeUI-65" transform="translate(176.367188 0.53125)"/>
      <use xlink:href="#SegoeUI-63" transform="translate(228.662109 0.53125)"/>
      <use xlink:href="#SegoeUI-74" transform="translate(274.853516 0.53125)"/>
      <use xlink:href="#SegoeUI-69" transform="translate(308.740234 0.53125)"/>
      <use xlink:href="#SegoeUI-6f" transform="translate(332.958984 0.53125)"/>
      <use xlink:href="#SegoeUI-6e" transform="translate(391.552734 0.53125)"/>
      <use xlink:href="#SegoeUI-20" transform="translate(448.144531 0.53125)"/>
      <use xlink:href="#SegoeUI-20" transform="translate(475.537109 0.53125)"/>
      <use xlink:href="#DejaVuSans-302" transform="translate(553.761719 33.015625)"/>
      <use xlink:href="#DejaVuSans-Oblique-66" transform="translate(502.929688 0.53125)"/>
      <use xlink:href="#DejaVuSans-Oblique-74" transform="translate(544.902344 -15.875) scale(0.7)"/>
      <use xlink:href="#DejaVuSans-28" transform="translate(575.083008 0.53125)"/>
      <use xlink:href="#DejaVuSans-Oblique-72" transform="translate(614.09668 0.53125)"/>
      <use xlink:href="#DejaVuSans-29" transform="translate(655.209961 0.53125)"/>
     </g>
    </g>
   </g>
  </g>
  <g id="axes_3">
   <g id="patch_7">
    <path d="M 518.395559 197.42 
L 634.0985 197.42 
L 634.0985 22.28 
L 518.395559 22.28 
z
" style="fill: #ffffff"/>
   </g>
   <g id="matplotlib.axis_5">
    <g id="xtick_7">
     <g id="line2d_16"/>
     <g id="text_13">
      <!-- $c_{0}$ -->
      <g style="fill: #303030" transform="translate(529.649385 209.063437) scale(0.11 -0.11)">
       <defs>
        <path id="DejaVuSans-Oblique-63" d="M 3431 3366 
L 3316 2797 
Q 3109 2947 2876 3022 
Q 2644 3097 2394 3097 
Q 2119 3097 1870 3000 
Q 1622 2903 1453 2725 
Q 1184 2453 1037 2087 
Q 891 1722 891 1331 
Q 891 859 1127 628 
Q 1363 397 1844 397 
Q 2081 397 2348 469 
Q 2616 541 2906 684 
L 2797 116 
Q 2547 13 2283 -39 
Q 2019 -91 1741 -91 
Q 1044 -91 669 257 
Q 294 606 294 1253 
Q 294 1797 489 2255 
Q 684 2713 1069 3078 
Q 1331 3328 1684 3456 
Q 2038 3584 2456 3584 
Q 2700 3584 2940 3529 
Q 3181 3475 3431 3366 
z
" transform="scale(0.015625)"/>
       </defs>
       <use xlink:href="#DejaVuSans-Oblique-63"/>
       <use xlink:href="#DejaVuSans-30" transform="translate(54.980469 -16.40625) scale(0.7)"/>
      </g>
     </g>
    </g>
    <g id="xtick_8">
     <g id="line2d_17"/>
     <g id="text_14">
      <!-- $c_{1}$ -->
      <g style="fill: #303030" transform="translate(556.937815 209.063437) scale(0.11 -0.11)">
       <use xlink:href="#DejaVuSans-Oblique-63"/>
       <use xlink:href="#DejaVuSans-31" transform="translate(54.980469 -16.40625) scale(0.7)"/>
      </g>
     </g>
    </g>
    <g id="xtick_9">
     <g id="line2d_18"/>
     <g id="text_15">
      <!-- $c_{2}$ -->
      <g style="fill: #303030" transform="translate(584.226244 209.063437) scale(0.11 -0.11)">
       <defs>
        <path id="DejaVuSans-32" d="M 1228 531 
L 3431 531 
L 3431 0 
L 469 0 
L 469 531 
Q 828 903 1448 1529 
Q 2069 2156 2228 2338 
Q 2531 2678 2651 2914 
Q 2772 3150 2772 3378 
Q 2772 3750 2511 3984 
Q 2250 4219 1831 4219 
Q 1534 4219 1204 4116 
Q 875 4013 500 3803 
L 500 4441 
Q 881 4594 1212 4672 
Q 1544 4750 1819 4750 
Q 2544 4750 2975 4387 
Q 3406 4025 3406 3419 
Q 3406 3131 3298 2873 
Q 3191 2616 2906 2266 
Q 2828 2175 2409 1742 
Q 1991 1309 1228 531 
z
" transform="scale(0.015625)"/>
       </defs>
       <use xlink:href="#DejaVuSans-Oblique-63"/>
       <use xlink:href="#DejaVuSans-32" transform="translate(54.980469 -16.40625) scale(0.7)"/>
      </g>
     </g>
    </g>
    <g id="xtick_10">
     <g id="line2d_19"/>
     <g id="text_16">
      <!-- $c_{3}$ -->
      <g style="fill: #303030" transform="translate(611.514674 209.063437) scale(0.11 -0.11)">
       <defs>
        <path id="DejaVuSans-33" d="M 2597 2516 
Q 3050 2419 3304 2112 
Q 3559 1806 3559 1356 
Q 3559 666 3084 287 
Q 2609 -91 1734 -91 
Q 1441 -91 1130 -33 
Q 819 25 488 141 
L 488 750 
Q 750 597 1062 519 
Q 1375 441 1716 441 
Q 2309 441 2620 675 
Q 2931 909 2931 1356 
Q 2931 1769 2642 2001 
Q 2353 2234 1838 2234 
L 1294 2234 
L 1294 2753 
L 1863 2753 
Q 2328 2753 2575 2939 
Q 2822 3125 2822 3475 
Q 2822 3834 2567 4026 
Q 2313 4219 1838 4219 
Q 1578 4219 1281 4162 
Q 984 4106 628 3988 
L 628 4550 
Q 988 4650 1302 4700 
Q 1616 4750 1894 4750 
Q 2613 4750 3031 4423 
Q 3450 4097 3450 3541 
Q 3450 3153 3228 2886 
Q 3006 2619 2597 2516 
z
" transform="scale(0.015625)"/>
       </defs>
       <use xlink:href="#DejaVuSans-Oblique-63"/>
       <use xlink:href="#DejaVuSans-33" transform="translate(54.980469 -16.40625) scale(0.7)"/>
      </g>
     </g>
    </g>
   </g>
   <g id="matplotlib.axis_6"/>
   <g id="line2d_20">
    <path d="M 518.395559 145.351351 
L 634.0985 145.351351 
" clip-path="url(#p8369afbedd)" style="fill: none; stroke: #c9ccd3; stroke-linecap: round"/>
   </g>
   <g id="patch_8">
    <path d="M 518.395559 197.42 
L 634.0985 197.42 
" style="fill: none; stroke: #c9ccd3; stroke-linejoin: miter; stroke-linecap: square"/>
   </g>
   <g id="patch_9">
    <path d="M 526.309203 145.351351 
L 544.319567 145.351351 
L 544.319567 50.681081 
L 526.309203 50.681081 
z
" clip-path="url(#p8369afbedd)" style="fill: #4a5c79; stroke: #3a4a63; stroke-linejoin: miter"/>
   </g>
   <g id="patch_10">
    <path d="M 553.597633 145.351351 
L 571.607996 145.351351 
L 571.607996 165.56048 
L 553.597633 165.56048 
z
" clip-path="url(#p8369afbedd)" style="fill: #5e9c6e; stroke: #4c8159; stroke-linejoin: miter"/>
   </g>
   <g id="patch_11">
    <path d="M 580.886062 145.351351 
L 598.896426 145.351351 
L 598.896426 84.914071 
L 580.886062 84.914071 
z
" clip-path="url(#p8369afbedd)" style="fill: #8e78a8; stroke: #74608f; stroke-linejoin: miter"/>
   </g>
   <g id="patch_12">
    <path d="M 608.174492 145.351351 
L 626.184855 145.351351 
L 626.184855 173.632593 
L 608.174492 173.632593 
z
" clip-path="url(#p8369afbedd)" style="fill: #d6849a; stroke: #bf6c84; stroke-linejoin: miter"/>
   </g>
   <g id="text_17">
    <!-- (c)  state  $c\in\mathbb{R}^{N}$ -->
    <g style="fill: #303030" transform="translate(531.787029 14.28) scale(0.12 -0.12)">
     <defs>
      <path id="STIXGeneral-Italic-211d" d="M 1229 4179 
L 3360 4179 
Q 3827 4179 4108 3894 
Q 4390 3610 4390 3142 
Q 4390 2554 4060 2186 
Q 3731 1818 3149 1715 
L 4026 0 
L 2925 0 
L 2125 1690 
L 1549 1690 
L 1094 0 
L 109 0 
L 1229 4179 
z
M 3866 3821 
L 3392 2022 
Q 3770 2144 3962 2438 
Q 4154 2733 4154 3136 
Q 4154 3584 3866 3821 
z
M 3142 1978 
L 3648 3872 
Q 3450 3942 3296 3942 
L 2150 3942 
L 1613 1926 
L 2630 1926 
Q 2957 1926 3142 1978 
z
M 3629 237 
L 2899 1696 
Q 2829 1683 2682 1683 
Q 2630 1683 2531 1686 
Q 2432 1690 2387 1690 
L 3072 237 
L 3629 237 
z
M 1907 3942 
L 1408 3942 
L 416 237 
L 915 237 
L 1907 3942 
z
" transform="scale(0.015625)"/>
     </defs>
     <use xlink:href="#SegoeUI-28" transform="translate(0 0.684375)"/>
     <use xlink:href="#SegoeUI-63" transform="translate(30.675781 0.684375)"/>
     <use xlink:href="#SegoeUI-29" transform="translate(76.867188 0.684375)"/>
     <use xlink:href="#SegoeUI-20" transform="translate(107.042969 0.684375)"/>
     <use xlink:href="#SegoeUI-20" transform="translate(134.435547 0.684375)"/>
     <use xlink:href="#SegoeUI-73" transform="translate(161.828125 0.684375)"/>
     <use xlink:href="#SegoeUI-74" transform="translate(204.259766 0.684375)"/>
     <use xlink:href="#SegoeUI-61" transform="translate(238.146484 0.684375)"/>
     <use xlink:href="#SegoeUI-74" transform="translate(289.025391 0.684375)"/>
     <use xlink:href="#SegoeUI-65" transform="translate(322.912109 0.684375)"/>
     <use xlink:href="#SegoeUI-20" transform="translate(375.207031 0.684375)"/>
     <use xlink:href="#SegoeUI-20" transform="translate(402.599609 0.684375)"/>
     <use xlink:href="#DejaVuSans-Oblique-63" transform="translate(429.992188 0.684375)"/>
     <use xlink:href="#DejaVuSans-2208" transform="translate(504.455078 0.684375)"/>
     <use xlink:href="#STIXGeneral-Italic-211d" transform="translate(611.046875 0.684375)"/>
     <use xlink:href="#DejaVuSans-Oblique-4e" transform="translate(685.698315 38.965625) scale(0.7)"/>
    </g>
   </g>
  </g>
  <g id="text_18">
   <!-- $\langle f_t,\,g_n\rangle$ -->
   <g style="fill: #6b7280" transform="translate(194.184735 101.65) scale(0.11 -0.11)">
    <defs>
     <path id="DejaVuSans-27e8" d="M 572 2006 
L 1453 4856 
L 1984 4856 
L 1103 2006 
L 1984 -844 
L 1453 -844 
L 572 2006 
z
" transform="scale(0.015625)"/>
     <path id="DejaVuSans-Oblique-6e" d="M 3566 2113 
L 3156 0 
L 2578 0 
L 2988 2091 
Q 3016 2238 3031 2350 
Q 3047 2463 3047 2528 
Q 3047 2791 2881 2937 
Q 2716 3084 2419 3084 
Q 1956 3084 1622 2776 
Q 1288 2469 1184 1941 
L 800 0 
L 225 0 
L 903 3500 
L 1478 3500 
L 1363 2950 
Q 1603 3253 1940 3418 
Q 2278 3584 2650 3584 
Q 3113 3584 3367 3334 
Q 3622 3084 3622 2631 
Q 3622 2519 3608 2391 
Q 3594 2263 3566 2113 
z
" transform="scale(0.015625)"/>
     <path id="DejaVuSans-27e9" d="M 1925 2006 
L 1044 -844 
L 513 -844 
L 1394 2006 
L 513 4856 
L 1044 4856 
L 1925 2006 
z
" transform="scale(0.015625)"/>
    </defs>
    <use xlink:href="#DejaVuSans-27e8" transform="translate(0 0.015625)"/>
    <use xlink:href="#DejaVuSans-Oblique-66" transform="translate(39.013672 0.015625)"/>
    <use xlink:href="#DejaVuSans-Oblique-74" transform="translate(74.21875 -16.390625) scale(0.7)"/>
    <use xlink:href="#DejaVuSans-2c" transform="translate(104.399414 0.015625)"/>
    <use xlink:href="#DejaVuSans-Oblique-67" transform="translate(171.904622 0.015625)"/>
    <use xlink:href="#DejaVuSans-Oblique-6e" transform="translate(235.381184 -16.390625) scale(0.7)"/>
    <use xlink:href="#DejaVuSans-27e9" transform="translate(282.480793 0.015625)"/>
   </g>
  </g>
  <g id="text_19">
   <!-- $c_n$ -->
   <g style="fill: #6b7280" transform="translate(483.966559 101.65) scale(0.11 -0.11)">
    <use xlink:href="#DejaVuSans-Oblique-63"/>
    <use xlink:href="#DejaVuSans-Oblique-6e" transform="translate(54.980469 -16.40625) scale(0.7)"/>
   </g>
  </g>
  <g id="patch_13">
   <path d="M 190.543191 113 
Q 211.893826 113 231.56741 113 
" style="fill: none; stroke: #6b7280; stroke-width: 1.5; stroke-linecap: round"/>
   <path d="M 226.36741 110.4 
L 231.56741 113 
L 226.36741 115.6 
z
" style="fill: #6b7280; stroke: #6b7280; stroke-width: 1.5; stroke-linecap: round"/>
  </g>
  <g id="patch_14">
   <path d="M 468.280014 113 
Q 489.630649 113 509.304234 113 
" style="fill: none; stroke: #6b7280; stroke-width: 1.5; stroke-linecap: round"/>
   <path d="M 504.104234 110.4 
L 509.304234 113 
L 504.104234 115.6 
z
" style="fill: #6b7280; stroke: #6b7280; stroke-width: 1.5; stroke-linecap: round"/>
  </g>
 </g>
 <defs>
  <clipPath id="p2e1953a464">
   <rect x="11.4425" y="22.28" width="171.688235" height="175.14"/>
  </clipPath>
  <clipPath id="p47500b6f0a">
   <rect x="240.658735" y="22.28" width="220.208824" height="175.14"/>
  </clipPath>
  <clipPath id="p8369afbedd">
   <rect x="518.395559" y="22.28" width="115.702941" height="175.14"/>
  </clipPath>
 </defs>
</svg>
