<?xml version="1.0" encoding="utf-8" standalone="no"?>
<!DOCTYPE svg PUBLIC "-//W3C//DTD SVG 1.1//EN"
  "http://www.w3.org/Graphics/SVG/1.1/DTD/svg11.dtd">
<svg xmlns:xlink="http://www.w3.org/1999/xlink" width="644.832pt" height="210.993683pt" viewBox="0 0 644.832 210.993683" xmlns="http://www.w3.org/2000/svg" version="1.1">
 <metadata>
  <rdf:RDF xmlns:dc="http://purl.org/dc/elements/1.1/" xmlns:cc="http://creativecommons.org/ns#" xmlns:rdf="http://www.w3.org/1999/02/22-rdf-syntax-ns#">
   <cc:Work>
    <dc:type rdf:resource="http://purl.org/dc/dcmitype/StillImage"/>
    <dc:date>2026-06-04T12:46:13.185035</dc:date>
    <dc:format>image/svg+xml</dc:format>
    <dc:creator>
     <cc:Agent>
      <dc:title>Matplotlib v3.10.3, https://matplotlib.org/</dc:title>
     </cc:Agent>
    </dc:creator>
   </cc:Work>
  </rdf:RDF>
 </metadata>
 <defs>
  <style type="text/css">*{stroke-linejoin: round; stroke-linecap: butt}</style>
 </defs>
 <g id="figure_1">
  <g id="patch_1">
   <path d="M 0 210.993683 
L 644.832 210.993683 
L 644.832 0 
L 0 0 
z
" style="fill: #ffffff"/>
  </g>
  <g id="axes_1">
   <g id="FillBetweenPolyCollection_1">
    <defs>
     <path id="m6bca76894b" d="M 16.915342 -57.241446 
L 16.915342 -43.257436 
L 17.341248 -43.257436 
L 17.767153 -43.257436 
L 18.193059 -43.257436 
L 18.618965 -43.257436 
L 19.044871 -43.257436 
L 19.470776 -43.257436 
L 19.896682 -43.257436 
L 20.322588 -43.257436 
L 20.748493 -43.257436 
L 21.174399 -43.257436 
L 21.600305 -43.257436 
L 22.02621 -43.257436 
L 22.452116 -43.257436 
L 22.878022 -43.257436 
L 23.303928 -43.257436 
L 23.729833 -43.257436 
L 24.155739 -43.257436 
L 24.581645 -43.257436 
L 25.00755 -43.257436 
L 25.433456 -43.257436 
L 25.859362 -43.257436 
L 26.285267 -43.257436 
L 26.711173 -43.257436 
L 27.137079 -43.257436 
L 27.562985 -43.257436 
L 27.98889 -43.257436 
L 28.414796 -43.257436 
L 28.840702 -43.257436 
L 29.266607 -43.257436 
L 29.692513 -43.257436 
L 30.118419 -43.257436 
L 30.544325 -43.257436 
L 30.97023 -43.257436 
L 31.396136 -43.257436 
L 31.822042 -43.257436 
L 32.247947 -43.257436 
L 32.673853 -43.257436 
L 33.099759 -43.257436 
L 33.525664 -43.257436 
L 33.95157 -43.257436 
L 34.377476 -43.257436 
L 34.803382 -43.257436 
L 35.229287 -43.257436 
L 35.655193 -43.257436 
L 36.081099 -43.257436 
L 36.507004 -43.257436 
L 36.93291 -43.257436 
L 37.358816 -43.257436 
L 37.784721 -43.257436 
L 38.210627 -43.257436 
L 38.636533 -43.257436 
L 39.062439 -43.257436 
L 39.488344 -43.257436 
L 39.91425 -43.257436 
L 40.340156 -43.257436 
L 40.766061 -43.257436 
L 41.191967 -43.257436 
L 41.617873 -43.257436 
L 42.043778 -43.257436 
L 42.469684 -43.257436 
L 42.89559 -43.257436 
L 43.321496 -43.257436 
L 43.747401 -43.257436 
L 44.173307 -43.257436 
L 44.599213 -43.257436 
L 45.025118 -43.257436 
L 45.451024 -43.257436 
L 45.87693 -43.257436 
L 46.302835 -43.257436 
L 46.728741 -43.257436 
L 47.154647 -43.257436 
L 47.580553 -43.257436 
L 48.006458 -43.257436 
L 48.432364 -43.257436 
L 48.85827 -43.257436 
L 49.284175 -43.257436 
L 49.710081 -43.257436 
L 50.135987 -43.257436 
L 50.561892 -43.257436 
L 50.987798 -43.257436 
L 51.413704 -43.257436 
L 51.83961 -43.257436 
L 52.265515 -43.257436 
L 52.691421 -43.257436 
L 53.117327 -43.257436 
L 53.543232 -43.257436 
L 53.969138 -43.257436 
L 54.395044 -43.257436 
L 54.820949 -43.257436 
L 55.246855 -43.257436 
L 55.672761 -43.257436 
L 56.098667 -43.257436 
L 56.524572 -43.257436 
L 56.950478 -43.257436 
L 57.376384 -43.257436 
L 57.802289 -43.257436 
L 58.228195 -43.257436 
L 58.654101 -43.257436 
L 59.080006 -43.257436 
L 59.505912 -43.257436 
L 59.931818 -43.257436 
L 60.357724 -43.257436 
L 60.783629 -43.257436 
L 61.209535 -43.257436 
L 61.635441 -43.257436 
L 62.061346 -43.257436 
L 62.487252 -43.257436 
L 62.913158 -43.257436 
L 63.339064 -43.257436 
L 63.764969 -43.257436 
L 64.190875 -43.257436 
L 64.616781 -43.257436 
L 65.042686 -43.257436 
L 65.468592 -43.257436 
L 65.894498 -43.257436 
L 66.320403 -43.257436 
L 66.746309 -43.257436 
L 67.172215 -43.257436 
L 67.598121 -43.257436 
L 68.024026 -43.257436 
L 68.449932 -43.257436 
L 68.875838 -43.257436 
L 69.301743 -43.257436 
L 69.727649 -43.257436 
L 70.153555 -43.257436 
L 70.57946 -43.257436 
L 71.005366 -43.257436 
L 71.431272 -43.257436 
L 71.857178 -43.257436 
L 72.283083 -43.257436 
L 72.708989 -43.257436 
L 73.134895 -43.257436 
L 73.5608 -43.257436 
L 73.986706 -43.257436 
L 74.412612 -43.257436 
L 74.838517 -43.257436 
L 75.264423 -43.257436 
L 75.690329 -43.257436 
L 76.116235 -43.257436 
L 76.54214 -43.257436 
L 76.968046 -43.257436 
L 77.393952 -43.257436 
L 77.819857 -43.257436 
L 78.245763 -43.257436 
L 78.671669 -43.257436 
L 79.097574 -43.257436 
L 79.52348 -43.257436 
L 79.949386 -43.257436 
L 80.375292 -43.257436 
L 80.801197 -43.257436 
L 81.227103 -43.257436 
L 81.653009 -43.257436 
L 82.078914 -43.257436 
L 82.50482 -43.257436 
L 82.930726 -43.257436 
L 83.356631 -43.257436 
L 83.782537 -43.257436 
L 84.208443 -43.257436 
L 84.634349 -43.257436 
L 85.060254 -43.257436 
L 85.48616 -43.257436 
L 85.912066 -43.257436 
L 86.337971 -43.257436 
L 86.763877 -43.257436 
L 87.189783 -43.257436 
L 87.615688 -43.257436 
L 88.041594 -43.257436 
L 88.4675 -43.257436 
L 88.893406 -43.257436 
L 89.319311 -43.257436 
L 89.745217 -43.257436 
L 90.171123 -43.257436 
L 90.597028 -43.257436 
L 91.022934 -43.257436 
L 91.44884 -43.257436 
L 91.874745 -43.257436 
L 92.300651 -43.257436 
L 92.726557 -43.257436 
L 93.152463 -43.257436 
L 93.578368 -43.257436 
L 94.004274 -43.257436 
L 94.43018 -43.257436 
L 94.856085 -43.257436 
L 95.281991 -43.257436 
L 95.707897 -43.257436 
L 96.133803 -43.257436 
L 96.559708 -43.257436 
L 96.985614 -43.257436 
L 97.41152 -43.257436 
L 97.837425 -43.257436 
L 98.263331 -43.257436 
L 98.689237 -43.257436 
L 99.115142 -43.257436 
L 99.541048 -43.257436 
L 99.966954 -43.257436 
L 100.39286 -43.257436 
L 100.818765 -43.257436 
L 101.244671 -43.257436 
L 101.670577 -43.257436 
L 102.096482 -43.257436 
L 102.522388 -43.257436 
L 102.948294 -43.257436 
L 103.374199 -43.257436 
L 103.800105 -43.257436 
L 104.226011 -43.257436 
L 104.651917 -43.257436 
L 105.077822 -43.257436 
L 105.503728 -43.257436 
L 105.929634 -43.257436 
L 106.355539 -43.257436 
L 106.781445 -43.257436 
L 107.207351 -43.257436 
L 107.633256 -43.257436 
L 108.059162 -43.257436 
L 108.485068 -43.257436 
L 108.910974 -43.257436 
L 109.336879 -43.257436 
L 109.762785 -43.257436 
L 110.188691 -43.257436 
L 110.614596 -43.257436 
L 111.040502 -43.257436 
L 111.466408 -43.257436 
L 111.892313 -43.257436 
L 112.318219 -43.257436 
L 112.744125 -43.257436 
L 113.170031 -43.257436 
L 113.595936 -43.257436 
L 114.021842 -43.257436 
L 114.447748 -43.257436 
L 114.873653 -43.257436 
L 115.299559 -43.257436 
L 115.725465 -43.257436 
L 116.15137 -43.257436 
L 116.577276 -43.257436 
L 117.003182 -43.257436 
L 117.429088 -43.257436 
L 117.854993 -43.257436 
L 118.280899 -43.257436 
L 118.706805 -43.257436 
L 119.13271 -43.257436 
L 119.558616 -43.257436 
L 119.984522 -43.257436 
L 120.410427 -43.257436 
L 120.836333 -43.257436 
L 121.262239 -43.257436 
L 121.688145 -43.257436 
L 122.11405 -43.257436 
L 122.539956 -43.257436 
L 122.965862 -43.257436 
L 123.391767 -43.257436 
L 123.817673 -43.257436 
L 124.243579 -43.257436 
L 124.669484 -43.257436 
L 125.09539 -43.257436 
L 125.521296 -43.257436 
L 125.947202 -43.257436 
L 126.373107 -43.257436 
L 126.799013 -43.257436 
L 127.224919 -43.257436 
L 127.650824 -43.257436 
L 128.07673 -43.257436 
L 128.502636 -43.257436 
L 128.928542 -43.257436 
L 129.354447 -43.257436 
L 129.780353 -43.257436 
L 130.206259 -43.257436 
L 130.632164 -43.257436 
L 131.05807 -43.257436 
L 131.483976 -43.257436 
L 131.909881 -43.257436 
L 132.335787 -43.257436 
L 132.761693 -43.257436 
L 133.187599 -43.257436 
L 133.613504 -43.257436 
L 134.03941 -43.257436 
L 134.465316 -43.257436 
L 134.891221 -43.257436 
L 135.317127 -43.257436 
L 135.743033 -43.257436 
L 136.168938 -43.257436 
L 136.594844 -43.257436 
L 137.02075 -43.257436 
L 137.446656 -43.257436 
L 137.872561 -43.257436 
L 138.298467 -43.257436 
L 138.724373 -43.257436 
L 139.150278 -43.257436 
L 139.576184 -43.257436 
L 140.00209 -43.257436 
L 140.427995 -43.257436 
L 140.853901 -43.257436 
L 141.279807 -43.257436 
L 141.705713 -43.257436 
L 142.131618 -43.257436 
L 142.557524 -43.257436 
L 142.98343 -43.257436 
L 143.409335 -43.257436 
L 143.835241 -43.257436 
L 144.261147 -43.257436 
L 144.687052 -43.257436 
L 145.112958 -43.257436 
L 145.538864 -43.257436 
L 145.96477 -43.257436 
L 146.390675 -43.257436 
L 146.816581 -43.257436 
L 147.242487 -43.257436 
L 147.668392 -43.257436 
L 148.094298 -43.257436 
L 148.520204 -43.257436 
L 148.946109 -43.257436 
L 149.372015 -43.257436 
L 149.797921 -43.257436 
L 150.223827 -43.257436 
L 150.649732 -43.257436 
L 151.075638 -43.257436 
L 151.501544 -43.257436 
L 151.927449 -43.257436 
L 152.353355 -43.257436 
L 152.779261 -43.257436 
L 153.205166 -43.257436 
L 153.631072 -43.257436 
L 154.056978 -43.257436 
L 154.482884 -43.257436 
L 154.908789 -43.257436 
L 155.334695 -43.257436 
L 155.760601 -43.257436 
L 156.186506 -43.257436 
L 156.612412 -43.257436 
L 157.038318 -43.257436 
L 157.464223 -43.257436 
L 157.890129 -43.257436 
L 158.316035 -43.257436 
L 158.741941 -43.257436 
L 159.167846 -43.257436 
L 159.593752 -43.257436 
L 160.019658 -43.257436 
L 160.445563 -43.257436 
L 160.871469 -43.257436 
L 161.297375 -43.257436 
L 161.72328 -43.257436 
L 162.149186 -43.257436 
L 162.575092 -43.257436 
L 163.000998 -43.257436 
L 163.426903 -43.257436 
L 163.852809 -43.257436 
L 164.278715 -43.257436 
L 164.70462 -43.257436 
L 165.130526 -43.257436 
L 165.556432 -43.257436 
L 165.982338 -43.257436 
L 166.408243 -43.257436 
L 166.834149 -43.257436 
L 167.260055 -43.257436 
L 167.68596 -43.257436 
L 168.111866 -43.257436 
L 168.537772 -43.257436 
L 168.963677 -43.257436 
L 169.389583 -43.257436 
L 169.815489 -43.257436 
L 170.241395 -43.257436 
L 170.6673 -43.257436 
L 171.093206 -43.257436 
L 171.519112 -43.257436 
L 171.945017 -43.257436 
L 172.370923 -43.257436 
L 172.796829 -43.257436 
L 173.222734 -43.257436 
L 173.64864 -43.257436 
L 174.074546 -43.257436 
L 174.500452 -43.257436 
L 174.926357 -43.257436 
L 175.352263 -43.257436 
L 175.778169 -43.257436 
L 176.204074 -43.257436 
L 176.62998 -43.257436 
L 177.055886 -43.257436 
L 177.481791 -43.257436 
L 177.907697 -43.257436 
L 178.333603 -43.257436 
L 178.759509 -43.257436 
L 179.185414 -43.257436 
L 179.61132 -43.257436 
L 180.037226 -43.257436 
L 180.463131 -43.257436 
L 180.889037 -43.257436 
L 181.314943 -43.257436 
L 181.740848 -43.257436 
L 182.166754 -43.257436 
L 182.59266 -43.257436 
L 183.018566 -43.257436 
L 183.444471 -43.257436 
L 183.870377 -43.257436 
L 184.296283 -43.257436 
L 184.722188 -43.257436 
L 185.148094 -43.257436 
L 185.574 -43.257436 
L 185.999905 -43.257436 
L 186.425811 -43.257436 
L 186.851717 -43.257436 
L 187.277623 -43.257436 
L 187.703528 -43.257436 
L 188.129434 -43.257436 
L 188.55534 -43.257436 
L 188.981245 -43.257436 
L 189.407151 -43.257436 
L 189.833057 -43.257436 
L 190.258962 -43.257436 
L 190.684868 -43.257436 
L 191.110774 -43.257436 
L 191.53668 -43.257436 
L 191.962585 -43.257436 
L 192.388491 -43.257436 
L 192.814397 -43.257436 
L 193.240302 -43.257436 
L 193.666208 -43.257436 
L 194.092114 -43.257436 
L 194.518019 -43.257436 
L 194.943925 -43.257436 
L 195.369831 -43.257436 
L 195.795737 -43.257436 
L 196.221642 -43.257436 
L 196.647548 -43.257436 
L 197.073454 -43.257436 
L 197.499359 -43.257436 
L 197.925265 -43.257436 
L 198.351171 -43.257436 
L 198.777077 -43.257436 
L 199.202982 -43.257436 
L 199.628888 -43.257436 
L 200.054794 -43.257436 
L 200.480699 -43.257436 
L 200.906605 -43.257436 
L 201.332511 -43.257436 
L 201.758416 -43.257436 
L 202.184322 -43.257436 
L 202.610228 -43.257436 
L 203.036134 -43.257436 
L 203.462039 -43.257436 
L 203.887945 -43.257436 
L 204.313851 -43.257436 
L 204.739756 -43.257436 
L 205.165662 -43.257436 
L 205.591568 -43.257436 
L 206.017473 -43.257436 
L 206.443379 -43.257436 
L 206.869285 -43.257436 
L 207.295191 -43.257436 
L 207.721096 -43.257436 
L 208.147002 -43.257436 
L 208.572908 -43.257436 
L 208.998813 -43.257436 
L 209.424719 -43.257436 
L 209.850625 -43.257436 
L 210.27653 -43.257436 
L 210.702436 -43.257436 
L 211.128342 -43.257436 
L 211.554248 -43.257436 
L 211.980153 -43.257436 
L 212.406059 -43.257436 
L 212.831965 -43.257436 
L 213.25787 -43.257436 
L 213.683776 -43.257436 
L 214.109682 -43.257436 
L 214.535587 -43.257436 
L 214.961493 -43.257436 
L 215.387399 -43.257436 
L 215.813305 -43.257436 
L 216.23921 -43.257436 
L 216.665116 -43.257436 
L 217.091022 -43.257436 
L 217.516927 -43.257436 
L 217.942833 -43.257436 
L 218.368739 -43.257436 
L 218.794644 -43.257436 
L 219.22055 -43.257436 
L 219.646456 -43.257436 
L 220.072362 -43.257436 
L 220.498267 -43.257436 
L 220.924173 -43.257436 
L 221.350079 -43.257436 
L 221.775984 -43.257436 
L 222.20189 -43.257436 
L 222.627796 -43.257436 
L 223.053701 -43.257436 
L 223.479607 -43.257436 
L 223.905513 -43.257436 
L 224.331419 -43.257436 
L 224.757324 -43.257436 
L 225.18323 -43.257436 
L 225.609136 -43.257436 
L 226.035041 -43.257436 
L 226.460947 -43.257436 
L 226.886853 -43.257436 
L 227.312758 -43.257436 
L 227.738664 -43.257436 
L 228.16457 -43.257436 
L 228.590476 -43.257436 
L 229.016381 -43.257436 
L 229.442287 -43.257436 
L 229.868193 -43.257436 
L 230.294098 -43.257436 
L 230.720004 -43.257436 
L 231.14591 -43.257436 
L 231.571816 -43.257436 
L 231.997721 -43.257436 
L 232.423627 -43.257436 
L 232.849533 -43.257436 
L 233.275438 -43.257436 
L 233.701344 -43.257436 
L 234.12725 -43.257436 
L 234.553155 -43.257436 
L 234.979061 -43.257436 
L 235.404967 -43.257436 
L 235.830873 -43.257436 
L 236.256778 -43.257436 
L 236.682684 -43.257436 
L 237.10859 -43.257436 
L 237.534495 -43.257436 
L 237.960401 -43.257436 
L 238.386307 -43.257436 
L 238.812212 -43.257436 
L 239.238118 -43.257436 
L 239.664024 -43.257436 
L 240.08993 -43.257436 
L 240.515835 -43.257436 
L 240.941741 -43.257436 
L 241.367647 -43.257436 
L 241.793552 -43.257436 
L 242.219458 -43.257436 
L 242.645364 -43.257436 
L 243.071269 -43.257436 
L 243.497175 -43.257436 
L 243.923081 -43.257436 
L 244.348987 -43.257436 
L 244.774892 -43.257436 
L 245.200798 -43.257436 
L 245.626704 -43.257436 
L 246.052609 -43.257436 
L 246.478515 -43.257436 
L 246.904421 -43.257436 
L 247.330326 -43.257436 
L 247.756232 -43.257436 
L 248.182138 -43.257436 
L 248.608044 -43.257436 
L 249.033949 -43.257436 
L 249.459855 -43.257436 
L 249.885761 -43.257436 
L 250.311666 -43.257436 
L 250.737572 -43.257436 
L 251.163478 -43.257436 
L 251.589383 -43.257436 
L 252.015289 -43.257436 
L 252.441195 -43.257436 
L 252.867101 -43.257436 
L 253.293006 -43.257436 
L 253.718912 -43.257436 
L 254.144818 -43.257436 
L 254.570723 -43.257436 
L 254.996629 -43.257436 
L 255.422535 -43.257436 
L 255.84844 -43.257436 
L 256.274346 -43.257436 
L 256.700252 -43.257436 
L 257.126158 -43.257436 
L 257.552063 -43.257436 
L 257.977969 -43.257436 
L 258.403875 -43.257436 
L 258.82978 -43.257436 
L 259.255686 -43.257436 
L 259.681592 -43.257436 
L 260.107497 -43.257436 
L 260.533403 -43.257436 
L 260.959309 -43.257436 
L 261.385215 -43.257436 
L 261.81112 -43.257436 
L 262.237026 -43.257436 
L 262.662932 -43.257436 
L 263.088837 -43.257436 
L 263.514743 -43.257436 
L 263.940649 -43.257436 
L 264.366555 -43.257436 
L 264.79246 -43.257436 
L 265.218366 -43.257436 
L 265.644272 -43.257436 
L 266.070177 -43.257436 
L 266.496083 -43.257436 
L 266.921989 -43.257436 
L 267.347894 -43.257436 
L 267.7738 -43.257436 
L 268.199706 -43.257436 
L 268.625612 -43.257436 
L 269.051517 -43.257436 
L 269.477423 -43.257436 
L 269.903329 -43.257436 
L 270.329234 -43.257436 
L 270.75514 -43.257436 
L 271.181046 -43.257436 
L 271.606951 -43.257436 
L 272.032857 -43.257436 
L 272.458763 -43.257436 
L 272.884669 -43.257436 
L 273.310574 -43.257436 
L 273.73648 -43.257436 
L 274.162386 -43.257436 
L 274.588291 -43.257436 
L 275.014197 -43.257436 
L 275.440103 -43.257436 
L 275.866008 -43.257436 
L 276.291914 -43.257436 
L 276.71782 -43.257436 
L 277.143726 -43.257436 
L 277.569631 -43.257436 
L 277.995537 -43.257436 
L 278.421443 -43.257436 
L 278.847348 -43.257436 
L 279.273254 -43.257436 
L 279.69916 -43.257436 
L 280.125065 -43.257436 
L 280.550971 -43.257436 
L 280.976877 -43.257436 
L 281.402783 -43.257436 
L 281.828688 -43.257436 
L 282.254594 -43.257436 
L 282.6805 -43.257436 
L 283.106405 -43.257436 
L 283.532311 -43.257436 
L 283.958217 -43.257436 
L 284.384122 -43.257436 
L 284.810028 -43.257436 
L 285.235934 -43.257436 
L 285.66184 -43.257436 
L 286.087745 -43.257436 
L 286.513651 -43.257436 
L 286.939557 -43.257436 
L 287.365462 -43.257436 
L 287.791368 -43.257436 
L 288.217274 -43.257436 
L 288.643179 -43.257436 
L 289.069085 -43.257436 
L 289.494991 -43.257436 
L 289.920897 -43.257436 
L 290.346802 -43.257436 
L 290.772708 -43.257436 
L 291.198614 -43.257436 
L 291.624519 -43.257436 
L 292.050425 -43.257436 
L 292.476331 -43.257436 
L 292.902236 -43.257436 
L 293.328142 -43.257436 
L 293.754048 -43.257436 
L 294.179954 -43.257436 
L 294.605859 -43.257436 
L 295.031765 -43.257436 
L 295.457671 -43.257436 
L 295.883576 -43.257436 
L 296.309482 -43.257436 
L 296.735388 -43.257436 
L 297.161294 -43.257436 
L 297.587199 -43.257436 
L 298.013105 -43.257436 
L 298.439011 -43.257436 
L 298.864916 -43.257436 
L 299.290822 -43.257436 
L 299.716728 -43.257436 
L 300.142633 -43.257436 
L 300.568539 -43.257436 
L 300.994445 -43.257436 
L 301.420351 -43.257436 
L 301.846256 -43.257436 
L 302.272162 -43.257436 
L 302.698068 -43.257436 
L 303.123973 -43.257436 
L 303.549879 -43.257436 
L 303.975785 -43.257436 
L 304.40169 -43.257436 
L 304.827596 -43.257436 
L 305.253502 -43.257436 
L 305.679408 -43.257436 
L 306.105313 -43.257436 
L 306.531219 -43.257436 
L 306.957125 -43.257436 
L 307.38303 -43.257436 
L 307.808936 -43.257436 
L 308.234842 -43.257436 
L 308.660747 -43.257436 
L 309.086653 -43.257436 
L 309.512559 -43.257436 
L 309.938465 -43.257436 
L 310.36437 -43.257436 
L 310.790276 -43.257436 
L 311.216182 -43.257436 
L 311.642087 -43.257436 
L 312.067993 -43.257436 
L 312.493899 -43.257436 
L 312.919804 -43.257436 
L 313.34571 -43.257436 
L 313.771616 -43.257436 
L 314.197522 -43.257436 
L 314.623427 -43.257436 
L 314.623427 -124.610417 
L 314.623427 -124.610417 
L 314.197522 -124.811092 
L 313.771616 -125.009177 
L 313.34571 -125.20461 
L 312.919804 -125.397332 
L 312.493899 -125.587284 
L 312.067993 -125.774407 
L 311.642087 -125.958643 
L 311.216182 -126.139937 
L 310.790276 -126.318232 
L 310.36437 -126.493474 
L 309.938465 -126.665609 
L 309.512559 -126.834583 
L 309.086653 -127.000347 
L 308.660747 -127.162847 
L 308.234842 -127.322036 
L 307.808936 -127.477865 
L 307.38303 -127.630286 
L 306.957125 -127.779255 
L 306.531219 -127.924725 
L 306.105313 -128.066655 
L 305.679408 -128.205001 
L 305.253502 -128.339724 
L 304.827596 -128.470785 
L 304.40169 -128.598145 
L 303.975785 -128.721769 
L 303.549879 -128.841623 
L 303.123973 -128.957672 
L 302.698068 -129.069887 
L 302.272162 -129.178237 
L 301.846256 -129.282694 
L 301.420351 -129.383232 
L 300.994445 -129.479827 
L 300.568539 -129.572456 
L 300.142633 -129.661098 
L 299.716728 -129.745734 
L 299.290822 -129.826347 
L 298.864916 -129.902921 
L 298.439011 -129.975445 
L 298.013105 -130.043905 
L 297.587199 -130.108294 
L 297.161294 -130.168604 
L 296.735388 -130.224831 
L 296.309482 -130.27697 
L 295.883576 -130.325022 
L 295.457671 -130.368987 
L 295.031765 -130.408871 
L 294.605859 -130.444677 
L 294.179954 -130.476415 
L 293.754048 -130.504094 
L 293.328142 -130.527728 
L 292.902236 -130.547331 
L 292.476331 -130.562921 
L 292.050425 -130.574517 
L 291.624519 -130.582142 
L 291.198614 -130.585819 
L 290.772708 -130.585576 
L 290.346802 -130.581442 
L 289.920897 -130.57345 
L 289.494991 -130.561632 
L 289.069085 -130.546026 
L 288.643179 -130.526671 
L 288.217274 -130.50361 
L 287.791368 -130.476885 
L 287.365462 -130.446544 
L 286.939557 -130.412637 
L 286.513651 -130.375214 
L 286.087745 -130.334332 
L 285.66184 -130.290045 
L 285.235934 -130.242415 
L 284.810028 -130.191502 
L 284.384122 -130.137373 
L 283.958217 -130.080093 
L 283.532311 -130.019733 
L 283.106405 -129.956364 
L 282.6805 -129.890063 
L 282.254594 -129.820905 
L 281.828688 -129.74897 
L 281.402783 -129.674342 
L 280.976877 -129.597105 
L 280.550971 -129.517346 
L 280.125065 -129.435156 
L 279.69916 -129.350625 
L 279.273254 -129.263849 
L 278.847348 -129.174925 
L 278.421443 -129.083952 
L 277.995537 -128.991033 
L 277.569631 -128.89627 
L 277.143726 -128.799771 
L 276.71782 -128.701644 
L 276.291914 -128.602001 
L 275.866008 -128.500953 
L 275.440103 -128.398616 
L 275.014197 -128.295108 
L 274.588291 -128.190548 
L 274.162386 -128.085057 
L 273.73648 -127.978759 
L 273.310574 -127.871779 
L 272.884669 -127.764244 
L 272.458763 -127.656283 
L 272.032857 -127.548028 
L 271.606951 -127.439611 
L 271.181046 -127.331165 
L 270.75514 -127.222828 
L 270.329234 -127.114735 
L 269.903329 -127.007027 
L 269.477423 -126.899843 
L 269.051517 -126.793324 
L 268.625612 -126.687614 
L 268.199706 -126.582857 
L 267.7738 -126.479198 
L 267.347894 -126.376783 
L 266.921989 -126.27576 
L 266.496083 -126.176275 
L 266.070177 -126.078479 
L 265.644272 -125.98252 
L 265.218366 -125.888549 
L 264.79246 -125.796717 
L 264.366555 -125.707174 
L 263.940649 -125.620072 
L 263.514743 -125.535563 
L 263.088837 -125.453799 
L 262.662932 -125.374931 
L 262.237026 -125.299111 
L 261.81112 -125.226492 
L 261.385215 -125.157223 
L 260.959309 -125.091457 
L 260.533403 -125.029344 
L 260.107497 -124.971034 
L 259.681592 -124.916676 
L 259.255686 -124.866418 
L 258.82978 -124.820408 
L 258.403875 -124.778792 
L 257.977969 -124.741716 
L 257.552063 -124.709324 
L 257.126158 -124.681757 
L 256.700252 -124.659157 
L 256.274346 -124.641664 
L 255.84844 -124.629414 
L 255.422535 -124.622544 
L 254.996629 -124.621186 
L 254.570723 -124.625474 
L 254.144818 -124.635534 
L 253.718912 -124.651496 
L 253.293006 -124.673482 
L 252.867101 -124.701613 
L 252.441195 -124.73601 
L 252.015289 -124.776788 
L 251.589383 -124.824059 
L 251.163478 -124.877933 
L 250.737572 -124.938517 
L 250.311666 -125.005912 
L 249.885761 -125.08022 
L 249.459855 -125.161534 
L 249.033949 -125.249948 
L 248.608044 -125.345548 
L 248.182138 -125.448419 
L 247.756232 -125.558641 
L 247.330326 -125.676288 
L 246.904421 -125.801432 
L 246.478515 -125.934139 
L 246.052609 -126.074471 
L 245.626704 -126.222485 
L 245.200798 -126.378234 
L 244.774892 -126.541763 
L 244.348987 -126.713116 
L 243.923081 -126.89233 
L 243.497175 -127.079435 
L 243.071269 -127.274459 
L 242.645364 -127.477422 
L 242.219458 -127.688338 
L 241.793552 -127.907219 
L 241.367647 -128.134067 
L 240.941741 -128.368881 
L 240.515835 -128.611652 
L 240.08993 -128.862366 
L 239.664024 -129.121004 
L 239.238118 -129.387539 
L 238.812212 -129.661939 
L 238.386307 -129.944165 
L 237.960401 -130.234173 
L 237.534495 -130.531911 
L 237.10859 -130.837322 
L 236.682684 -131.150341 
L 236.256778 -131.470898 
L 235.830873 -131.798916 
L 235.404967 -132.134311 
L 234.979061 -132.476994 
L 234.553155 -132.826867 
L 234.12725 -133.183827 
L 233.701344 -133.547764 
L 233.275438 -133.918562 
L 232.849533 -134.296098 
L 232.423627 -134.680243 
L 231.997721 -135.07086 
L 231.571816 -135.467806 
L 231.14591 -135.870933 
L 230.720004 -136.280086 
L 230.294098 -136.695101 
L 229.868193 -137.115812 
L 229.442287 -137.542043 
L 229.016381 -137.973614 
L 228.590476 -138.410338 
L 228.16457 -138.852021 
L 227.738664 -139.298466 
L 227.312758 -139.749466 
L 226.886853 -140.204812 
L 226.460947 -140.664286 
L 226.035041 -141.127667 
L 225.609136 -141.594727 
L 225.18323 -142.065234 
L 224.757324 -142.538948 
L 224.331419 -143.015626 
L 223.905513 -143.495021 
L 223.479607 -143.976879 
L 223.053701 -144.460942 
L 222.627796 -144.946947 
L 222.20189 -145.434628 
L 221.775984 -145.923713 
L 221.350079 -146.413928 
L 220.924173 -146.904994 
L 220.498267 -147.396627 
L 220.072362 -147.888542 
L 219.646456 -148.380448 
L 219.22055 -148.872054 
L 218.794644 -149.363063 
L 218.368739 -149.853178 
L 217.942833 -150.342097 
L 217.516927 -150.829517 
L 217.091022 -151.315133 
L 216.665116 -151.798639 
L 216.23921 -152.279724 
L 215.813305 -152.75808 
L 215.387399 -153.233395 
L 214.961493 -153.705356 
L 214.535587 -154.173651 
L 214.109682 -154.637967 
L 213.683776 -155.097989 
L 213.25787 -155.553405 
L 212.831965 -156.0039 
L 212.406059 -156.449162 
L 211.980153 -156.88888 
L 211.554248 -157.322742 
L 211.128342 -157.750438 
L 210.702436 -158.17166 
L 210.27653 -158.586102 
L 209.850625 -158.993459 
L 209.424719 -159.39343 
L 208.998813 -159.785714 
L 208.572908 -160.170015 
L 208.147002 -160.546039 
L 207.721096 -160.913495 
L 207.295191 -161.272097 
L 206.869285 -161.621561 
L 206.443379 -161.961608 
L 206.017473 -162.291963 
L 205.591568 -162.612356 
L 205.165662 -162.92252 
L 204.739756 -163.222196 
L 204.313851 -163.511127 
L 203.887945 -163.789063 
L 203.462039 -164.05576 
L 203.036134 -164.310979 
L 202.610228 -164.554487 
L 202.184322 -164.786058 
L 201.758416 -165.005472 
L 201.332511 -165.212516 
L 200.906605 -165.406983 
L 200.480699 -165.588674 
L 200.054794 -165.757397 
L 199.628888 -165.912967 
L 199.202982 -166.055207 
L 198.777077 -166.183948 
L 198.351171 -166.299028 
L 197.925265 -166.400294 
L 197.499359 -166.4876 
L 197.073454 -166.56081 
L 196.647548 -166.619796 
L 196.221642 -166.664436 
L 195.795737 -166.694621 
L 195.369831 -166.710247 
L 194.943925 -166.711222 
L 194.518019 -166.69746 
L 194.092114 -166.668886 
L 193.666208 -166.625434 
L 193.240302 -166.567047 
L 192.814397 -166.493676 
L 192.388491 -166.405284 
L 191.962585 -166.301842 
L 191.53668 -166.183328 
L 191.110774 -166.049734 
L 190.684868 -165.901058 
L 190.258962 -165.737309 
L 189.833057 -165.558504 
L 189.407151 -165.364671 
L 188.981245 -165.155847 
L 188.55534 -164.932079 
L 188.129434 -164.693421 
L 187.703528 -164.439938 
L 187.277623 -164.171705 
L 186.851717 -163.888806 
L 186.425811 -163.591331 
L 185.999905 -163.279384 
L 185.574 -162.953075 
L 185.148094 -162.612522 
L 184.722188 -162.257856 
L 184.296283 -161.889211 
L 183.870377 -161.506734 
L 183.444471 -161.110579 
L 183.018566 -160.700909 
L 182.59266 -160.277892 
L 182.166754 -159.84171 
L 181.740848 -159.392546 
L 181.314943 -158.930597 
L 180.889037 -158.456064 
L 180.463131 -157.969155 
L 180.037226 -157.470088 
L 179.61132 -156.959087 
L 179.185414 -156.436381 
L 178.759509 -155.902208 
L 178.333603 -155.356812 
L 177.907697 -154.800442 
L 177.481791 -154.233356 
L 177.055886 -153.655814 
L 176.62998 -153.068085 
L 176.204074 -152.470443 
L 175.778169 -151.863165 
L 175.352263 -151.246535 
L 174.926357 -150.620841 
L 174.500452 -149.986378 
L 174.074546 -149.343441 
L 173.64864 -148.692332 
L 173.222734 -148.033358 
L 172.796829 -147.366826 
L 172.370923 -146.693049 
L 171.945017 -146.012344 
L 171.519112 -145.325027 
L 171.093206 -144.631422 
L 170.6673 -143.931851 
L 170.241395 -143.22664 
L 169.815489 -142.516118 
L 169.389583 -141.800614 
L 168.963677 -141.080459 
L 168.537772 -140.355985 
L 168.111866 -139.627526 
L 167.68596 -138.895416 
L 167.260055 -138.15999 
L 166.834149 -137.421582 
L 166.408243 -136.680528 
L 165.982338 -135.937162 
L 165.556432 -135.191819 
L 165.130526 -134.444833 
L 164.70462 -133.696537 
L 164.278715 -132.947262 
L 163.852809 -132.197339 
L 163.426903 -131.447097 
L 163.000998 -130.696864 
L 162.575092 -129.946964 
L 162.149186 -129.197722 
L 161.72328 -128.449457 
L 161.297375 -127.702489 
L 160.871469 -126.957132 
L 160.445563 -126.213699 
L 160.019658 -125.472501 
L 159.593752 -124.733842 
L 159.167846 -123.998026 
L 158.741941 -123.265353 
L 158.316035 -122.536116 
L 157.890129 -121.810608 
L 157.464223 -121.089115 
L 157.038318 -120.37192 
L 156.612412 -119.659303 
L 156.186506 -118.951536 
L 155.760601 -118.248888 
L 155.334695 -117.551625 
L 154.908789 -116.860004 
L 154.482884 -116.174281 
L 154.056978 -115.494704 
L 153.631072 -114.821518 
L 153.205166 -114.154959 
L 152.779261 -113.49526 
L 152.353355 -112.84265 
L 151.927449 -112.197348 
L 151.501544 -111.559571 
L 151.075638 -110.929528 
L 150.649732 -110.307422 
L 150.223827 -109.693452 
L 149.797921 -109.087809 
L 149.372015 -108.490678 
L 148.946109 -107.902238 
L 148.520204 -107.322662 
L 148.094298 -106.752118 
L 147.668392 -106.190764 
L 147.242487 -105.638756 
L 146.816581 -105.096241 
L 146.390675 -104.56336 
L 145.96477 -104.040248 
L 145.538864 -103.527032 
L 145.112958 -103.023836 
L 144.687052 -102.530774 
L 144.261147 -102.047955 
L 143.835241 -101.575481 
L 143.409335 -101.11345 
L 142.98343 -100.66195 
L 142.557524 -100.221064 
L 142.131618 -99.79087 
L 141.705713 -99.371438 
L 141.279807 -98.962832 
L 140.853901 -98.565109 
L 140.427995 -98.178322 
L 140.00209 -97.802515 
L 139.576184 -97.437727 
L 139.150278 -97.083993 
L 138.724373 -96.741337 
L 138.298467 -96.409781 
L 137.872561 -96.08934 
L 137.446656 -95.780023 
L 137.02075 -95.481833 
L 136.594844 -95.194765 
L 136.168938 -94.918813 
L 135.743033 -94.653962 
L 135.317127 -94.400191 
L 134.891221 -94.157475 
L 134.465316 -93.925783 
L 134.03941 -93.705078 
L 133.613504 -93.495319 
L 133.187599 -93.296459 
L 132.761693 -93.108446 
L 132.335787 -92.931221 
L 131.909881 -92.764723 
L 131.483976 -92.608885 
L 131.05807 -92.463634 
L 130.632164 -92.328894 
L 130.206259 -92.204583 
L 129.780353 -92.090614 
L 129.354447 -91.986897 
L 128.928542 -91.893338 
L 128.502636 -91.809836 
L 128.07673 -91.736288 
L 127.650824 -91.672586 
L 127.224919 -91.618619 
L 126.799013 -91.574271 
L 126.373107 -91.539422 
L 125.947202 -91.513948 
L 125.521296 -91.497723 
L 125.09539 -91.490617 
L 124.669484 -91.492494 
L 124.243579 -91.503218 
L 123.817673 -91.522648 
L 123.391767 -91.550639 
L 122.965862 -91.587046 
L 122.539956 -91.631717 
L 122.11405 -91.6845 
L 121.688145 -91.745238 
L 121.262239 -91.813775 
L 120.836333 -91.889947 
L 120.410427 -91.973593 
L 119.984522 -92.064545 
L 119.558616 -92.162635 
L 119.13271 -92.267692 
L 118.706805 -92.379545 
L 118.280899 -92.498017 
L 117.854993 -92.622932 
L 117.429088 -92.754111 
L 117.003182 -92.891374 
L 116.577276 -93.034539 
L 116.15137 -93.183421 
L 115.725465 -93.337837 
L 115.299559 -93.497598 
L 114.873653 -93.662517 
L 114.447748 -93.832405 
L 114.021842 -94.007071 
L 113.595936 -94.186324 
L 113.170031 -94.369972 
L 112.744125 -94.557821 
L 112.318219 -94.749678 
L 111.892313 -94.945348 
L 111.466408 -95.144635 
L 111.040502 -95.347344 
L 110.614596 -95.553278 
L 110.188691 -95.762242 
L 109.762785 -95.974037 
L 109.336879 -96.188468 
L 108.910974 -96.405337 
L 108.485068 -96.624447 
L 108.059162 -96.845602 
L 107.633256 -97.068603 
L 107.207351 -97.293256 
L 106.781445 -97.519363 
L 106.355539 -97.746729 
L 105.929634 -97.975159 
L 105.503728 -98.204457 
L 105.077822 -98.434431 
L 104.651917 -98.664886 
L 104.226011 -98.89563 
L 103.800105 -99.126471 
L 103.374199 -99.35722 
L 102.948294 -99.587686 
L 102.522388 -99.817682 
L 102.096482 -100.047019 
L 101.670577 -100.275512 
L 101.244671 -100.502976 
L 100.818765 -100.729229 
L 100.39286 -100.954089 
L 99.966954 -101.177376 
L 99.541048 -101.398911 
L 99.115142 -101.618518 
L 98.689237 -101.836022 
L 98.263331 -102.05125 
L 97.837425 -102.264031 
L 97.41152 -102.474196 
L 96.985614 -102.681579 
L 96.559708 -102.886013 
L 96.133803 -103.087338 
L 95.707897 -103.285391 
L 95.281991 -103.480016 
L 94.856085 -103.671057 
L 94.43018 -103.85836 
L 94.004274 -104.041774 
L 93.578368 -104.221153 
L 93.152463 -104.39635 
L 92.726557 -104.567222 
L 92.300651 -104.73363 
L 91.874745 -104.895435 
L 91.44884 -105.052505 
L 91.022934 -105.204706 
L 90.597028 -105.351912 
L 90.171123 -105.493995 
L 89.745217 -105.630834 
L 89.319311 -105.762308 
L 88.893406 -105.888303 
L 88.4675 -106.008703 
L 88.041594 -106.123401 
L 87.615688 -106.232288 
L 87.189783 -106.335261 
L 86.763877 -106.432221 
L 86.337971 -106.523071 
L 85.912066 -106.607716 
L 85.48616 -106.686068 
L 85.060254 -106.75804 
L 84.634349 -106.823549 
L 84.208443 -106.882515 
L 83.782537 -106.934863 
L 83.356631 -106.98052 
L 82.930726 -107.019417 
L 82.50482 -107.051489 
L 82.078914 -107.076674 
L 81.653009 -107.094915 
L 81.227103 -107.106157 
L 80.801197 -107.110349 
L 80.375292 -107.107444 
L 79.949386 -107.097399 
L 79.52348 -107.080174 
L 79.097574 -107.055733 
L 78.671669 -107.024043 
L 78.245763 -106.985077 
L 77.819857 -106.938808 
L 77.393952 -106.885215 
L 76.968046 -106.82428 
L 76.54214 -106.75599 
L 76.116235 -106.680334 
L 75.690329 -106.597304 
L 75.264423 -106.506899 
L 74.838517 -106.409116 
L 74.412612 -106.303962 
L 73.986706 -106.191443 
L 73.5608 -106.071569 
L 73.134895 -105.944357 
L 72.708989 -105.809822 
L 72.283083 -105.667987 
L 71.857178 -105.518876 
L 71.431272 -105.362517 
L 71.005366 -105.198942 
L 70.57946 -105.028185 
L 70.153555 -104.850285 
L 69.727649 -104.665282 
L 69.301743 -104.473221 
L 68.875838 -104.27415 
L 68.449932 -104.068119 
L 68.024026 -103.855181 
L 67.598121 -103.635394 
L 67.172215 -103.408816 
L 66.746309 -103.175511 
L 66.320403 -102.935543 
L 65.894498 -102.688981 
L 65.468592 -102.435895 
L 65.042686 -102.17636 
L 64.616781 -101.910451 
L 64.190875 -101.638246 
L 63.764969 -101.359827 
L 63.339064 -101.075277 
L 62.913158 -100.784683 
L 62.487252 -100.488132 
L 62.061346 -100.185715 
L 61.635441 -99.877525 
L 61.209535 -99.563656 
L 60.783629 -99.244205 
L 60.357724 -98.91927 
L 59.931818 -98.588953 
L 59.505912 -98.253355 
L 59.080006 -97.912581 
L 58.654101 -97.566736 
L 58.228195 -97.215928 
L 57.802289 -96.860266 
L 57.376384 -96.49986 
L 56.950478 -96.134821 
L 56.524572 -95.765264 
L 56.098667 -95.391301 
L 55.672761 -95.01305 
L 55.246855 -94.630625 
L 54.820949 -94.244145 
L 54.395044 -93.853727 
L 53.969138 -93.459492 
L 53.543232 -93.061559 
L 53.117327 -92.660049 
L 52.691421 -92.255083 
L 52.265515 -91.846784 
L 51.83961 -91.435273 
L 51.413704 -91.020673 
L 50.987798 -90.603108 
L 50.561892 -90.182701 
L 50.135987 -89.759575 
L 49.710081 -89.333855 
L 49.284175 -88.905663 
L 48.85827 -88.475124 
L 48.432364 -88.04236 
L 48.006458 -87.607497 
L 47.580553 -87.170656 
L 47.154647 -86.73196 
L 46.728741 -86.291532 
L 46.302835 -85.849495 
L 45.87693 -85.405969 
L 45.451024 -84.961075 
L 45.025118 -84.514935 
L 44.599213 -84.067667 
L 44.173307 -83.619391 
L 43.747401 -83.170225 
L 43.321496 -82.720285 
L 42.89559 -82.269689 
L 42.469684 -81.818551 
L 42.043778 -81.366986 
L 41.617873 -80.915108 
L 41.191967 -80.463028 
L 40.766061 -80.010857 
L 40.340156 -79.558705 
L 39.91425 -79.10668 
L 39.488344 -78.65489 
L 39.062439 -78.20344 
L 38.636533 -77.752434 
L 38.210627 -77.301976 
L 37.784721 -76.852167 
L 37.358816 -76.403106 
L 36.93291 -75.954892 
L 36.507004 -75.507622 
L 36.081099 -75.06139 
L 35.655193 -74.61629 
L 35.229287 -74.172414 
L 34.803382 -73.729852 
L 34.377476 -73.288692 
L 33.95157 -72.84902 
L 33.525664 -72.410921 
L 33.099759 -71.974478 
L 32.673853 -71.539772 
L 32.247947 -71.106882 
L 31.822042 -70.675885 
L 31.396136 -70.246857 
L 30.97023 -69.819872 
L 30.544325 -69.394999 
L 30.118419 -68.972311 
L 29.692513 -68.551873 
L 29.266607 -68.133752 
L 28.840702 -67.718012 
L 28.414796 -67.304714 
L 27.98889 -66.893918 
L 27.562985 -66.485683 
L 27.137079 -66.080063 
L 26.711173 -65.677114 
L 26.285267 -65.276886 
L 25.859362 -64.879431 
L 25.433456 -64.484796 
L 25.00755 -64.093027 
L 24.581645 -63.704169 
L 24.155739 -63.318263 
L 23.729833 -62.935351 
L 23.303928 -62.55547 
L 22.878022 -62.178657 
L 22.452116 -61.804946 
L 22.02621 -61.434371 
L 21.600305 -61.066962 
L 21.174399 -60.702749 
L 20.748493 -60.341757 
L 20.322588 -59.984014 
L 19.896682 -59.629541 
L 19.470776 -59.278362 
L 19.044871 -58.930496 
L 18.618965 -58.585962 
L 18.193059 -58.244775 
L 17.767153 -57.906952 
L 17.341248 -57.572505 
L 16.915342 -57.241446 
z
"/>
    </defs>
    <g clip-path="url(#pb2821b56e8)">
     <use xlink:href="#m6bca76894b" x="0" y="210.993683" style="fill: #4a5c79; fill-opacity: 0.18"/>
    </g>
   </g>
   <g id="line2d_1">
    <path d="M 16.915342 167.736247 
L 374.73756 167.736247 
" clip-path="url(#pb2821b56e8)" style="fill: none; stroke: #c9ccd3; stroke-width: 1.4; stroke-linecap: round"/>
   </g>
   <g id="line2d_2">
    <path d="M 314.623427 86.383267 
L 319.154643 88.662345 
L 324.592103 91.665731 
L 334.560778 97.496101 
L 342.112804 101.791075 
L 347.550264 104.641481 
L 352.383561 106.935025 
L 356.914777 108.846627 
L 361.445993 110.509561 
L 365.675128 111.831174 
L 369.904263 112.931841 
L 374.435479 113.874396 
L 374.73756 113.928849 
L 374.73756 113.928849 
" clip-path="url(#pb2821b56e8)" style="fill: none; stroke: #c9ccd3; stroke-width: 1.8; stroke-linecap: round"/>
   </g>
   <g id="text_1">
    <!-- $0$ -->
    <g style="fill: #303030" transform="translate(13.235342 188.85912) scale(0.115 -0.115)">
     <defs>
      <path id="DejaVuSans-30" d="M 2034 4250 
Q 1547 4250 1301 3770 
Q 1056 3291 1056 2328 
Q 1056 1369 1301 889 
Q 1547 409 2034 409 
Q 2525 409 2770 889 
Q 3016 1369 3016 2328 
Q 3016 3291 2770 3770 
Q 2525 4250 2034 4250 
z
M 2034 4750 
Q 2819 4750 3233 4129 
Q 3647 3509 3647 2328 
Q 3647 1150 3233 529 
Q 2819 -91 2034 -91 
Q 1250 -91 836 529 
Q 422 1150 422 2328 
Q 422 3509 836 4129 
Q 1250 4750 2034 4750 
z
" transform="scale(0.015625)"/>
     </defs>
     <use xlink:href="#DejaVuSans-30" transform="translate(0 0.78125)"/>
    </g>
   </g>
   <g id="text_2">
    <!-- $t$ -->
    <g style="fill: #cf6a37" transform="translate(312.323427 188.85912) scale(0.115 -0.115)">
     <defs>
      <path id="DejaVuSans-Oblique-74" d="M 2706 3500 
L 2619 3053 
L 1472 3053 
L 1100 1153 
Q 1081 1047 1072 975 
Q 1063 903 1063 863 
Q 1063 663 1183 572 
Q 1303 481 1569 481 
L 2150 481 
L 2053 0 
L 1503 0 
Q 991 0 739 200 
Q 488 400 488 806 
Q 488 878 497 964 
Q 506 1050 525 1153 
L 897 3053 
L 409 3053 
L 500 3500 
L 978 3500 
L 1172 4494 
L 1747 4494 
L 1556 3500 
L 2706 3500 
z
" transform="scale(0.015625)"/>
     </defs>
     <use xlink:href="#DejaVuSans-Oblique-74" transform="translate(0 0.78125)"/>
    </g>
   </g>
   <g id="text_3">
    <!-- time $s$ -->
    <g style="fill: #6b7280" transform="translate(151.226885 204.258683) scale(0.105 -0.105)">
     <defs>
      <path id="SegoeUI-74" d="M 2003 31 
Q 1822 -69 1525 -69 
Q 684 -69 684 869 
L 684 2763 
L 134 2763 
L 134 3200 
L 684 3200 
L 684 3981 
L 1197 4147 
L 1197 3200 
L 2003 3200 
L 2003 2763 
L 1197 2763 
L 1197 959 
Q 1197 638 1306 500 
Q 1416 363 1669 363 
Q 1863 363 2003 469 
L 2003 31 
z
" transform="scale(0.015625)"/>
      <path id="SegoeUI-69" d="M 781 4013 
Q 644 4013 547 4106 
Q 450 4200 450 4344 
Q 450 4488 547 4583 
Q 644 4678 781 4678 
Q 922 4678 1020 4583 
Q 1119 4488 1119 4344 
Q 1119 4206 1020 4109 
Q 922 4013 781 4013 
z
M 1031 0 
L 519 0 
L 519 3200 
L 1031 3200 
L 1031 0 
z
" transform="scale(0.015625)"/>
      <path id="SegoeUI-6d" d="M 5063 0 
L 4550 0 
L 4550 1838 
Q 4550 2369 4386 2606 
Q 4222 2844 3834 2844 
Q 3506 2844 3276 2544 
Q 3047 2244 3047 1825 
L 3047 0 
L 2534 0 
L 2534 1900 
Q 2534 2844 1806 2844 
Q 1469 2844 1250 2561 
Q 1031 2278 1031 1825 
L 1031 0 
L 519 0 
L 519 3200 
L 1031 3200 
L 1031 2694 
L 1044 2694 
Q 1384 3275 2038 3275 
Q 2366 3275 2609 3092 
Q 2853 2909 2944 2613 
Q 3300 3275 4006 3275 
Q 5063 3275 5063 1972 
L 5063 0 
z
" transform="scale(0.015625)"/>
      <path id="SegoeUI-65" d="M 3091 1472 
L 831 1472 
Q 844 938 1119 647 
Q 1394 356 1875 356 
Q 2416 356 2869 713 
L 2869 231 
Q 2447 -75 1753 -75 
Q 1075 -75 687 361 
Q 300 797 300 1588 
Q 300 2334 723 2804 
Q 1147 3275 1775 3275 
Q 2403 3275 2747 2869 
Q 3091 2463 3091 1741 
L 3091 1472 
z
M 2566 1906 
Q 2563 2350 2352 2597 
Q 2141 2844 1766 2844 
Q 1403 2844 1150 2584 
Q 897 2325 838 1906 
L 2566 1906 
z
" transform="scale(0.015625)"/>
      <path id="SegoeUI-20" transform="scale(0.015625)"/>
      <path id="DejaVuSans-Oblique-73" d="M 3200 3397 
L 3091 2853 
Q 2863 2978 2609 3040 
Q 2356 3103 2088 3103 
Q 1634 3103 1373 2948 
Q 1113 2794 1113 2528 
Q 1113 2219 1719 2053 
Q 1766 2041 1788 2034 
L 1972 1978 
Q 2547 1819 2739 1644 
Q 2931 1469 2931 1166 
Q 2931 609 2489 259 
Q 2047 -91 1331 -91 
Q 1053 -91 747 -37 
Q 441 16 72 128 
L 184 722 
Q 500 559 806 475 
Q 1113 391 1394 391 
Q 1816 391 2080 572 
Q 2344 753 2344 1031 
Q 2344 1331 1650 1516 
L 1591 1531 
L 1394 1581 
Q 956 1697 753 1886 
Q 550 2075 550 2369 
Q 550 2928 970 3256 
Q 1391 3584 2113 3584 
Q 2397 3584 2667 3537 
Q 2938 3491 3200 3397 
z
" transform="scale(0.015625)"/>
     </defs>
     <use xlink:href="#SegoeUI-74" transform="translate(0 0.90625)"/>
     <use xlink:href="#SegoeUI-69" transform="translate(33.886719 0.90625)"/>
     <use xlink:href="#SegoeUI-6d" transform="translate(58.105469 0.90625)"/>
     <use xlink:href="#SegoeUI-65" transform="translate(144.238281 0.90625)"/>
     <use xlink:href="#SegoeUI-20" transform="translate(196.533203 0.90625)"/>
     <use xlink:href="#DejaVuSans-Oblique-73" transform="translate(223.925781 0.90625)"/>
    </g>
   </g>
   <g id="text_4">
    <!-- $u(s)$ -->
    <g style="fill: #3a4a63" transform="translate(64.419475 83.0128) scale(0.13 -0.13)">
     <defs>
      <path id="DejaVuSans-Oblique-75" d="M 428 1388 
L 838 3500 
L 1416 3500 
L 1006 1409 
Q 975 1256 961 1147 
Q 947 1038 947 966 
Q 947 700 1109 554 
Q 1272 409 1569 409 
Q 2031 409 2368 721 
Q 2706 1034 2809 1563 
L 3194 3500 
L 3769 3500 
L 3091 0 
L 2516 0 
L 2631 550 
Q 2388 244 2052 76 
Q 1716 -91 1338 -91 
Q 878 -91 622 161 
Q 366 413 366 863 
Q 366 956 381 1097 
Q 397 1238 428 1388 
z
" transform="scale(0.015625)"/>
      <path id="DejaVuSans-28" d="M 1984 4856 
Q 1566 4138 1362 3434 
Q 1159 2731 1159 2009 
Q 1159 1288 1364 580 
Q 1569 -128 1984 -844 
L 1484 -844 
Q 1016 -109 783 600 
Q 550 1309 550 2009 
Q 550 2706 781 3412 
Q 1013 4119 1484 4856 
L 1984 4856 
z
" transform="scale(0.015625)"/>
      <path id="DejaVuSans-29" d="M 513 4856 
L 1013 4856 
Q 1481 4119 1714 3412 
Q 1947 2706 1947 2009 
Q 1947 1309 1714 600 
Q 1481 -109 1013 -844 
L 513 -844 
Q 928 -128 1133 580 
Q 1338 1288 1338 2009 
Q 1338 2731 1133 3434 
Q 928 4138 513 4856 
z
" transform="scale(0.015625)"/>
     </defs>
     <use xlink:href="#DejaVuSans-Oblique-75" transform="translate(0 0.125)"/>
     <use xlink:href="#DejaVuSans-28" transform="translate(63.378906 0.125)"/>
     <use xlink:href="#DejaVuSans-Oblique-73" transform="translate(102.392578 0.125)"/>
     <use xlink:href="#DejaVuSans-29" transform="translate(154.492188 0.125)"/>
    </g>
   </g>
   <g id="line2d_3">
    <path d="M 16.915342 153.752237 
L 20.748493 150.651926 
L 25.00755 146.900656 
L 29.692513 142.44181 
L 35.229287 136.821269 
L 53.117327 118.333634 
L 56.950478 114.858862 
L 60.357724 112.074413 
L 63.339064 109.918406 
L 66.320403 108.05814 
L 68.875838 106.719533 
L 71.431272 105.631166 
L 73.986706 104.802241 
L 76.54214 104.237693 
L 79.097574 103.93795 
L 81.653009 103.898768 
L 84.208443 104.111168 
L 86.763877 104.561462 
L 89.319311 105.231375 
L 92.300651 106.260054 
L 95.707897 107.708292 
L 99.541048 109.594772 
L 113.595936 116.807359 
L 116.577276 117.959144 
L 119.13271 118.725991 
L 121.688145 119.248445 
L 123.817673 119.471036 
L 125.947202 119.479735 
L 128.07673 119.257395 
L 130.206259 118.789101 
L 132.335787 118.062462 
L 134.465316 117.067901 
L 136.594844 115.798918 
L 138.724373 114.252346 
L 140.853901 112.428574 
L 142.98343 110.331733 
L 145.538864 107.466651 
L 148.094298 104.241566 
L 151.075638 100.064155 
L 154.056978 95.498979 
L 157.890129 89.183076 
L 163.426903 79.546586 
L 170.241395 67.767043 
L 173.64864 62.301351 
L 176.62998 57.925598 
L 179.185414 54.557302 
L 181.314943 52.063086 
L 183.444471 49.883104 
L 185.574 48.040609 
L 187.277623 46.821978 
L 188.981245 45.837836 
L 190.684868 45.092625 
L 192.388491 44.588399 
L 194.092114 44.324798 
L 195.795737 44.299062 
L 197.499359 44.506083 
L 199.202982 44.938476 
L 200.906605 45.586701 
L 202.610228 46.439196 
L 204.739756 47.771487 
L 206.869285 49.372122 
L 209.424719 51.600253 
L 212.406059 54.544521 
L 215.813305 58.235603 
L 223.053701 66.532742 
L 227.738664 71.695217 
L 231.14591 75.12275 
L 234.12725 77.809857 
L 236.682684 79.843342 
L 239.238118 81.606144 
L 241.793552 83.086464 
L 244.348987 84.280567 
L 246.904421 85.192252 
L 249.459855 85.832149 
L 252.015289 86.216895 
L 254.570723 86.36821 
L 257.126158 86.311926 
L 260.107497 86.022649 
L 263.514743 85.45812 
L 267.7738 84.514485 
L 280.976877 81.396578 
L 284.810028 80.802181 
L 288.217274 80.490074 
L 291.624519 80.411542 
L 294.605859 80.549006 
L 297.587199 80.885389 
L 300.568539 81.421227 
L 303.975785 82.271914 
L 307.38303 83.363397 
L 310.790276 84.675451 
L 314.623427 86.383267 
L 314.623427 86.383267 
" clip-path="url(#pb2821b56e8)" style="fill: none; stroke: #3a4a63; stroke-width: 2.5; stroke-linecap: round"/>
   </g>
   <g id="line2d_4">
    <path d="M 314.623427 167.736247 
L 314.623427 86.383267 
" clip-path="url(#pb2821b56e8)" style="fill: none; stroke-dasharray: 6.8,5.1; stroke-dashoffset: 0; stroke: #e37c47; stroke-width: 1.7"/>
   </g>
   <g id="line2d_5">
    <path d="M 16.915342 167.736247 
L 16.915342 173.28433 
" style="fill: none; stroke: #6b7280; stroke-width: 1.3; stroke-linecap: round"/>
   </g>
   <g id="line2d_6">
    <path d="M 314.623427 167.736247 
L 314.623427 173.28433 
" style="fill: none; stroke: #6b7280; stroke-width: 1.3; stroke-linecap: round"/>
   </g>
   <g id="line2d_7">
    <defs>
     <path id="m054e948fbc" d="M 0 4 
C 1.060812 4 2.078319 3.578535 2.828427 2.828427 
C 3.578535 2.078319 4 1.060812 4 0 
C 4 -1.060812 3.578535 -2.078319 2.828427 -2.828427 
C 2.078319 -3.578535 1.060812 -4 0 -4 
C -1.060812 -4 -2.078319 -3.578535 -2.828427 -2.828427 
C -3.578535 -2.078319 -4 -1.060812 -4 0 
C -4 1.060812 -3.578535 2.078319 -2.828427 2.828427 
C -2.078319 3.578535 -1.060812 4 0 4 
z
" style="stroke: #ffffff; stroke-width: 1.4"/>
    </defs>
    <g clip-path="url(#pb2821b56e8)">
     <use xlink:href="#m054e948fbc" x="314.623427" y="86.383267" style="fill: #e37c47; stroke: #ffffff; stroke-width: 1.4"/>
    </g>
   </g>
  </g>
  <g id="axes_2">
   <g id="patch_2">
    <path d="M 393.610977 86.028124 
Q 426.9034 86.028124 458.183363 86.028124 
" style="fill: none; stroke: #303030; stroke-width: 1.8; stroke-linecap: round"/>
    <path d="M 450.183363 82.028124 
L 458.183363 86.028124 
L 450.183363 90.028124 
z
" style="fill: #303030; stroke: #303030; stroke-width: 1.8; stroke-linecap: round"/>
   </g>
   <g id="text_5">
    <!-- $f_t(r)=u(t\,r)$ -->
    <g style="fill: #303030" transform="translate(392.775088 77.605041) scale(0.125 -0.125)">
     <defs>
      <path id="DejaVuSans-Oblique-66" d="M 3059 4863 
L 2969 4384 
L 2419 4384 
Q 2106 4384 1964 4261 
Q 1822 4138 1753 3809 
L 1691 3500 
L 2638 3500 
L 2553 3053 
L 1606 3053 
L 1013 0 
L 434 0 
L 1031 3053 
L 481 3053 
L 563 3500 
L 1113 3500 
L 1159 3744 
Q 1278 4363 1576 4613 
Q 1875 4863 2516 4863 
L 3059 4863 
z
" transform="scale(0.015625)"/>
      <path id="DejaVuSans-Oblique-72" d="M 2853 2969 
Q 2766 3016 2653 3041 
Q 2541 3066 2413 3066 
Q 1953 3066 1609 2717 
Q 1266 2369 1153 1784 
L 800 0 
L 225 0 
L 909 3500 
L 1484 3500 
L 1375 2956 
Q 1603 3259 1920 3421 
Q 2238 3584 2597 3584 
Q 2691 3584 2781 3573 
Q 2872 3563 2963 3538 
L 2853 2969 
z
" transform="scale(0.015625)"/>
      <path id="DejaVuSans-3d" d="M 678 2906 
L 4684 2906 
L 4684 2381 
L 678 2381 
L 678 2906 
z
M 678 1631 
L 4684 1631 
L 4684 1100 
L 678 1100 
L 678 1631 
z
" transform="scale(0.015625)"/>
     </defs>
     <use xlink:href="#DejaVuSans-Oblique-66" transform="translate(0 0.015625)"/>
     <use xlink:href="#DejaVuSans-Oblique-74" transform="translate(35.205078 -16.390625) scale(0.7)"/>
     <use xlink:href="#DejaVuSans-28" transform="translate(65.385742 0.015625)"/>
     <use xlink:href="#DejaVuSans-Oblique-72" transform="translate(104.399414 0.015625)"/>
     <use xlink:href="#DejaVuSans-29" transform="translate(145.512695 0.015625)"/>
     <use xlink:href="#DejaVuSans-3d" transform="translate(204.008789 0.015625)"/>
     <use xlink:href="#DejaVuSans-Oblique-75" transform="translate(307.280273 0.015625)"/>
     <use xlink:href="#DejaVuSans-28" transform="translate(370.65918 0.015625)"/>
     <use xlink:href="#DejaVuSans-Oblique-74" transform="translate(409.672852 0.015625)"/>
     <use xlink:href="#DejaVuSans-Oblique-72" transform="translate(465.117512 0.015625)"/>
     <use xlink:href="#DejaVuSans-29" transform="translate(506.230793 0.015625)"/>
    </g>
   </g>
  </g>
  <g id="axes_3">
   <g id="FillBetweenPolyCollection_2">
    <defs>
     <path id="m7f22927ca0" d="M 485.032798 -57.241446 
L 485.032798 -43.257436 
L 485.262501 -43.257436 
L 485.492204 -43.257436 
L 485.721908 -43.257436 
L 485.951611 -43.257436 
L 486.181314 -43.257436 
L 486.411017 -43.257436 
L 486.64072 -43.257436 
L 486.870424 -43.257436 
L 487.100127 -43.257436 
L 487.32983 -43.257436 
L 487.559533 -43.257436 
L 487.789236 -43.257436 
L 488.01894 -43.257436 
L 488.248643 -43.257436 
L 488.478346 -43.257436 
L 488.708049 -43.257436 
L 488.937752 -43.257436 
L 489.167456 -43.257436 
L 489.397159 -43.257436 
L 489.626862 -43.257436 
L 489.856565 -43.257436 
L 490.086268 -43.257436 
L 490.315972 -43.257436 
L 490.545675 -43.257436 
L 490.775378 -43.257436 
L 491.005081 -43.257436 
L 491.234784 -43.257436 
L 491.464488 -43.257436 
L 491.694191 -43.257436 
L 491.923894 -43.257436 
L 492.153597 -43.257436 
L 492.3833 -43.257436 
L 492.613004 -43.257436 
L 492.842707 -43.257436 
L 493.07241 -43.257436 
L 493.302113 -43.257436 
L 493.531816 -43.257436 
L 493.761519 -43.257436 
L 493.991223 -43.257436 
L 494.220926 -43.257436 
L 494.450629 -43.257436 
L 494.680332 -43.257436 
L 494.910035 -43.257436 
L 495.139739 -43.257436 
L 495.369442 -43.257436 
L 495.599145 -43.257436 
L 495.828848 -43.257436 
L 496.058551 -43.257436 
L 496.288255 -43.257436 
L 496.517958 -43.257436 
L 496.747661 -43.257436 
L 496.977364 -43.257436 
L 497.207067 -43.257436 
L 497.436771 -43.257436 
L 497.666474 -43.257436 
L 497.896177 -43.257436 
L 498.12588 -43.257436 
L 498.355583 -43.257436 
L 498.585287 -43.257436 
L 498.81499 -43.257436 
L 499.044693 -43.257436 
L 499.274396 -43.257436 
L 499.504099 -43.257436 
L 499.733803 -43.257436 
L 499.963506 -43.257436 
L 500.193209 -43.257436 
L 500.422912 -43.257436 
L 500.652615 -43.257436 
L 500.882319 -43.257436 
L 501.112022 -43.257436 
L 501.341725 -43.257436 
L 501.571428 -43.257436 
L 501.801131 -43.257436 
L 502.030835 -43.257436 
L 502.260538 -43.257436 
L 502.490241 -43.257436 
L 502.719944 -43.257436 
L 502.949647 -43.257436 
L 503.17935 -43.257436 
L 503.409054 -43.257436 
L 503.638757 -43.257436 
L 503.86846 -43.257436 
L 504.098163 -43.257436 
L 504.327866 -43.257436 
L 504.55757 -43.257436 
L 504.787273 -43.257436 
L 505.016976 -43.257436 
L 505.246679 -43.257436 
L 505.476382 -43.257436 
L 505.706086 -43.257436 
L 505.935789 -43.257436 
L 506.165492 -43.257436 
L 506.395195 -43.257436 
L 506.624898 -43.257436 
L 506.854602 -43.257436 
L 507.084305 -43.257436 
L 507.314008 -43.257436 
L 507.543711 -43.257436 
L 507.773414 -43.257436 
L 508.003118 -43.257436 
L 508.232821 -43.257436 
L 508.462524 -43.257436 
L 508.692227 -43.257436 
L 508.92193 -43.257436 
L 509.151634 -43.257436 
L 509.381337 -43.257436 
L 509.61104 -43.257436 
L 509.840743 -43.257436 
L 510.070446 -43.257436 
L 510.30015 -43.257436 
L 510.529853 -43.257436 
L 510.759556 -43.257436 
L 510.989259 -43.257436 
L 511.218962 -43.257436 
L 511.448666 -43.257436 
L 511.678369 -43.257436 
L 511.908072 -43.257436 
L 512.137775 -43.257436 
L 512.367478 -43.257436 
L 512.597182 -43.257436 
L 512.826885 -43.257436 
L 513.056588 -43.257436 
L 513.286291 -43.257436 
L 513.515994 -43.257436 
L 513.745697 -43.257436 
L 513.975401 -43.257436 
L 514.205104 -43.257436 
L 514.434807 -43.257436 
L 514.66451 -43.257436 
L 514.894213 -43.257436 
L 515.123917 -43.257436 
L 515.35362 -43.257436 
L 515.583323 -43.257436 
L 515.813026 -43.257436 
L 516.042729 -43.257436 
L 516.272433 -43.257436 
L 516.502136 -43.257436 
L 516.731839 -43.257436 
L 516.961542 -43.257436 
L 517.191245 -43.257436 
L 517.420949 -43.257436 
L 517.650652 -43.257436 
L 517.880355 -43.257436 
L 518.110058 -43.257436 
L 518.339761 -43.257436 
L 518.569465 -43.257436 
L 518.799168 -43.257436 
L 519.028871 -43.257436 
L 519.258574 -43.257436 
L 519.488277 -43.257436 
L 519.717981 -43.257436 
L 519.947684 -43.257436 
L 520.177387 -43.257436 
L 520.40709 -43.257436 
L 520.636793 -43.257436 
L 520.866497 -43.257436 
L 521.0962 -43.257436 
L 521.325903 -43.257436 
L 521.555606 -43.257436 
L 521.785309 -43.257436 
L 522.015013 -43.257436 
L 522.244716 -43.257436 
L 522.474419 -43.257436 
L 522.704122 -43.257436 
L 522.933825 -43.257436 
L 523.163529 -43.257436 
L 523.393232 -43.257436 
L 523.622935 -43.257436 
L 523.852638 -43.257436 
L 524.082341 -43.257436 
L 524.312044 -43.257436 
L 524.541748 -43.257436 
L 524.771451 -43.257436 
L 525.001154 -43.257436 
L 525.230857 -43.257436 
L 525.46056 -43.257436 
L 525.690264 -43.257436 
L 525.919967 -43.257436 
L 526.14967 -43.257436 
L 526.379373 -43.257436 
L 526.609076 -43.257436 
L 526.83878 -43.257436 
L 527.068483 -43.257436 
L 527.298186 -43.257436 
L 527.527889 -43.257436 
L 527.757592 -43.257436 
L 527.987296 -43.257436 
L 528.216999 -43.257436 
L 528.446702 -43.257436 
L 528.676405 -43.257436 
L 528.906108 -43.257436 
L 529.135812 -43.257436 
L 529.365515 -43.257436 
L 529.595218 -43.257436 
L 529.824921 -43.257436 
L 530.054624 -43.257436 
L 530.284328 -43.257436 
L 530.514031 -43.257436 
L 530.743734 -43.257436 
L 530.973437 -43.257436 
L 531.20314 -43.257436 
L 531.432844 -43.257436 
L 531.662547 -43.257436 
L 531.89225 -43.257436 
L 532.121953 -43.257436 
L 532.351656 -43.257436 
L 532.58136 -43.257436 
L 532.811063 -43.257436 
L 533.040766 -43.257436 
L 533.270469 -43.257436 
L 533.500172 -43.257436 
L 533.729876 -43.257436 
L 533.959579 -43.257436 
L 534.189282 -43.257436 
L 534.418985 -43.257436 
L 534.648688 -43.257436 
L 534.878391 -43.257436 
L 535.108095 -43.257436 
L 535.337798 -43.257436 
L 535.567501 -43.257436 
L 535.797204 -43.257436 
L 536.026907 -43.257436 
L 536.256611 -43.257436 
L 536.486314 -43.257436 
L 536.716017 -43.257436 
L 536.94572 -43.257436 
L 537.175423 -43.257436 
L 537.405127 -43.257436 
L 537.63483 -43.257436 
L 537.864533 -43.257436 
L 538.094236 -43.257436 
L 538.323939 -43.257436 
L 538.553643 -43.257436 
L 538.783346 -43.257436 
L 539.013049 -43.257436 
L 539.242752 -43.257436 
L 539.472455 -43.257436 
L 539.702159 -43.257436 
L 539.931862 -43.257436 
L 540.161565 -43.257436 
L 540.391268 -43.257436 
L 540.620971 -43.257436 
L 540.850675 -43.257436 
L 541.080378 -43.257436 
L 541.310081 -43.257436 
L 541.539784 -43.257436 
L 541.769487 -43.257436 
L 541.999191 -43.257436 
L 542.228894 -43.257436 
L 542.458597 -43.257436 
L 542.6883 -43.257436 
L 542.918003 -43.257436 
L 543.147707 -43.257436 
L 543.37741 -43.257436 
L 543.607113 -43.257436 
L 543.836816 -43.257436 
L 544.066519 -43.257436 
L 544.296222 -43.257436 
L 544.525926 -43.257436 
L 544.755629 -43.257436 
L 544.985332 -43.257436 
L 545.215035 -43.257436 
L 545.444738 -43.257436 
L 545.674442 -43.257436 
L 545.904145 -43.257436 
L 546.133848 -43.257436 
L 546.363551 -43.257436 
L 546.593254 -43.257436 
L 546.822958 -43.257436 
L 547.052661 -43.257436 
L 547.282364 -43.257436 
L 547.512067 -43.257436 
L 547.74177 -43.257436 
L 547.971474 -43.257436 
L 548.201177 -43.257436 
L 548.43088 -43.257436 
L 548.660583 -43.257436 
L 548.890286 -43.257436 
L 549.11999 -43.257436 
L 549.349693 -43.257436 
L 549.579396 -43.257436 
L 549.809099 -43.257436 
L 550.038802 -43.257436 
L 550.268506 -43.257436 
L 550.498209 -43.257436 
L 550.727912 -43.257436 
L 550.957615 -43.257436 
L 551.187318 -43.257436 
L 551.417022 -43.257436 
L 551.646725 -43.257436 
L 551.876428 -43.257436 
L 552.106131 -43.257436 
L 552.335834 -43.257436 
L 552.565538 -43.257436 
L 552.795241 -43.257436 
L 553.024944 -43.257436 
L 553.254647 -43.257436 
L 553.48435 -43.257436 
L 553.714054 -43.257436 
L 553.943757 -43.257436 
L 554.17346 -43.257436 
L 554.403163 -43.257436 
L 554.632866 -43.257436 
L 554.862569 -43.257436 
L 555.092273 -43.257436 
L 555.321976 -43.257436 
L 555.551679 -43.257436 
L 555.781382 -43.257436 
L 556.011085 -43.257436 
L 556.240789 -43.257436 
L 556.470492 -43.257436 
L 556.700195 -43.257436 
L 556.929898 -43.257436 
L 557.159601 -43.257436 
L 557.389305 -43.257436 
L 557.619008 -43.257436 
L 557.848711 -43.257436 
L 558.078414 -43.257436 
L 558.308117 -43.257436 
L 558.537821 -43.257436 
L 558.767524 -43.257436 
L 558.997227 -43.257436 
L 559.22693 -43.257436 
L 559.456633 -43.257436 
L 559.686337 -43.257436 
L 559.91604 -43.257436 
L 560.145743 -43.257436 
L 560.375446 -43.257436 
L 560.605149 -43.257436 
L 560.834853 -43.257436 
L 561.064556 -43.257436 
L 561.294259 -43.257436 
L 561.523962 -43.257436 
L 561.753665 -43.257436 
L 561.983369 -43.257436 
L 562.213072 -43.257436 
L 562.442775 -43.257436 
L 562.672478 -43.257436 
L 562.902181 -43.257436 
L 563.131885 -43.257436 
L 563.361588 -43.257436 
L 563.591291 -43.257436 
L 563.820994 -43.257436 
L 564.050697 -43.257436 
L 564.280401 -43.257436 
L 564.510104 -43.257436 
L 564.739807 -43.257436 
L 564.96951 -43.257436 
L 565.199213 -43.257436 
L 565.428916 -43.257436 
L 565.65862 -43.257436 
L 565.888323 -43.257436 
L 566.118026 -43.257436 
L 566.347729 -43.257436 
L 566.577432 -43.257436 
L 566.807136 -43.257436 
L 567.036839 -43.257436 
L 567.266542 -43.257436 
L 567.496245 -43.257436 
L 567.725948 -43.257436 
L 567.955652 -43.257436 
L 568.185355 -43.257436 
L 568.415058 -43.257436 
L 568.644761 -43.257436 
L 568.874464 -43.257436 
L 569.104168 -43.257436 
L 569.333871 -43.257436 
L 569.563574 -43.257436 
L 569.793277 -43.257436 
L 570.02298 -43.257436 
L 570.252684 -43.257436 
L 570.482387 -43.257436 
L 570.71209 -43.257436 
L 570.941793 -43.257436 
L 571.171496 -43.257436 
L 571.4012 -43.257436 
L 571.630903 -43.257436 
L 571.860606 -43.257436 
L 572.090309 -43.257436 
L 572.320012 -43.257436 
L 572.549716 -43.257436 
L 572.779419 -43.257436 
L 573.009122 -43.257436 
L 573.238825 -43.257436 
L 573.468528 -43.257436 
L 573.698232 -43.257436 
L 573.927935 -43.257436 
L 574.157638 -43.257436 
L 574.387341 -43.257436 
L 574.617044 -43.257436 
L 574.846747 -43.257436 
L 575.076451 -43.257436 
L 575.306154 -43.257436 
L 575.535857 -43.257436 
L 575.76556 -43.257436 
L 575.995263 -43.257436 
L 576.224967 -43.257436 
L 576.45467 -43.257436 
L 576.684373 -43.257436 
L 576.914076 -43.257436 
L 577.143779 -43.257436 
L 577.373483 -43.257436 
L 577.603186 -43.257436 
L 577.832889 -43.257436 
L 578.062592 -43.257436 
L 578.292295 -43.257436 
L 578.521999 -43.257436 
L 578.751702 -43.257436 
L 578.981405 -43.257436 
L 579.211108 -43.257436 
L 579.440811 -43.257436 
L 579.670515 -43.257436 
L 579.900218 -43.257436 
L 580.129921 -43.257436 
L 580.359624 -43.257436 
L 580.589327 -43.257436 
L 580.819031 -43.257436 
L 581.048734 -43.257436 
L 581.278437 -43.257436 
L 581.50814 -43.257436 
L 581.737843 -43.257436 
L 581.967547 -43.257436 
L 582.19725 -43.257436 
L 582.426953 -43.257436 
L 582.656656 -43.257436 
L 582.886359 -43.257436 
L 583.116063 -43.257436 
L 583.345766 -43.257436 
L 583.575469 -43.257436 
L 583.805172 -43.257436 
L 584.034875 -43.257436 
L 584.264579 -43.257436 
L 584.494282 -43.257436 
L 584.723985 -43.257436 
L 584.953688 -43.257436 
L 585.183391 -43.257436 
L 585.413094 -43.257436 
L 585.642798 -43.257436 
L 585.872501 -43.257436 
L 586.102204 -43.257436 
L 586.331907 -43.257436 
L 586.56161 -43.257436 
L 586.791314 -43.257436 
L 587.021017 -43.257436 
L 587.25072 -43.257436 
L 587.480423 -43.257436 
L 587.710126 -43.257436 
L 587.93983 -43.257436 
L 588.169533 -43.257436 
L 588.399236 -43.257436 
L 588.628939 -43.257436 
L 588.858642 -43.257436 
L 589.088346 -43.257436 
L 589.318049 -43.257436 
L 589.547752 -43.257436 
L 589.777455 -43.257436 
L 590.007158 -43.257436 
L 590.236862 -43.257436 
L 590.466565 -43.257436 
L 590.696268 -43.257436 
L 590.925971 -43.257436 
L 591.155674 -43.257436 
L 591.385378 -43.257436 
L 591.615081 -43.257436 
L 591.844784 -43.257436 
L 592.074487 -43.257436 
L 592.30419 -43.257436 
L 592.533894 -43.257436 
L 592.763597 -43.257436 
L 592.9933 -43.257436 
L 593.223003 -43.257436 
L 593.452706 -43.257436 
L 593.68241 -43.257436 
L 593.912113 -43.257436 
L 594.141816 -43.257436 
L 594.371519 -43.257436 
L 594.601222 -43.257436 
L 594.830926 -43.257436 
L 595.060629 -43.257436 
L 595.290332 -43.257436 
L 595.520035 -43.257436 
L 595.749738 -43.257436 
L 595.979441 -43.257436 
L 596.209145 -43.257436 
L 596.438848 -43.257436 
L 596.668551 -43.257436 
L 596.898254 -43.257436 
L 597.127957 -43.257436 
L 597.357661 -43.257436 
L 597.587364 -43.257436 
L 597.817067 -43.257436 
L 598.04677 -43.257436 
L 598.276473 -43.257436 
L 598.506177 -43.257436 
L 598.73588 -43.257436 
L 598.965583 -43.257436 
L 599.195286 -43.257436 
L 599.424989 -43.257436 
L 599.654693 -43.257436 
L 599.884396 -43.257436 
L 600.114099 -43.257436 
L 600.343802 -43.257436 
L 600.573505 -43.257436 
L 600.803209 -43.257436 
L 601.032912 -43.257436 
L 601.262615 -43.257436 
L 601.492318 -43.257436 
L 601.722021 -43.257436 
L 601.951725 -43.257436 
L 602.181428 -43.257436 
L 602.411131 -43.257436 
L 602.640834 -43.257436 
L 602.870537 -43.257436 
L 603.100241 -43.257436 
L 603.329944 -43.257436 
L 603.559647 -43.257436 
L 603.78935 -43.257436 
L 604.019053 -43.257436 
L 604.248757 -43.257436 
L 604.47846 -43.257436 
L 604.708163 -43.257436 
L 604.937866 -43.257436 
L 605.167569 -43.257436 
L 605.397273 -43.257436 
L 605.626976 -43.257436 
L 605.856679 -43.257436 
L 606.086382 -43.257436 
L 606.316085 -43.257436 
L 606.545788 -43.257436 
L 606.775492 -43.257436 
L 607.005195 -43.257436 
L 607.234898 -43.257436 
L 607.464601 -43.257436 
L 607.694304 -43.257436 
L 607.924008 -43.257436 
L 608.153711 -43.257436 
L 608.383414 -43.257436 
L 608.613117 -43.257436 
L 608.84282 -43.257436 
L 609.072524 -43.257436 
L 609.302227 -43.257436 
L 609.53193 -43.257436 
L 609.761633 -43.257436 
L 609.991336 -43.257436 
L 610.22104 -43.257436 
L 610.450743 -43.257436 
L 610.680446 -43.257436 
L 610.910149 -43.257436 
L 611.139852 -43.257436 
L 611.369556 -43.257436 
L 611.599259 -43.257436 
L 611.828962 -43.257436 
L 612.058665 -43.257436 
L 612.288368 -43.257436 
L 612.518072 -43.257436 
L 612.747775 -43.257436 
L 612.977478 -43.257436 
L 613.207181 -43.257436 
L 613.436884 -43.257436 
L 613.666588 -43.257436 
L 613.896291 -43.257436 
L 614.125994 -43.257436 
L 614.355697 -43.257436 
L 614.5854 -43.257436 
L 614.815104 -43.257436 
L 615.044807 -43.257436 
L 615.27451 -43.257436 
L 615.504213 -43.257436 
L 615.733916 -43.257436 
L 615.963619 -43.257436 
L 616.193323 -43.257436 
L 616.423026 -43.257436 
L 616.652729 -43.257436 
L 616.882432 -43.257436 
L 617.112135 -43.257436 
L 617.341839 -43.257436 
L 617.571542 -43.257436 
L 617.801245 -43.257436 
L 618.030948 -43.257436 
L 618.260651 -43.257436 
L 618.490355 -43.257436 
L 618.720058 -43.257436 
L 618.949761 -43.257436 
L 619.179464 -43.257436 
L 619.409167 -43.257436 
L 619.638871 -43.257436 
L 619.868574 -43.257436 
L 620.098277 -43.257436 
L 620.32798 -43.257436 
L 620.557683 -43.257436 
L 620.787387 -43.257436 
L 621.01709 -43.257436 
L 621.246793 -43.257436 
L 621.476496 -43.257436 
L 621.706199 -43.257436 
L 621.935903 -43.257436 
L 622.165606 -43.257436 
L 622.395309 -43.257436 
L 622.625012 -43.257436 
L 622.625012 -124.610417 
L 622.625012 -124.610417 
L 622.395309 -124.844343 
L 622.165606 -125.074728 
L 621.935903 -125.301475 
L 621.706199 -125.524489 
L 621.476496 -125.743677 
L 621.246793 -125.958948 
L 621.01709 -126.170212 
L 620.787387 -126.377379 
L 620.557683 -126.580364 
L 620.32798 -126.779082 
L 620.098277 -126.973449 
L 619.868574 -127.163384 
L 619.638871 -127.34881 
L 619.409167 -127.529649 
L 619.179464 -127.705827 
L 618.949761 -127.877271 
L 618.720058 -128.043913 
L 618.490355 -128.205685 
L 618.260651 -128.362522 
L 618.030948 -128.514363 
L 617.801245 -128.661149 
L 617.571542 -128.802822 
L 617.341839 -128.939331 
L 617.112135 -129.070623 
L 616.882432 -129.196653 
L 616.652729 -129.317376 
L 616.423026 -129.43275 
L 616.193323 -129.542738 
L 615.963619 -129.647306 
L 615.733916 -129.746423 
L 615.504213 -129.840062 
L 615.27451 -129.928198 
L 615.044807 -130.010812 
L 614.815104 -130.087887 
L 614.5854 -130.15941 
L 614.355697 -130.225373 
L 614.125994 -130.285771 
L 613.896291 -130.340603 
L 613.666588 -130.389872 
L 613.436884 -130.433585 
L 613.207181 -130.471753 
L 612.977478 -130.504394 
L 612.747775 -130.531525 
L 612.518072 -130.553171 
L 612.288368 -130.569362 
L 612.058665 -130.580129 
L 611.828962 -130.58551 
L 611.599259 -130.585546 
L 611.369556 -130.580286 
L 611.139852 -130.569778 
L 610.910149 -130.554078 
L 610.680446 -130.533248 
L 610.450743 -130.50735 
L 610.22104 -130.476456 
L 609.991336 -130.440638 
L 609.761633 -130.399976 
L 609.53193 -130.354553 
L 609.302227 -130.304458 
L 609.072524 -130.249782 
L 608.84282 -130.190625 
L 608.613117 -130.127088 
L 608.383414 -130.059279 
L 608.153711 -129.987309 
L 607.924008 -129.911295 
L 607.694304 -129.831358 
L 607.464601 -129.747624 
L 607.234898 -129.660224 
L 607.005195 -129.569293 
L 606.775492 -129.474971 
L 606.545788 -129.377402 
L 606.316085 -129.276734 
L 606.086382 -129.173122 
L 605.856679 -129.066723 
L 605.626976 -128.957699 
L 605.397273 -128.846217 
L 605.167569 -128.732447 
L 604.937866 -128.616563 
L 604.708163 -128.498745 
L 604.47846 -128.379175 
L 604.248757 -128.258041 
L 604.019053 -128.135533 
L 603.78935 -128.011845 
L 603.559647 -127.887175 
L 603.329944 -127.761725 
L 603.100241 -127.635699 
L 602.870537 -127.509307 
L 602.640834 -127.382758 
L 602.411131 -127.256268 
L 602.181428 -127.130054 
L 601.951725 -127.004336 
L 601.722021 -126.879336 
L 601.492318 -126.755281 
L 601.262615 -126.632397 
L 601.032912 -126.510915 
L 600.803209 -126.391065 
L 600.573505 -126.273082 
L 600.343802 -126.1572 
L 600.114099 -126.043656 
L 599.884396 -125.932689 
L 599.654693 -125.824537 
L 599.424989 -125.719439 
L 599.195286 -125.617637 
L 598.965583 -125.519372 
L 598.73588 -125.424885 
L 598.506177 -125.334417 
L 598.276473 -125.248209 
L 598.04677 -125.166502 
L 597.817067 -125.089537 
L 597.587364 -125.017552 
L 597.357661 -124.950786 
L 597.127957 -124.889475 
L 596.898254 -124.833854 
L 596.668551 -124.784158 
L 596.438848 -124.740616 
L 596.209145 -124.703458 
L 595.979441 -124.672911 
L 595.749738 -124.649196 
L 595.520035 -124.632536 
L 595.290332 -124.623145 
L 595.060629 -124.621238 
L 594.830926 -124.627022 
L 594.601222 -124.640704 
L 594.371519 -124.662484 
L 594.141816 -124.692556 
L 593.912113 -124.731111 
L 593.68241 -124.778335 
L 593.452706 -124.834406 
L 593.223003 -124.899499 
L 592.9933 -124.97378 
L 592.763597 -125.057411 
L 592.533894 -125.150545 
L 592.30419 -125.253331 
L 592.074487 -125.365908 
L 591.844784 -125.488408 
L 591.615081 -125.620956 
L 591.385378 -125.763668 
L 591.155674 -125.916654 
L 590.925971 -126.080012 
L 590.696268 -126.253834 
L 590.466565 -126.438202 
L 590.236862 -126.633188 
L 590.007158 -126.838855 
L 589.777455 -127.055257 
L 589.547752 -127.282438 
L 589.318049 -127.520431 
L 589.088346 -127.769258 
L 588.858642 -128.028932 
L 588.628939 -128.299456 
L 588.399236 -128.580819 
L 588.169533 -128.873002 
L 587.93983 -129.175974 
L 587.710126 -129.48969 
L 587.480423 -129.814098 
L 587.25072 -130.149132 
L 587.021017 -130.494712 
L 586.791314 -130.850751 
L 586.56161 -131.217147 
L 586.331907 -131.593786 
L 586.102204 -131.980542 
L 585.872501 -132.377279 
L 585.642798 -132.783846 
L 585.413094 -133.200082 
L 585.183391 -133.625812 
L 584.953688 -134.060849 
L 584.723985 -134.504996 
L 584.494282 -134.958042 
L 584.264579 -135.419763 
L 584.034875 -135.889926 
L 583.805172 -136.368283 
L 583.575469 -136.854576 
L 583.345766 -137.348535 
L 583.116063 -137.849877 
L 582.886359 -138.35831 
L 582.656656 -138.873528 
L 582.426953 -139.395215 
L 582.19725 -139.923045 
L 581.967547 -140.456681 
L 581.737843 -140.995773 
L 581.50814 -141.539964 
L 581.278437 -142.088885 
L 581.048734 -142.642157 
L 580.819031 -143.199394 
L 580.589327 -143.760197 
L 580.359624 -144.324161 
L 580.129921 -144.890872 
L 579.900218 -145.459907 
L 579.670515 -146.030835 
L 579.440811 -146.603219 
L 579.211108 -147.176612 
L 578.981405 -147.750564 
L 578.751702 -148.324615 
L 578.521999 -148.898302 
L 578.292295 -149.471156 
L 578.062592 -150.0427 
L 577.832889 -150.612457 
L 577.603186 -151.179943 
L 577.373483 -151.744671 
L 577.143779 -152.306152 
L 576.914076 -152.863891 
L 576.684373 -153.417395 
L 576.45467 -153.966166 
L 576.224967 -154.509708 
L 575.995263 -155.047522 
L 575.76556 -155.57911 
L 575.535857 -156.103973 
L 575.306154 -156.621616 
L 575.076451 -157.131542 
L 574.846747 -157.633258 
L 574.617044 -158.126274 
L 574.387341 -158.610102 
L 574.157638 -159.084258 
L 573.927935 -159.548264 
L 573.698232 -160.001643 
L 573.468528 -160.443927 
L 573.238825 -160.874652 
L 573.009122 -161.293361 
L 572.779419 -161.699603 
L 572.549716 -162.092937 
L 572.320012 -162.472927 
L 572.090309 -162.839146 
L 571.860606 -163.191179 
L 571.630903 -163.528616 
L 571.4012 -163.851061 
L 571.171496 -164.158125 
L 570.941793 -164.449433 
L 570.71209 -164.72462 
L 570.482387 -164.983332 
L 570.252684 -165.225228 
L 570.02298 -165.449981 
L 569.793277 -165.657275 
L 569.563574 -165.846809 
L 569.333871 -166.018295 
L 569.104168 -166.171459 
L 568.874464 -166.306043 
L 568.644761 -166.421803 
L 568.415058 -166.518509 
L 568.185355 -166.595948 
L 567.955652 -166.653923 
L 567.725948 -166.692252 
L 567.496245 -166.71077 
L 567.266542 -166.709328 
L 567.036839 -166.687793 
L 566.807136 -166.646052 
L 566.577432 -166.584004 
L 566.347729 -166.501569 
L 566.118026 -166.398684 
L 565.888323 -166.275301 
L 565.65862 -166.131392 
L 565.428916 -165.966944 
L 565.199213 -165.781964 
L 564.96951 -165.576475 
L 564.739807 -165.350517 
L 564.510104 -165.10415 
L 564.280401 -164.837448 
L 564.050697 -164.550506 
L 563.820994 -164.243432 
L 563.591291 -163.916355 
L 563.361588 -163.569419 
L 563.131885 -163.202785 
L 562.902181 -162.816631 
L 562.672478 -162.411151 
L 562.442775 -161.986557 
L 562.213072 -161.543074 
L 561.983369 -161.080945 
L 561.753665 -160.600427 
L 561.523962 -160.101794 
L 561.294259 -159.585334 
L 561.064556 -159.051348 
L 560.834853 -158.500154 
L 560.605149 -157.932082 
L 560.375446 -157.347476 
L 560.145743 -156.746694 
L 559.91604 -156.130104 
L 559.686337 -155.498089 
L 559.456633 -154.851043 
L 559.22693 -154.189371 
L 558.997227 -153.51349 
L 558.767524 -152.823827 
L 558.537821 -152.120818 
L 558.308117 -151.404911 
L 558.078414 -150.676561 
L 557.848711 -149.936233 
L 557.619008 -149.184398 
L 557.389305 -148.421537 
L 557.159601 -147.648137 
L 556.929898 -146.864693 
L 556.700195 -146.071703 
L 556.470492 -145.269674 
L 556.240789 -144.459115 
L 556.011085 -143.640543 
L 555.781382 -142.814475 
L 555.551679 -141.981435 
L 555.321976 -141.141947 
L 555.092273 -140.29654 
L 554.862569 -139.445743 
L 554.632866 -138.590088 
L 554.403163 -137.730106 
L 554.17346 -136.866331 
L 553.943757 -135.999293 
L 553.714054 -135.129525 
L 553.48435 -134.257557 
L 553.254647 -133.383918 
L 553.024944 -132.509134 
L 552.795241 -131.63373 
L 552.565538 -130.758227 
L 552.335834 -129.883142 
L 552.106131 -129.008989 
L 551.876428 -128.136278 
L 551.646725 -127.265511 
L 551.417022 -126.39719 
L 551.187318 -125.531806 
L 550.957615 -124.669848 
L 550.727912 -123.811797 
L 550.498209 -122.958126 
L 550.268506 -122.109303 
L 550.038802 -121.265788 
L 549.809099 -120.428032 
L 549.579396 -119.596479 
L 549.349693 -118.771564 
L 549.11999 -117.953713 
L 548.890286 -117.143343 
L 548.660583 -116.340862 
L 548.43088 -115.546669 
L 548.201177 -114.761152 
L 547.971474 -113.984689 
L 547.74177 -113.217649 
L 547.512067 -112.460389 
L 547.282364 -111.713256 
L 547.052661 -110.976587 
L 546.822958 -110.250706 
L 546.593254 -109.535927 
L 546.363551 -108.832553 
L 546.133848 -108.140876 
L 545.904145 -107.461174 
L 545.674442 -106.793717 
L 545.444738 -106.138759 
L 545.215035 -105.496547 
L 544.985332 -104.867312 
L 544.755629 -104.251276 
L 544.525926 -103.648647 
L 544.296222 -103.059622 
L 544.066519 -102.484387 
L 543.836816 -101.923113 
L 543.607113 -101.375963 
L 543.37741 -100.843086 
L 543.147707 -100.324617 
L 542.918003 -99.820684 
L 542.6883 -99.331399 
L 542.458597 -98.856864 
L 542.228894 -98.397169 
L 541.999191 -97.952393 
L 541.769487 -97.522602 
L 541.539784 -97.107852 
L 541.310081 -96.708186 
L 541.080378 -96.323639 
L 540.850675 -95.95423 
L 540.620971 -95.599972 
L 540.391268 -95.260864 
L 540.161565 -94.936895 
L 539.931862 -94.628043 
L 539.702159 -94.334277 
L 539.472455 -94.055555 
L 539.242752 -93.791824 
L 539.013049 -93.543022 
L 538.783346 -93.309076 
L 538.553643 -93.089905 
L 538.323939 -92.885418 
L 538.094236 -92.695514 
L 537.864533 -92.520084 
L 537.63483 -92.359008 
L 537.405127 -92.212161 
L 537.175423 -92.079405 
L 536.94572 -91.960596 
L 536.716017 -91.855583 
L 536.486314 -91.764205 
L 536.256611 -91.686293 
L 536.026907 -91.621673 
L 535.797204 -91.570161 
L 535.567501 -91.531566 
L 535.337798 -91.505693 
L 535.108095 -91.492337 
L 534.878391 -91.491287 
L 534.648688 -91.502326 
L 534.418985 -91.525233 
L 534.189282 -91.559777 
L 533.959579 -91.605724 
L 533.729876 -91.662835 
L 533.500172 -91.730863 
L 533.270469 -91.809558 
L 533.040766 -91.898666 
L 532.811063 -91.997924 
L 532.58136 -92.10707 
L 532.351656 -92.225833 
L 532.121953 -92.353941 
L 531.89225 -92.491118 
L 531.662547 -92.637082 
L 531.432844 -92.791549 
L 531.20314 -92.954232 
L 530.973437 -93.124841 
L 530.743734 -93.303083 
L 530.514031 -93.48866 
L 530.284328 -93.681276 
L 530.054624 -93.880629 
L 529.824921 -94.086417 
L 529.595218 -94.298334 
L 529.365515 -94.516074 
L 529.135812 -94.739331 
L 528.906108 -94.967793 
L 528.676405 -95.201151 
L 528.446702 -95.439095 
L 528.216999 -95.68131 
L 527.987296 -95.927486 
L 527.757592 -96.177309 
L 527.527889 -96.430467 
L 527.298186 -96.686645 
L 527.068483 -96.945531 
L 526.83878 -97.206813 
L 526.609076 -97.470178 
L 526.379373 -97.735315 
L 526.14967 -98.001914 
L 525.919967 -98.269665 
L 525.690264 -98.538261 
L 525.46056 -98.807394 
L 525.230857 -99.076759 
L 525.001154 -99.346054 
L 524.771451 -99.614976 
L 524.541748 -99.883227 
L 524.312044 -100.150509 
L 524.082341 -100.416528 
L 523.852638 -100.680992 
L 523.622935 -100.943612 
L 523.393232 -101.204101 
L 523.163529 -101.462175 
L 522.933825 -101.717555 
L 522.704122 -101.969965 
L 522.474419 -102.21913 
L 522.244716 -102.464782 
L 522.015013 -102.706654 
L 521.785309 -102.944485 
L 521.555606 -103.178018 
L 521.325903 -103.406998 
L 521.0962 -103.631176 
L 520.866497 -103.850309 
L 520.636793 -104.064156 
L 520.40709 -104.272482 
L 520.177387 -104.475057 
L 519.947684 -104.671655 
L 519.717981 -104.862056 
L 519.488277 -105.046046 
L 519.258574 -105.223414 
L 519.028871 -105.393957 
L 518.799168 -105.557476 
L 518.569465 -105.713778 
L 518.339761 -105.862676 
L 518.110058 -106.003988 
L 517.880355 -106.13754 
L 517.650652 -106.263162 
L 517.420949 -106.38069 
L 517.191245 -106.489969 
L 516.961542 -106.590846 
L 516.731839 -106.683177 
L 516.502136 -106.766825 
L 516.272433 -106.841658 
L 516.042729 -106.90755 
L 515.813026 -106.964383 
L 515.583323 -107.012046 
L 515.35362 -107.050432 
L 515.123917 -107.079444 
L 514.894213 -107.098989 
L 514.66451 -107.108982 
L 514.434807 -107.109345 
L 514.205104 -107.100006 
L 513.975401 -107.0809 
L 513.745697 -107.051969 
L 513.515994 -107.013163 
L 513.286291 -106.964436 
L 513.056588 -106.90575 
L 512.826885 -106.837076 
L 512.597182 -106.758389 
L 512.367478 -106.669672 
L 512.137775 -106.570913 
L 511.908072 -106.462109 
L 511.678369 -106.343262 
L 511.448666 -106.214382 
L 511.218962 -106.075485 
L 510.989259 -105.926592 
L 510.759556 -105.767732 
L 510.529853 -105.598941 
L 510.30015 -105.420259 
L 510.070446 -105.231734 
L 509.840743 -105.033421 
L 509.61104 -104.825378 
L 509.381337 -104.607671 
L 509.151634 -104.380372 
L 508.92193 -104.143558 
L 508.692227 -103.897313 
L 508.462524 -103.641725 
L 508.232821 -103.376888 
L 508.003118 -103.102902 
L 507.773414 -102.819871 
L 507.543711 -102.527906 
L 507.314008 -102.227121 
L 507.084305 -101.917635 
L 506.854602 -101.599575 
L 506.624898 -101.273068 
L 506.395195 -100.938248 
L 506.165492 -100.595253 
L 505.935789 -100.244226 
L 505.706086 -99.885312 
L 505.476382 -99.518662 
L 505.246679 -99.14443 
L 505.016976 -98.762773 
L 504.787273 -98.373851 
L 504.55757 -97.97783 
L 504.327866 -97.574876 
L 504.098163 -97.16516 
L 503.86846 -96.748856 
L 503.638757 -96.326138 
L 503.409054 -95.897186 
L 503.17935 -95.46218 
L 502.949647 -95.021303 
L 502.719944 -94.574741 
L 502.490241 -94.122678 
L 502.260538 -93.665306 
L 502.030835 -93.202812 
L 501.801131 -92.735389 
L 501.571428 -92.263229 
L 501.341725 -91.786526 
L 501.112022 -91.305475 
L 500.882319 -90.82027 
L 500.652615 -90.331108 
L 500.422912 -89.838184 
L 500.193209 -89.341695 
L 499.963506 -88.841839 
L 499.733803 -88.33881 
L 499.504099 -87.832806 
L 499.274396 -87.324023 
L 499.044693 -86.812655 
L 498.81499 -86.298899 
L 498.585287 -85.782947 
L 498.355583 -85.264993 
L 498.12588 -84.745229 
L 497.896177 -84.223846 
L 497.666474 -83.701034 
L 497.436771 -83.176979 
L 497.207067 -82.65187 
L 496.977364 -82.12589 
L 496.747661 -81.599223 
L 496.517958 -81.072049 
L 496.288255 -80.544548 
L 496.058551 -80.016896 
L 495.828848 -79.489268 
L 495.599145 -78.961835 
L 495.369442 -78.434768 
L 495.139739 -77.908234 
L 494.910035 -77.382397 
L 494.680332 -76.857419 
L 494.450629 -76.333459 
L 494.220926 -75.810672 
L 493.991223 -75.289213 
L 493.761519 -74.76923 
L 493.531816 -74.25087 
L 493.302113 -73.734278 
L 493.07241 -73.219594 
L 492.842707 -72.706955 
L 492.613004 -72.196495 
L 492.3833 -71.688344 
L 492.153597 -71.18263 
L 491.923894 -70.679475 
L 491.694191 -70.179 
L 491.464488 -69.681322 
L 491.234784 -69.186553 
L 491.005081 -68.694804 
L 490.775378 -68.206178 
L 490.545675 -67.72078 
L 490.315972 -67.238707 
L 490.086268 -66.760054 
L 489.856565 -66.284913 
L 489.626862 -65.81337 
L 489.397159 -65.345511 
L 489.167456 -64.881415 
L 488.937752 -64.421159 
L 488.708049 -63.964816 
L 488.478346 -63.512455 
L 488.248643 -63.064143 
L 488.01894 -62.619942 
L 487.789236 -62.17991 
L 487.559533 -61.744103 
L 487.32983 -61.312572 
L 487.100127 -60.885366 
L 486.870424 -60.46253 
L 486.64072 -60.044106 
L 486.411017 -59.63013 
L 486.181314 -59.220639 
L 485.951611 -58.815664 
L 485.721908 -58.415234 
L 485.492204 -58.019373 
L 485.262501 -57.628104 
L 485.032798 -57.241446 
z
"/>
    </defs>
    <g clip-path="url(#p4e99956eee)">
     <use xlink:href="#m7f22927ca0" x="0" y="210.993683" style="fill: #4a5c79; fill-opacity: 0.18"/>
    </g>
   </g>
   <g id="line2d_8">
    <path d="M 485.032798 167.736247 
L 622.625012 167.736247 
" clip-path="url(#p4e99956eee)" style="fill: none; stroke: #c9ccd3; stroke-width: 1.4; stroke-linecap: round"/>
   </g>
   <g id="text_6">
    <!-- $0$ -->
    <g style="fill: #303030" transform="translate(481.352798 188.85912) scale(0.115 -0.115)">
     <use xlink:href="#DejaVuSans-30" transform="translate(0 0.78125)"/>
    </g>
   </g>
   <g id="text_7">
    <!-- $1$ -->
    <g style="fill: #cf6a37" transform="translate(618.945012 188.85912) scale(0.115 -0.115)">
     <defs>
      <path id="DejaVuSans-31" d="M 794 531 
L 1825 531 
L 1825 4091 
L 703 3866 
L 703 4441 
L 1819 4666 
L 2450 4666 
L 2450 531 
L 3481 531 
L 3481 0 
L 794 0 
L 794 531 
z
" transform="scale(0.015625)"/>
     </defs>
     <use xlink:href="#DejaVuSans-31" transform="translate(0 0.09375)"/>
    </g>
   </g>
   <g id="text_8">
    <!-- rescaled time $r$ -->
    <g style="fill: #6b7280" transform="translate(519.441405 204.258683) scale(0.105 -0.105)">
     <defs>
      <path id="SegoeUI-72" d="M 2188 2681 
Q 2053 2784 1800 2784 
Q 1472 2784 1251 2475 
Q 1031 2166 1031 1631 
L 1031 0 
L 519 0 
L 519 3200 
L 1031 3200 
L 1031 2541 
L 1044 2541 
Q 1153 2878 1378 3067 
Q 1603 3256 1881 3256 
Q 2081 3256 2188 3213 
L 2188 2681 
z
" transform="scale(0.015625)"/>
      <path id="SegoeUI-73" d="M 325 116 
L 325 666 
Q 744 356 1247 356 
Q 1922 356 1922 806 
Q 1922 934 1864 1023 
Q 1806 1113 1707 1181 
Q 1609 1250 1476 1304 
Q 1344 1359 1191 1419 
Q 978 1503 817 1589 
Q 656 1675 548 1783 
Q 441 1891 386 2028 
Q 331 2166 331 2350 
Q 331 2575 434 2748 
Q 538 2922 709 3039 
Q 881 3156 1101 3215 
Q 1322 3275 1556 3275 
Q 1972 3275 2300 3131 
L 2300 2613 
Q 1947 2844 1488 2844 
Q 1344 2844 1228 2811 
Q 1113 2778 1030 2718 
Q 947 2659 901 2576 
Q 856 2494 856 2394 
Q 856 2269 901 2184 
Q 947 2100 1034 2034 
Q 1122 1969 1247 1916 
Q 1372 1863 1531 1800 
Q 1744 1719 1912 1633 
Q 2081 1547 2200 1439 
Q 2319 1331 2383 1190 
Q 2447 1050 2447 856 
Q 2447 619 2342 444 
Q 2238 269 2063 153 
Q 1888 38 1659 -18 
Q 1431 -75 1181 -75 
Q 688 -75 325 116 
z
" transform="scale(0.015625)"/>
      <path id="SegoeUI-63" d="M 2700 147 
Q 2331 -75 1825 -75 
Q 1141 -75 720 370 
Q 300 816 300 1525 
Q 300 2316 753 2795 
Q 1206 3275 1963 3275 
Q 2384 3275 2706 3119 
L 2706 2594 
Q 2350 2844 1944 2844 
Q 1453 2844 1139 2492 
Q 825 2141 825 1569 
Q 825 1006 1120 681 
Q 1416 356 1913 356 
Q 2331 356 2700 634 
L 2700 147 
z
" transform="scale(0.015625)"/>
      <path id="SegoeUI-61" d="M 2809 0 
L 2297 0 
L 2297 500 
L 2284 500 
Q 1950 -75 1300 -75 
Q 822 -75 551 178 
Q 281 431 281 850 
Q 281 1747 1338 1894 
L 2297 2028 
Q 2297 2844 1638 2844 
Q 1059 2844 594 2450 
L 594 2975 
Q 1066 3275 1681 3275 
Q 2809 3275 2809 2081 
L 2809 0 
z
M 2297 1619 
L 1525 1513 
Q 1169 1463 987 1336 
Q 806 1209 806 888 
Q 806 653 973 504 
Q 1141 356 1419 356 
Q 1800 356 2048 623 
Q 2297 891 2297 1300 
L 2297 1619 
z
" transform="scale(0.015625)"/>
      <path id="SegoeUI-6c" d="M 1031 0 
L 519 0 
L 519 4738 
L 1031 4738 
L 1031 0 
z
" transform="scale(0.015625)"/>
      <path id="SegoeUI-64" d="M 3250 0 
L 2738 0 
L 2738 544 
L 2725 544 
Q 2369 -75 1625 -75 
Q 1022 -75 661 354 
Q 300 784 300 1525 
Q 300 2319 700 2797 
Q 1100 3275 1766 3275 
Q 2425 3275 2725 2756 
L 2738 2756 
L 2738 4738 
L 3250 4738 
L 3250 0 
z
M 2738 1447 
L 2738 1919 
Q 2738 2306 2481 2575 
Q 2225 2844 1831 2844 
Q 1363 2844 1094 2500 
Q 825 2156 825 1550 
Q 825 997 1083 676 
Q 1341 356 1775 356 
Q 2203 356 2470 665 
Q 2738 975 2738 1447 
z
" transform="scale(0.015625)"/>
     </defs>
     <use xlink:href="#SegoeUI-72" transform="translate(0 0.96875)"/>
     <use xlink:href="#SegoeUI-65" transform="translate(34.765625 0.96875)"/>
     <use xlink:href="#SegoeUI-73" transform="translate(87.060547 0.96875)"/>
     <use xlink:href="#SegoeUI-63" transform="translate(129.492188 0.96875)"/>
     <use xlink:href="#SegoeUI-61" transform="translate(175.683594 0.96875)"/>
     <use xlink:href="#SegoeUI-6c" transform="translate(226.5625 0.96875)"/>
     <use xlink:href="#SegoeUI-65" transform="translate(250.78125 0.96875)"/>
     <use xlink:href="#SegoeUI-64" transform="translate(303.076172 0.96875)"/>
     <use xlink:href="#SegoeUI-20" transform="translate(361.962891 0.96875)"/>
     <use xlink:href="#SegoeUI-74" transform="translate(389.355469 0.96875)"/>
     <use xlink:href="#SegoeUI-69" transform="translate(423.242188 0.96875)"/>
     <use xlink:href="#SegoeUI-6d" transform="translate(447.460938 0.96875)"/>
     <use xlink:href="#SegoeUI-65" transform="translate(533.59375 0.96875)"/>
     <use xlink:href="#SegoeUI-20" transform="translate(585.888672 0.96875)"/>
     <use xlink:href="#DejaVuSans-Oblique-72" transform="translate(613.28125 0.96875)"/>
    </g>
   </g>
   <g id="text_9">
    <!-- $f_t(r)$ -->
    <g style="fill: #3a4a63" transform="translate(501.214202 82.893105) scale(0.13 -0.13)">
     <use xlink:href="#DejaVuSans-Oblique-66" transform="translate(0 0.015625)"/>
     <use xlink:href="#DejaVuSans-Oblique-74" transform="translate(35.205078 -16.390625) scale(0.7)"/>
     <use xlink:href="#DejaVuSans-28" transform="translate(65.385742 0.015625)"/>
     <use xlink:href="#DejaVuSans-Oblique-72" transform="translate(104.399414 0.015625)"/>
     <use xlink:href="#DejaVuSans-29" transform="translate(145.512695 0.015625)"/>
    </g>
   </g>
   <g id="text_10">
    <!-- $r=1$ -->
    <g style="fill: #cf6a37" transform="translate(597.545012 71.748359) scale(0.11 -0.11)">
     <use xlink:href="#DejaVuSans-Oblique-72" transform="translate(0 0.09375)"/>
     <use xlink:href="#DejaVuSans-3d" transform="translate(60.595703 0.09375)"/>
     <use xlink:href="#DejaVuSans-31" transform="translate(163.867188 0.09375)"/>
    </g>
   </g>
   <g id="line2d_9">
    <path d="M 485.032798 153.752237 
L 487.32983 149.681111 
L 489.856565 144.708771 
L 492.842707 138.286728 
L 502.949647 115.97238 
L 505.016976 112.230911 
L 506.624898 109.720616 
L 508.232821 107.616795 
L 509.61104 106.168306 
L 510.989259 105.067092 
L 512.137775 104.422771 
L 513.286291 104.029248 
L 514.434807 103.884339 
L 515.583323 103.981637 
L 516.731839 104.310506 
L 517.880355 104.856143 
L 519.258574 105.770269 
L 520.866497 107.143374 
L 522.704122 109.023718 
L 525.690264 112.455423 
L 528.676405 115.792532 
L 530.514031 117.505023 
L 531.89225 118.502565 
L 533.040766 119.095018 
L 534.189282 119.433907 
L 535.108095 119.501347 
L 536.026907 119.372011 
L 536.94572 119.033087 
L 537.864533 118.473599 
L 538.783346 117.684607 
L 539.931862 116.36564 
L 541.080378 114.670045 
L 542.228894 112.596514 
L 543.607113 109.61772 
L 544.985332 106.126371 
L 546.593254 101.457756 
L 548.43088 95.447014 
L 550.957615 86.323835 
L 557.389305 62.572146 
L 559.22693 56.804312 
L 560.834853 52.493529 
L 562.213072 49.45061 
L 563.361588 47.424265 
L 564.510104 45.889533 
L 565.428916 45.026739 
L 566.347729 44.492114 
L 567.036839 44.30589 
L 567.725948 44.301432 
L 568.415058 44.475175 
L 569.333871 44.975388 
L 570.252684 45.768455 
L 571.171496 46.835558 
L 572.320012 48.520757 
L 573.698232 50.99204 
L 575.306154 54.372068 
L 577.603186 59.81374 
L 583.116063 73.143806 
L 584.953688 76.932834 
L 586.56161 79.776536 
L 587.93983 81.81771 
L 589.318049 83.473253 
L 590.466565 84.555481 
L 591.615081 85.372728 
L 592.763597 85.936272 
L 593.912113 86.262572 
L 595.060629 86.372446 
L 596.438848 86.253067 
L 597.817067 85.904146 
L 599.424989 85.274244 
L 601.722021 84.114347 
L 606.316085 81.716949 
L 608.153711 81.006375 
L 609.761633 80.593707 
L 611.369556 80.413398 
L 612.747775 80.462158 
L 614.125994 80.707912 
L 615.504213 81.153621 
L 617.112135 81.92306 
L 618.720058 82.94977 
L 620.557683 84.413319 
L 622.625012 86.383267 
L 622.625012 86.383267 
" clip-path="url(#p4e99956eee)" style="fill: none; stroke: #3a4a63; stroke-width: 2.5; stroke-linecap: round"/>
   </g>
   <g id="line2d_10">
    <path d="M 622.625012 167.736247 
L 622.625012 86.383267 
" clip-path="url(#p4e99956eee)" style="fill: none; stroke-dasharray: 6.8,5.1; stroke-dashoffset: 0; stroke: #e37c47; stroke-width: 1.7"/>
   </g>
   <g id="line2d_11">
    <path d="M 485.032798 167.736247 
L 485.032798 173.28433 
" style="fill: none; stroke: #6b7280; stroke-width: 1.3; stroke-linecap: round"/>
   </g>
   <g id="line2d_12">
    <path d="M 622.625012 167.736247 
L 622.625012 173.28433 
" style="fill: none; stroke: #6b7280; stroke-width: 1.3; stroke-linecap: round"/>
   </g>
   <g id="line2d_13">
    <g clip-path="url(#p4e99956eee)">
     <use xlink:href="#m054e948fbc" x="622.625012" y="86.383267" style="fill: #e37c47; stroke: #ffffff; stroke-width: 1.4"/>
    </g>
   </g>
  </g>
 </g>
 <defs>
  <clipPath id="pb2821b56e8">
   <rect x="4.32" y="4.32" width="376.142715" height="195.696"/>
  </clipPath>
  <clipPath id="p4e99956eee">
   <rect x="473.33746" y="4.32" width="167.17454" height="195.696"/>
  </clipPath>
 </defs>
</svg>
